G04*
G04 #@! TF.GenerationSoftware,Altium Limited,Altium Designer,24.1.2 (44)*
G04*
G04 Layer_Color=8421504*
%FSLAX25Y25*%
%MOIN*%
G70*
G04*
G04 #@! TF.SameCoordinates,7BB0C798-B388-47C6-955D-DBFAA0C4EE40*
G04*
G04*
G04 #@! TF.FilePolarity,Positive*
G04*
G01*
G75*
G04:AMPARAMS|DCode=18|XSize=48.03mil|YSize=19.68mil|CornerRadius=2.46mil|HoleSize=0mil|Usage=FLASHONLY|Rotation=90.000|XOffset=0mil|YOffset=0mil|HoleType=Round|Shape=RoundedRectangle|*
%AMROUNDEDRECTD18*
21,1,0.04803,0.01476,0,0,90.0*
21,1,0.04311,0.01968,0,0,90.0*
1,1,0.00492,0.00738,0.02156*
1,1,0.00492,0.00738,-0.02156*
1,1,0.00492,-0.00738,-0.02156*
1,1,0.00492,-0.00738,0.02156*
%
%ADD18ROUNDEDRECTD18*%
%ADD19R,0.03425X0.01181*%
D18*
X388440Y753173D02*
D03*
X395921D02*
D03*
Y743370D02*
D03*
X392180D02*
D03*
X388440D02*
D03*
X1153417Y790402D02*
D03*
X1160898D02*
D03*
Y780598D02*
D03*
X1157158D02*
D03*
X1153417D02*
D03*
X1237602Y789902D02*
D03*
X1245083D02*
D03*
Y780098D02*
D03*
X1241343D02*
D03*
X1237602D02*
D03*
X450238Y743586D02*
D03*
X453978D02*
D03*
X457718D02*
D03*
Y753389D02*
D03*
X450238D02*
D03*
D19*
X633130Y637343D02*
D03*
Y639311D02*
D03*
Y641280D02*
D03*
Y643248D02*
D03*
Y645217D02*
D03*
Y647185D02*
D03*
Y631437D02*
D03*
Y653090D02*
D03*
X626319Y647185D02*
D03*
Y645217D02*
D03*
Y643248D02*
D03*
Y641280D02*
D03*
Y639311D02*
D03*
Y637343D02*
D03*
Y653090D02*
D03*
Y631437D02*
D03*
M02*
