G04*
G04 #@! TF.GenerationSoftware,Altium Limited,Altium Designer,24.1.2 (44)*
G04*
G04 Layer_Color=2752767*
%FSLAX25Y25*%
%MOIN*%
G70*
G04*
G04 #@! TF.SameCoordinates,7BB0C798-B388-47C6-955D-DBFAA0C4EE40*
G04*
G04*
G04 #@! TF.FilePolarity,Positive*
G04*
G01*
G75*
%ADD67C,0.00200*%
%ADD68C,0.00267*%
D67*
X1274700Y775913D02*
X1275100Y776713D01*
X1274700Y777513D01*
X1275500Y777113D01*
X1276300Y777513D01*
X1275900Y776713D01*
X1276300Y775913D01*
X1275500Y776313D01*
X1274700Y775913D01*
X1275100Y776313D02*
X1275300Y776713D01*
X1275100Y777113D01*
X1275500Y776913D01*
X1275900Y777113D01*
X1275700Y776713D01*
X1275900Y776313D01*
X1275500Y776513D01*
X1275100Y776313D01*
X1274700Y789692D02*
X1275100Y790492D01*
X1274700Y791292D01*
X1275500Y790892D01*
X1276300Y791292D01*
X1275900Y790492D01*
X1276300Y789692D01*
X1275500Y790092D01*
X1274700Y789692D01*
X1275100Y790092D02*
X1275300Y790492D01*
X1275100Y790892D01*
X1275500Y790692D01*
X1275900Y790892D01*
X1275700Y790492D01*
X1275900Y790092D01*
X1275500Y790292D01*
X1275100Y790092D01*
X1123200Y774858D02*
X1123600Y775658D01*
X1123200Y776458D01*
X1124000Y776057D01*
X1124800Y776458D01*
X1124400Y775658D01*
X1124800Y774858D01*
X1124000Y775257D01*
X1123200Y774858D01*
X1123600Y775257D02*
X1123800Y775658D01*
X1123600Y776057D01*
X1124000Y775857D01*
X1124400Y776057D01*
X1124200Y775658D01*
X1124400Y775257D01*
X1124000Y775457D01*
X1123600Y775257D01*
X1123200Y788637D02*
X1123600Y789437D01*
X1123200Y790237D01*
X1124000Y789837D01*
X1124800Y790237D01*
X1124400Y789437D01*
X1124800Y788637D01*
X1124000Y789037D01*
X1123200Y788637D01*
X1123600Y789037D02*
X1123800Y789437D01*
X1123600Y789837D01*
X1124000Y789637D01*
X1124400Y789837D01*
X1124200Y789437D01*
X1124400Y789037D01*
X1124000Y789237D01*
X1123600Y789037D01*
X422700Y739421D02*
X423100Y740220D01*
X422700Y741020D01*
X423500Y740621D01*
X424300Y741020D01*
X423900Y740220D01*
X424300Y739421D01*
X423500Y739820D01*
X422700Y739421D01*
X423100Y739820D02*
X423300Y740220D01*
X423100Y740621D01*
X423500Y740420D01*
X423900Y740621D01*
X423700Y740220D01*
X423900Y739820D01*
X423500Y740021D01*
X423100Y739820D01*
X422700Y753200D02*
X423100Y754000D01*
X422700Y754800D01*
X423500Y754400D01*
X424300Y754800D01*
X423900Y754000D01*
X424300Y753200D01*
X423500Y753600D01*
X422700Y753200D01*
X423100Y753600D02*
X423300Y754000D01*
X423100Y754400D01*
X423500Y754200D01*
X423900Y754400D01*
X423700Y754000D01*
X423900Y753600D01*
X423500Y753800D01*
X423100Y753600D01*
X360200Y739421D02*
X360600Y740220D01*
X360200Y741020D01*
X361000Y740621D01*
X361800Y741020D01*
X361400Y740220D01*
X361800Y739421D01*
X361000Y739820D01*
X360200Y739421D01*
X360600Y739820D02*
X360800Y740220D01*
X360600Y740621D01*
X361000Y740420D01*
X361400Y740621D01*
X361200Y740220D01*
X361400Y739820D01*
X361000Y740021D01*
X360600Y739820D01*
X360200Y753200D02*
X360600Y754000D01*
X360200Y754800D01*
X361000Y754400D01*
X361800Y754800D01*
X361400Y754000D01*
X361800Y753200D01*
X361000Y753600D01*
X360200Y753200D01*
X360600Y753600D02*
X360800Y754000D01*
X360600Y754400D01*
X361000Y754200D01*
X361400Y754400D01*
X361200Y754000D01*
X361400Y753600D01*
X361000Y753800D01*
X360600Y753600D01*
X300200Y493590D02*
X300600Y494390D01*
X300200Y495190D01*
X301000Y494790D01*
X301800Y495190D01*
X301400Y494390D01*
X301800Y493590D01*
X301000Y493990D01*
X300200Y493590D01*
X300600Y493990D02*
X300800Y494390D01*
X300600Y494790D01*
X301000Y494590D01*
X301400Y494790D01*
X301200Y494390D01*
X301400Y493990D01*
X301000Y494190D01*
X300600Y493990D01*
X300200Y479810D02*
X300600Y480610D01*
X300200Y481410D01*
X301000Y481010D01*
X301800Y481410D01*
X301400Y480610D01*
X301800Y479810D01*
X301000Y480210D01*
X300200Y479810D01*
X300600Y480210D02*
X300800Y480610D01*
X300600Y481010D01*
X301000Y480810D01*
X301400Y481010D01*
X301200Y480610D01*
X301400Y480210D01*
X301000Y480410D01*
X300600Y480210D01*
X924397Y413386D02*
X925197Y414186D01*
X925997Y413386D01*
X925197Y412586D01*
X924397Y413386D01*
X609436D02*
X610236Y414186D01*
X611036Y413386D01*
X610236Y412586D01*
X609436Y413386D01*
X1469700Y822832D02*
X1470100D01*
X1470500Y823232D01*
X1470900Y822832D01*
X1471300D01*
Y823232D01*
X1470900Y823633D01*
X1471300Y824032D01*
Y824432D01*
X1470900D01*
X1470500Y824032D01*
X1470100Y824432D01*
X1469700D01*
Y824032D01*
X1470100Y823633D01*
X1469700Y823232D01*
Y822832D01*
X1459700D02*
X1460100D01*
X1460500Y823232D01*
X1460900Y822832D01*
X1461300D01*
Y823232D01*
X1460900Y823633D01*
X1461300Y824032D01*
Y824432D01*
X1460900D01*
X1460500Y824032D01*
X1460100Y824432D01*
X1459700D01*
Y824032D01*
X1460100Y823633D01*
X1459700Y823232D01*
Y822832D01*
X1449700D02*
X1450100D01*
X1450500Y823232D01*
X1450900Y822832D01*
X1451300D01*
Y823232D01*
X1450900Y823633D01*
X1451300Y824032D01*
Y824432D01*
X1450900D01*
X1450500Y824032D01*
X1450100Y824432D01*
X1449700D01*
Y824032D01*
X1450100Y823633D01*
X1449700Y823232D01*
Y822832D01*
X1439700D02*
X1440100D01*
X1440500Y823232D01*
X1440900Y822832D01*
X1441300D01*
Y823232D01*
X1440900Y823633D01*
X1441300Y824032D01*
Y824432D01*
X1440900D01*
X1440500Y824032D01*
X1440100Y824432D01*
X1439700D01*
Y824032D01*
X1440100Y823633D01*
X1439700Y823232D01*
Y822832D01*
X1429700D02*
X1430100D01*
X1430500Y823232D01*
X1430900Y822832D01*
X1431300D01*
Y823232D01*
X1430900Y823633D01*
X1431300Y824032D01*
Y824432D01*
X1430900D01*
X1430500Y824032D01*
X1430100Y824432D01*
X1429700D01*
Y824032D01*
X1430100Y823633D01*
X1429700Y823232D01*
Y822832D01*
X1419700D02*
X1420100D01*
X1420500Y823232D01*
X1420900Y822832D01*
X1421300D01*
Y823232D01*
X1420900Y823633D01*
X1421300Y824032D01*
Y824432D01*
X1420900D01*
X1420500Y824032D01*
X1420100Y824432D01*
X1419700D01*
Y824032D01*
X1420100Y823633D01*
X1419700Y823232D01*
Y822832D01*
X1409700D02*
X1410100D01*
X1410500Y823232D01*
X1410900Y822832D01*
X1411300D01*
Y823232D01*
X1410900Y823633D01*
X1411300Y824032D01*
Y824432D01*
X1410900D01*
X1410500Y824032D01*
X1410100Y824432D01*
X1409700D01*
Y824032D01*
X1410100Y823633D01*
X1409700Y823232D01*
Y822832D01*
X1399700D02*
X1400100D01*
X1400500Y823232D01*
X1400900Y822832D01*
X1401300D01*
Y823232D01*
X1400900Y823633D01*
X1401300Y824032D01*
Y824432D01*
X1400900D01*
X1400500Y824032D01*
X1400100Y824432D01*
X1399700D01*
Y824032D01*
X1400100Y823633D01*
X1399700Y823232D01*
Y822832D01*
X1389700D02*
X1390100D01*
X1390500Y823232D01*
X1390900Y822832D01*
X1391300D01*
Y823232D01*
X1390900Y823633D01*
X1391300Y824032D01*
Y824432D01*
X1390900D01*
X1390500Y824032D01*
X1390100Y824432D01*
X1389700D01*
Y824032D01*
X1390100Y823633D01*
X1389700Y823232D01*
Y822832D01*
X1379700D02*
X1380100D01*
X1380500Y823232D01*
X1380900Y822832D01*
X1381300D01*
Y823232D01*
X1380900Y823633D01*
X1381300Y824032D01*
Y824432D01*
X1380900D01*
X1380500Y824032D01*
X1380100Y824432D01*
X1379700D01*
Y824032D01*
X1380100Y823633D01*
X1379700Y823232D01*
Y822832D01*
X1369700D02*
X1370100D01*
X1370500Y823232D01*
X1370900Y822832D01*
X1371300D01*
Y823232D01*
X1370900Y823633D01*
X1371300Y824032D01*
Y824432D01*
X1370900D01*
X1370500Y824032D01*
X1370100Y824432D01*
X1369700D01*
Y824032D01*
X1370100Y823633D01*
X1369700Y823232D01*
Y822832D01*
X1359700D02*
X1360100D01*
X1360500Y823232D01*
X1360900Y822832D01*
X1361300D01*
Y823232D01*
X1360900Y823633D01*
X1361300Y824032D01*
Y824432D01*
X1360900D01*
X1360500Y824032D01*
X1360100Y824432D01*
X1359700D01*
Y824032D01*
X1360100Y823633D01*
X1359700Y823232D01*
Y822832D01*
X1349700D02*
X1350100D01*
X1350500Y823232D01*
X1350900Y822832D01*
X1351300D01*
Y823232D01*
X1350900Y823633D01*
X1351300Y824032D01*
Y824432D01*
X1350900D01*
X1350500Y824032D01*
X1350100Y824432D01*
X1349700D01*
Y824032D01*
X1350100Y823633D01*
X1349700Y823232D01*
Y822832D01*
X1339700D02*
X1340100D01*
X1340500Y823232D01*
X1340900Y822832D01*
X1341300D01*
Y823232D01*
X1340900Y823633D01*
X1341300Y824032D01*
Y824432D01*
X1340900D01*
X1340500Y824032D01*
X1340100Y824432D01*
X1339700D01*
Y824032D01*
X1340100Y823633D01*
X1339700Y823232D01*
Y822832D01*
X1329700D02*
X1330100D01*
X1330500Y823232D01*
X1330900Y822832D01*
X1331300D01*
Y823232D01*
X1330900Y823633D01*
X1331300Y824032D01*
Y824432D01*
X1330900D01*
X1330500Y824032D01*
X1330100Y824432D01*
X1329700D01*
Y824032D01*
X1330100Y823633D01*
X1329700Y823232D01*
Y822832D01*
Y732832D02*
X1330100D01*
X1330500Y733232D01*
X1330900Y732832D01*
X1331300D01*
Y733232D01*
X1330900Y733633D01*
X1331300Y734032D01*
Y734433D01*
X1330900D01*
X1330500Y734032D01*
X1330100Y734433D01*
X1329700D01*
Y734032D01*
X1330100Y733633D01*
X1329700Y733232D01*
Y732832D01*
X1339700D02*
X1340100D01*
X1340500Y733232D01*
X1340900Y732832D01*
X1341300D01*
Y733232D01*
X1340900Y733633D01*
X1341300Y734032D01*
Y734433D01*
X1340900D01*
X1340500Y734032D01*
X1340100Y734433D01*
X1339700D01*
Y734032D01*
X1340100Y733633D01*
X1339700Y733232D01*
Y732832D01*
X1349700D02*
X1350100D01*
X1350500Y733232D01*
X1350900Y732832D01*
X1351300D01*
Y733232D01*
X1350900Y733633D01*
X1351300Y734032D01*
Y734433D01*
X1350900D01*
X1350500Y734032D01*
X1350100Y734433D01*
X1349700D01*
Y734032D01*
X1350100Y733633D01*
X1349700Y733232D01*
Y732832D01*
X1359700D02*
X1360100D01*
X1360500Y733232D01*
X1360900Y732832D01*
X1361300D01*
Y733232D01*
X1360900Y733633D01*
X1361300Y734032D01*
Y734433D01*
X1360900D01*
X1360500Y734032D01*
X1360100Y734433D01*
X1359700D01*
Y734032D01*
X1360100Y733633D01*
X1359700Y733232D01*
Y732832D01*
X1369700D02*
X1370100D01*
X1370500Y733232D01*
X1370900Y732832D01*
X1371300D01*
Y733232D01*
X1370900Y733633D01*
X1371300Y734032D01*
Y734433D01*
X1370900D01*
X1370500Y734032D01*
X1370100Y734433D01*
X1369700D01*
Y734032D01*
X1370100Y733633D01*
X1369700Y733232D01*
Y732832D01*
X1379700D02*
X1380100D01*
X1380500Y733232D01*
X1380900Y732832D01*
X1381300D01*
Y733232D01*
X1380900Y733633D01*
X1381300Y734032D01*
Y734433D01*
X1380900D01*
X1380500Y734032D01*
X1380100Y734433D01*
X1379700D01*
Y734032D01*
X1380100Y733633D01*
X1379700Y733232D01*
Y732832D01*
X1389700D02*
X1390100D01*
X1390500Y733232D01*
X1390900Y732832D01*
X1391300D01*
Y733232D01*
X1390900Y733633D01*
X1391300Y734032D01*
Y734433D01*
X1390900D01*
X1390500Y734032D01*
X1390100Y734433D01*
X1389700D01*
Y734032D01*
X1390100Y733633D01*
X1389700Y733232D01*
Y732832D01*
X1399700D02*
X1400100D01*
X1400500Y733232D01*
X1400900Y732832D01*
X1401300D01*
Y733232D01*
X1400900Y733633D01*
X1401300Y734032D01*
Y734433D01*
X1400900D01*
X1400500Y734032D01*
X1400100Y734433D01*
X1399700D01*
Y734032D01*
X1400100Y733633D01*
X1399700Y733232D01*
Y732832D01*
X1409700D02*
X1410100D01*
X1410500Y733232D01*
X1410900Y732832D01*
X1411300D01*
Y733232D01*
X1410900Y733633D01*
X1411300Y734032D01*
Y734433D01*
X1410900D01*
X1410500Y734032D01*
X1410100Y734433D01*
X1409700D01*
Y734032D01*
X1410100Y733633D01*
X1409700Y733232D01*
Y732832D01*
X1419700D02*
X1420100D01*
X1420500Y733232D01*
X1420900Y732832D01*
X1421300D01*
Y733232D01*
X1420900Y733633D01*
X1421300Y734032D01*
Y734433D01*
X1420900D01*
X1420500Y734032D01*
X1420100Y734433D01*
X1419700D01*
Y734032D01*
X1420100Y733633D01*
X1419700Y733232D01*
Y732832D01*
X1429700D02*
X1430100D01*
X1430500Y733232D01*
X1430900Y732832D01*
X1431300D01*
Y733232D01*
X1430900Y733633D01*
X1431300Y734032D01*
Y734433D01*
X1430900D01*
X1430500Y734032D01*
X1430100Y734433D01*
X1429700D01*
Y734032D01*
X1430100Y733633D01*
X1429700Y733232D01*
Y732832D01*
X1439700D02*
X1440100D01*
X1440500Y733232D01*
X1440900Y732832D01*
X1441300D01*
Y733232D01*
X1440900Y733633D01*
X1441300Y734032D01*
Y734433D01*
X1440900D01*
X1440500Y734032D01*
X1440100Y734433D01*
X1439700D01*
Y734032D01*
X1440100Y733633D01*
X1439700Y733232D01*
Y732832D01*
X1449700D02*
X1450100D01*
X1450500Y733232D01*
X1450900Y732832D01*
X1451300D01*
Y733232D01*
X1450900Y733633D01*
X1451300Y734032D01*
Y734433D01*
X1450900D01*
X1450500Y734032D01*
X1450100Y734433D01*
X1449700D01*
Y734032D01*
X1450100Y733633D01*
X1449700Y733232D01*
Y732832D01*
X1459700D02*
X1460100D01*
X1460500Y733232D01*
X1460900Y732832D01*
X1461300D01*
Y733232D01*
X1460900Y733633D01*
X1461300Y734032D01*
Y734433D01*
X1460900D01*
X1460500Y734032D01*
X1460100Y734433D01*
X1459700D01*
Y734032D01*
X1460100Y733633D01*
X1459700Y733232D01*
Y732832D01*
X1469700D02*
X1470100D01*
X1470500Y733232D01*
X1470900Y732832D01*
X1471300D01*
Y733232D01*
X1470900Y733633D01*
X1471300Y734032D01*
Y734433D01*
X1470900D01*
X1470500Y734032D01*
X1470100Y734433D01*
X1469700D01*
Y734032D01*
X1470100Y733633D01*
X1469700Y733232D01*
Y732832D01*
X1416523Y846457D02*
X1417323Y847257D01*
X1418123Y846457D01*
X1417323Y845657D01*
X1416523Y846457D01*
X1362074Y854830D02*
X1362474D01*
X1362874Y855230D01*
X1363274Y854830D01*
X1363674D01*
Y855230D01*
X1363274Y855630D01*
X1363674Y856030D01*
Y856430D01*
X1363274D01*
X1362874Y856030D01*
X1362474Y856430D01*
X1362074D01*
Y856030D01*
X1362474Y855630D01*
X1362074Y855230D01*
Y854830D01*
X1362474Y855230D02*
X1362674D01*
X1362874Y855430D01*
X1363074Y855230D01*
X1363274D01*
Y855430D01*
X1363074Y855630D01*
X1363274Y855830D01*
Y856030D01*
X1363074D01*
X1362874Y855830D01*
X1362674Y856030D01*
X1362474D01*
Y855830D01*
X1362674Y855630D01*
X1362474Y855430D01*
Y855230D01*
X1354200Y854830D02*
X1354600D01*
X1355000Y855230D01*
X1355400Y854830D01*
X1355800D01*
Y855230D01*
X1355400Y855630D01*
X1355800Y856030D01*
Y856430D01*
X1355400D01*
X1355000Y856030D01*
X1354600Y856430D01*
X1354200D01*
Y856030D01*
X1354600Y855630D01*
X1354200Y855230D01*
Y854830D01*
X1354600Y855230D02*
X1354800D01*
X1355000Y855430D01*
X1355200Y855230D01*
X1355400D01*
Y855430D01*
X1355200Y855630D01*
X1355400Y855830D01*
Y856030D01*
X1355200D01*
X1355000Y855830D01*
X1354800Y856030D01*
X1354600D01*
Y855830D01*
X1354800Y855630D01*
X1354600Y855430D01*
Y855230D01*
X1332522Y853759D02*
X1332922D01*
X1333322Y854159D01*
X1333722Y853759D01*
X1334122D01*
Y854159D01*
X1333722Y854559D01*
X1334122Y854959D01*
Y855359D01*
X1333722D01*
X1333322Y854959D01*
X1332922Y855359D01*
X1332522D01*
Y854959D01*
X1332922Y854559D01*
X1332522Y854159D01*
Y853759D01*
X1332922Y854159D02*
X1333122D01*
X1333322Y854359D01*
X1333522Y854159D01*
X1333722D01*
Y854359D01*
X1333522Y854559D01*
X1333722Y854759D01*
Y854959D01*
X1333522D01*
X1333322Y854759D01*
X1333122Y854959D01*
X1332922D01*
Y854759D01*
X1333122Y854559D01*
X1332922Y854359D01*
Y854159D01*
X1324648Y853759D02*
X1325048D01*
X1325448Y854159D01*
X1325848Y853759D01*
X1326248D01*
Y854159D01*
X1325848Y854559D01*
X1326248Y854959D01*
Y855359D01*
X1325848D01*
X1325448Y854959D01*
X1325048Y855359D01*
X1324648D01*
Y854959D01*
X1325048Y854559D01*
X1324648Y854159D01*
Y853759D01*
X1325048Y854159D02*
X1325248D01*
X1325448Y854359D01*
X1325648Y854159D01*
X1325848D01*
Y854359D01*
X1325648Y854559D01*
X1325848Y854759D01*
Y854959D01*
X1325648D01*
X1325448Y854759D01*
X1325248Y854959D01*
X1325048D01*
Y854759D01*
X1325248Y854559D01*
X1325048Y854359D01*
Y854159D01*
X1416523Y511811D02*
X1417323Y512611D01*
X1418123Y511811D01*
X1417323Y511011D01*
X1416523Y511811D01*
Y98425D02*
X1417323Y99225D01*
X1418123Y98425D01*
X1417323Y97625D01*
X1416523Y98425D01*
X117310Y846457D02*
X118110Y847257D01*
X118910Y846457D01*
X118110Y845657D01*
X117310Y846457D01*
Y511811D02*
X118110Y512611D01*
X118910Y511811D01*
X118110Y511011D01*
X117310Y511811D01*
Y98425D02*
X118110Y99225D01*
X118910Y98425D01*
X118110Y97625D01*
X117310Y98425D01*
X1241343Y692200D02*
X1240543Y693800D01*
X1242142D01*
X1241343Y692200D01*
Y752200D02*
X1240543Y753800D01*
X1242142D01*
X1241343Y752200D01*
X486700Y887200D02*
Y888800D01*
X488300D01*
Y887200D01*
X486700D01*
X476858D02*
Y888800D01*
X478457D01*
Y887200D01*
X476858D01*
X467015D02*
Y888800D01*
X468615D01*
Y887200D01*
X467015D01*
X457172D02*
Y888800D01*
X458772D01*
Y887200D01*
X457172D01*
X1077500Y368792D02*
X1076700Y370392D01*
X1078300D01*
X1077500Y368792D01*
Y428792D02*
X1076700Y430392D01*
X1078300D01*
X1077500Y428792D01*
X631057Y629166D02*
X630724Y629499D01*
X630058D01*
X629724Y629166D01*
Y627833D01*
X630058Y627500D01*
X630724D01*
X631057Y627833D01*
X629724Y659027D02*
Y657028D01*
X630724D01*
X631057Y657361D01*
Y658694D01*
X630724Y659027D01*
X629724D01*
X639522Y653712D02*
X638189D01*
Y651713D01*
X639522D01*
X638189Y652712D02*
X638855D01*
X639522Y634814D02*
X638189D01*
Y632815D01*
X639522D01*
X638189Y633815D02*
X638855D01*
X622593Y653712D02*
X621260D01*
Y651713D01*
X622593D01*
X621260Y652712D02*
X621926D01*
X622593Y634814D02*
X621260D01*
Y632815D01*
X622593D01*
X621260Y633815D02*
X621926D01*
X1223600Y343368D02*
Y342968D01*
X1224400D01*
Y343368D01*
X1224800D01*
Y344168D01*
X1224400D01*
Y344568D01*
X1223600D01*
Y344168D01*
X1223200D01*
Y343368D01*
X1223600D01*
Y353368D02*
Y352968D01*
X1224400D01*
Y353368D01*
X1224800D01*
Y354168D01*
X1224400D01*
Y354568D01*
X1223600D01*
Y354168D01*
X1223200D01*
Y353368D01*
X1223600D01*
Y323368D02*
Y322968D01*
X1224400D01*
Y323368D01*
X1224800D01*
Y324168D01*
X1224400D01*
Y324568D01*
X1223600D01*
Y324168D01*
X1223200D01*
Y323368D01*
X1223600D01*
Y333368D02*
Y332968D01*
X1224400D01*
Y333368D01*
X1224800D01*
Y334168D01*
X1224400D01*
Y334568D01*
X1223600D01*
Y334168D01*
X1223200D01*
Y333368D01*
X1223600D01*
Y303368D02*
Y302968D01*
X1224400D01*
Y303368D01*
X1224800D01*
Y304168D01*
X1224400D01*
Y304568D01*
X1223600D01*
Y304168D01*
X1223200D01*
Y303368D01*
X1223600D01*
Y313368D02*
Y312968D01*
X1224400D01*
Y313368D01*
X1224800D01*
Y314168D01*
X1224400D01*
Y314568D01*
X1223600D01*
Y314168D01*
X1223200D01*
Y313368D01*
X1223600D01*
Y283368D02*
Y282968D01*
X1224400D01*
Y283368D01*
X1224800D01*
Y284168D01*
X1224400D01*
Y284568D01*
X1223600D01*
Y284168D01*
X1223200D01*
Y283368D01*
X1223600D01*
Y293368D02*
Y292968D01*
X1224400D01*
Y293368D01*
X1224800D01*
Y294168D01*
X1224400D01*
Y294568D01*
X1223600D01*
Y294168D01*
X1223200D01*
Y293368D01*
X1223600D01*
X974500Y369200D02*
X973700Y370800D01*
X975300D01*
X974500Y369200D01*
Y429200D02*
X973700Y430800D01*
X975300D01*
X974500Y429200D01*
X1194000Y136432D02*
X1193200Y138032D01*
X1194800D01*
X1194000Y136432D01*
X1134000D02*
X1133200Y138032D01*
X1134800D01*
X1134000Y136432D01*
Y93125D02*
X1133200Y94725D01*
X1134800D01*
X1134000Y93125D01*
X1194000D02*
X1193200Y94725D01*
X1194800D01*
X1194000Y93125D01*
X1134000Y266354D02*
X1133200Y267953D01*
X1134800D01*
X1134000Y266354D01*
X1194000D02*
X1193200Y267953D01*
X1194800D01*
X1194000Y266354D01*
X1134000Y179739D02*
X1133200Y181339D01*
X1134800D01*
X1134000Y179739D01*
X1194000D02*
X1193200Y181339D01*
X1194800D01*
X1194000Y179739D01*
X1134000Y309661D02*
X1133200Y311261D01*
X1134800D01*
X1134000Y309661D01*
X1194000D02*
X1193200Y311261D01*
X1194800D01*
X1194000Y309661D01*
X1134000Y223046D02*
X1133200Y224646D01*
X1134800D01*
X1134000Y223046D01*
X1194000D02*
X1193200Y224646D01*
X1194800D01*
X1194000Y223046D01*
Y352968D02*
X1193200Y354568D01*
X1194800D01*
X1194000Y352968D01*
X1134000D02*
X1133200Y354568D01*
X1134800D01*
X1134000Y352968D01*
Y50700D02*
X1133200Y52300D01*
X1134800D01*
X1134000Y50700D01*
X1194000D02*
X1193200Y52300D01*
X1194800D01*
X1194000Y50700D01*
X1410173Y230700D02*
X1410573D01*
X1410973Y231100D01*
X1411373Y230700D01*
X1411773D01*
Y231100D01*
X1411373Y231500D01*
X1411773Y231900D01*
Y232300D01*
X1411373D01*
X1410973Y231900D01*
X1410573Y232300D01*
X1410173D01*
Y231900D01*
X1410573Y231500D01*
X1410173Y231100D01*
Y230700D01*
X1400173D02*
X1400573D01*
X1400973Y231100D01*
X1401373Y230700D01*
X1401773D01*
Y231100D01*
X1401373Y231500D01*
X1401773Y231900D01*
Y232300D01*
X1401373D01*
X1400973Y231900D01*
X1400573Y232300D01*
X1400173D01*
Y231900D01*
X1400573Y231500D01*
X1400173Y231100D01*
Y230700D01*
X1390173D02*
X1390573D01*
X1390973Y231100D01*
X1391373Y230700D01*
X1391773D01*
Y231100D01*
X1391373Y231500D01*
X1391773Y231900D01*
Y232300D01*
X1391373D01*
X1390973Y231900D01*
X1390573Y232300D01*
X1390173D01*
Y231900D01*
X1390573Y231500D01*
X1390173Y231100D01*
Y230700D01*
X1380173D02*
X1380573D01*
X1380973Y231100D01*
X1381373Y230700D01*
X1381773D01*
Y231100D01*
X1381373Y231500D01*
X1381773Y231900D01*
Y232300D01*
X1381373D01*
X1380973Y231900D01*
X1380573Y232300D01*
X1380173D01*
Y231900D01*
X1380573Y231500D01*
X1380173Y231100D01*
Y230700D01*
X1370173D02*
X1370573D01*
X1370973Y231100D01*
X1371373Y230700D01*
X1371773D01*
Y231100D01*
X1371373Y231500D01*
X1371773Y231900D01*
Y232300D01*
X1371373D01*
X1370973Y231900D01*
X1370573Y232300D01*
X1370173D01*
Y231900D01*
X1370573Y231500D01*
X1370173Y231100D01*
Y230700D01*
X1360173D02*
X1360573D01*
X1360973Y231100D01*
X1361373Y230700D01*
X1361773D01*
Y231100D01*
X1361373Y231500D01*
X1361773Y231900D01*
Y232300D01*
X1361373D01*
X1360973Y231900D01*
X1360573Y232300D01*
X1360173D01*
Y231900D01*
X1360573Y231500D01*
X1360173Y231100D01*
Y230700D01*
X1350173D02*
X1350573D01*
X1350973Y231100D01*
X1351373Y230700D01*
X1351773D01*
Y231100D01*
X1351373Y231500D01*
X1351773Y231900D01*
Y232300D01*
X1351373D01*
X1350973Y231900D01*
X1350573Y232300D01*
X1350173D01*
Y231900D01*
X1350573Y231500D01*
X1350173Y231100D01*
Y230700D01*
X1340173D02*
X1340573D01*
X1340973Y231100D01*
X1341373Y230700D01*
X1341773D01*
Y231100D01*
X1341373Y231500D01*
X1341773Y231900D01*
Y232300D01*
X1341373D01*
X1340973Y231900D01*
X1340573Y232300D01*
X1340173D01*
Y231900D01*
X1340573Y231500D01*
X1340173Y231100D01*
Y230700D01*
X1330173D02*
X1330573D01*
X1330973Y231100D01*
X1331373Y230700D01*
X1331773D01*
Y231100D01*
X1331373Y231500D01*
X1331773Y231900D01*
Y232300D01*
X1331373D01*
X1330973Y231900D01*
X1330573Y232300D01*
X1330173D01*
Y231900D01*
X1330573Y231500D01*
X1330173Y231100D01*
Y230700D01*
X1320173D02*
X1320573D01*
X1320973Y231100D01*
X1321373Y230700D01*
X1321773D01*
Y231100D01*
X1321373Y231500D01*
X1321773Y231900D01*
Y232300D01*
X1321373D01*
X1320973Y231900D01*
X1320573Y232300D01*
X1320173D01*
Y231900D01*
X1320573Y231500D01*
X1320173Y231100D01*
Y230700D01*
X1310173D02*
X1310573D01*
X1310973Y231100D01*
X1311373Y230700D01*
X1311773D01*
Y231100D01*
X1311373Y231500D01*
X1311773Y231900D01*
Y232300D01*
X1311373D01*
X1310973Y231900D01*
X1310573Y232300D01*
X1310173D01*
Y231900D01*
X1310573Y231500D01*
X1310173Y231100D01*
Y230700D01*
X1300173D02*
X1300573D01*
X1300973Y231100D01*
X1301373Y230700D01*
X1301773D01*
Y231100D01*
X1301373Y231500D01*
X1301773Y231900D01*
Y232300D01*
X1301373D01*
X1300973Y231900D01*
X1300573Y232300D01*
X1300173D01*
Y231900D01*
X1300573Y231500D01*
X1300173Y231100D01*
Y230700D01*
X1290173D02*
X1290573D01*
X1290973Y231100D01*
X1291373Y230700D01*
X1291773D01*
Y231100D01*
X1291373Y231500D01*
X1291773Y231900D01*
Y232300D01*
X1291373D01*
X1290973Y231900D01*
X1290573Y232300D01*
X1290173D01*
Y231900D01*
X1290573Y231500D01*
X1290173Y231100D01*
Y230700D01*
X1280173D02*
X1280573D01*
X1280973Y231100D01*
X1281373Y230700D01*
X1281773D01*
Y231100D01*
X1281373Y231500D01*
X1281773Y231900D01*
Y232300D01*
X1281373D01*
X1280973Y231900D01*
X1280573Y232300D01*
X1280173D01*
Y231900D01*
X1280573Y231500D01*
X1280173Y231100D01*
Y230700D01*
X1270173D02*
X1270573D01*
X1270973Y231100D01*
X1271373Y230700D01*
X1271773D01*
Y231100D01*
X1271373Y231500D01*
X1271773Y231900D01*
Y232300D01*
X1271373D01*
X1270973Y231900D01*
X1270573Y232300D01*
X1270173D01*
Y231900D01*
X1270573Y231500D01*
X1270173Y231100D01*
Y230700D01*
Y140700D02*
X1270573D01*
X1270973Y141100D01*
X1271373Y140700D01*
X1271773D01*
Y141100D01*
X1271373Y141500D01*
X1271773Y141900D01*
Y142300D01*
X1271373D01*
X1270973Y141900D01*
X1270573Y142300D01*
X1270173D01*
Y141900D01*
X1270573Y141500D01*
X1270173Y141100D01*
Y140700D01*
X1280173D02*
X1280573D01*
X1280973Y141100D01*
X1281373Y140700D01*
X1281773D01*
Y141100D01*
X1281373Y141500D01*
X1281773Y141900D01*
Y142300D01*
X1281373D01*
X1280973Y141900D01*
X1280573Y142300D01*
X1280173D01*
Y141900D01*
X1280573Y141500D01*
X1280173Y141100D01*
Y140700D01*
X1290173D02*
X1290573D01*
X1290973Y141100D01*
X1291373Y140700D01*
X1291773D01*
Y141100D01*
X1291373Y141500D01*
X1291773Y141900D01*
Y142300D01*
X1291373D01*
X1290973Y141900D01*
X1290573Y142300D01*
X1290173D01*
Y141900D01*
X1290573Y141500D01*
X1290173Y141100D01*
Y140700D01*
X1300173D02*
X1300573D01*
X1300973Y141100D01*
X1301373Y140700D01*
X1301773D01*
Y141100D01*
X1301373Y141500D01*
X1301773Y141900D01*
Y142300D01*
X1301373D01*
X1300973Y141900D01*
X1300573Y142300D01*
X1300173D01*
Y141900D01*
X1300573Y141500D01*
X1300173Y141100D01*
Y140700D01*
X1310173D02*
X1310573D01*
X1310973Y141100D01*
X1311373Y140700D01*
X1311773D01*
Y141100D01*
X1311373Y141500D01*
X1311773Y141900D01*
Y142300D01*
X1311373D01*
X1310973Y141900D01*
X1310573Y142300D01*
X1310173D01*
Y141900D01*
X1310573Y141500D01*
X1310173Y141100D01*
Y140700D01*
X1320173D02*
X1320573D01*
X1320973Y141100D01*
X1321373Y140700D01*
X1321773D01*
Y141100D01*
X1321373Y141500D01*
X1321773Y141900D01*
Y142300D01*
X1321373D01*
X1320973Y141900D01*
X1320573Y142300D01*
X1320173D01*
Y141900D01*
X1320573Y141500D01*
X1320173Y141100D01*
Y140700D01*
X1330173D02*
X1330573D01*
X1330973Y141100D01*
X1331373Y140700D01*
X1331773D01*
Y141100D01*
X1331373Y141500D01*
X1331773Y141900D01*
Y142300D01*
X1331373D01*
X1330973Y141900D01*
X1330573Y142300D01*
X1330173D01*
Y141900D01*
X1330573Y141500D01*
X1330173Y141100D01*
Y140700D01*
X1340173D02*
X1340573D01*
X1340973Y141100D01*
X1341373Y140700D01*
X1341773D01*
Y141100D01*
X1341373Y141500D01*
X1341773Y141900D01*
Y142300D01*
X1341373D01*
X1340973Y141900D01*
X1340573Y142300D01*
X1340173D01*
Y141900D01*
X1340573Y141500D01*
X1340173Y141100D01*
Y140700D01*
X1350173D02*
X1350573D01*
X1350973Y141100D01*
X1351373Y140700D01*
X1351773D01*
Y141100D01*
X1351373Y141500D01*
X1351773Y141900D01*
Y142300D01*
X1351373D01*
X1350973Y141900D01*
X1350573Y142300D01*
X1350173D01*
Y141900D01*
X1350573Y141500D01*
X1350173Y141100D01*
Y140700D01*
X1360173D02*
X1360573D01*
X1360973Y141100D01*
X1361373Y140700D01*
X1361773D01*
Y141100D01*
X1361373Y141500D01*
X1361773Y141900D01*
Y142300D01*
X1361373D01*
X1360973Y141900D01*
X1360573Y142300D01*
X1360173D01*
Y141900D01*
X1360573Y141500D01*
X1360173Y141100D01*
Y140700D01*
X1370173D02*
X1370573D01*
X1370973Y141100D01*
X1371373Y140700D01*
X1371773D01*
Y141100D01*
X1371373Y141500D01*
X1371773Y141900D01*
Y142300D01*
X1371373D01*
X1370973Y141900D01*
X1370573Y142300D01*
X1370173D01*
Y141900D01*
X1370573Y141500D01*
X1370173Y141100D01*
Y140700D01*
X1380173D02*
X1380573D01*
X1380973Y141100D01*
X1381373Y140700D01*
X1381773D01*
Y141100D01*
X1381373Y141500D01*
X1381773Y141900D01*
Y142300D01*
X1381373D01*
X1380973Y141900D01*
X1380573Y142300D01*
X1380173D01*
Y141900D01*
X1380573Y141500D01*
X1380173Y141100D01*
Y140700D01*
X1390173D02*
X1390573D01*
X1390973Y141100D01*
X1391373Y140700D01*
X1391773D01*
Y141100D01*
X1391373Y141500D01*
X1391773Y141900D01*
Y142300D01*
X1391373D01*
X1390973Y141900D01*
X1390573Y142300D01*
X1390173D01*
Y141900D01*
X1390573Y141500D01*
X1390173Y141100D01*
Y140700D01*
X1400173D02*
X1400573D01*
X1400973Y141100D01*
X1401373Y140700D01*
X1401773D01*
Y141100D01*
X1401373Y141500D01*
X1401773Y141900D01*
Y142300D01*
X1401373D01*
X1400973Y141900D01*
X1400573Y142300D01*
X1400173D01*
Y141900D01*
X1400573Y141500D01*
X1400173Y141100D01*
Y140700D01*
X1410173D02*
X1410573D01*
X1410973Y141100D01*
X1411373Y140700D01*
X1411773D01*
Y141100D01*
X1411373Y141500D01*
X1411773Y141900D01*
Y142300D01*
X1411373D01*
X1410973Y141900D01*
X1410573Y142300D01*
X1410173D01*
Y141900D01*
X1410573Y141500D01*
X1410173Y141100D01*
Y140700D01*
X75000Y817700D02*
X75400Y818100D01*
X75800D01*
X75400Y818500D01*
X75800Y818900D01*
X75400D01*
X75000Y819300D01*
X74600Y818900D01*
X74200D01*
X74600Y818500D01*
X74200Y818100D01*
X74600D01*
X75000Y817700D01*
X84842D02*
X85242Y818100D01*
X85642D01*
X85242Y818500D01*
X85642Y818900D01*
X85242D01*
X84842Y819300D01*
X84443Y818900D01*
X84043D01*
X84443Y818500D01*
X84043Y818100D01*
X84443D01*
X84842Y817700D01*
X123227Y450700D02*
X123627D01*
X124027Y451100D01*
X124427Y450700D01*
X124827D01*
Y451100D01*
X124427Y451500D01*
X124827Y451900D01*
Y452300D01*
X124427D01*
X124027Y451900D01*
X123627Y452300D01*
X123227D01*
Y451900D01*
X123627Y451500D01*
X123227Y451100D01*
Y450700D01*
X133227D02*
X133627D01*
X134027Y451100D01*
X134427Y450700D01*
X134827D01*
Y451100D01*
X134427Y451500D01*
X134827Y451900D01*
Y452300D01*
X134427D01*
X134027Y451900D01*
X133627Y452300D01*
X133227D01*
Y451900D01*
X133627Y451500D01*
X133227Y451100D01*
Y450700D01*
X143227D02*
X143627D01*
X144027Y451100D01*
X144427Y450700D01*
X144827D01*
Y451100D01*
X144427Y451500D01*
X144827Y451900D01*
Y452300D01*
X144427D01*
X144027Y451900D01*
X143627Y452300D01*
X143227D01*
Y451900D01*
X143627Y451500D01*
X143227Y451100D01*
Y450700D01*
X153227D02*
X153627D01*
X154027Y451100D01*
X154427Y450700D01*
X154827D01*
Y451100D01*
X154427Y451500D01*
X154827Y451900D01*
Y452300D01*
X154427D01*
X154027Y451900D01*
X153627Y452300D01*
X153227D01*
Y451900D01*
X153627Y451500D01*
X153227Y451100D01*
Y450700D01*
X163227D02*
X163627D01*
X164027Y451100D01*
X164427Y450700D01*
X164827D01*
Y451100D01*
X164427Y451500D01*
X164827Y451900D01*
Y452300D01*
X164427D01*
X164027Y451900D01*
X163627Y452300D01*
X163227D01*
Y451900D01*
X163627Y451500D01*
X163227Y451100D01*
Y450700D01*
X173227D02*
X173627D01*
X174027Y451100D01*
X174427Y450700D01*
X174827D01*
Y451100D01*
X174427Y451500D01*
X174827Y451900D01*
Y452300D01*
X174427D01*
X174027Y451900D01*
X173627Y452300D01*
X173227D01*
Y451900D01*
X173627Y451500D01*
X173227Y451100D01*
Y450700D01*
X183227D02*
X183627D01*
X184027Y451100D01*
X184427Y450700D01*
X184827D01*
Y451100D01*
X184427Y451500D01*
X184827Y451900D01*
Y452300D01*
X184427D01*
X184027Y451900D01*
X183627Y452300D01*
X183227D01*
Y451900D01*
X183627Y451500D01*
X183227Y451100D01*
Y450700D01*
X193227D02*
X193627D01*
X194027Y451100D01*
X194427Y450700D01*
X194827D01*
Y451100D01*
X194427Y451500D01*
X194827Y451900D01*
Y452300D01*
X194427D01*
X194027Y451900D01*
X193627Y452300D01*
X193227D01*
Y451900D01*
X193627Y451500D01*
X193227Y451100D01*
Y450700D01*
X203227D02*
X203627D01*
X204027Y451100D01*
X204427Y450700D01*
X204827D01*
Y451100D01*
X204427Y451500D01*
X204827Y451900D01*
Y452300D01*
X204427D01*
X204027Y451900D01*
X203627Y452300D01*
X203227D01*
Y451900D01*
X203627Y451500D01*
X203227Y451100D01*
Y450700D01*
X213227D02*
X213627D01*
X214027Y451100D01*
X214427Y450700D01*
X214827D01*
Y451100D01*
X214427Y451500D01*
X214827Y451900D01*
Y452300D01*
X214427D01*
X214027Y451900D01*
X213627Y452300D01*
X213227D01*
Y451900D01*
X213627Y451500D01*
X213227Y451100D01*
Y450700D01*
X223227D02*
X223627D01*
X224027Y451100D01*
X224427Y450700D01*
X224827D01*
Y451100D01*
X224427Y451500D01*
X224827Y451900D01*
Y452300D01*
X224427D01*
X224027Y451900D01*
X223627Y452300D01*
X223227D01*
Y451900D01*
X223627Y451500D01*
X223227Y451100D01*
Y450700D01*
X233227D02*
X233627D01*
X234027Y451100D01*
X234427Y450700D01*
X234827D01*
Y451100D01*
X234427Y451500D01*
X234827Y451900D01*
Y452300D01*
X234427D01*
X234027Y451900D01*
X233627Y452300D01*
X233227D01*
Y451900D01*
X233627Y451500D01*
X233227Y451100D01*
Y450700D01*
X243227D02*
X243627D01*
X244027Y451100D01*
X244427Y450700D01*
X244827D01*
Y451100D01*
X244427Y451500D01*
X244827Y451900D01*
Y452300D01*
X244427D01*
X244027Y451900D01*
X243627Y452300D01*
X243227D01*
Y451900D01*
X243627Y451500D01*
X243227Y451100D01*
Y450700D01*
X253227D02*
X253627D01*
X254027Y451100D01*
X254427Y450700D01*
X254827D01*
Y451100D01*
X254427Y451500D01*
X254827Y451900D01*
Y452300D01*
X254427D01*
X254027Y451900D01*
X253627Y452300D01*
X253227D01*
Y451900D01*
X253627Y451500D01*
X253227Y451100D01*
Y450700D01*
X263227D02*
X263627D01*
X264027Y451100D01*
X264427Y450700D01*
X264827D01*
Y451100D01*
X264427Y451500D01*
X264827Y451900D01*
Y452300D01*
X264427D01*
X264027Y451900D01*
X263627Y452300D01*
X263227D01*
Y451900D01*
X263627Y451500D01*
X263227Y451100D01*
Y450700D01*
Y360700D02*
X263627D01*
X264027Y361100D01*
X264427Y360700D01*
X264827D01*
Y361100D01*
X264427Y361500D01*
X264827Y361900D01*
Y362300D01*
X264427D01*
X264027Y361900D01*
X263627Y362300D01*
X263227D01*
Y361900D01*
X263627Y361500D01*
X263227Y361100D01*
Y360700D01*
X253227D02*
X253627D01*
X254027Y361100D01*
X254427Y360700D01*
X254827D01*
Y361100D01*
X254427Y361500D01*
X254827Y361900D01*
Y362300D01*
X254427D01*
X254027Y361900D01*
X253627Y362300D01*
X253227D01*
Y361900D01*
X253627Y361500D01*
X253227Y361100D01*
Y360700D01*
X243227D02*
X243627D01*
X244027Y361100D01*
X244427Y360700D01*
X244827D01*
Y361100D01*
X244427Y361500D01*
X244827Y361900D01*
Y362300D01*
X244427D01*
X244027Y361900D01*
X243627Y362300D01*
X243227D01*
Y361900D01*
X243627Y361500D01*
X243227Y361100D01*
Y360700D01*
X233227D02*
X233627D01*
X234027Y361100D01*
X234427Y360700D01*
X234827D01*
Y361100D01*
X234427Y361500D01*
X234827Y361900D01*
Y362300D01*
X234427D01*
X234027Y361900D01*
X233627Y362300D01*
X233227D01*
Y361900D01*
X233627Y361500D01*
X233227Y361100D01*
Y360700D01*
X223227D02*
X223627D01*
X224027Y361100D01*
X224427Y360700D01*
X224827D01*
Y361100D01*
X224427Y361500D01*
X224827Y361900D01*
Y362300D01*
X224427D01*
X224027Y361900D01*
X223627Y362300D01*
X223227D01*
Y361900D01*
X223627Y361500D01*
X223227Y361100D01*
Y360700D01*
X213227D02*
X213627D01*
X214027Y361100D01*
X214427Y360700D01*
X214827D01*
Y361100D01*
X214427Y361500D01*
X214827Y361900D01*
Y362300D01*
X214427D01*
X214027Y361900D01*
X213627Y362300D01*
X213227D01*
Y361900D01*
X213627Y361500D01*
X213227Y361100D01*
Y360700D01*
X203227D02*
X203627D01*
X204027Y361100D01*
X204427Y360700D01*
X204827D01*
Y361100D01*
X204427Y361500D01*
X204827Y361900D01*
Y362300D01*
X204427D01*
X204027Y361900D01*
X203627Y362300D01*
X203227D01*
Y361900D01*
X203627Y361500D01*
X203227Y361100D01*
Y360700D01*
X193227D02*
X193627D01*
X194027Y361100D01*
X194427Y360700D01*
X194827D01*
Y361100D01*
X194427Y361500D01*
X194827Y361900D01*
Y362300D01*
X194427D01*
X194027Y361900D01*
X193627Y362300D01*
X193227D01*
Y361900D01*
X193627Y361500D01*
X193227Y361100D01*
Y360700D01*
X183227D02*
X183627D01*
X184027Y361100D01*
X184427Y360700D01*
X184827D01*
Y361100D01*
X184427Y361500D01*
X184827Y361900D01*
Y362300D01*
X184427D01*
X184027Y361900D01*
X183627Y362300D01*
X183227D01*
Y361900D01*
X183627Y361500D01*
X183227Y361100D01*
Y360700D01*
X173227D02*
X173627D01*
X174027Y361100D01*
X174427Y360700D01*
X174827D01*
Y361100D01*
X174427Y361500D01*
X174827Y361900D01*
Y362300D01*
X174427D01*
X174027Y361900D01*
X173627Y362300D01*
X173227D01*
Y361900D01*
X173627Y361500D01*
X173227Y361100D01*
Y360700D01*
X163227D02*
X163627D01*
X164027Y361100D01*
X164427Y360700D01*
X164827D01*
Y361100D01*
X164427Y361500D01*
X164827Y361900D01*
Y362300D01*
X164427D01*
X164027Y361900D01*
X163627Y362300D01*
X163227D01*
Y361900D01*
X163627Y361500D01*
X163227Y361100D01*
Y360700D01*
X153227D02*
X153627D01*
X154027Y361100D01*
X154427Y360700D01*
X154827D01*
Y361100D01*
X154427Y361500D01*
X154827Y361900D01*
Y362300D01*
X154427D01*
X154027Y361900D01*
X153627Y362300D01*
X153227D01*
Y361900D01*
X153627Y361500D01*
X153227Y361100D01*
Y360700D01*
X143227D02*
X143627D01*
X144027Y361100D01*
X144427Y360700D01*
X144827D01*
Y361100D01*
X144427Y361500D01*
X144827Y361900D01*
Y362300D01*
X144427D01*
X144027Y361900D01*
X143627Y362300D01*
X143227D01*
Y361900D01*
X143627Y361500D01*
X143227Y361100D01*
Y360700D01*
X133227D02*
X133627D01*
X134027Y361100D01*
X134427Y360700D01*
X134827D01*
Y361100D01*
X134427Y361500D01*
X134827Y361900D01*
Y362300D01*
X134427D01*
X134027Y361900D01*
X133627Y362300D01*
X133227D01*
Y361900D01*
X133627Y361500D01*
X133227Y361100D01*
Y360700D01*
X123227D02*
X123627D01*
X124027Y361100D01*
X124427Y360700D01*
X124827D01*
Y361100D01*
X124427Y361500D01*
X124827Y361900D01*
Y362300D01*
X124427D01*
X124027Y361900D01*
X123627Y362300D01*
X123227D01*
Y361900D01*
X123627Y361500D01*
X123227Y361100D01*
Y360700D01*
X172100Y510600D02*
Y510200D01*
X172900D01*
Y510600D01*
X173300D01*
Y511400D01*
X172900D01*
Y511800D01*
X172100D01*
Y511400D01*
X171700D01*
Y510600D01*
X172100D01*
X162100D02*
Y510200D01*
X162900D01*
Y510600D01*
X163300D01*
Y511400D01*
X162900D01*
Y511800D01*
X162100D01*
Y511400D01*
X161700D01*
Y510600D01*
X162100D01*
X192100D02*
Y510200D01*
X192900D01*
Y510600D01*
X193300D01*
Y511400D01*
X192900D01*
Y511800D01*
X192100D01*
Y511400D01*
X191700D01*
Y510600D01*
X192100D01*
X182100D02*
Y510200D01*
X182900D01*
Y510600D01*
X183300D01*
Y511400D01*
X182900D01*
Y511800D01*
X182100D01*
Y511400D01*
X181700D01*
Y510600D01*
X182100D01*
X212100D02*
Y510200D01*
X212900D01*
Y510600D01*
X213300D01*
Y511400D01*
X212900D01*
Y511800D01*
X212100D01*
Y511400D01*
X211700D01*
Y510600D01*
X212100D01*
X202100D02*
Y510200D01*
X202900D01*
Y510600D01*
X203300D01*
Y511400D01*
X202900D01*
Y511800D01*
X202100D01*
Y511400D01*
X201700D01*
Y510600D01*
X202100D01*
X232100D02*
Y510200D01*
X232900D01*
Y510600D01*
X233300D01*
Y511400D01*
X232900D01*
Y511800D01*
X232100D01*
Y511400D01*
X231700D01*
Y510600D01*
X232100D01*
X222100D02*
Y510200D01*
X222900D01*
Y510600D01*
X223300D01*
Y511400D01*
X222900D01*
Y511800D01*
X222100D01*
Y511400D01*
X221700D01*
Y510600D01*
X222100D01*
X47244Y624200D02*
X46444Y625800D01*
X48044D01*
X47244Y624200D01*
Y564200D02*
X46444Y565800D01*
X48044D01*
X47244Y564200D01*
X90551Y624200D02*
X89751Y625800D01*
X91351D01*
X90551Y624200D01*
Y564200D02*
X89751Y565800D01*
X91351D01*
X90551Y564200D01*
X133858D02*
X133058Y565800D01*
X134658D01*
X133858Y564200D01*
Y624200D02*
X133058Y625800D01*
X134658D01*
X133858Y624200D01*
X177165Y564200D02*
X176365Y565800D01*
X177965D01*
X177165Y564200D01*
Y624200D02*
X176365Y625800D01*
X177965D01*
X177165Y624200D01*
X220472D02*
X219672Y625800D01*
X221272D01*
X220472Y624200D01*
Y564200D02*
X219672Y565800D01*
X221272D01*
X220472Y564200D01*
X263779Y624200D02*
X262980Y625800D01*
X264580D01*
X263779Y624200D01*
Y564200D02*
X262980Y565800D01*
X264580D01*
X263779Y564200D01*
X307087D02*
X306287Y565800D01*
X307887D01*
X307087Y564200D01*
Y624200D02*
X306287Y625800D01*
X307887D01*
X307087Y624200D01*
X350394Y564200D02*
X349594Y565800D01*
X351194D01*
X350394Y564200D01*
Y624200D02*
X349594Y625800D01*
X351194D01*
X350394Y624200D01*
X1302357Y930503D02*
Y932103D01*
X1303957D01*
Y930503D01*
X1302357D01*
X1312200D02*
Y932103D01*
X1313800D01*
Y930503D01*
X1312200D01*
X1322042D02*
Y932103D01*
X1323643D01*
Y930503D01*
X1322042D01*
X1225858Y891200D02*
Y892800D01*
X1227458D01*
Y891200D01*
X1225858D01*
X1235700D02*
Y892800D01*
X1237300D01*
Y891200D01*
X1235700D01*
X1245543D02*
Y892800D01*
X1247143D01*
Y891200D01*
X1245543D01*
X1255385D02*
Y892800D01*
X1256985D01*
Y891200D01*
X1255385D01*
X1240543Y842539D02*
Y844139D01*
X1242142D01*
Y842539D01*
X1240543D01*
X1250385D02*
Y844139D01*
X1251985D01*
Y842539D01*
X1250385D01*
X1230700D02*
Y844139D01*
X1232300D01*
Y842539D01*
X1230700D01*
X1225858Y930700D02*
Y932300D01*
X1227458D01*
Y930700D01*
X1225858D01*
X1235700D02*
Y932300D01*
X1237300D01*
Y930700D01*
X1235700D01*
X1245543D02*
Y932300D01*
X1247143D01*
Y930700D01*
X1245543D01*
X544555Y765700D02*
X543755Y767300D01*
X545355D01*
X544555Y765700D01*
Y825700D02*
X543755Y827300D01*
X545355D01*
X544555Y825700D01*
X513000Y732500D02*
Y733833D01*
X513666Y734499D01*
X514333Y733833D01*
Y732500D01*
Y733500D01*
X513000D01*
X523000Y732500D02*
Y733833D01*
X523666Y734499D01*
X524333Y733833D01*
Y732500D01*
Y733500D01*
X523000D01*
X533000Y732500D02*
Y733833D01*
X533666Y734499D01*
X534333Y733833D01*
Y732500D01*
Y733500D01*
X533000D01*
X501445Y765700D02*
X500645Y767300D01*
X502245D01*
X501445Y765700D01*
Y825700D02*
X500645Y827300D01*
X502245D01*
X501445Y825700D01*
X516000Y717700D02*
X515200Y719300D01*
X516800D01*
X516000Y717700D01*
Y657700D02*
X515200Y659300D01*
X516800D01*
X516000Y657700D01*
X401087Y728700D02*
X400287Y730300D01*
X401887D01*
X401087Y728700D01*
Y668700D02*
X400287Y670300D01*
X401887D01*
X401087Y668700D01*
X453978D02*
X453178Y670300D01*
X454778D01*
X453978Y668700D01*
Y728700D02*
X453178Y730300D01*
X454778D01*
X453978Y728700D01*
X382015Y817275D02*
Y818875D01*
X383615D01*
Y817275D01*
X382015D01*
X401700D02*
Y818875D01*
X403300D01*
Y817275D01*
X401700D01*
X391858D02*
Y818875D01*
X393458D01*
Y817275D01*
X391858D01*
X377857Y887755D02*
Y889355D01*
X379457D01*
Y887755D01*
X377857D01*
X397543D02*
Y889355D01*
X399143D01*
Y887755D01*
X397543D01*
X387700D02*
Y889355D01*
X389300D01*
Y887755D01*
X387700D01*
X305462Y887656D02*
X305862Y888056D01*
X306262D01*
X305862Y888456D01*
X306262Y888856D01*
X305862D01*
X305462Y889256D01*
X305062Y888856D01*
X304662D01*
X305062Y888456D01*
X304662Y888056D01*
X305062D01*
X305462Y887656D01*
X315305D02*
X315705Y888056D01*
X316105D01*
X315705Y888456D01*
X316105Y888856D01*
X315705D01*
X315305Y889256D01*
X314905Y888856D01*
X314505D01*
X314905Y888456D01*
X314505Y888056D01*
X314905D01*
X315305Y887656D01*
X304500Y817176D02*
X304900Y817576D01*
X305300D01*
X304900Y817976D01*
X305300Y818376D01*
X304900D01*
X304500Y818776D01*
X304100Y818376D01*
X303700D01*
X304100Y817976D01*
X303700Y817576D01*
X304100D01*
X304500Y817176D01*
X314342D02*
X314742Y817576D01*
X315142D01*
X314742Y817976D01*
X315142Y818376D01*
X314742D01*
X314342Y818776D01*
X313943Y818376D01*
X313543D01*
X313943Y817976D01*
X313543Y817576D01*
X313943D01*
X314342Y817176D01*
X614500Y536200D02*
X613700Y537800D01*
X615300D01*
X614500Y536200D01*
Y596200D02*
X613700Y597800D01*
X615300D01*
X614500Y596200D01*
X817027Y716700D02*
X817427Y717500D01*
X817027Y718300D01*
X817827Y717900D01*
X818627Y718300D01*
X818227Y717500D01*
X818627Y716700D01*
X817827Y717100D01*
X817027Y716700D01*
X674200Y655543D02*
X674600Y656343D01*
X674200Y657142D01*
X675000Y656742D01*
X675800Y657142D01*
X675400Y656343D01*
X675800Y655543D01*
X675000Y655942D01*
X674200Y655543D01*
X674600Y655942D02*
X674800Y656343D01*
X674600Y656742D01*
X675000Y656542D01*
X675400Y656742D01*
X675200Y656343D01*
X675400Y655942D01*
X675000Y656143D01*
X674600Y655942D01*
X674200Y635857D02*
X674600Y636657D01*
X674200Y637458D01*
X675000Y637057D01*
X675800Y637458D01*
X675400Y636657D01*
X675800Y635857D01*
X675000Y636258D01*
X674200Y635857D01*
X674600Y636258D02*
X674800Y636657D01*
X674600Y637057D01*
X675000Y636858D01*
X675400Y637057D01*
X675200Y636657D01*
X675400Y636258D01*
X675000Y636457D01*
X674600Y636258D01*
X653000Y596200D02*
X652200Y597800D01*
X653800D01*
X653000Y596200D01*
Y536200D02*
X652200Y537800D01*
X653800D01*
X653000Y536200D01*
X1045373Y716700D02*
X1045773Y717500D01*
X1045373Y718300D01*
X1046173Y717900D01*
X1046973Y718300D01*
X1046573Y717500D01*
X1046973Y716700D01*
X1046173Y717100D01*
X1045373Y716700D01*
X1164200Y930700D02*
Y932300D01*
X1165800D01*
Y930700D01*
X1164200D01*
X1154358D02*
Y932300D01*
X1155958D01*
Y930700D01*
X1154358D01*
X1144515D02*
Y932300D01*
X1146115D01*
Y930700D01*
X1144515D01*
X1140015Y891200D02*
Y892800D01*
X1141615D01*
Y891200D01*
X1140015D01*
X1149858D02*
Y892800D01*
X1151458D01*
Y891200D01*
X1149858D01*
X1159700D02*
Y892800D01*
X1161300D01*
Y891200D01*
X1159700D01*
X1169543D02*
Y892800D01*
X1171142D01*
Y891200D01*
X1169543D01*
X1146515Y842700D02*
Y844300D01*
X1148115D01*
Y842700D01*
X1146515D01*
X1166200D02*
Y844300D01*
X1167800D01*
Y842700D01*
X1166200D01*
X1156357D02*
Y844300D01*
X1157957D01*
Y842700D01*
X1156357D01*
X817027Y909700D02*
X817427Y910500D01*
X817027Y911300D01*
X817827Y910900D01*
X818627Y911300D01*
X818227Y910500D01*
X818627Y909700D01*
X817827Y910100D01*
X817027Y909700D01*
X1045373D02*
X1045773Y910500D01*
X1045373Y911300D01*
X1046173Y910900D01*
X1046973Y911300D01*
X1046573Y910500D01*
X1046973Y909700D01*
X1046173Y910100D01*
X1045373Y909700D01*
X1157319Y752200D02*
X1156519Y753800D01*
X1158119D01*
X1157319Y752200D01*
Y692200D02*
X1156519Y693800D01*
X1158119D01*
X1157319Y692200D01*
X1382200Y854830D02*
X1382600D01*
X1383000Y855230D01*
X1383400Y854830D01*
X1383800D01*
Y855230D01*
X1383400Y855630D01*
X1383800Y856030D01*
Y856430D01*
X1383400D01*
X1383000Y856030D01*
X1382600Y856430D01*
X1382200D01*
Y856030D01*
X1382600Y855630D01*
X1382200Y855230D01*
Y854830D01*
X1382600Y855230D02*
X1382800D01*
X1383000Y855430D01*
X1383200Y855230D01*
X1383400D01*
Y855430D01*
X1383200Y855630D01*
X1383400Y855830D01*
Y856030D01*
X1383200D01*
X1383000Y855830D01*
X1382800Y856030D01*
X1382600D01*
Y855830D01*
X1382800Y855630D01*
X1382600Y855430D01*
Y855230D01*
X1390074Y854830D02*
X1390474D01*
X1390874Y855230D01*
X1391274Y854830D01*
X1391674D01*
Y855230D01*
X1391274Y855630D01*
X1391674Y856030D01*
Y856430D01*
X1391274D01*
X1390874Y856030D01*
X1390474Y856430D01*
X1390074D01*
Y856030D01*
X1390474Y855630D01*
X1390074Y855230D01*
Y854830D01*
X1390474Y855230D02*
X1390674D01*
X1390874Y855430D01*
X1391074Y855230D01*
X1391274D01*
Y855430D01*
X1391074Y855630D01*
X1391274Y855830D01*
Y856030D01*
X1391074D01*
X1390874Y855830D01*
X1390674Y856030D01*
X1390474D01*
Y855830D01*
X1390674Y855630D01*
X1390474Y855430D01*
Y855230D01*
X1473200Y689200D02*
X1473600Y690000D01*
X1473200Y690800D01*
X1474000Y690400D01*
X1474800Y690800D01*
X1474400Y690000D01*
X1474800Y689200D01*
X1474000Y689600D01*
X1473200Y689200D01*
X1473600Y689600D02*
X1473800Y690000D01*
X1473600Y690400D01*
X1474000Y690200D01*
X1474400Y690400D01*
X1474200Y690000D01*
X1474400Y689600D01*
X1474000Y689800D01*
X1473600Y689600D01*
X1459420Y689200D02*
X1459820Y690000D01*
X1459420Y690800D01*
X1460221Y690400D01*
X1461020Y690800D01*
X1460620Y690000D01*
X1461020Y689200D01*
X1460221Y689600D01*
X1459420Y689200D01*
X1459820Y689600D02*
X1460021Y690000D01*
X1459820Y690400D01*
X1460221Y690200D01*
X1460620Y690400D01*
X1460421Y690000D01*
X1460620Y689600D01*
X1460221Y689800D01*
X1459820Y689600D01*
X1402600Y893100D02*
Y892700D01*
X1403400D01*
Y893100D01*
X1403800D01*
Y893900D01*
X1403400D01*
Y894300D01*
X1402600D01*
Y893900D01*
X1402200D01*
Y893100D01*
X1402600D01*
X1412600D02*
Y892700D01*
X1413400D01*
Y893100D01*
X1413800D01*
Y893900D01*
X1413400D01*
Y894300D01*
X1412600D01*
Y893900D01*
X1412200D01*
Y893100D01*
X1412600D01*
X1422600D02*
Y892700D01*
X1423400D01*
Y893100D01*
X1423800D01*
Y893900D01*
X1423400D01*
Y894300D01*
X1422600D01*
Y893900D01*
X1422200D01*
Y893100D01*
X1422600D01*
X152500Y884775D02*
X152900Y885175D01*
X153300D01*
X152900Y885575D01*
X153300Y885975D01*
X152900D01*
X152500Y886375D01*
X152100Y885975D01*
X151700D01*
X152100Y885575D01*
X151700Y885175D01*
X152100D01*
X152500Y884775D01*
X162343D02*
X162742Y885175D01*
X163143D01*
X162742Y885575D01*
X163143Y885975D01*
X162742D01*
X162343Y886375D01*
X161943Y885975D01*
X161542D01*
X161943Y885575D01*
X161542Y885175D01*
X161943D01*
X162343Y884775D01*
X152500Y817176D02*
X152900Y817576D01*
X153300D01*
X152900Y817976D01*
X153300Y818376D01*
X152900D01*
X152500Y818776D01*
X152100Y818376D01*
X151700D01*
X152100Y817976D01*
X151700Y817576D01*
X152100D01*
X152500Y817176D01*
X162343D02*
X162742Y817576D01*
X163143D01*
X162742Y817976D01*
X163143Y818376D01*
X162742D01*
X162343Y818776D01*
X161943Y818376D01*
X161542D01*
X161943Y817976D01*
X161542Y817576D01*
X161943D01*
X162343Y817176D01*
X231000D02*
X231400Y817576D01*
X231800D01*
X231400Y817976D01*
X231800Y818376D01*
X231400D01*
X231000Y818776D01*
X230600Y818376D01*
X230200D01*
X230600Y817976D01*
X230200Y817576D01*
X230600D01*
X231000Y817176D01*
X240843D02*
X241243Y817576D01*
X241642D01*
X241243Y817976D01*
X241642Y818376D01*
X241243D01*
X240843Y818776D01*
X240442Y818376D01*
X240042D01*
X240442Y817976D01*
X240042Y817576D01*
X240442D01*
X240843Y817176D01*
X231000Y885633D02*
X231400Y886033D01*
X231800D01*
X231400Y886433D01*
X231800Y886833D01*
X231400D01*
X231000Y887233D01*
X230600Y886833D01*
X230200D01*
X230600Y886433D01*
X230200Y886033D01*
X230600D01*
X231000Y885633D01*
X240843D02*
X241243Y886033D01*
X241642D01*
X241243Y886433D01*
X241642Y886833D01*
X241243D01*
X240843Y887233D01*
X240442Y886833D01*
X240042D01*
X240442Y886433D01*
X240042Y886033D01*
X240442D01*
X240843Y885633D01*
X75000Y885200D02*
X75400Y885600D01*
X75800D01*
X75400Y886000D01*
X75800Y886400D01*
X75400D01*
X75000Y886800D01*
X74600Y886400D01*
X74200D01*
X74600Y886000D01*
X74200Y885600D01*
X74600D01*
X75000Y885200D01*
X84842D02*
X85242Y885600D01*
X85642D01*
X85242Y886000D01*
X85642Y886400D01*
X85242D01*
X84842Y886800D01*
X84443Y886400D01*
X84043D01*
X84443Y886000D01*
X84043Y885600D01*
X84443D01*
X84842Y885200D01*
X835527Y573700D02*
X835927D01*
X836327Y574100D01*
X836727Y573700D01*
X837127D01*
Y574100D01*
X836727Y574500D01*
X837127Y574900D01*
Y575300D01*
X836727D01*
X836327Y574900D01*
X835927Y575300D01*
X835527D01*
Y574900D01*
X835927Y574500D01*
X835527Y574100D01*
Y573700D01*
Y583700D02*
X835927D01*
X836327Y584100D01*
X836727Y583700D01*
X837127D01*
Y584100D01*
X836727Y584500D01*
X837127Y584900D01*
Y585300D01*
X836727D01*
X836327Y584900D01*
X835927Y585300D01*
X835527D01*
Y584900D01*
X835927Y584500D01*
X835527Y584100D01*
Y583700D01*
X845527Y573700D02*
X845927D01*
X846327Y574100D01*
X846727Y573700D01*
X847127D01*
Y574100D01*
X846727Y574500D01*
X847127Y574900D01*
Y575300D01*
X846727D01*
X846327Y574900D01*
X845927Y575300D01*
X845527D01*
Y574900D01*
X845927Y574500D01*
X845527Y574100D01*
Y573700D01*
Y583700D02*
X845927D01*
X846327Y584100D01*
X846727Y583700D01*
X847127D01*
Y584100D01*
X846727Y584500D01*
X847127Y584900D01*
Y585300D01*
X846727D01*
X846327Y584900D01*
X845927Y585300D01*
X845527D01*
Y584900D01*
X845927Y584500D01*
X845527Y584100D01*
Y583700D01*
X855527Y573700D02*
X855927D01*
X856327Y574100D01*
X856727Y573700D01*
X857127D01*
Y574100D01*
X856727Y574500D01*
X857127Y574900D01*
Y575300D01*
X856727D01*
X856327Y574900D01*
X855927Y575300D01*
X855527D01*
Y574900D01*
X855927Y574500D01*
X855527Y574100D01*
Y573700D01*
Y583700D02*
X855927D01*
X856327Y584100D01*
X856727Y583700D01*
X857127D01*
Y584100D01*
X856727Y584500D01*
X857127Y584900D01*
Y585300D01*
X856727D01*
X856327Y584900D01*
X855927Y585300D01*
X855527D01*
Y584900D01*
X855927Y584500D01*
X855527Y584100D01*
Y583700D01*
X865527Y573700D02*
X865927D01*
X866327Y574100D01*
X866727Y573700D01*
X867127D01*
Y574100D01*
X866727Y574500D01*
X867127Y574900D01*
Y575300D01*
X866727D01*
X866327Y574900D01*
X865927Y575300D01*
X865527D01*
Y574900D01*
X865927Y574500D01*
X865527Y574100D01*
Y573700D01*
Y583700D02*
X865927D01*
X866327Y584100D01*
X866727Y583700D01*
X867127D01*
Y584100D01*
X866727Y584500D01*
X867127Y584900D01*
Y585300D01*
X866727D01*
X866327Y584900D01*
X865927Y585300D01*
X865527D01*
Y584900D01*
X865927Y584500D01*
X865527Y584100D01*
Y583700D01*
X875527Y573700D02*
X875927D01*
X876327Y574100D01*
X876727Y573700D01*
X877127D01*
Y574100D01*
X876727Y574500D01*
X877127Y574900D01*
Y575300D01*
X876727D01*
X876327Y574900D01*
X875927Y575300D01*
X875527D01*
Y574900D01*
X875927Y574500D01*
X875527Y574100D01*
Y573700D01*
Y583700D02*
X875927D01*
X876327Y584100D01*
X876727Y583700D01*
X877127D01*
Y584100D01*
X876727Y584500D01*
X877127Y584900D01*
Y585300D01*
X876727D01*
X876327Y584900D01*
X875927Y585300D01*
X875527D01*
Y584900D01*
X875927Y584500D01*
X875527Y584100D01*
Y583700D01*
X885527Y573700D02*
X885927D01*
X886327Y574100D01*
X886727Y573700D01*
X887127D01*
Y574100D01*
X886727Y574500D01*
X887127Y574900D01*
Y575300D01*
X886727D01*
X886327Y574900D01*
X885927Y575300D01*
X885527D01*
Y574900D01*
X885927Y574500D01*
X885527Y574100D01*
Y573700D01*
Y583700D02*
X885927D01*
X886327Y584100D01*
X886727Y583700D01*
X887127D01*
Y584100D01*
X886727Y584500D01*
X887127Y584900D01*
Y585300D01*
X886727D01*
X886327Y584900D01*
X885927Y585300D01*
X885527D01*
Y584900D01*
X885927Y584500D01*
X885527Y584100D01*
Y583700D01*
X895527Y573700D02*
X895927D01*
X896327Y574100D01*
X896727Y573700D01*
X897127D01*
Y574100D01*
X896727Y574500D01*
X897127Y574900D01*
Y575300D01*
X896727D01*
X896327Y574900D01*
X895927Y575300D01*
X895527D01*
Y574900D01*
X895927Y574500D01*
X895527Y574100D01*
Y573700D01*
Y583700D02*
X895927D01*
X896327Y584100D01*
X896727Y583700D01*
X897127D01*
Y584100D01*
X896727Y584500D01*
X897127Y584900D01*
Y585300D01*
X896727D01*
X896327Y584900D01*
X895927Y585300D01*
X895527D01*
Y584900D01*
X895927Y584500D01*
X895527Y584100D01*
Y583700D01*
X905527Y573700D02*
X905927D01*
X906327Y574100D01*
X906727Y573700D01*
X907127D01*
Y574100D01*
X906727Y574500D01*
X907127Y574900D01*
Y575300D01*
X906727D01*
X906327Y574900D01*
X905927Y575300D01*
X905527D01*
Y574900D01*
X905927Y574500D01*
X905527Y574100D01*
Y573700D01*
Y583700D02*
X905927D01*
X906327Y584100D01*
X906727Y583700D01*
X907127D01*
Y584100D01*
X906727Y584500D01*
X907127Y584900D01*
Y585300D01*
X906727D01*
X906327Y584900D01*
X905927Y585300D01*
X905527D01*
Y584900D01*
X905927Y584500D01*
X905527Y584100D01*
Y583700D01*
X915527Y573700D02*
X915927D01*
X916327Y574100D01*
X916727Y573700D01*
X917127D01*
Y574100D01*
X916727Y574500D01*
X917127Y574900D01*
Y575300D01*
X916727D01*
X916327Y574900D01*
X915927Y575300D01*
X915527D01*
Y574900D01*
X915927Y574500D01*
X915527Y574100D01*
Y573700D01*
Y583700D02*
X915927D01*
X916327Y584100D01*
X916727Y583700D01*
X917127D01*
Y584100D01*
X916727Y584500D01*
X917127Y584900D01*
Y585300D01*
X916727D01*
X916327Y584900D01*
X915927Y585300D01*
X915527D01*
Y584900D01*
X915927Y584500D01*
X915527Y584100D01*
Y583700D01*
X925527Y573700D02*
X925927D01*
X926327Y574100D01*
X926727Y573700D01*
X927127D01*
Y574100D01*
X926727Y574500D01*
X927127Y574900D01*
Y575300D01*
X926727D01*
X926327Y574900D01*
X925927Y575300D01*
X925527D01*
Y574900D01*
X925927Y574500D01*
X925527Y574100D01*
Y573700D01*
Y583700D02*
X925927D01*
X926327Y584100D01*
X926727Y583700D01*
X927127D01*
Y584100D01*
X926727Y584500D01*
X927127Y584900D01*
Y585300D01*
X926727D01*
X926327Y584900D01*
X925927Y585300D01*
X925527D01*
Y584900D01*
X925927Y584500D01*
X925527Y584100D01*
Y583700D01*
X935527Y573700D02*
X935927D01*
X936327Y574100D01*
X936727Y573700D01*
X937127D01*
Y574100D01*
X936727Y574500D01*
X937127Y574900D01*
Y575300D01*
X936727D01*
X936327Y574900D01*
X935927Y575300D01*
X935527D01*
Y574900D01*
X935927Y574500D01*
X935527Y574100D01*
Y573700D01*
Y583700D02*
X935927D01*
X936327Y584100D01*
X936727Y583700D01*
X937127D01*
Y584100D01*
X936727Y584500D01*
X937127Y584900D01*
Y585300D01*
X936727D01*
X936327Y584900D01*
X935927Y585300D01*
X935527D01*
Y584900D01*
X935927Y584500D01*
X935527Y584100D01*
Y583700D01*
X945527Y573700D02*
X945927D01*
X946327Y574100D01*
X946727Y573700D01*
X947127D01*
Y574100D01*
X946727Y574500D01*
X947127Y574900D01*
Y575300D01*
X946727D01*
X946327Y574900D01*
X945927Y575300D01*
X945527D01*
Y574900D01*
X945927Y574500D01*
X945527Y574100D01*
Y573700D01*
Y583700D02*
X945927D01*
X946327Y584100D01*
X946727Y583700D01*
X947127D01*
Y584100D01*
X946727Y584500D01*
X947127Y584900D01*
Y585300D01*
X946727D01*
X946327Y584900D01*
X945927Y585300D01*
X945527D01*
Y584900D01*
X945927Y584500D01*
X945527Y584100D01*
Y583700D01*
X955527Y573700D02*
X955927D01*
X956327Y574100D01*
X956727Y573700D01*
X957127D01*
Y574100D01*
X956727Y574500D01*
X957127Y574900D01*
Y575300D01*
X956727D01*
X956327Y574900D01*
X955927Y575300D01*
X955527D01*
Y574900D01*
X955927Y574500D01*
X955527Y574100D01*
Y573700D01*
Y583700D02*
X955927D01*
X956327Y584100D01*
X956727Y583700D01*
X957127D01*
Y584100D01*
X956727Y584500D01*
X957127Y584900D01*
Y585300D01*
X956727D01*
X956327Y584900D01*
X955927Y585300D01*
X955527D01*
Y584900D01*
X955927Y584500D01*
X955527Y584100D01*
Y583700D01*
X965527Y573700D02*
X965927D01*
X966327Y574100D01*
X966727Y573700D01*
X967127D01*
Y574100D01*
X966727Y574500D01*
X967127Y574900D01*
Y575300D01*
X966727D01*
X966327Y574900D01*
X965927Y575300D01*
X965527D01*
Y574900D01*
X965927Y574500D01*
X965527Y574100D01*
Y573700D01*
Y583700D02*
X965927D01*
X966327Y584100D01*
X966727Y583700D01*
X967127D01*
Y584100D01*
X966727Y584500D01*
X967127Y584900D01*
Y585300D01*
X966727D01*
X966327Y584900D01*
X965927Y585300D01*
X965527D01*
Y584900D01*
X965927Y584500D01*
X965527Y584100D01*
Y583700D01*
X975527Y573700D02*
X975927D01*
X976327Y574100D01*
X976727Y573700D01*
X977127D01*
Y574100D01*
X976727Y574500D01*
X977127Y574900D01*
Y575300D01*
X976727D01*
X976327Y574900D01*
X975927Y575300D01*
X975527D01*
Y574900D01*
X975927Y574500D01*
X975527Y574100D01*
Y573700D01*
Y583700D02*
X975927D01*
X976327Y584100D01*
X976727Y583700D01*
X977127D01*
Y584100D01*
X976727Y584500D01*
X977127Y584900D01*
Y585300D01*
X976727D01*
X976327Y584900D01*
X975927Y585300D01*
X975527D01*
Y584900D01*
X975927Y584500D01*
X975527Y584100D01*
Y583700D01*
X985527Y573700D02*
X985927D01*
X986327Y574100D01*
X986727Y573700D01*
X987127D01*
Y574100D01*
X986727Y574500D01*
X987127Y574900D01*
Y575300D01*
X986727D01*
X986327Y574900D01*
X985927Y575300D01*
X985527D01*
Y574900D01*
X985927Y574500D01*
X985527Y574100D01*
Y573700D01*
Y583700D02*
X985927D01*
X986327Y584100D01*
X986727Y583700D01*
X987127D01*
Y584100D01*
X986727Y584500D01*
X987127Y584900D01*
Y585300D01*
X986727D01*
X986327Y584900D01*
X985927Y585300D01*
X985527D01*
Y584900D01*
X985927Y584500D01*
X985527Y584100D01*
Y583700D01*
X995527Y573700D02*
X995927D01*
X996327Y574100D01*
X996727Y573700D01*
X997127D01*
Y574100D01*
X996727Y574500D01*
X997127Y574900D01*
Y575300D01*
X996727D01*
X996327Y574900D01*
X995927Y575300D01*
X995527D01*
Y574900D01*
X995927Y574500D01*
X995527Y574100D01*
Y573700D01*
Y583700D02*
X995927D01*
X996327Y584100D01*
X996727Y583700D01*
X997127D01*
Y584100D01*
X996727Y584500D01*
X997127Y584900D01*
Y585300D01*
X996727D01*
X996327Y584900D01*
X995927Y585300D01*
X995527D01*
Y584900D01*
X995927Y584500D01*
X995527Y584100D01*
Y583700D01*
X1005527Y573700D02*
X1005927D01*
X1006327Y574100D01*
X1006727Y573700D01*
X1007127D01*
Y574100D01*
X1006727Y574500D01*
X1007127Y574900D01*
Y575300D01*
X1006727D01*
X1006327Y574900D01*
X1005927Y575300D01*
X1005527D01*
Y574900D01*
X1005927Y574500D01*
X1005527Y574100D01*
Y573700D01*
Y583700D02*
X1005927D01*
X1006327Y584100D01*
X1006727Y583700D01*
X1007127D01*
Y584100D01*
X1006727Y584500D01*
X1007127Y584900D01*
Y585300D01*
X1006727D01*
X1006327Y584900D01*
X1005927Y585300D01*
X1005527D01*
Y584900D01*
X1005927Y584500D01*
X1005527Y584100D01*
Y583700D01*
X1015527Y573700D02*
X1015927D01*
X1016327Y574100D01*
X1016727Y573700D01*
X1017127D01*
Y574100D01*
X1016727Y574500D01*
X1017127Y574900D01*
Y575300D01*
X1016727D01*
X1016327Y574900D01*
X1015927Y575300D01*
X1015527D01*
Y574900D01*
X1015927Y574500D01*
X1015527Y574100D01*
Y573700D01*
Y583700D02*
X1015927D01*
X1016327Y584100D01*
X1016727Y583700D01*
X1017127D01*
Y584100D01*
X1016727Y584500D01*
X1017127Y584900D01*
Y585300D01*
X1016727D01*
X1016327Y584900D01*
X1015927Y585300D01*
X1015527D01*
Y584900D01*
X1015927Y584500D01*
X1015527Y584100D01*
Y583700D01*
X1025527Y573700D02*
X1025927D01*
X1026327Y574100D01*
X1026727Y573700D01*
X1027127D01*
Y574100D01*
X1026727Y574500D01*
X1027127Y574900D01*
Y575300D01*
X1026727D01*
X1026327Y574900D01*
X1025927Y575300D01*
X1025527D01*
Y574900D01*
X1025927Y574500D01*
X1025527Y574100D01*
Y573700D01*
Y583700D02*
X1025927D01*
X1026327Y584100D01*
X1026727Y583700D01*
X1027127D01*
Y584100D01*
X1026727Y584500D01*
X1027127Y584900D01*
Y585300D01*
X1026727D01*
X1026327Y584900D01*
X1025927Y585300D01*
X1025527D01*
Y584900D01*
X1025927Y584500D01*
X1025527Y584100D01*
Y583700D01*
X1122000Y528700D02*
X1121200Y530300D01*
X1122800D01*
X1122000Y528700D01*
Y588700D02*
X1121200Y590300D01*
X1122800D01*
X1122000Y588700D01*
X813700Y473200D02*
Y474800D01*
X815300D01*
Y473200D01*
X813700D01*
Y483042D02*
Y484643D01*
X815300D01*
Y483042D01*
X813700D01*
Y492885D02*
Y494485D01*
X815300D01*
Y492885D01*
X813700D01*
Y502728D02*
Y504328D01*
X815300D01*
Y502728D01*
X813700D01*
X930267Y473200D02*
Y474800D01*
X931867D01*
Y473200D01*
X930267D01*
Y483042D02*
Y484643D01*
X931867D01*
Y483042D01*
X930267D01*
Y492885D02*
Y494485D01*
X931867D01*
Y492885D01*
X930267D01*
Y502728D02*
Y504328D01*
X931867D01*
Y502728D01*
X930267D01*
X873200D02*
Y504328D01*
X874800D01*
Y502728D01*
X873200D01*
Y492885D02*
Y494485D01*
X874800D01*
Y492885D01*
X873200D01*
Y483042D02*
Y484643D01*
X874800D01*
Y483042D01*
X873200D01*
Y473200D02*
Y474800D01*
X874800D01*
Y473200D01*
X873200D01*
X992700D02*
Y474800D01*
X994300D01*
Y473200D01*
X992700D01*
Y483042D02*
Y484643D01*
X994300D01*
Y483042D01*
X992700D01*
Y492885D02*
Y494485D01*
X994300D01*
Y492885D01*
X992700D01*
Y502728D02*
Y504328D01*
X994300D01*
Y502728D01*
X992700D01*
X1048889Y473200D02*
Y474800D01*
X1050489D01*
Y473200D01*
X1048889D01*
Y483042D02*
Y484643D01*
X1050489D01*
Y483042D01*
X1048889D01*
Y492885D02*
Y494485D01*
X1050489D01*
Y492885D01*
X1048889D01*
Y502728D02*
Y504328D01*
X1050489D01*
Y502728D01*
X1048889D01*
X1348479Y104200D02*
X1348880Y105000D01*
X1348479Y105800D01*
X1349279Y105400D01*
X1350080Y105800D01*
X1349679Y105000D01*
X1350080Y104200D01*
X1349279Y104600D01*
X1348479Y104200D01*
X1348880Y104600D02*
X1349080Y105000D01*
X1348880Y105400D01*
X1349279Y105200D01*
X1349679Y105400D01*
X1349479Y105000D01*
X1349679Y104600D01*
X1349279Y104800D01*
X1348880Y104600D01*
X1334700Y104200D02*
X1335100Y105000D01*
X1334700Y105800D01*
X1335500Y105400D01*
X1336300Y105800D01*
X1335900Y105000D01*
X1336300Y104200D01*
X1335500Y104600D01*
X1334700Y104200D01*
X1335100Y104600D02*
X1335300Y105000D01*
X1335100Y105400D01*
X1335500Y105200D01*
X1335900Y105400D01*
X1335700Y105000D01*
X1335900Y104600D01*
X1335500Y104800D01*
X1335100Y104600D01*
X1200000Y588700D02*
X1199200Y590300D01*
X1200800D01*
X1200000Y588700D01*
Y528700D02*
X1199200Y530300D01*
X1200800D01*
X1200000Y528700D01*
X1162500D02*
X1161700Y530300D01*
X1163300D01*
X1162500Y528700D01*
Y588700D02*
X1161700Y590300D01*
X1163300D01*
X1162500Y588700D01*
X640348Y643370D02*
Y642970D01*
X641148D01*
Y643370D01*
X641548D01*
Y644170D01*
X641148D01*
Y644570D01*
X640348D01*
Y644170D01*
X639948D01*
Y643370D01*
X640348D01*
X640548Y643570D02*
Y643370D01*
X640948D01*
Y643570D01*
X641148D01*
Y643970D01*
X640948D01*
Y644170D01*
X640548D01*
Y643970D01*
X640348D01*
Y643570D01*
X640548D01*
X618301Y639895D02*
Y639495D01*
X619101D01*
Y639895D01*
X619501D01*
Y640695D01*
X619101D01*
Y641095D01*
X618301D01*
Y640695D01*
X617901D01*
Y639895D01*
X618301D01*
X618501Y640095D02*
Y639895D01*
X618901D01*
Y640095D01*
X619101D01*
Y640495D01*
X618901D01*
Y640695D01*
X618501D01*
Y640495D01*
X618301D01*
Y640095D01*
X618501D01*
X1280165Y208073D02*
Y207673D01*
X1280965D01*
Y208073D01*
X1281365D01*
Y208873D01*
X1280965D01*
Y209273D01*
X1280165D01*
Y208873D01*
X1279765D01*
Y208073D01*
X1280165D01*
X1280365Y208273D02*
Y208073D01*
X1280765D01*
Y208273D01*
X1280965D01*
Y208673D01*
X1280765D01*
Y208873D01*
X1280365D01*
Y208673D01*
X1280165D01*
Y208273D01*
X1280365D01*
X1249600Y778600D02*
Y778200D01*
X1250400D01*
Y778600D01*
X1250800D01*
Y779400D01*
X1250400D01*
Y779800D01*
X1249600D01*
Y779400D01*
X1249200D01*
Y778600D01*
X1249600D01*
X1249800Y778800D02*
Y778600D01*
X1250200D01*
Y778800D01*
X1250400D01*
Y779200D01*
X1250200D01*
Y779400D01*
X1249800D01*
Y779200D01*
X1249600D01*
Y778800D01*
X1249800D01*
X1231895Y778781D02*
Y778381D01*
X1232695D01*
Y778781D01*
X1233095D01*
Y779581D01*
X1232695D01*
Y779981D01*
X1231895D01*
Y779581D01*
X1231495D01*
Y778781D01*
X1231895D01*
X1232095Y778981D02*
Y778781D01*
X1232495D01*
Y778981D01*
X1232695D01*
Y779381D01*
X1232495D01*
Y779581D01*
X1232095D01*
Y779381D01*
X1231895D01*
Y778981D01*
X1232095D01*
X1148100Y779313D02*
Y778913D01*
X1148900D01*
Y779313D01*
X1149300D01*
Y780113D01*
X1148900D01*
Y780513D01*
X1148100D01*
Y780113D01*
X1147700D01*
Y779313D01*
X1148100D01*
X1148300Y779513D02*
Y779313D01*
X1148700D01*
Y779513D01*
X1148900D01*
Y779913D01*
X1148700D01*
Y780113D01*
X1148300D01*
Y779913D01*
X1148100D01*
Y779513D01*
X1148300D01*
X1165100Y779698D02*
Y779298D01*
X1165900D01*
Y779698D01*
X1166300D01*
Y780498D01*
X1165900D01*
Y780898D01*
X1165100D01*
Y780498D01*
X1164700D01*
Y779698D01*
X1165100D01*
X1165300Y779898D02*
Y779698D01*
X1165700D01*
Y779898D01*
X1165900D01*
Y780298D01*
X1165700D01*
Y780498D01*
X1165300D01*
Y780298D01*
X1165100D01*
Y779898D01*
X1165300D01*
X462600Y742970D02*
Y742570D01*
X463400D01*
Y742970D01*
X463800D01*
Y743770D01*
X463400D01*
Y744170D01*
X462600D01*
Y743770D01*
X462200D01*
Y742970D01*
X462600D01*
X462800Y743170D02*
Y742970D01*
X463200D01*
Y743170D01*
X463400D01*
Y743570D01*
X463200D01*
Y743770D01*
X462800D01*
Y743570D01*
X462600D01*
Y743170D01*
X462800D01*
X445100Y743186D02*
Y742786D01*
X445900D01*
Y743186D01*
X446300D01*
Y743986D01*
X445900D01*
Y744386D01*
X445100D01*
Y743986D01*
X444700D01*
Y743186D01*
X445100D01*
X445300Y743386D02*
Y743186D01*
X445700D01*
Y743386D01*
X445900D01*
Y743786D01*
X445700D01*
Y743986D01*
X445300D01*
Y743786D01*
X445100D01*
Y743386D01*
X445300D01*
X400687Y742537D02*
Y742137D01*
X401487D01*
Y742537D01*
X401887D01*
Y743337D01*
X401487D01*
Y743737D01*
X400687D01*
Y743337D01*
X400287D01*
Y742537D01*
X400687D01*
X400887Y742737D02*
Y742537D01*
X401287D01*
Y742737D01*
X401487D01*
Y743137D01*
X401287D01*
Y743337D01*
X400887D01*
Y743137D01*
X400687D01*
Y742737D01*
X400887D01*
X383280Y742537D02*
Y742137D01*
X384080D01*
Y742537D01*
X384480D01*
Y743337D01*
X384080D01*
Y743737D01*
X383280D01*
Y743337D01*
X382880D01*
Y742537D01*
X383280D01*
X383480Y742737D02*
Y742537D01*
X383880D01*
Y742737D01*
X384080D01*
Y743137D01*
X383880D01*
Y743337D01*
X383480D01*
Y743137D01*
X383280D01*
Y742737D01*
X383480D01*
D68*
X1030800Y406000D02*
G03*
X1030800Y406000I-800J0D01*
G01*
X1010800D02*
G03*
X1010800Y406000I-800J0D01*
G01*
X1040800D02*
G03*
X1040800Y406000I-800J0D01*
G01*
X1020800D02*
G03*
X1020800Y406000I-800J0D01*
G01*
M02*
