G04*
G04 #@! TF.GenerationSoftware,Altium Limited,Altium Designer,24.1.2 (44)*
G04*
G04 Layer_Color=8388736*
%FSLAX25Y25*%
%MOIN*%
G70*
G04*
G04 #@! TF.SameCoordinates,7BB0C798-B388-47C6-955D-DBFAA0C4EE40*
G04*
G04*
G04 #@! TF.FilePolarity,Negative*
G04*
G01*
G75*
%ADD19R,0.03425X0.01181*%
G04:AMPARAMS|DCode=20|XSize=52.03mil|YSize=23.68mil|CornerRadius=4.46mil|HoleSize=0mil|Usage=FLASHONLY|Rotation=90.000|XOffset=0mil|YOffset=0mil|HoleType=Round|Shape=RoundedRectangle|*
%AMROUNDEDRECTD20*
21,1,0.05203,0.01476,0,0,90.0*
21,1,0.04311,0.02368,0,0,90.0*
1,1,0.00892,0.00738,0.02156*
1,1,0.00892,0.00738,-0.02156*
1,1,0.00892,-0.00738,-0.02156*
1,1,0.00892,-0.00738,0.02156*
%
%ADD20ROUNDEDRECTD20*%
%ADD21O,0.08668X0.05912*%
%ADD22O,0.08274X0.06306*%
%ADD23C,0.13543*%
%ADD24R,0.06424X0.06424*%
%ADD25C,0.06424*%
%ADD26O,0.05518X0.08077*%
%ADD27C,0.05400*%
%ADD28R,0.05512X0.05512*%
%ADD29C,0.05512*%
%ADD30C,0.02047*%
G04:AMPARAMS|DCode=31|XSize=28.35mil|YSize=20.47mil|CornerRadius=10.24mil|HoleSize=0mil|Usage=FLASHONLY|Rotation=90.000|XOffset=0mil|YOffset=0mil|HoleType=Round|Shape=RoundedRectangle|*
%AMROUNDEDRECTD31*
21,1,0.02835,0.00000,0,0,90.0*
21,1,0.00787,0.02047,0,0,90.0*
1,1,0.02047,0.00000,0.00394*
1,1,0.02047,0.00000,-0.00394*
1,1,0.02047,0.00000,-0.00394*
1,1,0.02047,0.00000,0.00394*
%
%ADD31ROUNDEDRECTD31*%
G04:AMPARAMS|DCode=32|XSize=53.15mil|YSize=43.31mil|CornerRadius=21.65mil|HoleSize=0mil|Usage=FLASHONLY|Rotation=90.000|XOffset=0mil|YOffset=0mil|HoleType=Round|Shape=RoundedRectangle|*
%AMROUNDEDRECTD32*
21,1,0.05315,0.00000,0,0,90.0*
21,1,0.00984,0.04331,0,0,90.0*
1,1,0.04331,0.00000,0.00492*
1,1,0.04331,0.00000,-0.00492*
1,1,0.04331,0.00000,-0.00492*
1,1,0.04331,0.00000,0.00492*
%
%ADD32ROUNDEDRECTD32*%
%ADD33C,0.06551*%
%ADD34R,0.06551X0.06551*%
%ADD35C,0.06102*%
%ADD36R,0.06102X0.06102*%
%ADD37R,0.06551X0.06551*%
%ADD38O,0.07290X0.10243*%
%ADD39R,0.07874X0.07874*%
%ADD40C,0.07874*%
%ADD41C,0.24810*%
%ADD42O,0.06306X0.08274*%
%ADD43R,0.06400X0.06400*%
%ADD44C,0.06400*%
%ADD45C,0.05794*%
%ADD46R,0.05794X0.05794*%
%ADD47O,0.08274X0.12211*%
%ADD48R,0.05512X0.05512*%
D19*
X633130Y637343D02*
D03*
Y639311D02*
D03*
Y641280D02*
D03*
Y643248D02*
D03*
Y645217D02*
D03*
Y647185D02*
D03*
Y631437D02*
D03*
Y653090D02*
D03*
X626319Y647185D02*
D03*
Y645217D02*
D03*
Y643248D02*
D03*
Y641280D02*
D03*
Y639311D02*
D03*
Y637343D02*
D03*
Y653090D02*
D03*
Y631437D02*
D03*
D20*
X388440Y753173D02*
D03*
X395921D02*
D03*
Y743370D02*
D03*
X392180D02*
D03*
X388440D02*
D03*
X1153417Y790402D02*
D03*
X1160898D02*
D03*
Y780598D02*
D03*
X1157158D02*
D03*
X1153417D02*
D03*
X1237602Y789902D02*
D03*
X1245083D02*
D03*
Y780098D02*
D03*
X1241343D02*
D03*
X1237602D02*
D03*
X450238Y743586D02*
D03*
X453978D02*
D03*
X457718D02*
D03*
Y753389D02*
D03*
X450238D02*
D03*
D21*
X1275500Y776713D02*
D03*
Y790492D02*
D03*
X1124000Y775658D02*
D03*
Y789437D02*
D03*
X423500Y740220D02*
D03*
Y754000D02*
D03*
X361000Y740220D02*
D03*
Y754000D02*
D03*
X675000Y656343D02*
D03*
Y636657D02*
D03*
D22*
X301000Y494390D02*
D03*
Y480610D02*
D03*
D23*
X925197Y413386D02*
D03*
X610236D02*
D03*
X1417323Y846457D02*
D03*
Y511811D02*
D03*
Y98425D02*
D03*
X118110Y846457D02*
D03*
Y511811D02*
D03*
Y98425D02*
D03*
D24*
X1470500Y823633D02*
D03*
X1410973Y231500D02*
D03*
X124027Y361500D02*
D03*
D25*
X1460500Y823633D02*
D03*
X1450500D02*
D03*
X1440500D02*
D03*
X1430500D02*
D03*
X1420500D02*
D03*
X1410500D02*
D03*
X1400500D02*
D03*
X1390500D02*
D03*
X1380500D02*
D03*
X1370500D02*
D03*
X1360500D02*
D03*
X1350500D02*
D03*
X1340500D02*
D03*
X1330500D02*
D03*
Y733633D02*
D03*
X1340500D02*
D03*
X1350500D02*
D03*
X1360500D02*
D03*
X1370500D02*
D03*
X1380500D02*
D03*
X1390500D02*
D03*
X1400500D02*
D03*
X1410500D02*
D03*
X1420500D02*
D03*
X1430500D02*
D03*
X1440500D02*
D03*
X1450500D02*
D03*
X1460500D02*
D03*
X1470500D02*
D03*
X1400973Y231500D02*
D03*
X1390973D02*
D03*
X1380973D02*
D03*
X1370973D02*
D03*
X1360973D02*
D03*
X1350973D02*
D03*
X1340973D02*
D03*
X1330973D02*
D03*
X1320973D02*
D03*
X1310973D02*
D03*
X1300973D02*
D03*
X1290973D02*
D03*
X1280973D02*
D03*
X1270973D02*
D03*
Y141500D02*
D03*
X1280973D02*
D03*
X1290973D02*
D03*
X1300973D02*
D03*
X1310973D02*
D03*
X1320973D02*
D03*
X1330973D02*
D03*
X1340973D02*
D03*
X1350973D02*
D03*
X1360973D02*
D03*
X1370973D02*
D03*
X1380973D02*
D03*
X1390973D02*
D03*
X1400973D02*
D03*
X1410973D02*
D03*
X124027Y451500D02*
D03*
X134027D02*
D03*
X144027D02*
D03*
X154027D02*
D03*
X164027D02*
D03*
X174027D02*
D03*
X184027D02*
D03*
X194027D02*
D03*
X204027D02*
D03*
X214027D02*
D03*
X224027D02*
D03*
X234027D02*
D03*
X244027D02*
D03*
X254027D02*
D03*
X264027D02*
D03*
Y361500D02*
D03*
X254027D02*
D03*
X244027D02*
D03*
X234027D02*
D03*
X224027D02*
D03*
X214027D02*
D03*
X204027D02*
D03*
X194027D02*
D03*
X184027D02*
D03*
X174027D02*
D03*
X164027D02*
D03*
X154027D02*
D03*
X144027D02*
D03*
X134027D02*
D03*
D26*
X1362874Y855630D02*
D03*
X1355000D02*
D03*
X1333322Y854559D02*
D03*
X1325448D02*
D03*
X1383000Y855630D02*
D03*
X1390874D02*
D03*
D27*
X1241343Y693000D02*
D03*
Y753000D02*
D03*
X1077500Y369592D02*
D03*
Y429592D02*
D03*
X974500Y370000D02*
D03*
Y430000D02*
D03*
X1194000Y137232D02*
D03*
X1134000D02*
D03*
Y93925D02*
D03*
X1194000D02*
D03*
X1134000Y267154D02*
D03*
X1194000D02*
D03*
X1134000Y180539D02*
D03*
X1194000D02*
D03*
X1134000Y310461D02*
D03*
X1194000D02*
D03*
X1134000Y223847D02*
D03*
X1194000D02*
D03*
Y353768D02*
D03*
X1134000D02*
D03*
Y51500D02*
D03*
X1194000D02*
D03*
X47244Y625000D02*
D03*
Y565000D02*
D03*
X90551Y625000D02*
D03*
Y565000D02*
D03*
X133858D02*
D03*
Y625000D02*
D03*
X177165Y565000D02*
D03*
Y625000D02*
D03*
X220472D02*
D03*
Y565000D02*
D03*
X263779Y625000D02*
D03*
Y565000D02*
D03*
X307087D02*
D03*
Y625000D02*
D03*
X350394Y565000D02*
D03*
Y625000D02*
D03*
X544555Y766500D02*
D03*
Y826500D02*
D03*
X501445Y766500D02*
D03*
Y826500D02*
D03*
X516000Y718500D02*
D03*
Y658500D02*
D03*
X401087Y729500D02*
D03*
Y669500D02*
D03*
X453978D02*
D03*
Y729500D02*
D03*
X614500Y537000D02*
D03*
Y597000D02*
D03*
X653000D02*
D03*
Y537000D02*
D03*
X1157319Y753000D02*
D03*
Y693000D02*
D03*
X1122000Y529500D02*
D03*
Y589500D02*
D03*
X1200000D02*
D03*
Y529500D02*
D03*
X1162500D02*
D03*
Y589500D02*
D03*
D28*
X487500Y888000D02*
D03*
X1322843Y931303D02*
D03*
X1256185Y892000D02*
D03*
X1246342Y931500D02*
D03*
X1165000D02*
D03*
X1170343Y892000D02*
D03*
D29*
X477658Y888000D02*
D03*
X467815D02*
D03*
X457972D02*
D03*
X1303158Y931303D02*
D03*
X1313000D02*
D03*
X1226657Y892000D02*
D03*
X1236500D02*
D03*
X1246342D02*
D03*
X1226657Y931500D02*
D03*
X1236500D02*
D03*
X1155157D02*
D03*
X1145315D02*
D03*
X1140815Y892000D02*
D03*
X1150657D02*
D03*
X1160500D02*
D03*
X814500Y474000D02*
D03*
Y483843D02*
D03*
Y493685D02*
D03*
X931067Y474000D02*
D03*
Y483843D02*
D03*
Y493685D02*
D03*
X874000D02*
D03*
Y483843D02*
D03*
Y474000D02*
D03*
X993500D02*
D03*
Y483843D02*
D03*
Y493685D02*
D03*
X1049689Y474000D02*
D03*
Y483843D02*
D03*
Y493685D02*
D03*
D30*
X629724Y627500D02*
D03*
D31*
Y657028D02*
D03*
D32*
X638189Y651713D02*
D03*
Y632815D02*
D03*
X621260Y651713D02*
D03*
Y632815D02*
D03*
D33*
X1224000Y343768D02*
D03*
Y323768D02*
D03*
Y333768D02*
D03*
Y303768D02*
D03*
Y313768D02*
D03*
Y283768D02*
D03*
Y293768D02*
D03*
X172500Y511000D02*
D03*
X192500D02*
D03*
X182500D02*
D03*
X212500D02*
D03*
X202500D02*
D03*
X232500D02*
D03*
X222500D02*
D03*
D34*
X1224000Y353768D02*
D03*
D35*
X75000Y818500D02*
D03*
X305462Y888456D02*
D03*
X304500Y817976D02*
D03*
X152500Y885575D02*
D03*
Y817976D02*
D03*
X231000D02*
D03*
Y886433D02*
D03*
X75000Y886000D02*
D03*
D36*
X84842Y818500D02*
D03*
X315305Y888456D02*
D03*
X314342Y817976D02*
D03*
X162343Y885575D02*
D03*
Y817976D02*
D03*
X240843D02*
D03*
Y886433D02*
D03*
X84842Y886000D02*
D03*
D37*
X162500Y511000D02*
D03*
D38*
X1241343Y843339D02*
D03*
X1251185D02*
D03*
X1231500D02*
D03*
X382815Y818075D02*
D03*
X402500D02*
D03*
X392657D02*
D03*
X378658Y888555D02*
D03*
X398342D02*
D03*
X388500D02*
D03*
X1147315Y843500D02*
D03*
X1167000D02*
D03*
X1157158D02*
D03*
D39*
X513000Y732500D02*
D03*
D40*
X523000D02*
D03*
X533000D02*
D03*
D41*
X817827Y717500D02*
D03*
X1046173D02*
D03*
X817827Y910500D02*
D03*
X1046173D02*
D03*
D42*
X1474000Y690000D02*
D03*
X1460221D02*
D03*
X1349279Y105000D02*
D03*
X1335500D02*
D03*
D43*
X1403000Y893500D02*
D03*
D44*
X1413000D02*
D03*
X1423000D02*
D03*
D45*
X836327Y574500D02*
D03*
Y584500D02*
D03*
X846327Y574500D02*
D03*
Y584500D02*
D03*
X856327Y574500D02*
D03*
Y584500D02*
D03*
X866327Y574500D02*
D03*
Y584500D02*
D03*
X876327Y574500D02*
D03*
Y584500D02*
D03*
X886327Y574500D02*
D03*
Y584500D02*
D03*
X896327Y574500D02*
D03*
Y584500D02*
D03*
X906327Y574500D02*
D03*
Y584500D02*
D03*
X916327Y574500D02*
D03*
Y584500D02*
D03*
X926327Y574500D02*
D03*
Y584500D02*
D03*
X936327Y574500D02*
D03*
Y584500D02*
D03*
X946327Y574500D02*
D03*
Y584500D02*
D03*
X956327Y574500D02*
D03*
Y584500D02*
D03*
X966327Y574500D02*
D03*
Y584500D02*
D03*
X976327Y574500D02*
D03*
Y584500D02*
D03*
X986327Y574500D02*
D03*
Y584500D02*
D03*
X996327Y574500D02*
D03*
Y584500D02*
D03*
X1006327Y574500D02*
D03*
Y584500D02*
D03*
X1016327Y574500D02*
D03*
Y584500D02*
D03*
X1026327Y574500D02*
D03*
D46*
Y584500D02*
D03*
D47*
X1030000Y406000D02*
D03*
X1010000D02*
D03*
X1040000D02*
D03*
X1020000D02*
D03*
D48*
X814500Y503528D02*
D03*
X931067D02*
D03*
X874000D02*
D03*
X993500D02*
D03*
X1049689D02*
D03*
M02*
