G04*
G04 #@! TF.GenerationSoftware,Altium Limited,Altium Designer,24.1.2 (44)*
G04*
G04 Layer_Physical_Order=2*
G04 Layer_Color=16711680*
%FSLAX25Y25*%
%MOIN*%
G70*
G04*
G04 #@! TF.SameCoordinates,7BB0C798-B388-47C6-955D-DBFAA0C4EE40*
G04*
G04*
G04 #@! TF.FilePolarity,Positive*
G04*
G01*
G75*
%ADD12C,0.01968*%
%ADD15C,0.07874*%
%ADD16C,0.00591*%
%ADD28R,0.05512X0.05512*%
%ADD29C,0.05512*%
%ADD30C,0.02047*%
G04:AMPARAMS|DCode=31|XSize=28.35mil|YSize=20.47mil|CornerRadius=10.24mil|HoleSize=0mil|Usage=FLASHONLY|Rotation=90.000|XOffset=0mil|YOffset=0mil|HoleType=Round|Shape=RoundedRectangle|*
%AMROUNDEDRECTD31*
21,1,0.02835,0.00000,0,0,90.0*
21,1,0.00787,0.02047,0,0,90.0*
1,1,0.02047,0.00000,0.00394*
1,1,0.02047,0.00000,-0.00394*
1,1,0.02047,0.00000,-0.00394*
1,1,0.02047,0.00000,0.00394*
%
%ADD31ROUNDEDRECTD31*%
G04:AMPARAMS|DCode=32|XSize=53.15mil|YSize=43.31mil|CornerRadius=21.65mil|HoleSize=0mil|Usage=FLASHONLY|Rotation=90.000|XOffset=0mil|YOffset=0mil|HoleType=Round|Shape=RoundedRectangle|*
%AMROUNDEDRECTD32*
21,1,0.05315,0.00000,0,0,90.0*
21,1,0.00984,0.04331,0,0,90.0*
1,1,0.04331,0.00000,0.00492*
1,1,0.04331,0.00000,-0.00492*
1,1,0.04331,0.00000,-0.00492*
1,1,0.04331,0.00000,0.00492*
%
%ADD32ROUNDEDRECTD32*%
%ADD35C,0.06102*%
%ADD36R,0.06102X0.06102*%
%ADD39R,0.07874X0.07874*%
%ADD40C,0.07874*%
%ADD48R,0.05512X0.05512*%
%ADD49C,0.02953*%
%ADD50O,0.08268X0.05512*%
%ADD51O,0.07874X0.05906*%
%ADD52R,0.06024X0.06024*%
%ADD53C,0.06024*%
%ADD54O,0.05118X0.07677*%
%ADD55C,0.05000*%
%ADD56C,0.06000*%
%ADD57R,0.06000X0.06000*%
%ADD58R,0.06000X0.06000*%
%ADD59O,0.06890X0.09843*%
%ADD60C,0.24410*%
%ADD61O,0.05906X0.07874*%
%ADD62C,0.05394*%
%ADD63R,0.05394X0.05394*%
%ADD64O,0.07874X0.11811*%
%ADD65C,0.00598*%
G36*
X1371057Y984114D02*
X1378724Y983443D01*
X1386355Y982438D01*
X1393934Y981102D01*
X1401449Y979436D01*
X1408883Y977444D01*
X1416223Y975129D01*
X1423455Y972497D01*
X1430566Y969552D01*
X1437541Y966299D01*
X1444368Y962745D01*
X1451034Y958897D01*
X1457525Y954762D01*
X1463829Y950347D01*
X1469936Y945662D01*
X1475831Y940715D01*
X1481506Y935515D01*
X1486948Y930073D01*
X1492148Y924398D01*
X1497095Y918502D01*
X1501780Y912396D01*
X1506195Y906092D01*
X1510330Y899601D01*
X1514178Y892935D01*
X1517732Y886108D01*
X1520985Y879133D01*
X1523930Y872022D01*
X1526562Y864790D01*
X1528877Y857450D01*
X1530869Y850015D01*
X1532535Y842501D01*
X1533871Y834922D01*
X1534876Y827291D01*
X1535546Y819624D01*
X1535882Y811935D01*
Y808087D01*
Y178165D01*
Y174317D01*
X1535546Y166628D01*
X1534876Y158961D01*
X1533871Y151330D01*
X1532535Y143751D01*
X1530869Y136236D01*
X1528877Y128802D01*
X1526562Y121462D01*
X1523930Y114230D01*
X1520985Y107119D01*
X1517732Y100144D01*
X1514178Y93317D01*
X1510330Y86651D01*
X1506195Y80160D01*
X1501780Y73856D01*
X1497095Y67750D01*
X1492148Y61854D01*
X1486948Y56179D01*
X1481506Y50737D01*
X1475831Y45537D01*
X1469935Y40590D01*
X1463829Y35905D01*
X1457525Y31490D01*
X1451034Y27355D01*
X1444368Y23507D01*
X1437541Y19953D01*
X1430566Y16700D01*
X1423455Y13755D01*
X1416223Y11123D01*
X1408883Y8808D01*
X1401449Y6816D01*
X1393934Y5150D01*
X1386355Y3814D01*
X1378724Y2809D01*
X1371057Y2138D01*
X1363368Y1803D01*
X405015D01*
X403548Y1853D01*
X400617Y2169D01*
X397740Y2770D01*
X394936Y3650D01*
X392231Y4800D01*
X389652Y6210D01*
X387224Y7866D01*
X384970Y9752D01*
X382912Y11849D01*
X381069Y14139D01*
X379460Y16597D01*
X378099Y19202D01*
X377000Y21928D01*
X376173Y24748D01*
X375627Y27636D01*
X375366Y30573D01*
X375344Y32053D01*
X375312Y32200D01*
X375303Y32246D01*
X375303Y62500D01*
X375303Y62500D01*
Y63485D01*
X375287Y63563D01*
Y63642D01*
X374903Y65574D01*
X374873Y65647D01*
X374857Y65724D01*
X374103Y67544D01*
X374060Y67610D01*
X374029Y67683D01*
X372935Y69321D01*
X372879Y69377D01*
X372835Y69442D01*
X371442Y70835D01*
X371376Y70879D01*
X371321Y70935D01*
X369683Y72030D01*
X369610Y72060D01*
X369544Y72104D01*
X367724Y72857D01*
X367647Y72873D01*
X367573Y72903D01*
X365641Y73287D01*
X365562D01*
X365485Y73303D01*
X364500Y73303D01*
X140500Y73303D01*
X140500Y73303D01*
X139515D01*
X139437Y73287D01*
X139358D01*
X137426Y72903D01*
X137353Y72873D01*
X137276Y72857D01*
X135456Y72104D01*
X135390Y72060D01*
X135317Y72029D01*
X133679Y70935D01*
X133623Y70879D01*
X133558Y70835D01*
X132165Y69442D01*
X132121Y69376D01*
X132065Y69321D01*
X130971Y67683D01*
X130940Y67610D01*
X130896Y67544D01*
X130143Y65724D01*
X130127Y65647D01*
X130097Y65574D01*
X129713Y63642D01*
Y63563D01*
X129697Y63485D01*
Y62500D01*
Y31583D01*
X128680Y29707D01*
X127168Y27475D01*
X125444Y25402D01*
X123526Y23507D01*
X121431Y21810D01*
X119180Y20326D01*
X116794Y19070D01*
X114296Y18054D01*
X111711Y17288D01*
X109054Y16776D01*
X107705Y16619D01*
X107628Y16594D01*
X107371Y16700D01*
X100396Y19953D01*
X93569Y23507D01*
X86903Y27355D01*
X80412Y31490D01*
X74107Y35905D01*
X68002Y40590D01*
X62106Y45537D01*
X56431Y50737D01*
X50989Y56179D01*
X45789Y61854D01*
X40842Y67750D01*
X36157Y73856D01*
X31742Y80160D01*
X27607Y86651D01*
X23759Y93317D01*
X20205Y100144D01*
X16952Y107119D01*
X14007Y114230D01*
X11374Y121462D01*
X9060Y128802D01*
X7068Y136237D01*
X5402Y143751D01*
X4066Y151330D01*
X3061Y158961D01*
X2390Y166628D01*
X2055Y174317D01*
Y178165D01*
Y808087D01*
Y811935D01*
X2390Y819624D01*
X3061Y827291D01*
X4066Y834922D01*
X5402Y842501D01*
X7068Y850016D01*
X9060Y857450D01*
X11374Y864790D01*
X14007Y872022D01*
X16952Y879133D01*
X20205Y886108D01*
X23759Y892935D01*
X27607Y899601D01*
X31742Y906092D01*
X36157Y912396D01*
X40842Y918502D01*
X45789Y924398D01*
X50989Y930073D01*
X56431Y935515D01*
X62106Y940715D01*
X68002Y945662D01*
X74108Y950347D01*
X80412Y954762D01*
X86903Y958897D01*
X93569Y962745D01*
X100396Y966299D01*
X107371Y969552D01*
X114482Y972497D01*
X121714Y975129D01*
X129054Y977444D01*
X136488Y979436D01*
X144003Y981102D01*
X151582Y982438D01*
X159213Y983443D01*
X166880Y984114D01*
X174569Y984449D01*
X1363368D01*
X1371057Y984114D01*
D02*
G37*
%LPC*%
G36*
X1145815Y935254D02*
Y932000D01*
X1149069D01*
X1148815Y932950D01*
X1148320Y933806D01*
X1147621Y934505D01*
X1146765Y935000D01*
X1145815Y935254D01*
D02*
G37*
G36*
X1227157Y935254D02*
Y932000D01*
X1230412D01*
X1230157Y932950D01*
X1229663Y933806D01*
X1228964Y934505D01*
X1228107Y935000D01*
X1227157Y935254D01*
D02*
G37*
G36*
X1226157Y935254D02*
X1225208Y935000D01*
X1224351Y934505D01*
X1223652Y933806D01*
X1223158Y932950D01*
X1222903Y932000D01*
X1226157D01*
Y935254D01*
D02*
G37*
G36*
X1144815Y935254D02*
X1143865Y935000D01*
X1143009Y934505D01*
X1142309Y933806D01*
X1141815Y932950D01*
X1141560Y932000D01*
X1144815D01*
Y935254D01*
D02*
G37*
G36*
X1303657Y935058D02*
Y931803D01*
X1306912D01*
X1306657Y932753D01*
X1306163Y933609D01*
X1305464Y934309D01*
X1304607Y934803D01*
X1303657Y935058D01*
D02*
G37*
G36*
X1302657Y935058D02*
X1301708Y934803D01*
X1300851Y934309D01*
X1300152Y933609D01*
X1299658Y932753D01*
X1299403Y931803D01*
X1302657D01*
Y935058D01*
D02*
G37*
G36*
X1249698Y934856D02*
X1242987D01*
Y930429D01*
X1240634Y928076D01*
X1238281D01*
X1238147Y928576D01*
X1238561Y928815D01*
X1239185Y929439D01*
X1239627Y930205D01*
X1239856Y931058D01*
Y931942D01*
X1239627Y932795D01*
X1239185Y933561D01*
X1238561Y934185D01*
X1237795Y934627D01*
X1236942Y934856D01*
X1236058D01*
X1235205Y934627D01*
X1234439Y934185D01*
X1233815Y933561D01*
X1233373Y932795D01*
X1233144Y931942D01*
Y931058D01*
X1233373Y930205D01*
X1233815Y929439D01*
X1234439Y928815D01*
X1234853Y928576D01*
X1234719Y928076D01*
X1229160D01*
X1229045Y928576D01*
X1229663Y929194D01*
X1230157Y930050D01*
X1230412Y931000D01*
X1226657D01*
X1222903D01*
X1223158Y930050D01*
X1223652Y929194D01*
X1224270Y928576D01*
X1224155Y928076D01*
X1205868D01*
X1201302Y932642D01*
X1200778Y932992D01*
X1200160Y933115D01*
X1168356D01*
Y934856D01*
X1161644D01*
Y931598D01*
X1160767D01*
X1160149Y931475D01*
X1159625Y931125D01*
X1158838Y930338D01*
X1158390Y930597D01*
X1158513Y931058D01*
Y931942D01*
X1158285Y932795D01*
X1157843Y933561D01*
X1157218Y934185D01*
X1156453Y934627D01*
X1155599Y934856D01*
X1154716D01*
X1153862Y934627D01*
X1153097Y934185D01*
X1152472Y933561D01*
X1152030Y932795D01*
X1151802Y931942D01*
Y931058D01*
X1152030Y930205D01*
X1152472Y929439D01*
X1153097Y928815D01*
X1153510Y928576D01*
X1153376Y928076D01*
X1151461D01*
X1150842Y927953D01*
X1150318Y927603D01*
X1094492Y871776D01*
X1094141Y871252D01*
X1094019Y870634D01*
Y654476D01*
X1030722Y591180D01*
X1028186Y593442D01*
X1027967Y593519D01*
X1027754Y593607D01*
X991464D01*
X991005Y593417D01*
X990815Y592958D01*
Y579437D01*
X981838D01*
X981579Y579698D01*
X981482Y579794D01*
D01*
X981392Y579885D01*
X981393Y580013D01*
Y580013D01*
X981472Y592599D01*
X981472Y592600D01*
X981472Y592601D01*
X981378Y592830D01*
X981285Y593059D01*
X981284Y593060D01*
X981283Y593061D01*
X980931Y593415D01*
X980930Y593416D01*
X980930Y593417D01*
X980700Y593512D01*
X980472Y593607D01*
X980471Y593607D01*
X980470Y593607D01*
X940713D01*
X940253Y593417D01*
X940063Y592958D01*
Y585225D01*
X939563Y585160D01*
X939399Y585773D01*
X938965Y586524D01*
X938351Y587138D01*
X937599Y587572D01*
X936761Y587797D01*
X935893D01*
X935054Y587572D01*
X934732Y587386D01*
X873396Y648722D01*
X873100Y648920D01*
X872750Y648989D01*
X705759D01*
X692103Y662645D01*
X691807Y662843D01*
X691458Y662913D01*
X573044D01*
X572695Y662843D01*
X572399Y662645D01*
X565072Y655318D01*
X518436D01*
X518268Y655818D01*
X518801Y656351D01*
X519262Y657149D01*
X519489Y658000D01*
X516000D01*
X512510D01*
X512739Y657149D01*
X513199Y656351D01*
X513732Y655818D01*
X513564Y655318D01*
X476559D01*
X403828Y728049D01*
X403975Y728303D01*
X404187Y729092D01*
Y729908D01*
X403975Y730697D01*
X403567Y731403D01*
X402990Y731981D01*
X402283Y732389D01*
X401495Y732600D01*
X400678D01*
X399890Y732389D01*
X399183Y731981D01*
X398606Y731403D01*
X398198Y730697D01*
X397987Y729908D01*
Y729092D01*
X398198Y728303D01*
X398606Y727597D01*
X399183Y727019D01*
X399890Y726611D01*
X400678Y726400D01*
X401495D01*
X402283Y726611D01*
X402538Y726758D01*
X475536Y653760D01*
X475832Y653562D01*
X476181Y653493D01*
X565450D01*
X565799Y653562D01*
X566095Y653760D01*
X573422Y661087D01*
X691080D01*
X704736Y647431D01*
X705032Y647233D01*
X705381Y647164D01*
X872372D01*
X933441Y586095D01*
X933255Y585773D01*
X933030Y584934D01*
Y584066D01*
X933255Y583227D01*
X933689Y582476D01*
X934303Y581862D01*
X935054Y581428D01*
X935893Y581203D01*
X936761D01*
X937599Y581428D01*
X938351Y581862D01*
X938965Y582476D01*
X939399Y583227D01*
X939563Y583840D01*
X940063Y583775D01*
Y576422D01*
X939563Y576288D01*
X939285Y576770D01*
X938597Y577458D01*
X937754Y577945D01*
X936826Y578193D01*
Y574500D01*
Y570807D01*
X937754Y571055D01*
X938597Y571542D01*
X939285Y572230D01*
X939563Y572712D01*
X940063Y572578D01*
Y570836D01*
X940113Y570716D01*
Y570587D01*
X940204Y570496D01*
X940253Y570376D01*
X940395Y569865D01*
X901260Y530730D01*
X900749Y530872D01*
X900630Y530922D01*
X900538Y531013D01*
X900409D01*
X900290Y531062D01*
X804500D01*
X804041Y530872D01*
X803851Y530413D01*
Y498261D01*
X483604D01*
X353629Y628236D01*
X352682Y628963D01*
X351578Y629420D01*
X350394Y629576D01*
X47244D01*
X46060Y629420D01*
X44956Y628963D01*
X44008Y628236D01*
X43281Y627288D01*
X42824Y626184D01*
X42668Y625000D01*
X42824Y623816D01*
X43281Y622712D01*
X44008Y621764D01*
X44956Y621037D01*
X46060Y620580D01*
X47244Y620424D01*
X348498D01*
X478473Y490449D01*
X479421Y489722D01*
X480524Y489265D01*
X481709Y489109D01*
X803851D01*
Y479000D01*
X804041Y478541D01*
X804500Y478351D01*
X996924D01*
Y476503D01*
X996424Y476388D01*
X995806Y477005D01*
X994950Y477500D01*
X994000Y477754D01*
Y474000D01*
Y470246D01*
X994950Y470500D01*
X995806Y470995D01*
X996424Y471612D01*
X996924Y471497D01*
Y454708D01*
X975229Y433014D01*
X974908Y433100D01*
X974092D01*
X973303Y432889D01*
X972597Y432481D01*
X972019Y431903D01*
X971611Y431197D01*
X971400Y430408D01*
Y429592D01*
X971611Y428803D01*
X972019Y428097D01*
X972597Y427519D01*
X973303Y427111D01*
X974092Y426900D01*
X974908D01*
X975697Y427111D01*
X976403Y427519D01*
X976981Y428097D01*
X977389Y428803D01*
X977600Y429592D01*
Y430408D01*
X977514Y430729D01*
X999682Y452897D01*
X1000032Y453421D01*
X1000155Y454039D01*
Y478351D01*
X1062087D01*
Y461347D01*
X1012505Y411765D01*
X1012288Y411932D01*
X1011184Y412389D01*
X1010000Y412545D01*
X1008816Y412389D01*
X1007712Y411932D01*
X1006764Y411204D01*
X1006037Y410257D01*
X1005580Y409153D01*
X1005424Y407969D01*
Y404032D01*
X1005580Y402847D01*
X1006037Y401743D01*
X1006764Y400796D01*
X1007712Y400068D01*
X1008816Y399611D01*
X1009087Y399575D01*
Y388378D01*
X1007800Y387091D01*
X990678D01*
X990329Y387021D01*
X990032Y386823D01*
X975951Y372742D01*
X975697Y372889D01*
X974908Y373100D01*
X974092D01*
X973303Y372889D01*
X972597Y372481D01*
X972019Y371903D01*
X971611Y371197D01*
X971535Y370913D01*
X808551D01*
X808202Y370843D01*
X807906Y370645D01*
X805673Y368413D01*
X210027D01*
X209677Y368343D01*
X209381Y368145D01*
X205852Y364616D01*
X205421Y364866D01*
X204502Y365112D01*
X203551D01*
X202633Y364866D01*
X201809Y364390D01*
X201137Y363718D01*
X200661Y362894D01*
X200415Y361976D01*
Y361024D01*
X200661Y360106D01*
X201137Y359282D01*
X201809Y358610D01*
X202633Y358134D01*
X203551Y357888D01*
X204502D01*
X205421Y358134D01*
X206244Y358610D01*
X206917Y359282D01*
X207392Y360106D01*
X207639Y361024D01*
Y361976D01*
X207392Y362894D01*
X207143Y363326D01*
X210405Y366587D01*
X806051D01*
X806401Y366657D01*
X806697Y366855D01*
X808930Y369087D01*
X971535D01*
X971611Y368803D01*
X972019Y368097D01*
X972597Y367519D01*
X973303Y367111D01*
X974092Y366900D01*
X974908D01*
X975697Y367111D01*
X976403Y367519D01*
X976981Y368097D01*
X977389Y368803D01*
X977600Y369592D01*
Y370408D01*
X977389Y371197D01*
X977242Y371451D01*
X991056Y385265D01*
X1008178D01*
X1008527Y385335D01*
X1008823Y385532D01*
X1010645Y387354D01*
X1010843Y387651D01*
X1010913Y388000D01*
Y399575D01*
X1011184Y399611D01*
X1012288Y400068D01*
X1013236Y400796D01*
X1013963Y401743D01*
X1014420Y402847D01*
X1014576Y404032D01*
Y407969D01*
X1014420Y409153D01*
X1013963Y410257D01*
X1013796Y410474D01*
X1063645Y460323D01*
X1063843Y460619D01*
X1063913Y460968D01*
Y478351D01*
X1072087D01*
Y461347D01*
X1022505Y411765D01*
X1022288Y411932D01*
X1021184Y412389D01*
X1020000Y412545D01*
X1018816Y412389D01*
X1017712Y411932D01*
X1016764Y411204D01*
X1016037Y410257D01*
X1015580Y409153D01*
X1015424Y407969D01*
Y404032D01*
X1015580Y402847D01*
X1016037Y401743D01*
X1016764Y400796D01*
X1017712Y400068D01*
X1018816Y399611D01*
X1019378Y399537D01*
Y399209D01*
X1019448Y398859D01*
X1019646Y398563D01*
X1048209Y370000D01*
X1033122Y354913D01*
X201905D01*
X197143Y359674D01*
X197392Y360106D01*
X197639Y361024D01*
Y361976D01*
X197392Y362894D01*
X196917Y363718D01*
X196245Y364390D01*
X195421Y364866D01*
X194502Y365112D01*
X193551D01*
X192633Y364866D01*
X191809Y364390D01*
X191137Y363718D01*
X190661Y362894D01*
X190415Y361976D01*
Y361024D01*
X190661Y360106D01*
X191137Y359282D01*
X191809Y358610D01*
X192633Y358134D01*
X193551Y357888D01*
X194502D01*
X195421Y358134D01*
X195852Y358383D01*
X200881Y353355D01*
X201177Y353157D01*
X201527Y353087D01*
X1033500D01*
X1033849Y353157D01*
X1034145Y353355D01*
X1049547Y368756D01*
X1049559Y368748D01*
X1049908Y368679D01*
X1074535D01*
X1074611Y368395D01*
X1075019Y367688D01*
X1075597Y367111D01*
X1076303Y366703D01*
X1077092Y366492D01*
X1077908D01*
X1078697Y366703D01*
X1079403Y367111D01*
X1079981Y367688D01*
X1080389Y368395D01*
X1080574Y369087D01*
X1104892D01*
X1195451Y278528D01*
X1195747Y278330D01*
X1196097Y278260D01*
X1289436D01*
X1332294Y235403D01*
X1332035Y234955D01*
X1331449Y235112D01*
X1330498D01*
X1329579Y234866D01*
X1328755Y234390D01*
X1328083Y233718D01*
X1327608Y232894D01*
X1327361Y231976D01*
Y231025D01*
X1327608Y230106D01*
X1328083Y229282D01*
X1328755Y228610D01*
X1329579Y228134D01*
X1330498Y227888D01*
X1331449D01*
X1332367Y228134D01*
X1333191Y228610D01*
X1333863Y229282D01*
X1334339Y230106D01*
X1334585Y231025D01*
Y231976D01*
X1334428Y232561D01*
X1334876Y232820D01*
X1336430Y231266D01*
X1336726Y231069D01*
X1337076Y230999D01*
X1337368D01*
X1337608Y230106D01*
X1338083Y229282D01*
X1338756Y228610D01*
X1339579Y228134D01*
X1340498Y227888D01*
X1341449D01*
X1342367Y228134D01*
X1343191Y228610D01*
X1343863Y229282D01*
X1344339Y230106D01*
X1344585Y231025D01*
Y231976D01*
X1344339Y232894D01*
X1343863Y233718D01*
X1343191Y234390D01*
X1342367Y234866D01*
X1341449Y235112D01*
X1340498D01*
X1339579Y234866D01*
X1338756Y234390D01*
X1338083Y233718D01*
X1337785Y233201D01*
X1337170Y233109D01*
X1290460Y279819D01*
X1290164Y280017D01*
X1289814Y280086D01*
X1225823D01*
X1225689Y280586D01*
X1226210Y280887D01*
X1226881Y281557D01*
X1227355Y282378D01*
X1227600Y283294D01*
Y284242D01*
X1227355Y285157D01*
X1226881Y285978D01*
X1226210Y286648D01*
X1225390Y287122D01*
X1224474Y287368D01*
X1223526D01*
X1222610Y287122D01*
X1222183Y286876D01*
X1205007Y304051D01*
Y310816D01*
X1205469Y311008D01*
X1220892Y295585D01*
X1220645Y295157D01*
X1220400Y294242D01*
Y293294D01*
X1220645Y292378D01*
X1221119Y291557D01*
X1221790Y290887D01*
X1222610Y290413D01*
X1223526Y290168D01*
X1224474D01*
X1225390Y290413D01*
X1226210Y290887D01*
X1226881Y291557D01*
X1227355Y292378D01*
X1227600Y293294D01*
Y294242D01*
X1227355Y295157D01*
X1226881Y295978D01*
X1226210Y296648D01*
X1225390Y297122D01*
X1224474Y297368D01*
X1223526D01*
X1222610Y297122D01*
X1222183Y296876D01*
X1206098Y312961D01*
Y319726D01*
X1206560Y319917D01*
X1220892Y305585D01*
X1220645Y305157D01*
X1220400Y304242D01*
Y303294D01*
X1220645Y302378D01*
X1221119Y301557D01*
X1221790Y300887D01*
X1222610Y300413D01*
X1223526Y300168D01*
X1224474D01*
X1225390Y300413D01*
X1226210Y300887D01*
X1226881Y301557D01*
X1227355Y302378D01*
X1227600Y303294D01*
Y304242D01*
X1227355Y305157D01*
X1226881Y305978D01*
X1226210Y306648D01*
X1225390Y307122D01*
X1224474Y307368D01*
X1223526D01*
X1222610Y307122D01*
X1222183Y306876D01*
X1207188Y321870D01*
Y328635D01*
X1207650Y328826D01*
X1220892Y315585D01*
X1220645Y315157D01*
X1220400Y314242D01*
Y313294D01*
X1220645Y312378D01*
X1221119Y311557D01*
X1221790Y310887D01*
X1222610Y310413D01*
X1223526Y310168D01*
X1224474D01*
X1225390Y310413D01*
X1226210Y310887D01*
X1226881Y311557D01*
X1227355Y312378D01*
X1227600Y313294D01*
Y314242D01*
X1227355Y315157D01*
X1226881Y315978D01*
X1226210Y316648D01*
X1225390Y317122D01*
X1224474Y317368D01*
X1223526D01*
X1222610Y317122D01*
X1222183Y316876D01*
X1208279Y330780D01*
Y854976D01*
X1208210Y855326D01*
X1208012Y855622D01*
X1173698Y889935D01*
Y895356D01*
X1166987D01*
Y888644D01*
X1172408D01*
X1206453Y854598D01*
Y717866D01*
X1205991Y717674D01*
X1162617Y761048D01*
Y814354D01*
X1172685Y824422D01*
X1172883Y824718D01*
X1172952Y825067D01*
Y880461D01*
X1172883Y880810D01*
X1172685Y881106D01*
X1163429Y890362D01*
X1163627Y890705D01*
X1163856Y891558D01*
Y892442D01*
X1163627Y893295D01*
X1163185Y894061D01*
X1162561Y894685D01*
X1161795Y895127D01*
X1160942Y895356D01*
X1160058D01*
X1159205Y895127D01*
X1158439Y894685D01*
X1157815Y894061D01*
X1157373Y893295D01*
X1157144Y892442D01*
Y891558D01*
X1157373Y890705D01*
X1157815Y889939D01*
X1158439Y889315D01*
X1159205Y888873D01*
X1160058Y888644D01*
X1160942D01*
X1161795Y888873D01*
X1162138Y889071D01*
X1171127Y880083D01*
Y846890D01*
X1170627Y846791D01*
X1170533Y847016D01*
X1169885Y847861D01*
X1169040Y848510D01*
X1168056Y848917D01*
X1167000Y849056D01*
X1165944Y848917D01*
X1164960Y848510D01*
X1164115Y847861D01*
X1163467Y847016D01*
X1163059Y846032D01*
X1162920Y844976D01*
Y842024D01*
X1163059Y840968D01*
X1163467Y839984D01*
X1164115Y839139D01*
X1164960Y838490D01*
X1165944Y838083D01*
X1167000Y837944D01*
X1168056Y838083D01*
X1169040Y838490D01*
X1169885Y839139D01*
X1170533Y839984D01*
X1170627Y840209D01*
X1171127Y840110D01*
Y825445D01*
X1161059Y815378D01*
X1160861Y815082D01*
X1160792Y814732D01*
Y761985D01*
X1160330Y761794D01*
X1143188Y778935D01*
Y839279D01*
X1143688Y839448D01*
X1144145Y838853D01*
X1145073Y838141D01*
X1146155Y837693D01*
X1146815Y837606D01*
Y843500D01*
Y849394D01*
X1146155Y849307D01*
X1145073Y848859D01*
X1144145Y848147D01*
X1143688Y847552D01*
X1143188Y847721D01*
Y883240D01*
X1149019Y889071D01*
X1149362Y888873D01*
X1150216Y888644D01*
X1151099D01*
X1151953Y888873D01*
X1152718Y889315D01*
X1153343Y889939D01*
X1153785Y890705D01*
X1154013Y891558D01*
Y892442D01*
X1153785Y893295D01*
X1153343Y894061D01*
X1152718Y894685D01*
X1151953Y895127D01*
X1151099Y895356D01*
X1150216D01*
X1149362Y895127D01*
X1148597Y894685D01*
X1147972Y894061D01*
X1147530Y893295D01*
X1147302Y892442D01*
Y891558D01*
X1147530Y890705D01*
X1147728Y890362D01*
X1141630Y884264D01*
X1141432Y883967D01*
X1141363Y883618D01*
Y779872D01*
X1140901Y779680D01*
X1139767Y780814D01*
Y888372D01*
X1140155Y888702D01*
X1140373Y888644D01*
X1141257D01*
X1142110Y888873D01*
X1142875Y889315D01*
X1143500Y889939D01*
X1143942Y890705D01*
X1144171Y891558D01*
Y892442D01*
X1143942Y893295D01*
X1143500Y894061D01*
X1142875Y894685D01*
X1142110Y895127D01*
X1141257Y895356D01*
X1140373D01*
X1139520Y895127D01*
X1138754Y894685D01*
X1138130Y894061D01*
X1137688Y893295D01*
X1137459Y892442D01*
Y891558D01*
X1137688Y890705D01*
X1138130Y889939D01*
X1138411Y889658D01*
X1138209Y889456D01*
X1138011Y889160D01*
X1137941Y888811D01*
Y780436D01*
X1138011Y780087D01*
X1138209Y779791D01*
X1203182Y714818D01*
Y591189D01*
X1202682Y591055D01*
X1202481Y591403D01*
X1201903Y591981D01*
X1201197Y592389D01*
X1200408Y592600D01*
X1199592D01*
X1198803Y592389D01*
X1198097Y591981D01*
X1197519Y591403D01*
X1197111Y590697D01*
X1196900Y589908D01*
Y589092D01*
X1197111Y588303D01*
X1197519Y587597D01*
X1198097Y587019D01*
X1198803Y586611D01*
X1199592Y586400D01*
X1200408D01*
X1201197Y586611D01*
X1201903Y587019D01*
X1202481Y587597D01*
X1202682Y587945D01*
X1203182Y587811D01*
Y531189D01*
X1202682Y531055D01*
X1202481Y531403D01*
X1201903Y531981D01*
X1201197Y532389D01*
X1200408Y532600D01*
X1199592D01*
X1198803Y532389D01*
X1198097Y531981D01*
X1197519Y531403D01*
X1197111Y530697D01*
X1196900Y529908D01*
Y529092D01*
X1197111Y528303D01*
X1197519Y527597D01*
X1198097Y527019D01*
X1198803Y526611D01*
X1199592Y526400D01*
X1200408D01*
X1201197Y526611D01*
X1201903Y527019D01*
X1202481Y527597D01*
X1202682Y527945D01*
X1203182Y527811D01*
Y303673D01*
X1203251Y303324D01*
X1203449Y303028D01*
X1220892Y285585D01*
X1220645Y285157D01*
X1220400Y284242D01*
Y283294D01*
X1220645Y282378D01*
X1221119Y281557D01*
X1221790Y280887D01*
X1222311Y280586D01*
X1222177Y280086D01*
X1196475D01*
X1105916Y370645D01*
X1105619Y370843D01*
X1105270Y370913D01*
X1080317D01*
X1079981Y371495D01*
X1079403Y372073D01*
X1078697Y372481D01*
X1077908Y372692D01*
X1077092D01*
X1076303Y372481D01*
X1075597Y372073D01*
X1075019Y371495D01*
X1074611Y370788D01*
X1074535Y370505D01*
X1050286D01*
X1050146Y370645D01*
X1050146Y370645D01*
X1021564Y399227D01*
X1021681Y399817D01*
X1022288Y400068D01*
X1023236Y400796D01*
X1023963Y401743D01*
X1024420Y402847D01*
X1024546Y403803D01*
X1025050D01*
X1025190Y402743D01*
X1025688Y401542D01*
X1026479Y400510D01*
X1027510Y399719D01*
X1028711Y399222D01*
X1029500Y399118D01*
Y406000D01*
Y412882D01*
X1028711Y412778D01*
X1027510Y412281D01*
X1026479Y411490D01*
X1025688Y410458D01*
X1025190Y409257D01*
X1025050Y408197D01*
X1024546D01*
X1024420Y409153D01*
X1023963Y410257D01*
X1023796Y410474D01*
X1073645Y460323D01*
X1073843Y460619D01*
X1073913Y460968D01*
Y478351D01*
X1083000D01*
X1083459Y478541D01*
X1083649Y479000D01*
Y543671D01*
X1083642Y543689D01*
X1083648Y543708D01*
X1083548Y543916D01*
X1083459Y544130D01*
X1083441Y544138D01*
X1083432Y544155D01*
X1033409Y588783D01*
X1033394Y589283D01*
X1096776Y652665D01*
X1097126Y653189D01*
X1097249Y653807D01*
Y869965D01*
X1152130Y924845D01*
X1157245D01*
X1157863Y924968D01*
X1158387Y925318D01*
X1161164Y928096D01*
X1161644Y928144D01*
Y928144D01*
X1168356D01*
Y929885D01*
X1199491D01*
X1204057Y925318D01*
X1204581Y924968D01*
X1205199Y924845D01*
X1241303D01*
X1241921Y924968D01*
X1242445Y925318D01*
X1245271Y928144D01*
X1247414D01*
X1250437Y925122D01*
X1250961Y924771D01*
X1251579Y924648D01*
X1317803D01*
X1318421Y924771D01*
X1318945Y925122D01*
X1321771Y927947D01*
X1326198D01*
Y934659D01*
X1319487D01*
Y930232D01*
X1317134Y927879D01*
X1314781D01*
X1314647Y928379D01*
X1315061Y928618D01*
X1315685Y929243D01*
X1316127Y930008D01*
X1316356Y930861D01*
Y931745D01*
X1316127Y932598D01*
X1315685Y933364D01*
X1315061Y933988D01*
X1314295Y934430D01*
X1313442Y934659D01*
X1312558D01*
X1311705Y934430D01*
X1310939Y933988D01*
X1310315Y933364D01*
X1309873Y932598D01*
X1309644Y931745D01*
Y930861D01*
X1309873Y930008D01*
X1310315Y929243D01*
X1310939Y928618D01*
X1311353Y928379D01*
X1311219Y927879D01*
X1305660D01*
X1305545Y928379D01*
X1306163Y928997D01*
X1306657Y929853D01*
X1306912Y930803D01*
X1303157D01*
X1299403D01*
X1299658Y929853D01*
X1300152Y928997D01*
X1300770Y928379D01*
X1300655Y927879D01*
X1252248D01*
X1249698Y930429D01*
Y934856D01*
D02*
G37*
G36*
X1149069Y931000D02*
X1145815D01*
Y927746D01*
X1146765Y928000D01*
X1147621Y928494D01*
X1148320Y929194D01*
X1148815Y930050D01*
X1149069Y931000D01*
D02*
G37*
G36*
X1144815D02*
X1141561D01*
X1141815Y930050D01*
X1142309Y929194D01*
X1143009Y928494D01*
X1143865Y928000D01*
X1144815Y927746D01*
Y931000D01*
D02*
G37*
G36*
X1047181Y923305D02*
X1045166D01*
X1043175Y922989D01*
X1041258Y922367D01*
X1039462Y921452D01*
X1037831Y920267D01*
X1036406Y918842D01*
X1035222Y917211D01*
X1034307Y915415D01*
X1033684Y913498D01*
X1033368Y911508D01*
Y909492D01*
X1033684Y907502D01*
X1034307Y905585D01*
X1035222Y903789D01*
X1036406Y902158D01*
X1037831Y900733D01*
X1039462Y899548D01*
X1041258Y898633D01*
X1043175Y898011D01*
X1045166Y897695D01*
X1047181D01*
X1049172Y898011D01*
X1051089Y898633D01*
X1052884Y899548D01*
X1054515Y900733D01*
X1055940Y902158D01*
X1057125Y903789D01*
X1058040Y905585D01*
X1058663Y907502D01*
X1058978Y909492D01*
Y911508D01*
X1058663Y913498D01*
X1058040Y915415D01*
X1057125Y917211D01*
X1055940Y918842D01*
X1054515Y920267D01*
X1052884Y921452D01*
X1051089Y922367D01*
X1049172Y922989D01*
X1047181Y923305D01*
D02*
G37*
G36*
X818834D02*
X816819D01*
X814828Y922989D01*
X812912Y922367D01*
X811116Y921452D01*
X809485Y920267D01*
X808060Y918842D01*
X806875Y917211D01*
X805960Y915415D01*
X805337Y913498D01*
X805022Y911508D01*
Y909492D01*
X805337Y907502D01*
X805960Y905585D01*
X806875Y903789D01*
X808060Y902158D01*
X809485Y900733D01*
X811116Y899548D01*
X812912Y898633D01*
X814828Y898011D01*
X816819Y897695D01*
X818834D01*
X820825Y898011D01*
X822742Y898633D01*
X824538Y899548D01*
X826169Y900733D01*
X827594Y902158D01*
X828778Y903789D01*
X829693Y905585D01*
X830316Y907502D01*
X830632Y909492D01*
Y911508D01*
X830316Y913498D01*
X829693Y915415D01*
X828778Y917211D01*
X827594Y918842D01*
X826169Y920267D01*
X824538Y921452D01*
X822742Y922367D01*
X820825Y922989D01*
X818834Y923305D01*
D02*
G37*
G36*
X1423474Y897100D02*
X1422526D01*
X1421610Y896855D01*
X1420790Y896381D01*
X1420119Y895710D01*
X1419645Y894890D01*
X1419400Y893974D01*
Y893026D01*
X1419645Y892110D01*
X1420119Y891290D01*
X1420790Y890619D01*
X1421610Y890145D01*
X1422526Y889900D01*
X1423474D01*
X1424390Y890145D01*
X1425210Y890619D01*
X1425881Y891290D01*
X1426355Y892110D01*
X1426600Y893026D01*
Y893974D01*
X1426355Y894890D01*
X1425881Y895710D01*
X1425210Y896381D01*
X1424390Y896855D01*
X1423474Y897100D01*
D02*
G37*
G36*
X1413474D02*
X1412526D01*
X1411610Y896855D01*
X1410790Y896381D01*
X1410119Y895710D01*
X1409645Y894890D01*
X1409400Y893974D01*
Y893026D01*
X1409645Y892110D01*
X1410119Y891290D01*
X1410790Y890619D01*
X1411610Y890145D01*
X1412526Y889900D01*
X1413474D01*
X1414390Y890145D01*
X1415210Y890619D01*
X1415881Y891290D01*
X1416355Y892110D01*
X1416600Y893026D01*
Y893974D01*
X1416355Y894890D01*
X1415881Y895710D01*
X1415210Y896381D01*
X1414390Y896855D01*
X1413474Y897100D01*
D02*
G37*
G36*
X1406600D02*
X1399400D01*
Y889900D01*
X1406600D01*
Y897100D01*
D02*
G37*
G36*
X379157Y894449D02*
Y889055D01*
X383141D01*
Y890031D01*
X382988Y891191D01*
X382540Y892273D01*
X381828Y893201D01*
X380899Y893914D01*
X379818Y894362D01*
X379157Y894449D01*
D02*
G37*
G36*
X378157Y894449D02*
X377497Y894362D01*
X376416Y893914D01*
X375487Y893201D01*
X374775Y892273D01*
X374327Y891191D01*
X374174Y890031D01*
Y889055D01*
X378157D01*
Y894449D01*
D02*
G37*
G36*
X305996Y892508D02*
X305962D01*
Y888957D01*
X309513D01*
Y888990D01*
X309237Y890020D01*
X308704Y890944D01*
X307950Y891698D01*
X307026Y892231D01*
X305996Y892508D01*
D02*
G37*
G36*
X304962D02*
X304929D01*
X303899Y892231D01*
X302975Y891698D01*
X302221Y890944D01*
X301687Y890020D01*
X301411Y888990D01*
Y888957D01*
X304962D01*
Y892508D01*
D02*
G37*
G36*
X1227099Y895356D02*
X1226216D01*
X1225362Y895127D01*
X1224597Y894685D01*
X1223972Y894061D01*
X1223530Y893295D01*
X1223302Y892442D01*
Y891558D01*
X1223530Y890705D01*
X1223728Y890362D01*
X1223355Y889988D01*
X1223157Y889692D01*
X1223087Y889342D01*
Y357368D01*
X1220400D01*
Y350168D01*
X1227600D01*
Y357368D01*
X1224913D01*
Y888555D01*
X1225310Y888836D01*
X1225413Y888859D01*
X1226216Y888644D01*
X1227099D01*
X1227953Y888873D01*
X1228718Y889315D01*
X1229343Y889939D01*
X1229785Y890705D01*
X1230013Y891558D01*
Y892442D01*
X1229785Y893295D01*
X1229343Y894061D01*
X1228718Y894685D01*
X1227953Y895127D01*
X1227099Y895356D01*
D02*
G37*
G36*
X458472Y891754D02*
Y888500D01*
X461727D01*
X461472Y889450D01*
X460978Y890306D01*
X460279Y891006D01*
X459422Y891500D01*
X458472Y891754D01*
D02*
G37*
G36*
X457472D02*
X456523Y891500D01*
X455666Y891006D01*
X454967Y890306D01*
X454472Y889450D01*
X454218Y888500D01*
X457472D01*
Y891754D01*
D02*
G37*
G36*
X231533Y890484D02*
X231500D01*
Y886933D01*
X235051D01*
Y886966D01*
X234775Y887997D01*
X234242Y888921D01*
X233488Y889675D01*
X232564Y890208D01*
X231533Y890484D01*
D02*
G37*
G36*
X230500D02*
X230467D01*
X229436Y890208D01*
X228513Y889675D01*
X227758Y888921D01*
X227225Y887997D01*
X226949Y886966D01*
Y886933D01*
X230500D01*
Y890484D01*
D02*
G37*
G36*
X75533Y890051D02*
X75500D01*
Y886500D01*
X79051D01*
Y886533D01*
X78775Y887564D01*
X78242Y888488D01*
X77487Y889242D01*
X76564Y889775D01*
X75533Y890051D01*
D02*
G37*
G36*
X74500D02*
X74467D01*
X73436Y889775D01*
X72513Y889242D01*
X71758Y888488D01*
X71225Y887564D01*
X70949Y886533D01*
Y886500D01*
X74500D01*
Y890051D01*
D02*
G37*
G36*
X153033Y889627D02*
X153000D01*
Y886075D01*
X156551D01*
Y886109D01*
X156275Y887139D01*
X155742Y888063D01*
X154988Y888817D01*
X154064Y889351D01*
X153033Y889627D01*
D02*
G37*
G36*
X152000D02*
X151967D01*
X150936Y889351D01*
X150013Y888817D01*
X149258Y888063D01*
X148725Y887139D01*
X148449Y886109D01*
Y886075D01*
X152000D01*
Y889627D01*
D02*
G37*
G36*
X318956Y892108D02*
X311654D01*
Y884805D01*
X318956D01*
Y892108D01*
D02*
G37*
G36*
X490856Y891356D02*
X484144D01*
Y884644D01*
X490856D01*
Y891356D01*
D02*
G37*
G36*
X478099D02*
X477216D01*
X476362Y891127D01*
X475597Y890685D01*
X474972Y890061D01*
X474530Y889295D01*
X474302Y888442D01*
Y887558D01*
X474530Y886705D01*
X474972Y885939D01*
X475597Y885315D01*
X476362Y884873D01*
X477216Y884644D01*
X478099D01*
X478953Y884873D01*
X479718Y885315D01*
X480343Y885939D01*
X480785Y886705D01*
X481013Y887558D01*
Y888442D01*
X480785Y889295D01*
X480343Y890061D01*
X479718Y890685D01*
X478953Y891127D01*
X478099Y891356D01*
D02*
G37*
G36*
X468257D02*
X467373D01*
X466520Y891127D01*
X465754Y890685D01*
X465130Y890061D01*
X464688Y889295D01*
X464459Y888442D01*
Y887558D01*
X464688Y886705D01*
X465130Y885939D01*
X465754Y885315D01*
X466520Y884873D01*
X467373Y884644D01*
X468257D01*
X469110Y884873D01*
X469875Y885315D01*
X470500Y885939D01*
X470942Y886705D01*
X471171Y887558D01*
Y888442D01*
X470942Y889295D01*
X470500Y890061D01*
X469875Y890685D01*
X469110Y891127D01*
X468257Y891356D01*
D02*
G37*
G36*
X1259541Y895356D02*
X1252829D01*
Y888644D01*
X1255587D01*
Y884700D01*
X1255125Y884508D01*
X1249272Y890362D01*
X1249470Y890705D01*
X1249698Y891558D01*
Y892442D01*
X1249470Y893295D01*
X1249028Y894061D01*
X1248403Y894685D01*
X1247638Y895127D01*
X1246784Y895356D01*
X1245901D01*
X1245047Y895127D01*
X1244282Y894685D01*
X1243657Y894061D01*
X1243215Y893295D01*
X1242987Y892442D01*
Y891558D01*
X1243215Y890705D01*
X1243657Y889939D01*
X1244282Y889315D01*
X1245047Y888873D01*
X1245901Y888644D01*
X1246784D01*
X1247638Y888873D01*
X1247981Y889071D01*
X1255312Y881740D01*
Y846729D01*
X1254812Y846629D01*
X1254718Y846855D01*
X1254070Y847700D01*
X1253225Y848348D01*
X1252241Y848756D01*
X1251185Y848895D01*
X1250129Y848756D01*
X1249145Y848348D01*
X1248300Y847700D01*
X1247652Y846855D01*
X1247244Y845871D01*
X1247105Y844815D01*
Y841862D01*
X1247244Y840806D01*
X1247652Y839822D01*
X1248300Y838977D01*
X1249145Y838329D01*
X1250129Y837921D01*
X1251185Y837782D01*
X1252241Y837921D01*
X1253225Y838329D01*
X1254070Y838977D01*
X1254718Y839822D01*
X1254812Y840048D01*
X1255312Y839948D01*
Y366370D01*
X1225817Y336876D01*
X1225390Y337122D01*
X1224474Y337368D01*
X1223526D01*
X1222610Y337122D01*
X1221790Y336648D01*
X1221119Y335978D01*
X1220645Y335157D01*
X1220400Y334242D01*
Y333294D01*
X1220645Y332378D01*
X1221119Y331557D01*
X1221790Y330887D01*
X1222610Y330413D01*
X1223526Y330168D01*
X1224474D01*
X1225390Y330413D01*
X1226210Y330887D01*
X1226881Y331557D01*
X1227355Y332378D01*
X1227600Y333294D01*
Y334242D01*
X1227355Y335157D01*
X1227108Y335585D01*
X1255940Y364417D01*
X1256402Y364226D01*
Y357461D01*
X1225817Y326876D01*
X1225390Y327122D01*
X1224474Y327368D01*
X1223526D01*
X1222610Y327122D01*
X1221790Y326648D01*
X1221119Y325978D01*
X1220645Y325157D01*
X1220400Y324242D01*
Y323294D01*
X1220645Y322378D01*
X1221119Y321557D01*
X1221790Y320887D01*
X1222610Y320413D01*
X1223526Y320168D01*
X1224474D01*
X1225390Y320413D01*
X1226210Y320887D01*
X1226881Y321557D01*
X1227355Y322378D01*
X1227600Y323294D01*
Y324242D01*
X1227355Y325157D01*
X1227108Y325585D01*
X1257960Y356437D01*
X1258158Y356733D01*
X1258228Y357083D01*
Y882570D01*
X1258158Y882919D01*
X1257960Y883215D01*
X1257413Y883763D01*
Y888644D01*
X1259541D01*
Y895356D01*
D02*
G37*
G36*
X309513Y887957D02*
X305962D01*
Y884405D01*
X305996D01*
X307026Y884681D01*
X307950Y885215D01*
X308704Y885969D01*
X309237Y886893D01*
X309513Y887923D01*
Y887957D01*
D02*
G37*
G36*
X304962D02*
X301411D01*
Y887923D01*
X301687Y886893D01*
X302221Y885969D01*
X302975Y885215D01*
X303899Y884681D01*
X304929Y884405D01*
X304962D01*
Y887957D01*
D02*
G37*
G36*
X461727Y887500D02*
X458472D01*
Y884246D01*
X459422Y884500D01*
X460279Y884995D01*
X460978Y885694D01*
X461472Y886550D01*
X461727Y887500D01*
D02*
G37*
G36*
X457472D02*
X454218D01*
X454472Y886550D01*
X454967Y885694D01*
X455666Y884995D01*
X456523Y884500D01*
X457472Y884246D01*
Y887500D01*
D02*
G37*
G36*
X398342Y894111D02*
X397287Y893972D01*
X396303Y893564D01*
X395458Y892916D01*
X394809Y892071D01*
X394402Y891087D01*
X394263Y890031D01*
Y887078D01*
X394402Y886022D01*
X394809Y885038D01*
X395458Y884194D01*
X396303Y883545D01*
X397287Y883138D01*
X398342Y882999D01*
X399398Y883138D01*
X400382Y883545D01*
X401227Y884194D01*
X401876Y885038D01*
X402283Y886022D01*
X402422Y887078D01*
Y890031D01*
X402283Y891087D01*
X401876Y892071D01*
X401227Y892916D01*
X400382Y893564D01*
X399398Y893972D01*
X398342Y894111D01*
D02*
G37*
G36*
X388500D02*
X387444Y893972D01*
X386460Y893564D01*
X385615Y892916D01*
X384967Y892071D01*
X384559Y891087D01*
X384420Y890031D01*
Y887078D01*
X384559Y886022D01*
X384967Y885038D01*
X385615Y884194D01*
X386460Y883545D01*
X387444Y883138D01*
X388500Y882999D01*
X389556Y883138D01*
X390540Y883545D01*
X391385Y884194D01*
X392033Y885038D01*
X392441Y886022D01*
X392580Y887078D01*
Y890031D01*
X392441Y891087D01*
X392033Y892071D01*
X391385Y892916D01*
X390540Y893564D01*
X389556Y893972D01*
X388500Y894111D01*
D02*
G37*
G36*
X244494Y890084D02*
X237191D01*
Y882782D01*
X244494D01*
Y890084D01*
D02*
G37*
G36*
X383141Y888055D02*
X379157D01*
Y882661D01*
X379818Y882748D01*
X380899Y883196D01*
X381828Y883908D01*
X382540Y884837D01*
X382988Y885918D01*
X383141Y887078D01*
Y888055D01*
D02*
G37*
G36*
X378157D02*
X374174D01*
Y887078D01*
X374327Y885918D01*
X374775Y884837D01*
X375487Y883908D01*
X376416Y883196D01*
X377497Y882748D01*
X378157Y882661D01*
Y888055D01*
D02*
G37*
G36*
X235051Y885933D02*
X231500D01*
Y882382D01*
X231533D01*
X232564Y882658D01*
X233488Y883191D01*
X234242Y883946D01*
X234775Y884869D01*
X235051Y885900D01*
Y885933D01*
D02*
G37*
G36*
X230500D02*
X226949D01*
Y885900D01*
X227225Y884869D01*
X227758Y883946D01*
X228513Y883191D01*
X229436Y882658D01*
X230467Y882382D01*
X230500D01*
Y885933D01*
D02*
G37*
G36*
X88494Y889651D02*
X81191D01*
Y882349D01*
X88494D01*
Y889651D01*
D02*
G37*
G36*
X79051Y885500D02*
X75500D01*
Y881949D01*
X75533D01*
X76564Y882225D01*
X77487Y882758D01*
X78242Y883512D01*
X78775Y884436D01*
X79051Y885467D01*
Y885500D01*
D02*
G37*
G36*
X74500D02*
X70949D01*
Y885467D01*
X71225Y884436D01*
X71758Y883512D01*
X72513Y882758D01*
X73436Y882225D01*
X74467Y881949D01*
X74500D01*
Y885500D01*
D02*
G37*
G36*
X165994Y889227D02*
X158691D01*
Y881924D01*
X165994D01*
Y889227D01*
D02*
G37*
G36*
X156551Y885075D02*
X153000D01*
Y881524D01*
X153033D01*
X154064Y881800D01*
X154988Y882334D01*
X155742Y883088D01*
X156275Y884012D01*
X156551Y885042D01*
Y885075D01*
D02*
G37*
G36*
X152000D02*
X148449D01*
Y885042D01*
X148725Y884012D01*
X149258Y883088D01*
X150013Y882334D01*
X150936Y881800D01*
X151967Y881524D01*
X152000D01*
Y885075D01*
D02*
G37*
G36*
X1383500Y860434D02*
Y856130D01*
X1386590D01*
Y856910D01*
X1386467Y857839D01*
X1386109Y858705D01*
X1385538Y859448D01*
X1384795Y860019D01*
X1383929Y860377D01*
X1383500Y860434D01*
D02*
G37*
G36*
X1355500D02*
Y856130D01*
X1358590D01*
Y856910D01*
X1358467Y857839D01*
X1358109Y858705D01*
X1357538Y859448D01*
X1356795Y860019D01*
X1355929Y860377D01*
X1355500Y860434D01*
D02*
G37*
G36*
X1382500Y860434D02*
X1382071Y860377D01*
X1381205Y860019D01*
X1380462Y859448D01*
X1379891Y858705D01*
X1379533Y857839D01*
X1379410Y856910D01*
Y856130D01*
X1382500D01*
Y860434D01*
D02*
G37*
G36*
X1354500D02*
X1354071Y860377D01*
X1353205Y860019D01*
X1352462Y859448D01*
X1351891Y858705D01*
X1351533Y857839D01*
X1351410Y856910D01*
Y856130D01*
X1354500D01*
Y860434D01*
D02*
G37*
G36*
X1325948Y859362D02*
Y855059D01*
X1329038D01*
Y855838D01*
X1328916Y856767D01*
X1328557Y857633D01*
X1327986Y858377D01*
X1327243Y858947D01*
X1326377Y859306D01*
X1325948Y859362D01*
D02*
G37*
G36*
X1324948Y859362D02*
X1324519Y859306D01*
X1323653Y858947D01*
X1322910Y858377D01*
X1322339Y857633D01*
X1321981Y856767D01*
X1321858Y855838D01*
Y855059D01*
X1324948D01*
Y859362D01*
D02*
G37*
G36*
X1390874Y860096D02*
X1390049Y859988D01*
X1389281Y859669D01*
X1388621Y859163D01*
X1388115Y858503D01*
X1387796Y857734D01*
X1387688Y856910D01*
Y854351D01*
X1387796Y853526D01*
X1388115Y852758D01*
X1388621Y852098D01*
X1389281Y851591D01*
X1390049Y851273D01*
X1390874Y851165D01*
X1391699Y851273D01*
X1392467Y851591D01*
X1393127Y852098D01*
X1393633Y852758D01*
X1393952Y853526D01*
X1394060Y854351D01*
Y856910D01*
X1393952Y857734D01*
X1393633Y858503D01*
X1393127Y859163D01*
X1392467Y859669D01*
X1391699Y859988D01*
X1390874Y860096D01*
D02*
G37*
G36*
X1362874D02*
X1362049Y859988D01*
X1361281Y859669D01*
X1360621Y859163D01*
X1360115Y858503D01*
X1359796Y857734D01*
X1359688Y856910D01*
Y854351D01*
X1359796Y853526D01*
X1360115Y852758D01*
X1360621Y852098D01*
X1361281Y851591D01*
X1362049Y851273D01*
X1362874Y851165D01*
X1363699Y851273D01*
X1364467Y851591D01*
X1365127Y852098D01*
X1365633Y852758D01*
X1365952Y853526D01*
X1366060Y854351D01*
Y856910D01*
X1365952Y857734D01*
X1365633Y858503D01*
X1365127Y859163D01*
X1364467Y859669D01*
X1363699Y859988D01*
X1362874Y860096D01*
D02*
G37*
G36*
X1382500Y855130D02*
X1379410D01*
Y854351D01*
X1379533Y853422D01*
X1379891Y852556D01*
X1380462Y851812D01*
X1381205Y851242D01*
X1382071Y850883D01*
X1382500Y850827D01*
Y855130D01*
D02*
G37*
G36*
X1354500D02*
X1351410D01*
Y854351D01*
X1351533Y853422D01*
X1351891Y852556D01*
X1352462Y851812D01*
X1353205Y851242D01*
X1354071Y850883D01*
X1354500Y850827D01*
Y855130D01*
D02*
G37*
G36*
X1386590D02*
X1383500D01*
Y850827D01*
X1383929Y850883D01*
X1384795Y851242D01*
X1385538Y851812D01*
X1386109Y852556D01*
X1386467Y853422D01*
X1386590Y854351D01*
Y855130D01*
D02*
G37*
G36*
X1358590D02*
X1355500D01*
Y850827D01*
X1355929Y850883D01*
X1356795Y851242D01*
X1357538Y851812D01*
X1358109Y852556D01*
X1358467Y853422D01*
X1358590Y854351D01*
Y855130D01*
D02*
G37*
G36*
X1333322Y859025D02*
X1332497Y858916D01*
X1331729Y858598D01*
X1331069Y858091D01*
X1330563Y857432D01*
X1330244Y856663D01*
X1330136Y855838D01*
Y853279D01*
X1330244Y852455D01*
X1330563Y851686D01*
X1331069Y851026D01*
X1331729Y850520D01*
X1332497Y850202D01*
X1333322Y850093D01*
X1334147Y850202D01*
X1334915Y850520D01*
X1335575Y851026D01*
X1336082Y851686D01*
X1336400Y852455D01*
X1336508Y853279D01*
Y855838D01*
X1336400Y856663D01*
X1336082Y857432D01*
X1335575Y858091D01*
X1334915Y858598D01*
X1334147Y858916D01*
X1333322Y859025D01*
D02*
G37*
G36*
X1324948Y854059D02*
X1321858D01*
Y853279D01*
X1321981Y852350D01*
X1322339Y851484D01*
X1322910Y850741D01*
X1323653Y850170D01*
X1324519Y849812D01*
X1324948Y849755D01*
Y854059D01*
D02*
G37*
G36*
X1329038D02*
X1325948D01*
Y849755D01*
X1326377Y849812D01*
X1327243Y850170D01*
X1327986Y850741D01*
X1328557Y851484D01*
X1328916Y852350D01*
X1329038Y853279D01*
Y854059D01*
D02*
G37*
G36*
X1147815Y849394D02*
Y844000D01*
X1151798D01*
Y844976D01*
X1151645Y846137D01*
X1151198Y847218D01*
X1150485Y848147D01*
X1149557Y848859D01*
X1148475Y849307D01*
X1147815Y849394D01*
D02*
G37*
G36*
X1232000Y849232D02*
Y843839D01*
X1235983D01*
Y844815D01*
X1235830Y845975D01*
X1235383Y847057D01*
X1234670Y847985D01*
X1233742Y848698D01*
X1232660Y849145D01*
X1232000Y849232D01*
D02*
G37*
G36*
X1157158Y849056D02*
X1156102Y848917D01*
X1155118Y848510D01*
X1154273Y847861D01*
X1153624Y847016D01*
X1153217Y846032D01*
X1153078Y844976D01*
Y842024D01*
X1153217Y840968D01*
X1153624Y839984D01*
X1154273Y839139D01*
X1155118Y838490D01*
X1156102Y838083D01*
X1157158Y837944D01*
X1158213Y838083D01*
X1159197Y838490D01*
X1160042Y839139D01*
X1160691Y839984D01*
X1161098Y840968D01*
X1161237Y842024D01*
Y844976D01*
X1161098Y846032D01*
X1160691Y847016D01*
X1160042Y847861D01*
X1159197Y848510D01*
X1158213Y848917D01*
X1157158Y849056D01*
D02*
G37*
G36*
X1241343Y848895D02*
X1240287Y848756D01*
X1239303Y848348D01*
X1238458Y847700D01*
X1237809Y846855D01*
X1237402Y845871D01*
X1237263Y844815D01*
Y841862D01*
X1237402Y840806D01*
X1237809Y839822D01*
X1238458Y838977D01*
X1239303Y838329D01*
X1240287Y837921D01*
X1241343Y837782D01*
X1242398Y837921D01*
X1243382Y838329D01*
X1244227Y838977D01*
X1244876Y839822D01*
X1245283Y840806D01*
X1245422Y841862D01*
Y844815D01*
X1245283Y845871D01*
X1244876Y846855D01*
X1244227Y847700D01*
X1243382Y848348D01*
X1242398Y848756D01*
X1241343Y848895D01*
D02*
G37*
G36*
X1151798Y843000D02*
X1147815D01*
Y837606D01*
X1148475Y837693D01*
X1149557Y838141D01*
X1150485Y838853D01*
X1151198Y839782D01*
X1151645Y840863D01*
X1151798Y842024D01*
Y843000D01*
D02*
G37*
G36*
X1235983Y842838D02*
X1232000D01*
Y837445D01*
X1232660Y837532D01*
X1233742Y837980D01*
X1234670Y838692D01*
X1235383Y839621D01*
X1235830Y840702D01*
X1235983Y841862D01*
Y842838D01*
D02*
G37*
G36*
X1236942Y895356D02*
X1236058D01*
X1235205Y895127D01*
X1234439Y894685D01*
X1233815Y894061D01*
X1233373Y893295D01*
X1233144Y892442D01*
Y891558D01*
X1233373Y890705D01*
X1233815Y889939D01*
X1234439Y889315D01*
X1235205Y888873D01*
X1235587Y888770D01*
Y870619D01*
X1225815Y860847D01*
X1225617Y860551D01*
X1225548Y860202D01*
Y723556D01*
X1225617Y723207D01*
X1225815Y722911D01*
X1231382Y717344D01*
Y352441D01*
X1225817Y346876D01*
X1225390Y347122D01*
X1224474Y347368D01*
X1223526D01*
X1222610Y347122D01*
X1221790Y346648D01*
X1221119Y345978D01*
X1220645Y345157D01*
X1220400Y344242D01*
Y343294D01*
X1220645Y342378D01*
X1221119Y341557D01*
X1221790Y340887D01*
X1222610Y340413D01*
X1223526Y340168D01*
X1224474D01*
X1225390Y340413D01*
X1226210Y340887D01*
X1226881Y341557D01*
X1227355Y342378D01*
X1227600Y343294D01*
Y344242D01*
X1227355Y345157D01*
X1227108Y345585D01*
X1232941Y351417D01*
X1233139Y351714D01*
X1233208Y352063D01*
Y717722D01*
X1233139Y718071D01*
X1232941Y718367D01*
X1227373Y723934D01*
Y839117D01*
X1227873Y839287D01*
X1228330Y838692D01*
X1229258Y837980D01*
X1230340Y837532D01*
X1231000Y837445D01*
Y843338D01*
Y849232D01*
X1230340Y849145D01*
X1229258Y848698D01*
X1228330Y847985D01*
X1227873Y847390D01*
X1227373Y847560D01*
Y859824D01*
X1237145Y869596D01*
X1237343Y869892D01*
X1237413Y870241D01*
Y888770D01*
X1237795Y888873D01*
X1238561Y889315D01*
X1239185Y889939D01*
X1239627Y890705D01*
X1239856Y891558D01*
Y892442D01*
X1239627Y893295D01*
X1239185Y894061D01*
X1238561Y894685D01*
X1237795Y895127D01*
X1236942Y895356D01*
D02*
G37*
G36*
X1417323Y859301D02*
X1415314Y859143D01*
X1413354Y858672D01*
X1411492Y857901D01*
X1409773Y856848D01*
X1408241Y855539D01*
X1406932Y854006D01*
X1405879Y852288D01*
X1405107Y850426D01*
X1404637Y848466D01*
X1404478Y846457D01*
X1404637Y844447D01*
X1405107Y842488D01*
X1405879Y840625D01*
X1406932Y838907D01*
X1408241Y837374D01*
X1409773Y836065D01*
X1411492Y835012D01*
X1413354Y834241D01*
X1415314Y833770D01*
X1417323Y833612D01*
X1419332Y833770D01*
X1421292Y834241D01*
X1423154Y835012D01*
X1424872Y836065D01*
X1426405Y837374D01*
X1427714Y838907D01*
X1428767Y840625D01*
X1429539Y842488D01*
X1430009Y844447D01*
X1430167Y846457D01*
X1430009Y848466D01*
X1429539Y850426D01*
X1428767Y852288D01*
X1427714Y854006D01*
X1426405Y855539D01*
X1424872Y856848D01*
X1423154Y857901D01*
X1421292Y858672D01*
X1419332Y859143D01*
X1417323Y859301D01*
D02*
G37*
G36*
X118110D02*
X116101Y859143D01*
X114141Y858672D01*
X112279Y857901D01*
X110561Y856848D01*
X109028Y855539D01*
X107719Y854006D01*
X106666Y852288D01*
X105895Y850426D01*
X105424Y848466D01*
X105266Y846457D01*
X105424Y844447D01*
X105895Y842488D01*
X106666Y840625D01*
X107719Y838907D01*
X109028Y837374D01*
X110561Y836065D01*
X112279Y835012D01*
X114141Y834241D01*
X116101Y833770D01*
X118110Y833612D01*
X120120Y833770D01*
X122079Y834241D01*
X123941Y835012D01*
X125660Y836065D01*
X127192Y837374D01*
X128501Y838907D01*
X129555Y840625D01*
X130326Y842488D01*
X130796Y844447D01*
X130955Y846457D01*
X130796Y848466D01*
X130326Y850426D01*
X129555Y852288D01*
X128501Y854006D01*
X127192Y855539D01*
X125660Y856848D01*
X123941Y857901D01*
X122079Y858672D01*
X120120Y859143D01*
X118110Y859301D01*
D02*
G37*
G36*
X1474512Y827644D02*
X1471000D01*
Y824133D01*
X1474512D01*
Y827644D01*
D02*
G37*
G36*
X1431028D02*
X1431000D01*
Y824133D01*
X1434512D01*
Y824161D01*
X1434238Y825181D01*
X1433710Y826096D01*
X1432963Y826843D01*
X1432049Y827371D01*
X1431028Y827644D01*
D02*
G37*
G36*
X1381028D02*
X1381000D01*
Y824133D01*
X1384512D01*
Y824161D01*
X1384238Y825181D01*
X1383710Y826096D01*
X1382963Y826843D01*
X1382049Y827371D01*
X1381028Y827644D01*
D02*
G37*
G36*
X1331028D02*
X1331000D01*
Y824133D01*
X1334512D01*
Y824161D01*
X1334238Y825181D01*
X1333710Y826096D01*
X1332963Y826843D01*
X1332049Y827371D01*
X1331028Y827644D01*
D02*
G37*
G36*
X1470000D02*
X1466488D01*
Y824133D01*
X1470000D01*
Y827644D01*
D02*
G37*
G36*
X1430000D02*
X1429972D01*
X1428951Y827371D01*
X1428037Y826843D01*
X1427290Y826096D01*
X1426762Y825181D01*
X1426488Y824161D01*
Y824133D01*
X1430000D01*
Y827644D01*
D02*
G37*
G36*
X1380000D02*
X1379972D01*
X1378951Y827371D01*
X1378037Y826843D01*
X1377290Y826096D01*
X1376762Y825181D01*
X1376488Y824161D01*
Y824133D01*
X1380000D01*
Y827644D01*
D02*
G37*
G36*
X1330000D02*
X1329972D01*
X1328951Y827371D01*
X1328037Y826843D01*
X1327290Y826096D01*
X1326762Y825181D01*
X1326488Y824161D01*
Y824133D01*
X1330000D01*
Y827644D01*
D02*
G37*
G36*
X544963Y829600D02*
X544147D01*
X543359Y829389D01*
X542652Y828981D01*
X542074Y828403D01*
X541666Y827697D01*
X541455Y826908D01*
Y826092D01*
X541666Y825303D01*
X542074Y824597D01*
X542652Y824019D01*
X543359Y823611D01*
X544147Y823400D01*
X544963D01*
X545752Y823611D01*
X546459Y824019D01*
X547036Y824597D01*
X547444Y825303D01*
X547655Y826092D01*
Y826908D01*
X547444Y827697D01*
X547036Y828403D01*
X546459Y828981D01*
X545752Y829389D01*
X544963Y829600D01*
D02*
G37*
G36*
X501853D02*
X501037D01*
X500248Y829389D01*
X499541Y828981D01*
X498964Y828403D01*
X498556Y827697D01*
X498345Y826908D01*
Y826092D01*
X498556Y825303D01*
X498964Y824597D01*
X499541Y824019D01*
X500248Y823611D01*
X501037Y823400D01*
X501853D01*
X502641Y823611D01*
X503348Y824019D01*
X503926Y824597D01*
X504334Y825303D01*
X504545Y826092D01*
Y826908D01*
X504334Y827697D01*
X503926Y828403D01*
X503348Y828981D01*
X502641Y829389D01*
X501853Y829600D01*
D02*
G37*
G36*
X1460975Y827244D02*
X1460025D01*
X1459106Y826998D01*
X1458282Y826523D01*
X1457610Y825850D01*
X1457134Y825027D01*
X1456888Y824108D01*
Y823157D01*
X1457134Y822238D01*
X1457610Y821415D01*
X1458282Y820742D01*
X1459106Y820267D01*
X1460025Y820021D01*
X1460975D01*
X1461894Y820267D01*
X1462718Y820742D01*
X1463390Y821415D01*
X1463866Y822238D01*
X1464112Y823157D01*
Y824108D01*
X1463866Y825027D01*
X1463390Y825850D01*
X1462718Y826523D01*
X1461894Y826998D01*
X1460975Y827244D01*
D02*
G37*
G36*
X1450976D02*
X1450025D01*
X1449106Y826998D01*
X1448282Y826523D01*
X1447610Y825850D01*
X1447134Y825027D01*
X1446888Y824108D01*
Y823157D01*
X1447134Y822238D01*
X1447610Y821415D01*
X1448282Y820742D01*
X1449106Y820267D01*
X1450025Y820021D01*
X1450976D01*
X1451894Y820267D01*
X1452718Y820742D01*
X1453390Y821415D01*
X1453866Y822238D01*
X1454112Y823157D01*
Y824108D01*
X1453866Y825027D01*
X1453390Y825850D01*
X1452718Y826523D01*
X1451894Y826998D01*
X1450976Y827244D01*
D02*
G37*
G36*
X1440975D02*
X1440024D01*
X1439106Y826998D01*
X1438282Y826523D01*
X1437610Y825850D01*
X1437134Y825027D01*
X1436888Y824108D01*
Y823157D01*
X1437134Y822238D01*
X1437610Y821415D01*
X1438282Y820742D01*
X1439106Y820267D01*
X1440024Y820021D01*
X1440975D01*
X1441894Y820267D01*
X1442718Y820742D01*
X1443390Y821415D01*
X1443866Y822238D01*
X1444112Y823157D01*
Y824108D01*
X1443866Y825027D01*
X1443390Y825850D01*
X1442718Y826523D01*
X1441894Y826998D01*
X1440975Y827244D01*
D02*
G37*
G36*
X1420975D02*
X1420024D01*
X1419106Y826998D01*
X1418282Y826523D01*
X1417610Y825850D01*
X1417134Y825027D01*
X1416888Y824108D01*
Y823157D01*
X1417134Y822238D01*
X1417610Y821415D01*
X1418282Y820742D01*
X1419106Y820267D01*
X1420024Y820021D01*
X1420975D01*
X1421894Y820267D01*
X1422718Y820742D01*
X1423390Y821415D01*
X1423866Y822238D01*
X1424112Y823157D01*
Y824108D01*
X1423866Y825027D01*
X1423390Y825850D01*
X1422718Y826523D01*
X1421894Y826998D01*
X1420975Y827244D01*
D02*
G37*
G36*
X1410975D02*
X1410025D01*
X1409106Y826998D01*
X1408282Y826523D01*
X1407610Y825850D01*
X1407134Y825027D01*
X1406888Y824108D01*
Y823157D01*
X1407134Y822238D01*
X1407610Y821415D01*
X1408282Y820742D01*
X1409106Y820267D01*
X1410025Y820021D01*
X1410975D01*
X1411894Y820267D01*
X1412718Y820742D01*
X1413390Y821415D01*
X1413866Y822238D01*
X1414112Y823157D01*
Y824108D01*
X1413866Y825027D01*
X1413390Y825850D01*
X1412718Y826523D01*
X1411894Y826998D01*
X1410975Y827244D01*
D02*
G37*
G36*
X1400976D02*
X1400025D01*
X1399106Y826998D01*
X1398282Y826523D01*
X1397610Y825850D01*
X1397134Y825027D01*
X1396888Y824108D01*
Y823157D01*
X1397134Y822238D01*
X1397610Y821415D01*
X1398282Y820742D01*
X1399106Y820267D01*
X1400025Y820021D01*
X1400976D01*
X1401894Y820267D01*
X1402718Y820742D01*
X1403390Y821415D01*
X1403866Y822238D01*
X1404112Y823157D01*
Y824108D01*
X1403866Y825027D01*
X1403390Y825850D01*
X1402718Y826523D01*
X1401894Y826998D01*
X1400976Y827244D01*
D02*
G37*
G36*
X1390975D02*
X1390024D01*
X1389106Y826998D01*
X1388282Y826523D01*
X1387610Y825850D01*
X1387134Y825027D01*
X1386888Y824108D01*
Y823157D01*
X1387134Y822238D01*
X1387610Y821415D01*
X1388282Y820742D01*
X1389106Y820267D01*
X1390024Y820021D01*
X1390975D01*
X1391894Y820267D01*
X1392718Y820742D01*
X1393390Y821415D01*
X1393866Y822238D01*
X1394112Y823157D01*
Y824108D01*
X1393866Y825027D01*
X1393390Y825850D01*
X1392718Y826523D01*
X1391894Y826998D01*
X1390975Y827244D01*
D02*
G37*
G36*
X1370975D02*
X1370024D01*
X1369106Y826998D01*
X1368282Y826523D01*
X1367610Y825850D01*
X1367134Y825027D01*
X1366888Y824108D01*
Y823157D01*
X1367134Y822238D01*
X1367610Y821415D01*
X1368282Y820742D01*
X1369106Y820267D01*
X1370024Y820021D01*
X1370975D01*
X1371894Y820267D01*
X1372718Y820742D01*
X1373390Y821415D01*
X1373866Y822238D01*
X1374112Y823157D01*
Y824108D01*
X1373866Y825027D01*
X1373390Y825850D01*
X1372718Y826523D01*
X1371894Y826998D01*
X1370975Y827244D01*
D02*
G37*
G36*
X1360975D02*
X1360025D01*
X1359106Y826998D01*
X1358282Y826523D01*
X1357610Y825850D01*
X1357134Y825027D01*
X1356888Y824108D01*
Y823157D01*
X1357134Y822238D01*
X1357610Y821415D01*
X1358282Y820742D01*
X1359106Y820267D01*
X1360025Y820021D01*
X1360975D01*
X1361894Y820267D01*
X1362718Y820742D01*
X1363390Y821415D01*
X1363866Y822238D01*
X1364112Y823157D01*
Y824108D01*
X1363866Y825027D01*
X1363390Y825850D01*
X1362718Y826523D01*
X1361894Y826998D01*
X1360975Y827244D01*
D02*
G37*
G36*
X1350976D02*
X1350025D01*
X1349106Y826998D01*
X1348282Y826523D01*
X1347610Y825850D01*
X1347134Y825027D01*
X1346888Y824108D01*
Y823157D01*
X1347134Y822238D01*
X1347610Y821415D01*
X1348282Y820742D01*
X1349106Y820267D01*
X1350025Y820021D01*
X1350976D01*
X1351894Y820267D01*
X1352718Y820742D01*
X1353390Y821415D01*
X1353866Y822238D01*
X1354112Y823157D01*
Y824108D01*
X1353866Y825027D01*
X1353390Y825850D01*
X1352718Y826523D01*
X1351894Y826998D01*
X1350976Y827244D01*
D02*
G37*
G36*
X1340975D02*
X1340024D01*
X1339106Y826998D01*
X1338282Y826523D01*
X1337610Y825850D01*
X1337134Y825027D01*
X1336888Y824108D01*
Y823157D01*
X1337134Y822238D01*
X1337610Y821415D01*
X1338282Y820742D01*
X1339106Y820267D01*
X1340024Y820021D01*
X1340975D01*
X1341894Y820267D01*
X1342718Y820742D01*
X1343390Y821415D01*
X1343866Y822238D01*
X1344112Y823157D01*
Y824108D01*
X1343866Y825027D01*
X1343390Y825850D01*
X1342718Y826523D01*
X1341894Y826998D01*
X1340975Y827244D01*
D02*
G37*
G36*
X1474512Y823133D02*
X1471000D01*
Y819621D01*
X1474512D01*
Y823133D01*
D02*
G37*
G36*
X1470000D02*
X1466488D01*
Y819621D01*
X1470000D01*
Y823133D01*
D02*
G37*
G36*
X1434512D02*
X1431000D01*
Y819621D01*
X1431028D01*
X1432049Y819894D01*
X1432963Y820422D01*
X1433710Y821169D01*
X1434238Y822084D01*
X1434512Y823104D01*
Y823133D01*
D02*
G37*
G36*
X1430000D02*
X1426488D01*
Y823104D01*
X1426762Y822084D01*
X1427290Y821169D01*
X1428037Y820422D01*
X1428951Y819894D01*
X1429972Y819621D01*
X1430000D01*
Y823133D01*
D02*
G37*
G36*
X1384512D02*
X1381000D01*
Y819621D01*
X1381028D01*
X1382049Y819894D01*
X1382963Y820422D01*
X1383710Y821169D01*
X1384238Y822084D01*
X1384512Y823104D01*
Y823133D01*
D02*
G37*
G36*
X1380000D02*
X1376488D01*
Y823104D01*
X1376762Y822084D01*
X1377290Y821169D01*
X1378037Y820422D01*
X1378951Y819894D01*
X1379972Y819621D01*
X1380000D01*
Y823133D01*
D02*
G37*
G36*
X1334512D02*
X1331000D01*
Y819621D01*
X1331028D01*
X1332049Y819894D01*
X1332963Y820422D01*
X1333710Y821169D01*
X1334238Y822084D01*
X1334512Y823104D01*
Y823133D01*
D02*
G37*
G36*
X1330000D02*
X1326488D01*
Y823104D01*
X1326762Y822084D01*
X1327290Y821169D01*
X1328037Y820422D01*
X1328951Y819894D01*
X1329972Y819621D01*
X1330000D01*
Y823133D01*
D02*
G37*
G36*
X75533Y822551D02*
X75500D01*
Y819000D01*
X79051D01*
Y819033D01*
X78775Y820064D01*
X78242Y820988D01*
X77487Y821742D01*
X76564Y822275D01*
X75533Y822551D01*
D02*
G37*
G36*
X74500D02*
X74467D01*
X73436Y822275D01*
X72513Y821742D01*
X71758Y820988D01*
X71225Y820064D01*
X70949Y819033D01*
Y819000D01*
X74500D01*
Y822551D01*
D02*
G37*
G36*
X383315Y823969D02*
Y818575D01*
X387298D01*
Y819551D01*
X387145Y820712D01*
X386698Y821793D01*
X385985Y822721D01*
X385057Y823434D01*
X383975Y823882D01*
X383315Y823969D01*
D02*
G37*
G36*
X382315Y823969D02*
X381655Y823882D01*
X380573Y823434D01*
X379645Y822721D01*
X378932Y821793D01*
X378485Y820712D01*
X378332Y819551D01*
Y818575D01*
X382315D01*
Y823969D01*
D02*
G37*
G36*
X231533Y822028D02*
X231500D01*
Y818476D01*
X235051D01*
Y818510D01*
X234775Y819540D01*
X234242Y820464D01*
X233488Y821218D01*
X232564Y821751D01*
X231533Y822028D01*
D02*
G37*
G36*
X305033D02*
X305000D01*
Y818476D01*
X308551D01*
Y818510D01*
X308275Y819540D01*
X307742Y820464D01*
X306988Y821218D01*
X306064Y821751D01*
X305033Y822028D01*
D02*
G37*
G36*
X153033D02*
X153000D01*
Y818476D01*
X156551D01*
Y818510D01*
X156275Y819540D01*
X155742Y820464D01*
X154988Y821218D01*
X154064Y821751D01*
X153033Y822028D01*
D02*
G37*
G36*
X230500D02*
X230467D01*
X229436Y821751D01*
X228513Y821218D01*
X227758Y820464D01*
X227225Y819540D01*
X226949Y818510D01*
Y818476D01*
X230500D01*
Y822028D01*
D02*
G37*
G36*
X152000D02*
X151967D01*
X150936Y821751D01*
X150013Y821218D01*
X149258Y820464D01*
X148725Y819540D01*
X148449Y818510D01*
Y818476D01*
X152000D01*
Y822028D01*
D02*
G37*
G36*
X304000D02*
X303967D01*
X302936Y821751D01*
X302012Y821218D01*
X301258Y820464D01*
X300725Y819540D01*
X300449Y818510D01*
Y818476D01*
X304000D01*
Y822028D01*
D02*
G37*
G36*
X88494Y822151D02*
X81191D01*
Y814849D01*
X88494D01*
Y822151D01*
D02*
G37*
G36*
X79051Y818000D02*
X75500D01*
Y814449D01*
X75533D01*
X76564Y814725D01*
X77487Y815258D01*
X78242Y816012D01*
X78775Y816936D01*
X79051Y817967D01*
Y818000D01*
D02*
G37*
G36*
X74500D02*
X70949D01*
Y817967D01*
X71225Y816936D01*
X71758Y816012D01*
X72513Y815258D01*
X73436Y814725D01*
X74467Y814449D01*
X74500D01*
Y818000D01*
D02*
G37*
G36*
X317994Y821628D02*
X310691D01*
Y814325D01*
X317994D01*
Y821628D01*
D02*
G37*
G36*
X244494D02*
X237191D01*
Y814325D01*
X244494D01*
Y821628D01*
D02*
G37*
G36*
X165994D02*
X158691D01*
Y814325D01*
X165994D01*
Y821628D01*
D02*
G37*
G36*
X308551Y817476D02*
X305000D01*
Y813925D01*
X305033D01*
X306064Y814201D01*
X306988Y814735D01*
X307742Y815489D01*
X308275Y816413D01*
X308551Y817443D01*
Y817476D01*
D02*
G37*
G36*
X304000D02*
X300449D01*
Y817443D01*
X300725Y816413D01*
X301258Y815489D01*
X302012Y814735D01*
X302936Y814201D01*
X303967Y813925D01*
X304000D01*
Y817476D01*
D02*
G37*
G36*
X235051D02*
X231500D01*
Y813925D01*
X231533D01*
X232564Y814201D01*
X233488Y814735D01*
X234242Y815489D01*
X234775Y816413D01*
X235051Y817443D01*
Y817476D01*
D02*
G37*
G36*
X230500D02*
X226949D01*
Y817443D01*
X227225Y816413D01*
X227758Y815489D01*
X228513Y814735D01*
X229436Y814201D01*
X230467Y813925D01*
X230500D01*
Y817476D01*
D02*
G37*
G36*
X156551D02*
X153000D01*
Y813925D01*
X153033D01*
X154064Y814201D01*
X154988Y814735D01*
X155742Y815489D01*
X156275Y816413D01*
X156551Y817443D01*
Y817476D01*
D02*
G37*
G36*
X152000D02*
X148449D01*
Y817443D01*
X148725Y816413D01*
X149258Y815489D01*
X150013Y814735D01*
X150936Y814201D01*
X151967Y813925D01*
X152000D01*
Y817476D01*
D02*
G37*
G36*
X402500Y823631D02*
X401444Y823492D01*
X400460Y823084D01*
X399615Y822436D01*
X398967Y821591D01*
X398559Y820607D01*
X398420Y819551D01*
Y816598D01*
X398559Y815543D01*
X398967Y814559D01*
X399615Y813714D01*
X400460Y813065D01*
X401444Y812658D01*
X402500Y812519D01*
X403556Y812658D01*
X404540Y813065D01*
X405385Y813714D01*
X406033Y814559D01*
X406441Y815543D01*
X406580Y816598D01*
Y819551D01*
X406441Y820607D01*
X406033Y821591D01*
X405385Y822436D01*
X404540Y823084D01*
X403556Y823492D01*
X402500Y823631D01*
D02*
G37*
G36*
X392657D02*
X391602Y823492D01*
X390618Y823084D01*
X389773Y822436D01*
X389124Y821591D01*
X388717Y820607D01*
X388578Y819551D01*
Y816598D01*
X388717Y815543D01*
X389124Y814559D01*
X389773Y813714D01*
X390618Y813065D01*
X391602Y812658D01*
X392657Y812519D01*
X393713Y812658D01*
X394697Y813065D01*
X395542Y813714D01*
X396191Y814559D01*
X396598Y815543D01*
X396737Y816598D01*
Y819551D01*
X396598Y820607D01*
X396191Y821591D01*
X395542Y822436D01*
X394697Y823084D01*
X393713Y823492D01*
X392657Y823631D01*
D02*
G37*
G36*
X382315Y817575D02*
X378332D01*
Y816598D01*
X378485Y815438D01*
X378932Y814357D01*
X379645Y813428D01*
X380573Y812716D01*
X381655Y812268D01*
X382315Y812181D01*
Y817575D01*
D02*
G37*
G36*
X387298D02*
X383315D01*
Y812181D01*
X383975Y812268D01*
X385057Y812716D01*
X385985Y813428D01*
X386698Y814357D01*
X387145Y815438D01*
X387298Y816598D01*
Y817575D01*
D02*
G37*
G36*
X1276878Y793877D02*
X1274122D01*
X1273246Y793762D01*
X1272430Y793424D01*
X1271729Y792886D01*
X1271191Y792184D01*
X1270852Y791368D01*
X1270737Y790492D01*
X1270852Y789616D01*
X1271191Y788800D01*
X1271729Y788099D01*
X1272430Y787561D01*
X1273246Y787223D01*
X1274122Y787107D01*
X1276878D01*
X1277754Y787223D01*
X1278570Y787561D01*
X1279271Y788099D01*
X1279809Y788800D01*
X1280147Y789616D01*
X1280263Y790492D01*
X1280147Y791368D01*
X1279809Y792184D01*
X1279271Y792886D01*
X1278570Y793424D01*
X1277754Y793762D01*
X1276878Y793877D01*
D02*
G37*
G36*
X1125378Y792822D02*
X1122622D01*
X1121746Y792706D01*
X1120930Y792368D01*
X1120229Y791830D01*
X1119691Y791129D01*
X1119353Y790313D01*
X1119237Y789437D01*
X1119353Y788561D01*
X1119691Y787745D01*
X1120229Y787044D01*
X1120930Y786506D01*
X1121746Y786167D01*
X1122622Y786052D01*
X1125378D01*
X1126254Y786167D01*
X1127070Y786506D01*
X1127771Y787044D01*
X1128309Y787745D01*
X1128648Y788561D01*
X1128763Y789437D01*
X1128648Y790313D01*
X1128309Y791129D01*
X1127771Y791830D01*
X1127070Y792368D01*
X1126254Y792706D01*
X1125378Y792822D01*
D02*
G37*
G36*
X1276878Y780501D02*
X1276000D01*
Y777213D01*
X1280600D01*
X1280537Y777693D01*
X1280159Y778607D01*
X1279557Y779391D01*
X1278772Y779993D01*
X1277858Y780372D01*
X1276878Y780501D01*
D02*
G37*
G36*
X1275000D02*
X1274122D01*
X1273142Y780372D01*
X1272228Y779993D01*
X1271443Y779391D01*
X1270841Y778607D01*
X1270463Y777693D01*
X1270400Y777213D01*
X1275000D01*
Y780501D01*
D02*
G37*
G36*
X1125378Y779446D02*
X1124500D01*
Y776157D01*
X1129101D01*
X1129037Y776638D01*
X1128659Y777552D01*
X1128057Y778336D01*
X1127272Y778938D01*
X1126358Y779317D01*
X1125378Y779446D01*
D02*
G37*
G36*
X1123500D02*
X1122622D01*
X1121642Y779317D01*
X1120728Y778938D01*
X1119943Y778336D01*
X1119341Y777552D01*
X1118963Y776638D01*
X1118900Y776157D01*
X1123500D01*
Y779446D01*
D02*
G37*
G36*
X1280600Y776213D02*
X1276000D01*
Y772924D01*
X1276878D01*
X1277858Y773053D01*
X1278772Y773432D01*
X1279557Y774034D01*
X1280159Y774819D01*
X1280537Y775732D01*
X1280600Y776213D01*
D02*
G37*
G36*
X1275000D02*
X1270400D01*
X1270463Y775732D01*
X1270841Y774819D01*
X1271443Y774034D01*
X1272228Y773432D01*
X1273142Y773053D01*
X1274122Y772924D01*
X1275000D01*
Y776213D01*
D02*
G37*
G36*
X1129100Y775157D02*
X1124500D01*
Y771869D01*
X1125378D01*
X1126358Y771998D01*
X1127272Y772377D01*
X1128057Y772979D01*
X1128659Y773763D01*
X1129037Y774677D01*
X1129100Y775157D01*
D02*
G37*
G36*
X1123500D02*
X1118900D01*
X1118963Y774677D01*
X1119341Y773763D01*
X1119943Y772979D01*
X1120728Y772377D01*
X1121642Y771998D01*
X1122622Y771869D01*
X1123500D01*
Y775157D01*
D02*
G37*
G36*
X544963Y769600D02*
X544147D01*
X543359Y769389D01*
X542652Y768981D01*
X542074Y768403D01*
X541666Y767697D01*
X541455Y766908D01*
Y766092D01*
X541666Y765303D01*
X542074Y764597D01*
X542652Y764019D01*
X543359Y763611D01*
X544147Y763400D01*
X544963D01*
X545752Y763611D01*
X546459Y764019D01*
X547036Y764597D01*
X547444Y765303D01*
X547655Y766092D01*
Y766908D01*
X547444Y767697D01*
X547036Y768403D01*
X546459Y768981D01*
X545752Y769389D01*
X544963Y769600D01*
D02*
G37*
G36*
X501853D02*
X501037D01*
X500248Y769389D01*
X499541Y768981D01*
X498964Y768403D01*
X498556Y767697D01*
X498345Y766908D01*
Y766092D01*
X498556Y765303D01*
X498964Y764597D01*
X499541Y764019D01*
X500248Y763611D01*
X501037Y763400D01*
X501853D01*
X502641Y763611D01*
X503348Y764019D01*
X503926Y764597D01*
X504334Y765303D01*
X504545Y766092D01*
Y766908D01*
X504334Y767697D01*
X503926Y768403D01*
X503348Y768981D01*
X502641Y769389D01*
X501853Y769600D01*
D02*
G37*
G36*
X424878Y757385D02*
X422122D01*
X421246Y757269D01*
X420430Y756931D01*
X419729Y756393D01*
X419191Y755692D01*
X418853Y754876D01*
X418737Y754000D01*
X418853Y753124D01*
X419191Y752308D01*
X419729Y751607D01*
X420430Y751069D01*
X421246Y750731D01*
X422122Y750615D01*
X424878D01*
X425754Y750731D01*
X426570Y751069D01*
X427271Y751607D01*
X427809Y752308D01*
X428148Y753124D01*
X428263Y754000D01*
X428148Y754876D01*
X427809Y755692D01*
X427271Y756393D01*
X426570Y756931D01*
X425754Y757269D01*
X424878Y757385D01*
D02*
G37*
G36*
X362378D02*
X359622D01*
X358746Y757269D01*
X357930Y756931D01*
X357229Y756393D01*
X356691Y755692D01*
X356352Y754876D01*
X356237Y754000D01*
X356352Y753124D01*
X356691Y752308D01*
X357229Y751607D01*
X357930Y751069D01*
X358746Y750731D01*
X359622Y750615D01*
X362378D01*
X363254Y750731D01*
X364070Y751069D01*
X364771Y751607D01*
X365309Y752308D01*
X365648Y753124D01*
X365763Y754000D01*
X365648Y754876D01*
X365309Y755692D01*
X364771Y756393D01*
X364070Y756931D01*
X363254Y757269D01*
X362378Y757385D01*
D02*
G37*
G36*
X1241751Y756100D02*
X1240934D01*
X1240146Y755889D01*
X1239439Y755481D01*
X1238862Y754903D01*
X1238454Y754197D01*
X1238243Y753408D01*
Y752592D01*
X1238454Y751803D01*
X1238862Y751097D01*
X1239439Y750519D01*
X1240146Y750111D01*
X1240934Y749900D01*
X1241751D01*
X1242539Y750111D01*
X1243246Y750519D01*
X1243823Y751097D01*
X1244231Y751803D01*
X1244442Y752592D01*
Y753408D01*
X1244231Y754197D01*
X1243823Y754903D01*
X1243246Y755481D01*
X1242539Y755889D01*
X1241751Y756100D01*
D02*
G37*
G36*
X1157727D02*
X1156911D01*
X1156122Y755889D01*
X1155416Y755481D01*
X1154838Y754903D01*
X1154430Y754197D01*
X1154219Y753408D01*
Y752592D01*
X1154430Y751803D01*
X1154838Y751097D01*
X1155416Y750519D01*
X1156122Y750111D01*
X1156911Y749900D01*
X1157727D01*
X1158515Y750111D01*
X1159222Y750519D01*
X1159799Y751097D01*
X1160208Y751803D01*
X1160419Y752592D01*
Y753408D01*
X1160208Y754197D01*
X1159799Y754903D01*
X1159222Y755481D01*
X1158515Y755889D01*
X1157727Y756100D01*
D02*
G37*
G36*
X424878Y744009D02*
X424000D01*
Y740721D01*
X428600D01*
X428537Y741201D01*
X428159Y742115D01*
X427557Y742899D01*
X426772Y743501D01*
X425858Y743880D01*
X424878Y744009D01*
D02*
G37*
G36*
X362378D02*
X361500D01*
Y740721D01*
X366100D01*
X366037Y741201D01*
X365659Y742115D01*
X365057Y742899D01*
X364272Y743501D01*
X363358Y743880D01*
X362378Y744009D01*
D02*
G37*
G36*
X423000D02*
X422122D01*
X421142Y743880D01*
X420228Y743501D01*
X419443Y742899D01*
X418841Y742115D01*
X418463Y741201D01*
X418400Y740721D01*
X423000D01*
Y744009D01*
D02*
G37*
G36*
X360500D02*
X359622D01*
X358642Y743880D01*
X357728Y743501D01*
X356943Y742899D01*
X356341Y742115D01*
X355963Y741201D01*
X355900Y740721D01*
X360500D01*
Y744009D01*
D02*
G37*
G36*
X428600Y739720D02*
X424000D01*
Y736432D01*
X424878D01*
X425858Y736561D01*
X426772Y736940D01*
X427557Y737542D01*
X428159Y738326D01*
X428537Y739240D01*
X428600Y739720D01*
D02*
G37*
G36*
X423000D02*
X418400D01*
X418463Y739240D01*
X418841Y738326D01*
X419443Y737542D01*
X420228Y736940D01*
X421142Y736561D01*
X422122Y736432D01*
X423000D01*
Y739720D01*
D02*
G37*
G36*
X366100D02*
X361500D01*
Y736432D01*
X362378D01*
X363358Y736561D01*
X364272Y736940D01*
X365057Y737542D01*
X365659Y738326D01*
X366037Y739240D01*
X366100Y739720D01*
D02*
G37*
G36*
X360500D02*
X355900D01*
X355963Y739240D01*
X356341Y738326D01*
X356943Y737542D01*
X357728Y736940D01*
X358642Y736561D01*
X359622Y736432D01*
X360500D01*
Y739720D01*
D02*
G37*
G36*
X1471028Y737644D02*
X1471000D01*
Y734132D01*
X1474512D01*
Y734161D01*
X1474238Y735181D01*
X1473710Y736096D01*
X1472963Y736843D01*
X1472048Y737371D01*
X1471028Y737644D01*
D02*
G37*
G36*
X1421028D02*
X1421000D01*
Y734132D01*
X1424512D01*
Y734161D01*
X1424238Y735181D01*
X1423710Y736096D01*
X1422963Y736843D01*
X1422048Y737371D01*
X1421028Y737644D01*
D02*
G37*
G36*
X1401028D02*
X1401000D01*
Y734132D01*
X1404512D01*
Y734161D01*
X1404238Y735181D01*
X1403710Y736096D01*
X1402963Y736843D01*
X1402048Y737371D01*
X1401028Y737644D01*
D02*
G37*
G36*
X1371028D02*
X1371000D01*
Y734132D01*
X1374512D01*
Y734161D01*
X1374238Y735181D01*
X1373710Y736096D01*
X1372963Y736843D01*
X1372048Y737371D01*
X1371028Y737644D01*
D02*
G37*
G36*
X1341028D02*
X1341000D01*
Y734132D01*
X1344512D01*
Y734161D01*
X1344238Y735181D01*
X1343710Y736096D01*
X1342963Y736843D01*
X1342048Y737371D01*
X1341028Y737644D01*
D02*
G37*
G36*
X1331028D02*
X1331000D01*
Y734132D01*
X1334512D01*
Y734161D01*
X1334238Y735181D01*
X1333710Y736096D01*
X1332963Y736843D01*
X1332049Y737371D01*
X1331028Y737644D01*
D02*
G37*
G36*
X1470000D02*
X1469972D01*
X1468952Y737371D01*
X1468037Y736843D01*
X1467290Y736096D01*
X1466762Y735181D01*
X1466488Y734161D01*
Y734132D01*
X1470000D01*
Y737644D01*
D02*
G37*
G36*
X1420000D02*
X1419972D01*
X1418952Y737371D01*
X1418037Y736843D01*
X1417290Y736096D01*
X1416762Y735181D01*
X1416488Y734161D01*
Y734132D01*
X1420000D01*
Y737644D01*
D02*
G37*
G36*
X1400000D02*
X1399972D01*
X1398952Y737371D01*
X1398037Y736843D01*
X1397290Y736096D01*
X1396762Y735181D01*
X1396488Y734161D01*
Y734132D01*
X1400000D01*
Y737644D01*
D02*
G37*
G36*
X1370000D02*
X1369972D01*
X1368952Y737371D01*
X1368037Y736843D01*
X1367290Y736096D01*
X1366762Y735181D01*
X1366488Y734161D01*
Y734132D01*
X1370000D01*
Y737644D01*
D02*
G37*
G36*
X1340000D02*
X1339972D01*
X1338951Y737371D01*
X1338037Y736843D01*
X1337290Y736096D01*
X1336762Y735181D01*
X1336488Y734161D01*
Y734132D01*
X1340000D01*
Y737644D01*
D02*
G37*
G36*
X1330000D02*
X1329972D01*
X1328951Y737371D01*
X1328037Y736843D01*
X1327290Y736096D01*
X1326762Y735181D01*
X1326488Y734161D01*
Y734132D01*
X1330000D01*
Y737644D01*
D02*
G37*
G36*
X533650Y737437D02*
X533500D01*
Y733000D01*
X537937D01*
Y733150D01*
X537601Y734406D01*
X536951Y735531D01*
X536031Y736451D01*
X534906Y737101D01*
X533650Y737437D01*
D02*
G37*
G36*
X532500D02*
X532350D01*
X531094Y737101D01*
X529969Y736451D01*
X529049Y735531D01*
X528399Y734406D01*
X528063Y733150D01*
Y733000D01*
X532500D01*
Y737437D01*
D02*
G37*
G36*
X1460975Y737244D02*
X1460025D01*
X1459106Y736998D01*
X1458282Y736523D01*
X1457610Y735850D01*
X1457134Y735027D01*
X1456888Y734108D01*
Y733157D01*
X1457134Y732238D01*
X1457610Y731415D01*
X1458282Y730742D01*
X1459106Y730267D01*
X1460025Y730021D01*
X1460975D01*
X1461894Y730267D01*
X1462718Y730742D01*
X1463390Y731415D01*
X1463866Y732238D01*
X1464112Y733157D01*
Y734108D01*
X1463866Y735027D01*
X1463390Y735850D01*
X1462718Y736523D01*
X1461894Y736998D01*
X1460975Y737244D01*
D02*
G37*
G36*
X1450976D02*
X1450025D01*
X1449106Y736998D01*
X1448282Y736523D01*
X1447610Y735850D01*
X1447134Y735027D01*
X1446888Y734108D01*
Y733157D01*
X1447134Y732238D01*
X1447610Y731415D01*
X1448282Y730742D01*
X1449106Y730267D01*
X1450025Y730021D01*
X1450976D01*
X1451894Y730267D01*
X1452718Y730742D01*
X1453390Y731415D01*
X1453866Y732238D01*
X1454112Y733157D01*
Y734108D01*
X1453866Y735027D01*
X1453390Y735850D01*
X1452718Y736523D01*
X1451894Y736998D01*
X1450976Y737244D01*
D02*
G37*
G36*
X1440975D02*
X1440024D01*
X1439106Y736998D01*
X1438282Y736523D01*
X1437610Y735850D01*
X1437134Y735027D01*
X1436888Y734108D01*
Y733157D01*
X1437134Y732238D01*
X1437610Y731415D01*
X1438282Y730742D01*
X1439106Y730267D01*
X1440024Y730021D01*
X1440975D01*
X1441894Y730267D01*
X1442718Y730742D01*
X1443390Y731415D01*
X1443866Y732238D01*
X1444112Y733157D01*
Y734108D01*
X1443866Y735027D01*
X1443390Y735850D01*
X1442718Y736523D01*
X1441894Y736998D01*
X1440975Y737244D01*
D02*
G37*
G36*
X1430976D02*
X1430025D01*
X1429106Y736998D01*
X1428282Y736523D01*
X1427610Y735850D01*
X1427134Y735027D01*
X1426888Y734108D01*
Y733157D01*
X1427134Y732238D01*
X1427610Y731415D01*
X1428282Y730742D01*
X1429106Y730267D01*
X1430025Y730021D01*
X1430976D01*
X1431894Y730267D01*
X1432718Y730742D01*
X1433390Y731415D01*
X1433866Y732238D01*
X1434112Y733157D01*
Y734108D01*
X1433866Y735027D01*
X1433390Y735850D01*
X1432718Y736523D01*
X1431894Y736998D01*
X1430976Y737244D01*
D02*
G37*
G36*
X1410975D02*
X1410025D01*
X1409106Y736998D01*
X1408282Y736523D01*
X1407610Y735850D01*
X1407134Y735027D01*
X1406888Y734108D01*
Y733157D01*
X1407134Y732238D01*
X1407610Y731415D01*
X1408282Y730742D01*
X1409106Y730267D01*
X1410025Y730021D01*
X1410975D01*
X1411894Y730267D01*
X1412718Y730742D01*
X1413390Y731415D01*
X1413866Y732238D01*
X1414112Y733157D01*
Y734108D01*
X1413866Y735027D01*
X1413390Y735850D01*
X1412718Y736523D01*
X1411894Y736998D01*
X1410975Y737244D01*
D02*
G37*
G36*
X1390975D02*
X1390024D01*
X1389106Y736998D01*
X1388282Y736523D01*
X1387610Y735850D01*
X1387134Y735027D01*
X1386888Y734108D01*
Y733157D01*
X1387134Y732238D01*
X1387610Y731415D01*
X1388282Y730742D01*
X1389106Y730267D01*
X1390024Y730021D01*
X1390975D01*
X1391894Y730267D01*
X1392718Y730742D01*
X1393390Y731415D01*
X1393866Y732238D01*
X1394112Y733157D01*
Y734108D01*
X1393866Y735027D01*
X1393390Y735850D01*
X1392718Y736523D01*
X1391894Y736998D01*
X1390975Y737244D01*
D02*
G37*
G36*
X1380976D02*
X1380025D01*
X1379106Y736998D01*
X1378282Y736523D01*
X1377610Y735850D01*
X1377134Y735027D01*
X1376888Y734108D01*
Y733157D01*
X1377134Y732238D01*
X1377610Y731415D01*
X1378282Y730742D01*
X1379106Y730267D01*
X1380025Y730021D01*
X1380976D01*
X1381894Y730267D01*
X1382718Y730742D01*
X1383390Y731415D01*
X1383866Y732238D01*
X1384112Y733157D01*
Y734108D01*
X1383866Y735027D01*
X1383390Y735850D01*
X1382718Y736523D01*
X1381894Y736998D01*
X1380976Y737244D01*
D02*
G37*
G36*
X1360975D02*
X1360025D01*
X1359106Y736998D01*
X1358282Y736523D01*
X1357610Y735850D01*
X1357134Y735027D01*
X1356888Y734108D01*
Y733157D01*
X1357134Y732238D01*
X1357610Y731415D01*
X1358282Y730742D01*
X1359106Y730267D01*
X1360025Y730021D01*
X1360975D01*
X1361894Y730267D01*
X1362718Y730742D01*
X1363390Y731415D01*
X1363866Y732238D01*
X1364112Y733157D01*
Y734108D01*
X1363866Y735027D01*
X1363390Y735850D01*
X1362718Y736523D01*
X1361894Y736998D01*
X1360975Y737244D01*
D02*
G37*
G36*
X1350976D02*
X1350025D01*
X1349106Y736998D01*
X1348282Y736523D01*
X1347610Y735850D01*
X1347134Y735027D01*
X1346888Y734108D01*
Y733157D01*
X1347134Y732238D01*
X1347610Y731415D01*
X1348282Y730742D01*
X1349106Y730267D01*
X1350025Y730021D01*
X1350976D01*
X1351894Y730267D01*
X1352718Y730742D01*
X1353390Y731415D01*
X1353866Y732238D01*
X1354112Y733157D01*
Y734108D01*
X1353866Y735027D01*
X1353390Y735850D01*
X1352718Y736523D01*
X1351894Y736998D01*
X1350976Y737244D01*
D02*
G37*
G36*
X1474512Y733133D02*
X1471000D01*
Y729621D01*
X1471028D01*
X1472048Y729894D01*
X1472963Y730422D01*
X1473710Y731169D01*
X1474238Y732084D01*
X1474512Y733104D01*
Y733133D01*
D02*
G37*
G36*
X1470000D02*
X1466488D01*
Y733104D01*
X1466762Y732084D01*
X1467290Y731169D01*
X1468037Y730422D01*
X1468952Y729894D01*
X1469972Y729621D01*
X1470000D01*
Y733133D01*
D02*
G37*
G36*
X1424512D02*
X1421000D01*
Y729621D01*
X1421028D01*
X1422048Y729894D01*
X1422963Y730422D01*
X1423710Y731169D01*
X1424238Y732084D01*
X1424512Y733104D01*
Y733133D01*
D02*
G37*
G36*
X1420000D02*
X1416488D01*
Y733104D01*
X1416762Y732084D01*
X1417290Y731169D01*
X1418037Y730422D01*
X1418952Y729894D01*
X1419972Y729621D01*
X1420000D01*
Y733133D01*
D02*
G37*
G36*
X1404512D02*
X1401000D01*
Y729621D01*
X1401028D01*
X1402048Y729894D01*
X1402963Y730422D01*
X1403710Y731169D01*
X1404238Y732084D01*
X1404512Y733104D01*
Y733133D01*
D02*
G37*
G36*
X1400000D02*
X1396488D01*
Y733104D01*
X1396762Y732084D01*
X1397290Y731169D01*
X1398037Y730422D01*
X1398952Y729894D01*
X1399972Y729621D01*
X1400000D01*
Y733133D01*
D02*
G37*
G36*
X1374512D02*
X1371000D01*
Y729621D01*
X1371028D01*
X1372048Y729894D01*
X1372963Y730422D01*
X1373710Y731169D01*
X1374238Y732084D01*
X1374512Y733104D01*
Y733133D01*
D02*
G37*
G36*
X1370000D02*
X1366488D01*
Y733104D01*
X1366762Y732084D01*
X1367290Y731169D01*
X1368037Y730422D01*
X1368952Y729894D01*
X1369972Y729621D01*
X1370000D01*
Y733133D01*
D02*
G37*
G36*
X1344512D02*
X1341000D01*
Y729621D01*
X1341028D01*
X1342048Y729894D01*
X1342963Y730422D01*
X1343710Y731169D01*
X1344238Y732084D01*
X1344512Y733104D01*
Y733133D01*
D02*
G37*
G36*
X1340000D02*
X1336488D01*
Y733104D01*
X1336762Y732084D01*
X1337290Y731169D01*
X1338037Y730422D01*
X1338951Y729894D01*
X1339972Y729621D01*
X1340000D01*
Y733133D01*
D02*
G37*
G36*
X1334512D02*
X1331000D01*
Y729621D01*
X1331028D01*
X1332049Y729894D01*
X1332963Y730422D01*
X1333710Y731169D01*
X1334238Y732084D01*
X1334512Y733104D01*
Y733133D01*
D02*
G37*
G36*
X1330000D02*
X1326488D01*
Y733104D01*
X1326762Y732084D01*
X1327290Y731169D01*
X1328037Y730422D01*
X1328951Y729894D01*
X1329972Y729621D01*
X1330000D01*
Y733133D01*
D02*
G37*
G36*
X523597Y737037D02*
X522403D01*
X521249Y736728D01*
X520214Y736131D01*
X519370Y735286D01*
X518772Y734251D01*
X518463Y733097D01*
Y731903D01*
X518772Y730749D01*
X519370Y729714D01*
X520214Y728869D01*
X521249Y728272D01*
X522403Y727963D01*
X523597D01*
X524751Y728272D01*
X525786Y728869D01*
X526630Y729714D01*
X527228Y730749D01*
X527537Y731903D01*
Y733097D01*
X527228Y734251D01*
X526630Y735286D01*
X525786Y736131D01*
X524751Y736728D01*
X523597Y737037D01*
D02*
G37*
G36*
X517537D02*
X508463D01*
Y727963D01*
X517537D01*
Y737037D01*
D02*
G37*
G36*
X537937Y732000D02*
X533500D01*
Y727563D01*
X533650D01*
X534906Y727899D01*
X536031Y728549D01*
X536951Y729469D01*
X537601Y730594D01*
X537937Y731850D01*
Y732000D01*
D02*
G37*
G36*
X532500D02*
X528063D01*
Y731850D01*
X528399Y730594D01*
X529049Y729469D01*
X529969Y728549D01*
X531094Y727899D01*
X532350Y727563D01*
X532500D01*
Y732000D01*
D02*
G37*
G36*
X454386Y732600D02*
X453570D01*
X452781Y732389D01*
X452074Y731981D01*
X451497Y731403D01*
X451089Y730697D01*
X450878Y729908D01*
Y729092D01*
X451089Y728303D01*
X451497Y727597D01*
X452074Y727019D01*
X452781Y726611D01*
X453570Y726400D01*
X454386D01*
X455174Y726611D01*
X455881Y727019D01*
X456459Y727597D01*
X456867Y728303D01*
X457078Y729092D01*
Y729908D01*
X456867Y730697D01*
X456459Y731403D01*
X455881Y731981D01*
X455174Y732389D01*
X454386Y732600D01*
D02*
G37*
G36*
X516408Y721600D02*
X515592D01*
X514803Y721389D01*
X514097Y720981D01*
X513519Y720403D01*
X513111Y719697D01*
X512900Y718908D01*
Y718092D01*
X513111Y717303D01*
X513519Y716597D01*
X514097Y716019D01*
X514803Y715611D01*
X515592Y715400D01*
X516408D01*
X517197Y715611D01*
X517903Y716019D01*
X518481Y716597D01*
X518889Y717303D01*
X519100Y718092D01*
Y718908D01*
X518889Y719697D01*
X518481Y720403D01*
X517903Y720981D01*
X517197Y721389D01*
X516408Y721600D01*
D02*
G37*
G36*
X1047181Y730305D02*
X1045166D01*
X1043175Y729989D01*
X1041258Y729367D01*
X1039462Y728452D01*
X1037831Y727267D01*
X1036406Y725842D01*
X1035222Y724211D01*
X1034307Y722415D01*
X1033684Y720498D01*
X1033368Y718508D01*
Y716492D01*
X1033684Y714502D01*
X1034307Y712585D01*
X1035222Y710789D01*
X1036406Y709158D01*
X1037831Y707733D01*
X1039462Y706548D01*
X1041258Y705633D01*
X1043175Y705011D01*
X1045166Y704695D01*
X1047181D01*
X1049172Y705011D01*
X1051089Y705633D01*
X1052884Y706548D01*
X1054515Y707733D01*
X1055940Y709158D01*
X1057125Y710789D01*
X1058040Y712585D01*
X1058663Y714502D01*
X1058978Y716492D01*
Y718508D01*
X1058663Y720498D01*
X1058040Y722415D01*
X1057125Y724211D01*
X1055940Y725842D01*
X1054515Y727267D01*
X1052884Y728452D01*
X1051089Y729367D01*
X1049172Y729989D01*
X1047181Y730305D01*
D02*
G37*
G36*
X818834D02*
X816819D01*
X814828Y729989D01*
X812912Y729367D01*
X811116Y728452D01*
X809485Y727267D01*
X808060Y725842D01*
X806875Y724211D01*
X805960Y722415D01*
X805337Y720498D01*
X805022Y718508D01*
Y716492D01*
X805337Y714502D01*
X805960Y712585D01*
X806875Y710789D01*
X808060Y709158D01*
X809485Y707733D01*
X811116Y706548D01*
X812912Y705633D01*
X814828Y705011D01*
X816819Y704695D01*
X818834D01*
X820825Y705011D01*
X822742Y705633D01*
X824538Y706548D01*
X826169Y707733D01*
X827594Y709158D01*
X828778Y710789D01*
X829693Y712585D01*
X830316Y714502D01*
X830632Y716492D01*
Y718508D01*
X830316Y720498D01*
X829693Y722415D01*
X828778Y724211D01*
X827594Y725842D01*
X826169Y727267D01*
X824538Y728452D01*
X822742Y729367D01*
X820825Y729989D01*
X818834Y730305D01*
D02*
G37*
G36*
X1157819Y696489D02*
Y693500D01*
X1160808D01*
X1160580Y694351D01*
X1160120Y695149D01*
X1159468Y695801D01*
X1158670Y696262D01*
X1157819Y696489D01*
D02*
G37*
G36*
X1156819D02*
X1155968Y696262D01*
X1155170Y695801D01*
X1154518Y695149D01*
X1154057Y694351D01*
X1153829Y693500D01*
X1156819D01*
Y696489D01*
D02*
G37*
G36*
X1241843Y696489D02*
Y693500D01*
X1244832D01*
X1244604Y694351D01*
X1244143Y695149D01*
X1243492Y695801D01*
X1242694Y696262D01*
X1241843Y696489D01*
D02*
G37*
G36*
X1240843Y696489D02*
X1239992Y696262D01*
X1239194Y695801D01*
X1238542Y695149D01*
X1238081Y694351D01*
X1237853Y693500D01*
X1240843D01*
Y696489D01*
D02*
G37*
G36*
X1460721Y694905D02*
Y690500D01*
X1464207D01*
Y690984D01*
X1464071Y692016D01*
X1463673Y692978D01*
X1463040Y693803D01*
X1462214Y694437D01*
X1461252Y694835D01*
X1460721Y694905D01*
D02*
G37*
G36*
X1459721D02*
X1459189Y694835D01*
X1458227Y694437D01*
X1457401Y693803D01*
X1456768Y692978D01*
X1456369Y692016D01*
X1456234Y690984D01*
Y690500D01*
X1459721D01*
Y694905D01*
D02*
G37*
G36*
X1244832Y692500D02*
X1241843D01*
Y689510D01*
X1242694Y689739D01*
X1243492Y690199D01*
X1244143Y690851D01*
X1244604Y691649D01*
X1244832Y692500D01*
D02*
G37*
G36*
X1160808Y692500D02*
X1157819D01*
Y689510D01*
X1158670Y689739D01*
X1159468Y690199D01*
X1160120Y690851D01*
X1160580Y691649D01*
X1160808Y692500D01*
D02*
G37*
G36*
X1156819D02*
X1153829D01*
X1154057Y691649D01*
X1154518Y690851D01*
X1155170Y690199D01*
X1155968Y689739D01*
X1156819Y689510D01*
Y692500D01*
D02*
G37*
G36*
X1240843Y692500D02*
X1237853D01*
X1238081Y691649D01*
X1238542Y690851D01*
X1239194Y690199D01*
X1239992Y689739D01*
X1240843Y689510D01*
Y692500D01*
D02*
G37*
G36*
X1474000Y694568D02*
X1473073Y694446D01*
X1472208Y694088D01*
X1471466Y693518D01*
X1470897Y692776D01*
X1470539Y691912D01*
X1470417Y690984D01*
Y689016D01*
X1470539Y688088D01*
X1470897Y687224D01*
X1471466Y686482D01*
X1472208Y685912D01*
X1473073Y685554D01*
X1474000Y685432D01*
X1474927Y685554D01*
X1475792Y685912D01*
X1476534Y686482D01*
X1477103Y687224D01*
X1477461Y688088D01*
X1477583Y689016D01*
Y690984D01*
X1477461Y691912D01*
X1477103Y692776D01*
X1476534Y693518D01*
X1475792Y694088D01*
X1474927Y694446D01*
X1474000Y694568D01*
D02*
G37*
G36*
X1464207Y689500D02*
X1460721D01*
Y685095D01*
X1461252Y685165D01*
X1462214Y685563D01*
X1463040Y686197D01*
X1463673Y687022D01*
X1464071Y687984D01*
X1464207Y689016D01*
Y689500D01*
D02*
G37*
G36*
X1459721D02*
X1456234D01*
Y689016D01*
X1456369Y687984D01*
X1456768Y687022D01*
X1457401Y686197D01*
X1458227Y685563D01*
X1459189Y685165D01*
X1459721Y685095D01*
Y689500D01*
D02*
G37*
G36*
X401587Y672990D02*
Y670000D01*
X404576D01*
X404348Y670851D01*
X403887Y671649D01*
X403236Y672301D01*
X402438Y672761D01*
X401587Y672990D01*
D02*
G37*
G36*
X400587Y672990D02*
X399736Y672761D01*
X398938Y672301D01*
X398286Y671649D01*
X397825Y670851D01*
X397597Y670000D01*
X400587D01*
Y672990D01*
D02*
G37*
G36*
X454478Y672990D02*
Y670000D01*
X457467D01*
X457239Y670851D01*
X456779Y671649D01*
X456127Y672301D01*
X455329Y672761D01*
X454478Y672990D01*
D02*
G37*
G36*
X453478Y672990D02*
X452627Y672761D01*
X451829Y672301D01*
X451177Y671649D01*
X450716Y670851D01*
X450488Y670000D01*
X453478D01*
Y672990D01*
D02*
G37*
G36*
X400587Y669000D02*
X397597D01*
X397825Y668149D01*
X398286Y667351D01*
X398938Y666699D01*
X399736Y666238D01*
X400587Y666011D01*
Y669000D01*
D02*
G37*
G36*
X457467Y669000D02*
X454478D01*
Y666011D01*
X455329Y666238D01*
X456127Y666699D01*
X456779Y667351D01*
X457239Y668149D01*
X457467Y669000D01*
D02*
G37*
G36*
X453478D02*
X450488D01*
X450716Y668149D01*
X451177Y667351D01*
X451829Y666699D01*
X452627Y666238D01*
X453478Y666011D01*
Y669000D01*
D02*
G37*
G36*
X404576Y669000D02*
X401587D01*
Y666011D01*
X402438Y666238D01*
X403236Y666699D01*
X403887Y667351D01*
X404348Y668149D01*
X404576Y669000D01*
D02*
G37*
G36*
X516500Y661989D02*
Y659000D01*
X519489D01*
X519262Y659851D01*
X518801Y660649D01*
X518149Y661301D01*
X517351Y661762D01*
X516500Y661989D01*
D02*
G37*
G36*
X515500Y661989D02*
X514649Y661762D01*
X513851Y661301D01*
X513199Y660649D01*
X512739Y659851D01*
X512510Y659000D01*
X515500D01*
Y661989D01*
D02*
G37*
G36*
X629724Y658465D02*
X629325Y658386D01*
X628986Y658159D01*
X628760Y657821D01*
X628681Y657421D01*
Y656634D01*
X628760Y656235D01*
X628986Y655896D01*
X629325Y655670D01*
X629724Y655590D01*
X630124Y655670D01*
X630462Y655896D01*
X630689Y656235D01*
X630768Y656634D01*
Y657421D01*
X630689Y657821D01*
X630462Y658159D01*
X630124Y658386D01*
X629724Y658465D01*
D02*
G37*
G36*
X676378Y659727D02*
X673622D01*
X672746Y659612D01*
X671930Y659274D01*
X671229Y658736D01*
X670691Y658035D01*
X670353Y657219D01*
X670237Y656343D01*
X670353Y655466D01*
X670691Y654650D01*
X671229Y653949D01*
X671930Y653411D01*
X672746Y653073D01*
X673622Y652958D01*
X676378D01*
X677254Y653073D01*
X678070Y653411D01*
X678771Y653949D01*
X679309Y654650D01*
X679647Y655466D01*
X679763Y656343D01*
X679647Y657219D01*
X679309Y658035D01*
X678771Y658736D01*
X678070Y659274D01*
X677254Y659612D01*
X676378Y659727D01*
D02*
G37*
G36*
X621760Y655332D02*
Y652213D01*
X624451D01*
X624344Y653031D01*
X624025Y653801D01*
X623517Y654462D01*
X622856Y654970D01*
X622086Y655289D01*
X621760Y655332D01*
D02*
G37*
G36*
X620760Y655332D02*
X620434Y655289D01*
X619663Y654970D01*
X619002Y654462D01*
X618495Y653801D01*
X618176Y653031D01*
X618068Y652213D01*
X620760D01*
Y655332D01*
D02*
G37*
G36*
X638689Y655332D02*
Y652213D01*
X641381D01*
X641273Y653031D01*
X640954Y653801D01*
X640447Y654462D01*
X639785Y654970D01*
X639015Y655289D01*
X638689Y655332D01*
D02*
G37*
G36*
X637689Y655332D02*
X637363Y655289D01*
X636593Y654970D01*
X635931Y654462D01*
X635424Y653801D01*
X635105Y653031D01*
X634997Y652213D01*
X637689D01*
Y655332D01*
D02*
G37*
G36*
X620760Y651213D02*
X618068D01*
X618176Y650394D01*
X618495Y649624D01*
X619002Y648963D01*
X619663Y648456D01*
X620434Y648137D01*
X620760Y648094D01*
Y651213D01*
D02*
G37*
G36*
X641381Y651213D02*
X638689D01*
Y648094D01*
X639015Y648137D01*
X639785Y648456D01*
X640447Y648963D01*
X640954Y649624D01*
X641273Y650394D01*
X641381Y651213D01*
D02*
G37*
G36*
X637689D02*
X634997D01*
X635105Y650394D01*
X635424Y649624D01*
X635931Y648963D01*
X636593Y648456D01*
X637363Y648137D01*
X637689Y648094D01*
Y651213D01*
D02*
G37*
G36*
X624451Y651213D02*
X621760D01*
Y648094D01*
X622086Y648137D01*
X622856Y648456D01*
X623517Y648963D01*
X624025Y649624D01*
X624344Y650394D01*
X624451Y651213D01*
D02*
G37*
G36*
X619109Y643394D02*
X618293D01*
X617505Y643183D01*
X616798Y642775D01*
X616221Y642198D01*
X615813Y641491D01*
X615602Y640703D01*
Y639887D01*
X615813Y639099D01*
X615958Y638849D01*
X613852Y636743D01*
X613653Y636445D01*
X613583Y636095D01*
Y599964D01*
X613303Y599889D01*
X612597Y599481D01*
X612019Y598903D01*
X611611Y598197D01*
X611400Y597408D01*
Y596592D01*
X611611Y595803D01*
X612019Y595097D01*
X612597Y594519D01*
X613303Y594111D01*
X614092Y593900D01*
X614908D01*
X615697Y594111D01*
X616403Y594519D01*
X616981Y595097D01*
X617389Y595803D01*
X617600Y596592D01*
Y597408D01*
X617389Y598197D01*
X616981Y598903D01*
X616403Y599481D01*
X615697Y599889D01*
X615417Y599964D01*
Y635715D01*
X617255Y637552D01*
X617505Y637408D01*
X618293Y637197D01*
X619109D01*
X619897Y637408D01*
X620603Y637816D01*
X621180Y638393D01*
X621588Y639099D01*
X621799Y639887D01*
Y640703D01*
X621588Y641491D01*
X621180Y642198D01*
X620603Y642775D01*
X619897Y643183D01*
X619109Y643394D01*
D02*
G37*
G36*
X676378Y640446D02*
X675500D01*
Y637157D01*
X680100D01*
X680037Y637638D01*
X679659Y638552D01*
X679057Y639336D01*
X678272Y639938D01*
X677358Y640317D01*
X676378Y640446D01*
D02*
G37*
G36*
X674500D02*
X673622D01*
X672642Y640317D01*
X671728Y639938D01*
X670943Y639336D01*
X670341Y638552D01*
X669963Y637638D01*
X669900Y637157D01*
X674500D01*
Y640446D01*
D02*
G37*
G36*
X621760Y636434D02*
Y633315D01*
X624451D01*
X624344Y634133D01*
X624025Y634903D01*
X623517Y635565D01*
X622856Y636072D01*
X622086Y636391D01*
X621760Y636434D01*
D02*
G37*
G36*
X620760Y636434D02*
X620434Y636391D01*
X619663Y636072D01*
X619002Y635565D01*
X618495Y634903D01*
X618176Y634133D01*
X618068Y633315D01*
X620760D01*
Y636434D01*
D02*
G37*
G36*
X638689D02*
Y633315D01*
X641381D01*
X641273Y634133D01*
X640954Y634903D01*
X640447Y635565D01*
X639785Y636072D01*
X639015Y636391D01*
X638689Y636434D01*
D02*
G37*
G36*
X637689Y636434D02*
X637363Y636391D01*
X636593Y636072D01*
X635931Y635565D01*
X635424Y634903D01*
X635105Y634133D01*
X634997Y633315D01*
X637689D01*
Y636434D01*
D02*
G37*
G36*
X680100Y636158D02*
X675500D01*
Y632869D01*
X676378D01*
X677358Y632998D01*
X678272Y633377D01*
X679057Y633979D01*
X679659Y634763D01*
X680037Y635677D01*
X680100Y636158D01*
D02*
G37*
G36*
X674500D02*
X669900D01*
X669963Y635677D01*
X670341Y634763D01*
X670943Y633979D01*
X671728Y633377D01*
X672642Y632998D01*
X673622Y632869D01*
X674500D01*
Y636158D01*
D02*
G37*
G36*
X641381Y632315D02*
X638689D01*
Y629196D01*
X639015Y629239D01*
X639785Y629558D01*
X640447Y630065D01*
X640954Y630726D01*
X641273Y631496D01*
X641381Y632315D01*
D02*
G37*
G36*
X620760Y632315D02*
X618068D01*
X618176Y631496D01*
X618495Y630726D01*
X619002Y630065D01*
X619663Y629558D01*
X620434Y629239D01*
X620760Y629196D01*
Y632315D01*
D02*
G37*
G36*
X624451D02*
X621760D01*
Y629196D01*
X622086Y629239D01*
X622856Y629558D01*
X623517Y630065D01*
X624025Y630726D01*
X624344Y631496D01*
X624451Y632315D01*
D02*
G37*
G36*
X637689Y632315D02*
X634997D01*
X635105Y631496D01*
X635424Y630726D01*
X635931Y630065D01*
X636593Y629558D01*
X637363Y629239D01*
X637689Y629196D01*
Y632315D01*
D02*
G37*
G36*
X629928Y628524D02*
X629521D01*
X629145Y628368D01*
X628857Y628080D01*
X628701Y627704D01*
Y627296D01*
X628857Y626920D01*
X629145Y626632D01*
X629521Y626476D01*
X629928D01*
X630304Y626632D01*
X630592Y626920D01*
X630748Y627296D01*
Y627704D01*
X630592Y628080D01*
X630304Y628368D01*
X629928Y628524D01*
D02*
G37*
G36*
X641156Y646869D02*
X640340D01*
X639552Y646658D01*
X638846Y646250D01*
X638269Y645673D01*
X637861Y644966D01*
X637650Y644178D01*
Y643362D01*
X637861Y642574D01*
X638269Y641868D01*
X638846Y641291D01*
X639552Y640883D01*
X640340Y640672D01*
X641156D01*
X641944Y640883D01*
X642320Y641100D01*
X652083Y631337D01*
Y599964D01*
X651803Y599889D01*
X651097Y599481D01*
X650519Y598903D01*
X650111Y598197D01*
X649900Y597408D01*
Y596592D01*
X650111Y595803D01*
X650519Y595097D01*
X651097Y594519D01*
X651803Y594111D01*
X652592Y593900D01*
X653408D01*
X654197Y594111D01*
X654903Y594519D01*
X655481Y595097D01*
X655889Y595803D01*
X656100Y596592D01*
Y597408D01*
X655889Y598197D01*
X655481Y598903D01*
X654903Y599481D01*
X654197Y599889D01*
X653917Y599964D01*
Y631716D01*
X653917Y631716D01*
X653847Y632067D01*
X653648Y632365D01*
X653648Y632365D01*
X643563Y642450D01*
X643635Y642574D01*
X643847Y643362D01*
Y644178D01*
X643635Y644966D01*
X643227Y645673D01*
X642651Y646250D01*
X641944Y646658D01*
X641156Y646869D01*
D02*
G37*
G36*
X1162908Y592600D02*
X1162092D01*
X1161303Y592389D01*
X1160597Y591981D01*
X1160019Y591403D01*
X1159611Y590697D01*
X1159400Y589908D01*
Y589092D01*
X1159611Y588303D01*
X1160019Y587597D01*
X1160597Y587019D01*
X1161303Y586611D01*
X1162092Y586400D01*
X1162908D01*
X1163697Y586611D01*
X1164403Y587019D01*
X1164981Y587597D01*
X1165389Y588303D01*
X1165600Y589092D01*
Y589908D01*
X1165389Y590697D01*
X1164981Y591403D01*
X1164403Y591981D01*
X1163697Y592389D01*
X1162908Y592600D01*
D02*
G37*
G36*
X1122408D02*
X1121592D01*
X1120803Y592389D01*
X1120097Y591981D01*
X1119519Y591403D01*
X1119111Y590697D01*
X1118900Y589908D01*
Y589092D01*
X1119111Y588303D01*
X1119519Y587597D01*
X1120097Y587019D01*
X1120803Y586611D01*
X1121592Y586400D01*
X1122408D01*
X1123197Y586611D01*
X1123903Y587019D01*
X1124481Y587597D01*
X1124889Y588303D01*
X1125100Y589092D01*
Y589908D01*
X1124889Y590697D01*
X1124481Y591403D01*
X1123903Y591981D01*
X1123197Y592389D01*
X1122408Y592600D01*
D02*
G37*
G36*
X906826Y588193D02*
Y585000D01*
X910020D01*
X909772Y585927D01*
X909285Y586770D01*
X908597Y587458D01*
X907754Y587945D01*
X906826Y588193D01*
D02*
G37*
G36*
X836826D02*
Y585000D01*
X840020D01*
X839772Y585927D01*
X839285Y586770D01*
X838597Y587458D01*
X837754Y587945D01*
X836826Y588193D01*
D02*
G37*
G36*
X986826D02*
Y585000D01*
X990020D01*
X989772Y585927D01*
X989285Y586770D01*
X988597Y587458D01*
X987754Y587945D01*
X986826Y588193D01*
D02*
G37*
G36*
X905826Y588193D02*
X904900Y587945D01*
X904057Y587458D01*
X903368Y586770D01*
X902882Y585927D01*
X902633Y585000D01*
X905826D01*
Y588193D01*
D02*
G37*
G36*
X985826D02*
X984900Y587945D01*
X984057Y587458D01*
X983368Y586770D01*
X982882Y585927D01*
X982633Y585000D01*
X985826D01*
Y588193D01*
D02*
G37*
G36*
X835826D02*
X834900Y587945D01*
X834057Y587458D01*
X833368Y586770D01*
X832882Y585927D01*
X832633Y585000D01*
X835826D01*
Y588193D01*
D02*
G37*
G36*
X926761Y587797D02*
X925893D01*
X925054Y587572D01*
X924302Y587138D01*
X923689Y586524D01*
X923255Y585773D01*
X923030Y584934D01*
Y584066D01*
X923255Y583227D01*
X923689Y582476D01*
X924302Y581862D01*
X925054Y581428D01*
X925893Y581203D01*
X926761D01*
X927599Y581428D01*
X928351Y581862D01*
X928965Y582476D01*
X929399Y583227D01*
X929624Y584066D01*
Y584934D01*
X929399Y585773D01*
X928965Y586524D01*
X928351Y587138D01*
X927599Y587572D01*
X926761Y587797D01*
D02*
G37*
G36*
X916761D02*
X915893D01*
X915054Y587572D01*
X914303Y587138D01*
X913689Y586524D01*
X913255Y585773D01*
X913030Y584934D01*
Y584066D01*
X913255Y583227D01*
X913689Y582476D01*
X914303Y581862D01*
X915054Y581428D01*
X915893Y581203D01*
X916761D01*
X917599Y581428D01*
X918351Y581862D01*
X918965Y582476D01*
X919399Y583227D01*
X919624Y584066D01*
Y584934D01*
X919399Y585773D01*
X918965Y586524D01*
X918351Y587138D01*
X917599Y587572D01*
X916761Y587797D01*
D02*
G37*
G36*
X896761D02*
X895893D01*
X895054Y587572D01*
X894302Y587138D01*
X893689Y586524D01*
X893255Y585773D01*
X893030Y584934D01*
Y584066D01*
X893255Y583227D01*
X893689Y582476D01*
X894302Y581862D01*
X895054Y581428D01*
X895893Y581203D01*
X896761D01*
X897599Y581428D01*
X898351Y581862D01*
X898965Y582476D01*
X899399Y583227D01*
X899624Y584066D01*
Y584934D01*
X899399Y585773D01*
X898965Y586524D01*
X898351Y587138D01*
X897599Y587572D01*
X896761Y587797D01*
D02*
G37*
G36*
X886761D02*
X885893D01*
X885054Y587572D01*
X884303Y587138D01*
X883689Y586524D01*
X883255Y585773D01*
X883030Y584934D01*
Y584066D01*
X883255Y583227D01*
X883689Y582476D01*
X884303Y581862D01*
X885054Y581428D01*
X885893Y581203D01*
X886761D01*
X887599Y581428D01*
X888351Y581862D01*
X888965Y582476D01*
X889399Y583227D01*
X889624Y584066D01*
Y584934D01*
X889399Y585773D01*
X888965Y586524D01*
X888351Y587138D01*
X887599Y587572D01*
X886761Y587797D01*
D02*
G37*
G36*
X876761D02*
X875893D01*
X875054Y587572D01*
X874302Y587138D01*
X873689Y586524D01*
X873255Y585773D01*
X873030Y584934D01*
Y584066D01*
X873255Y583227D01*
X873689Y582476D01*
X874302Y581862D01*
X875054Y581428D01*
X875893Y581203D01*
X876761D01*
X877599Y581428D01*
X878351Y581862D01*
X878965Y582476D01*
X879399Y583227D01*
X879624Y584066D01*
Y584934D01*
X879399Y585773D01*
X878965Y586524D01*
X878351Y587138D01*
X877599Y587572D01*
X876761Y587797D01*
D02*
G37*
G36*
X866761D02*
X865893D01*
X865054Y587572D01*
X864303Y587138D01*
X863689Y586524D01*
X863255Y585773D01*
X863030Y584934D01*
Y584066D01*
X863255Y583227D01*
X863689Y582476D01*
X864303Y581862D01*
X865054Y581428D01*
X865893Y581203D01*
X866761D01*
X867599Y581428D01*
X868351Y581862D01*
X868965Y582476D01*
X869399Y583227D01*
X869624Y584066D01*
Y584934D01*
X869399Y585773D01*
X868965Y586524D01*
X868351Y587138D01*
X867599Y587572D01*
X866761Y587797D01*
D02*
G37*
G36*
X856761D02*
X855893D01*
X855054Y587572D01*
X854303Y587138D01*
X853689Y586524D01*
X853255Y585773D01*
X853030Y584934D01*
Y584066D01*
X853255Y583227D01*
X853689Y582476D01*
X854303Y581862D01*
X855054Y581428D01*
X855893Y581203D01*
X856761D01*
X857599Y581428D01*
X858351Y581862D01*
X858965Y582476D01*
X859399Y583227D01*
X859624Y584066D01*
Y584934D01*
X859399Y585773D01*
X858965Y586524D01*
X858351Y587138D01*
X857599Y587572D01*
X856761Y587797D01*
D02*
G37*
G36*
X846761D02*
X845893D01*
X845054Y587572D01*
X844302Y587138D01*
X843689Y586524D01*
X843255Y585773D01*
X843030Y584934D01*
Y584066D01*
X843255Y583227D01*
X843689Y582476D01*
X844302Y581862D01*
X845054Y581428D01*
X845893Y581203D01*
X846761D01*
X847599Y581428D01*
X848351Y581862D01*
X848965Y582476D01*
X849399Y583227D01*
X849624Y584066D01*
Y584934D01*
X849399Y585773D01*
X848965Y586524D01*
X848351Y587138D01*
X847599Y587572D01*
X846761Y587797D01*
D02*
G37*
G36*
X985826Y584000D02*
X982633D01*
X982882Y583073D01*
X983368Y582230D01*
X984057Y581542D01*
X984900Y581055D01*
X985826Y580807D01*
Y584000D01*
D02*
G37*
G36*
X905826D02*
X902633D01*
X902882Y583073D01*
X903368Y582230D01*
X904057Y581542D01*
X904900Y581055D01*
X905826Y580807D01*
Y584000D01*
D02*
G37*
G36*
X835826D02*
X832633D01*
X832882Y583073D01*
X833368Y582230D01*
X834057Y581542D01*
X834900Y581055D01*
X835826Y580807D01*
Y584000D01*
D02*
G37*
G36*
X990020D02*
X986826D01*
Y580807D01*
X987754Y581055D01*
X988597Y581542D01*
X989285Y582230D01*
X989772Y583073D01*
X990020Y584000D01*
D02*
G37*
G36*
X910020D02*
X906826D01*
Y580807D01*
X907754Y581055D01*
X908597Y581542D01*
X909285Y582230D01*
X909772Y583073D01*
X910020Y584000D01*
D02*
G37*
G36*
X840020D02*
X836826D01*
Y580807D01*
X837754Y581055D01*
X838597Y581542D01*
X839285Y582230D01*
X839772Y583073D01*
X840020Y584000D01*
D02*
G37*
G36*
X886826Y578193D02*
Y575000D01*
X890020D01*
X889772Y575927D01*
X889285Y576770D01*
X888597Y577458D01*
X887754Y577945D01*
X886826Y578193D01*
D02*
G37*
G36*
X866826D02*
Y575000D01*
X870020D01*
X869772Y575927D01*
X869285Y576770D01*
X868597Y577458D01*
X867754Y577945D01*
X866826Y578193D01*
D02*
G37*
G36*
X935826Y578193D02*
X934900Y577945D01*
X934057Y577458D01*
X933368Y576770D01*
X932882Y575927D01*
X932633Y575000D01*
X935826D01*
Y578193D01*
D02*
G37*
G36*
X885826D02*
X884900Y577945D01*
X884057Y577458D01*
X883368Y576770D01*
X882882Y575927D01*
X882633Y575000D01*
X885826D01*
Y578193D01*
D02*
G37*
G36*
X865826D02*
X864900Y577945D01*
X864057Y577458D01*
X863369Y576770D01*
X862882Y575927D01*
X862634Y575000D01*
X865826D01*
Y578193D01*
D02*
G37*
G36*
X926761Y577797D02*
X925893D01*
X925054Y577572D01*
X924302Y577138D01*
X923689Y576524D01*
X923255Y575772D01*
X923030Y574934D01*
Y574066D01*
X923255Y573228D01*
X923689Y572476D01*
X924302Y571862D01*
X925054Y571428D01*
X925893Y571203D01*
X926761D01*
X927599Y571428D01*
X928351Y571862D01*
X928965Y572476D01*
X929399Y573228D01*
X929624Y574066D01*
Y574934D01*
X929399Y575772D01*
X928965Y576524D01*
X928351Y577138D01*
X927599Y577572D01*
X926761Y577797D01*
D02*
G37*
G36*
X916761D02*
X915893D01*
X915054Y577572D01*
X914303Y577138D01*
X913689Y576524D01*
X913255Y575772D01*
X913030Y574934D01*
Y574066D01*
X913255Y573228D01*
X913689Y572476D01*
X914303Y571862D01*
X915054Y571428D01*
X915893Y571203D01*
X916761D01*
X917599Y571428D01*
X918351Y571862D01*
X918965Y572476D01*
X919399Y573228D01*
X919624Y574066D01*
Y574934D01*
X919399Y575772D01*
X918965Y576524D01*
X918351Y577138D01*
X917599Y577572D01*
X916761Y577797D01*
D02*
G37*
G36*
X906761D02*
X905893D01*
X905054Y577572D01*
X904303Y577138D01*
X903689Y576524D01*
X903255Y575772D01*
X903030Y574934D01*
Y574066D01*
X903255Y573228D01*
X903689Y572476D01*
X904303Y571862D01*
X905054Y571428D01*
X905893Y571203D01*
X906761D01*
X907599Y571428D01*
X908351Y571862D01*
X908965Y572476D01*
X909399Y573228D01*
X909624Y574066D01*
Y574934D01*
X909399Y575772D01*
X908965Y576524D01*
X908351Y577138D01*
X907599Y577572D01*
X906761Y577797D01*
D02*
G37*
G36*
X896761D02*
X895893D01*
X895054Y577572D01*
X894302Y577138D01*
X893689Y576524D01*
X893255Y575772D01*
X893030Y574934D01*
Y574066D01*
X893255Y573228D01*
X893689Y572476D01*
X894302Y571862D01*
X895054Y571428D01*
X895893Y571203D01*
X896761D01*
X897599Y571428D01*
X898351Y571862D01*
X898965Y572476D01*
X899399Y573228D01*
X899624Y574066D01*
Y574934D01*
X899399Y575772D01*
X898965Y576524D01*
X898351Y577138D01*
X897599Y577572D01*
X896761Y577797D01*
D02*
G37*
G36*
X876761D02*
X875893D01*
X875054Y577572D01*
X874302Y577138D01*
X873689Y576524D01*
X873255Y575772D01*
X873030Y574934D01*
Y574066D01*
X873255Y573228D01*
X873689Y572476D01*
X874302Y571862D01*
X875054Y571428D01*
X875893Y571203D01*
X876761D01*
X877599Y571428D01*
X878351Y571862D01*
X878965Y572476D01*
X879399Y573228D01*
X879624Y574066D01*
Y574934D01*
X879399Y575772D01*
X878965Y576524D01*
X878351Y577138D01*
X877599Y577572D01*
X876761Y577797D01*
D02*
G37*
G36*
X856761D02*
X855893D01*
X855054Y577572D01*
X854303Y577138D01*
X853689Y576524D01*
X853255Y575772D01*
X853030Y574934D01*
Y574066D01*
X853255Y573228D01*
X853689Y572476D01*
X854303Y571862D01*
X855054Y571428D01*
X855893Y571203D01*
X856761D01*
X857599Y571428D01*
X858351Y571862D01*
X858965Y572476D01*
X859399Y573228D01*
X859624Y574066D01*
Y574934D01*
X859399Y575772D01*
X858965Y576524D01*
X858351Y577138D01*
X857599Y577572D01*
X856761Y577797D01*
D02*
G37*
G36*
X846761D02*
X845893D01*
X845054Y577572D01*
X844302Y577138D01*
X843689Y576524D01*
X843255Y575772D01*
X843030Y574934D01*
Y574066D01*
X843255Y573228D01*
X843689Y572476D01*
X844302Y571862D01*
X845054Y571428D01*
X845893Y571203D01*
X846761D01*
X847599Y571428D01*
X848351Y571862D01*
X848965Y572476D01*
X849399Y573228D01*
X849624Y574066D01*
Y574934D01*
X849399Y575772D01*
X848965Y576524D01*
X848351Y577138D01*
X847599Y577572D01*
X846761Y577797D01*
D02*
G37*
G36*
X836761D02*
X835893D01*
X835054Y577572D01*
X834303Y577138D01*
X833689Y576524D01*
X833255Y575772D01*
X833030Y574934D01*
Y574066D01*
X833255Y573228D01*
X833689Y572476D01*
X834303Y571862D01*
X835054Y571428D01*
X835893Y571203D01*
X836761D01*
X837599Y571428D01*
X838351Y571862D01*
X838965Y572476D01*
X839399Y573228D01*
X839624Y574066D01*
Y574934D01*
X839399Y575772D01*
X838965Y576524D01*
X838351Y577138D01*
X837599Y577572D01*
X836761Y577797D01*
D02*
G37*
G36*
X935826Y574000D02*
X932633D01*
X932882Y573073D01*
X933368Y572230D01*
X934057Y571542D01*
X934900Y571055D01*
X935826Y570807D01*
Y574000D01*
D02*
G37*
G36*
X885826D02*
X882633D01*
X882882Y573073D01*
X883368Y572230D01*
X884057Y571542D01*
X884900Y571055D01*
X885826Y570807D01*
Y574000D01*
D02*
G37*
G36*
X865826D02*
X862634D01*
X862882Y573073D01*
X863369Y572230D01*
X864057Y571542D01*
X864900Y571055D01*
X865826Y570807D01*
Y574000D01*
D02*
G37*
G36*
X890020D02*
X886826D01*
Y570807D01*
X887754Y571055D01*
X888597Y571542D01*
X889285Y572230D01*
X889772Y573073D01*
X890020Y574000D01*
D02*
G37*
G36*
X870020D02*
X866826D01*
Y570807D01*
X867754Y571055D01*
X868597Y571542D01*
X869285Y572230D01*
X869772Y573073D01*
X870020Y574000D01*
D02*
G37*
G36*
X350802Y568100D02*
X349986D01*
X349197Y567889D01*
X348490Y567481D01*
X347913Y566903D01*
X347505Y566197D01*
X347294Y565408D01*
Y564592D01*
X347505Y563803D01*
X347913Y563097D01*
X348490Y562519D01*
X349197Y562111D01*
X349986Y561900D01*
X350802D01*
X351590Y562111D01*
X352297Y562519D01*
X352874Y563097D01*
X353282Y563803D01*
X353494Y564592D01*
Y565408D01*
X353282Y566197D01*
X352874Y566903D01*
X352297Y567481D01*
X351590Y567889D01*
X350802Y568100D01*
D02*
G37*
G36*
X307495D02*
X306679D01*
X305890Y567889D01*
X305183Y567481D01*
X304606Y566903D01*
X304198Y566197D01*
X303987Y565408D01*
Y564592D01*
X304198Y563803D01*
X304606Y563097D01*
X305183Y562519D01*
X305890Y562111D01*
X306679Y561900D01*
X307495D01*
X308283Y562111D01*
X308990Y562519D01*
X309567Y563097D01*
X309975Y563803D01*
X310187Y564592D01*
Y565408D01*
X309975Y566197D01*
X309567Y566903D01*
X308990Y567481D01*
X308283Y567889D01*
X307495Y568100D01*
D02*
G37*
G36*
X264188D02*
X263371D01*
X262583Y567889D01*
X261876Y567481D01*
X261299Y566903D01*
X260891Y566197D01*
X260680Y565408D01*
Y564592D01*
X260891Y563803D01*
X261299Y563097D01*
X261876Y562519D01*
X262583Y562111D01*
X263371Y561900D01*
X264188D01*
X264976Y562111D01*
X265683Y562519D01*
X266260Y563097D01*
X266668Y563803D01*
X266880Y564592D01*
Y565408D01*
X266668Y566197D01*
X266260Y566903D01*
X265683Y567481D01*
X264976Y567889D01*
X264188Y568100D01*
D02*
G37*
G36*
X220881D02*
X220064D01*
X219276Y567889D01*
X218569Y567481D01*
X217992Y566903D01*
X217584Y566197D01*
X217372Y565408D01*
Y564592D01*
X217584Y563803D01*
X217992Y563097D01*
X218569Y562519D01*
X219276Y562111D01*
X220064Y561900D01*
X220881D01*
X221669Y562111D01*
X222376Y562519D01*
X222953Y563097D01*
X223361Y563803D01*
X223572Y564592D01*
Y565408D01*
X223361Y566197D01*
X222953Y566903D01*
X222376Y567481D01*
X221669Y567889D01*
X220881Y568100D01*
D02*
G37*
G36*
X177574D02*
X176757D01*
X175969Y567889D01*
X175262Y567481D01*
X174685Y566903D01*
X174277Y566197D01*
X174065Y565408D01*
Y564592D01*
X174277Y563803D01*
X174685Y563097D01*
X175262Y562519D01*
X175969Y562111D01*
X176757Y561900D01*
X177574D01*
X178362Y562111D01*
X179069Y562519D01*
X179646Y563097D01*
X180054Y563803D01*
X180265Y564592D01*
Y565408D01*
X180054Y566197D01*
X179646Y566903D01*
X179069Y567481D01*
X178362Y567889D01*
X177574Y568100D01*
D02*
G37*
G36*
X134266D02*
X133450D01*
X132662Y567889D01*
X131955Y567481D01*
X131378Y566903D01*
X130970Y566197D01*
X130758Y565408D01*
Y564592D01*
X130970Y563803D01*
X131378Y563097D01*
X131955Y562519D01*
X132662Y562111D01*
X133450Y561900D01*
X134266D01*
X135055Y562111D01*
X135762Y562519D01*
X136339Y563097D01*
X136747Y563803D01*
X136958Y564592D01*
Y565408D01*
X136747Y566197D01*
X136339Y566903D01*
X135762Y567481D01*
X135055Y567889D01*
X134266Y568100D01*
D02*
G37*
G36*
X90959D02*
X90143D01*
X89355Y567889D01*
X88648Y567481D01*
X88071Y566903D01*
X87662Y566197D01*
X87451Y565408D01*
Y564592D01*
X87662Y563803D01*
X88071Y563097D01*
X88648Y562519D01*
X89355Y562111D01*
X90143Y561900D01*
X90959D01*
X91748Y562111D01*
X92455Y562519D01*
X93032Y563097D01*
X93440Y563803D01*
X93651Y564592D01*
Y565408D01*
X93440Y566197D01*
X93032Y566903D01*
X92455Y567481D01*
X91748Y567889D01*
X90959Y568100D01*
D02*
G37*
G36*
X47652D02*
X46836D01*
X46047Y567889D01*
X45341Y567481D01*
X44763Y566903D01*
X44355Y566197D01*
X44144Y565408D01*
Y564592D01*
X44355Y563803D01*
X44763Y563097D01*
X45341Y562519D01*
X46047Y562111D01*
X46836Y561900D01*
X47652D01*
X48441Y562111D01*
X49147Y562519D01*
X49725Y563097D01*
X50133Y563803D01*
X50344Y564592D01*
Y565408D01*
X50133Y566197D01*
X49725Y566903D01*
X49147Y567481D01*
X48441Y567889D01*
X47652Y568100D01*
D02*
G37*
G36*
X653500Y540489D02*
Y537500D01*
X656490D01*
X656261Y538351D01*
X655801Y539149D01*
X655149Y539801D01*
X654351Y540262D01*
X653500Y540489D01*
D02*
G37*
G36*
X652500Y540489D02*
X651649Y540262D01*
X650851Y539801D01*
X650199Y539149D01*
X649739Y538351D01*
X649510Y537500D01*
X652500D01*
Y540489D01*
D02*
G37*
G36*
X615000Y540489D02*
Y537500D01*
X617989D01*
X617762Y538351D01*
X617301Y539149D01*
X616649Y539801D01*
X615851Y540262D01*
X615000Y540489D01*
D02*
G37*
G36*
X614000Y540489D02*
X613149Y540262D01*
X612351Y539801D01*
X611699Y539149D01*
X611238Y538351D01*
X611011Y537500D01*
X614000D01*
Y540489D01*
D02*
G37*
G36*
X652500Y536500D02*
X649510D01*
X649739Y535649D01*
X650199Y534851D01*
X650851Y534199D01*
X651649Y533739D01*
X652500Y533510D01*
Y536500D01*
D02*
G37*
G36*
X617989Y536500D02*
X615000D01*
Y533510D01*
X615851Y533739D01*
X616649Y534199D01*
X617301Y534851D01*
X617762Y535649D01*
X617989Y536500D01*
D02*
G37*
G36*
X614000D02*
X611011D01*
X611238Y535649D01*
X611699Y534851D01*
X612351Y534199D01*
X613149Y533739D01*
X614000Y533510D01*
Y536500D01*
D02*
G37*
G36*
X656490Y536500D02*
X653500D01*
Y533510D01*
X654351Y533739D01*
X655149Y534199D01*
X655801Y534851D01*
X656261Y535649D01*
X656490Y536500D01*
D02*
G37*
G36*
X1162908Y532600D02*
X1162092D01*
X1161303Y532389D01*
X1160597Y531981D01*
X1160019Y531403D01*
X1159611Y530697D01*
X1159400Y529908D01*
Y529092D01*
X1159611Y528303D01*
X1160019Y527597D01*
X1160597Y527019D01*
X1161303Y526611D01*
X1162092Y526400D01*
X1162908D01*
X1163697Y526611D01*
X1164403Y527019D01*
X1164981Y527597D01*
X1165389Y528303D01*
X1165600Y529092D01*
Y529908D01*
X1165389Y530697D01*
X1164981Y531403D01*
X1164403Y531981D01*
X1163697Y532389D01*
X1162908Y532600D01*
D02*
G37*
G36*
X1122408D02*
X1121592D01*
X1120803Y532389D01*
X1120097Y531981D01*
X1119519Y531403D01*
X1119111Y530697D01*
X1118900Y529908D01*
Y529092D01*
X1119111Y528303D01*
X1119519Y527597D01*
X1120097Y527019D01*
X1120803Y526611D01*
X1121592Y526400D01*
X1122408D01*
X1123197Y526611D01*
X1123903Y527019D01*
X1124481Y527597D01*
X1124889Y528303D01*
X1125100Y529092D01*
Y529908D01*
X1124889Y530697D01*
X1124481Y531403D01*
X1123903Y531981D01*
X1123197Y532389D01*
X1122408Y532600D01*
D02*
G37*
G36*
X232974Y514600D02*
X232026D01*
X231110Y514355D01*
X230290Y513881D01*
X229619Y513210D01*
X229145Y512390D01*
X228900Y511474D01*
Y510526D01*
X229145Y509611D01*
X229619Y508789D01*
X230290Y508119D01*
X231110Y507645D01*
X232026Y507400D01*
X232974D01*
X233890Y507645D01*
X234710Y508119D01*
X235381Y508789D01*
X235855Y509611D01*
X236100Y510526D01*
Y511474D01*
X235855Y512390D01*
X235381Y513210D01*
X234710Y513881D01*
X233890Y514355D01*
X232974Y514600D01*
D02*
G37*
G36*
X222974D02*
X222026D01*
X221110Y514355D01*
X220290Y513881D01*
X219619Y513210D01*
X219145Y512390D01*
X218900Y511474D01*
Y510526D01*
X219145Y509611D01*
X219619Y508789D01*
X220290Y508119D01*
X221110Y507645D01*
X222026Y507400D01*
X222974D01*
X223890Y507645D01*
X224710Y508119D01*
X225381Y508789D01*
X225855Y509611D01*
X226100Y510526D01*
Y511474D01*
X225855Y512390D01*
X225381Y513210D01*
X224710Y513881D01*
X223890Y514355D01*
X222974Y514600D01*
D02*
G37*
G36*
X212974D02*
X212026D01*
X211110Y514355D01*
X210290Y513881D01*
X209619Y513210D01*
X209145Y512390D01*
X208900Y511474D01*
Y510526D01*
X209145Y509611D01*
X209619Y508789D01*
X210290Y508119D01*
X211110Y507645D01*
X212026Y507400D01*
X212974D01*
X213890Y507645D01*
X214710Y508119D01*
X215381Y508789D01*
X215855Y509611D01*
X216100Y510526D01*
Y511474D01*
X215855Y512390D01*
X215381Y513210D01*
X214710Y513881D01*
X213890Y514355D01*
X212974Y514600D01*
D02*
G37*
G36*
X202974D02*
X202026D01*
X201110Y514355D01*
X200290Y513881D01*
X199619Y513210D01*
X199145Y512390D01*
X198900Y511474D01*
Y510526D01*
X199145Y509611D01*
X199619Y508789D01*
X200290Y508119D01*
X201110Y507645D01*
X202026Y507400D01*
X202974D01*
X203890Y507645D01*
X204710Y508119D01*
X205381Y508789D01*
X205855Y509611D01*
X206100Y510526D01*
Y511474D01*
X205855Y512390D01*
X205381Y513210D01*
X204710Y513881D01*
X203890Y514355D01*
X202974Y514600D01*
D02*
G37*
G36*
X192974D02*
X192026D01*
X191110Y514355D01*
X190290Y513881D01*
X189619Y513210D01*
X189145Y512390D01*
X188900Y511474D01*
Y510526D01*
X189145Y509611D01*
X189619Y508789D01*
X190290Y508119D01*
X191110Y507645D01*
X192026Y507400D01*
X192974D01*
X193890Y507645D01*
X194710Y508119D01*
X195381Y508789D01*
X195855Y509611D01*
X196100Y510526D01*
Y511474D01*
X195855Y512390D01*
X195381Y513210D01*
X194710Y513881D01*
X193890Y514355D01*
X192974Y514600D01*
D02*
G37*
G36*
X182974D02*
X182026D01*
X181110Y514355D01*
X180290Y513881D01*
X179619Y513210D01*
X179145Y512390D01*
X178900Y511474D01*
Y510526D01*
X179145Y509611D01*
X179619Y508789D01*
X180290Y508119D01*
X181110Y507645D01*
X182026Y507400D01*
X182974D01*
X183890Y507645D01*
X184710Y508119D01*
X185381Y508789D01*
X185855Y509611D01*
X186100Y510526D01*
Y511474D01*
X185855Y512390D01*
X185381Y513210D01*
X184710Y513881D01*
X183890Y514355D01*
X182974Y514600D01*
D02*
G37*
G36*
X172974D02*
X172026D01*
X171110Y514355D01*
X170290Y513881D01*
X169619Y513210D01*
X169145Y512390D01*
X168900Y511474D01*
Y510526D01*
X169145Y509611D01*
X169619Y508789D01*
X170290Y508119D01*
X171110Y507645D01*
X172026Y507400D01*
X172974D01*
X173890Y507645D01*
X174710Y508119D01*
X175381Y508789D01*
X175855Y509611D01*
X176100Y510526D01*
Y511474D01*
X175855Y512390D01*
X175381Y513210D01*
X174710Y513881D01*
X173890Y514355D01*
X172974Y514600D01*
D02*
G37*
G36*
X166100D02*
X158900D01*
Y507400D01*
X166100D01*
Y514600D01*
D02*
G37*
G36*
X1417323Y524655D02*
X1415314Y524497D01*
X1413354Y524027D01*
X1411492Y523255D01*
X1409773Y522202D01*
X1408241Y520893D01*
X1406932Y519361D01*
X1405879Y517642D01*
X1405107Y515780D01*
X1404637Y513820D01*
X1404478Y511811D01*
X1404637Y509802D01*
X1405107Y507842D01*
X1405879Y505980D01*
X1406932Y504261D01*
X1408241Y502729D01*
X1409773Y501420D01*
X1411492Y500367D01*
X1413354Y499595D01*
X1415314Y499125D01*
X1417323Y498967D01*
X1419332Y499125D01*
X1421292Y499595D01*
X1423154Y500367D01*
X1424872Y501420D01*
X1426405Y502729D01*
X1427714Y504261D01*
X1428767Y505980D01*
X1429539Y507842D01*
X1430009Y509802D01*
X1430167Y511811D01*
X1430009Y513820D01*
X1429539Y515780D01*
X1428767Y517642D01*
X1427714Y519361D01*
X1426405Y520893D01*
X1424872Y522202D01*
X1423154Y523255D01*
X1421292Y524027D01*
X1419332Y524497D01*
X1417323Y524655D01*
D02*
G37*
G36*
X118110D02*
X116101Y524497D01*
X114141Y524027D01*
X112279Y523255D01*
X110561Y522202D01*
X109028Y520893D01*
X107719Y519361D01*
X106666Y517642D01*
X105895Y515780D01*
X105424Y513820D01*
X105266Y511811D01*
X105424Y509802D01*
X105895Y507842D01*
X106666Y505980D01*
X107719Y504261D01*
X109028Y502729D01*
X110561Y501420D01*
X112279Y500367D01*
X114141Y499595D01*
X116101Y499125D01*
X118110Y498967D01*
X120120Y499125D01*
X122079Y499595D01*
X123941Y500367D01*
X125660Y501420D01*
X127192Y502729D01*
X128501Y504261D01*
X129555Y505980D01*
X130326Y507842D01*
X130796Y509802D01*
X130955Y511811D01*
X130796Y513820D01*
X130326Y515780D01*
X129555Y517642D01*
X128501Y519361D01*
X127192Y520893D01*
X125660Y522202D01*
X123941Y523255D01*
X122079Y524027D01*
X120120Y524497D01*
X118110Y524655D01*
D02*
G37*
G36*
X301984Y498377D02*
X301500D01*
Y494890D01*
X305905D01*
X305835Y495422D01*
X305437Y496383D01*
X304803Y497209D01*
X303978Y497843D01*
X303016Y498241D01*
X301984Y498377D01*
D02*
G37*
G36*
X300500D02*
X300016D01*
X298984Y498241D01*
X298022Y497843D01*
X297197Y497209D01*
X296563Y496383D01*
X296165Y495422D01*
X296095Y494890D01*
X300500D01*
Y498377D01*
D02*
G37*
G36*
X305905Y493890D02*
X301500D01*
Y490403D01*
X301984D01*
X303016Y490539D01*
X303978Y490937D01*
X304803Y491571D01*
X305437Y492396D01*
X305835Y493358D01*
X305905Y493890D01*
D02*
G37*
G36*
X300500D02*
X296095D01*
X296165Y493358D01*
X296563Y492396D01*
X297197Y491571D01*
X298022Y490937D01*
X298984Y490539D01*
X300016Y490403D01*
X300500D01*
Y493890D01*
D02*
G37*
G36*
X301984Y484194D02*
X300016D01*
X299088Y484072D01*
X298224Y483714D01*
X297482Y483144D01*
X296912Y482402D01*
X296554Y481538D01*
X296432Y480610D01*
X296554Y479683D01*
X296912Y478819D01*
X297482Y478076D01*
X298224Y477507D01*
X299088Y477149D01*
X300016Y477027D01*
X301984D01*
X302912Y477149D01*
X303776Y477507D01*
X304518Y478076D01*
X305088Y478819D01*
X305446Y479683D01*
X305568Y480610D01*
X305446Y481538D01*
X305088Y482402D01*
X304518Y483144D01*
X303776Y483714D01*
X302912Y484072D01*
X301984Y484194D01*
D02*
G37*
G36*
X1050189Y477754D02*
Y474500D01*
X1053443D01*
X1053189Y475450D01*
X1052694Y476306D01*
X1051995Y477005D01*
X1051139Y477500D01*
X1050189Y477754D01*
D02*
G37*
G36*
X1049189Y477754D02*
X1048239Y477500D01*
X1047383Y477005D01*
X1046684Y476306D01*
X1046189Y475450D01*
X1045935Y474500D01*
X1049189D01*
Y477754D01*
D02*
G37*
G36*
X874500Y477754D02*
Y474500D01*
X877754D01*
X877500Y475450D01*
X877005Y476306D01*
X876306Y477005D01*
X875450Y477500D01*
X874500Y477754D01*
D02*
G37*
G36*
X873500Y477754D02*
X872550Y477500D01*
X871694Y477005D01*
X870994Y476306D01*
X870500Y475450D01*
X870246Y474500D01*
X873500D01*
Y477754D01*
D02*
G37*
G36*
X815000Y477754D02*
Y474500D01*
X818254D01*
X818000Y475450D01*
X817505Y476306D01*
X816806Y477005D01*
X815950Y477500D01*
X815000Y477754D01*
D02*
G37*
G36*
X993000Y477754D02*
X992050Y477500D01*
X991194Y477005D01*
X990495Y476306D01*
X990000Y475450D01*
X989746Y474500D01*
X993000D01*
Y477754D01*
D02*
G37*
G36*
X814000D02*
X813050Y477500D01*
X812194Y477005D01*
X811495Y476306D01*
X811000Y475450D01*
X810746Y474500D01*
X814000D01*
Y477754D01*
D02*
G37*
G36*
X931567Y477754D02*
Y474500D01*
X934821D01*
X934567Y475450D01*
X934072Y476306D01*
X933373Y477005D01*
X932517Y477500D01*
X931567Y477754D01*
D02*
G37*
G36*
X930567Y477754D02*
X929617Y477500D01*
X928761Y477005D01*
X928061Y476306D01*
X927567Y475450D01*
X927312Y474500D01*
X930567D01*
Y477754D01*
D02*
G37*
G36*
X1049189Y473500D02*
X1045934D01*
X1046189Y472550D01*
X1046684Y471694D01*
X1047383Y470995D01*
X1048239Y470500D01*
X1049189Y470246D01*
Y473500D01*
D02*
G37*
G36*
X873500Y473500D02*
X870246D01*
X870500Y472550D01*
X870994Y471694D01*
X871694Y470995D01*
X872550Y470500D01*
X873500Y470246D01*
Y473500D01*
D02*
G37*
G36*
X934821Y473500D02*
X931567D01*
Y470246D01*
X932517Y470500D01*
X933373Y470995D01*
X934072Y471694D01*
X934567Y472550D01*
X934821Y473500D01*
D02*
G37*
G36*
X818254Y473500D02*
X815000D01*
Y470246D01*
X815950Y470500D01*
X816806Y470995D01*
X817505Y471694D01*
X818000Y472550D01*
X818254Y473500D01*
D02*
G37*
G36*
X814000D02*
X810746D01*
X811000Y472550D01*
X811495Y471694D01*
X812194Y470995D01*
X813050Y470500D01*
X814000Y470246D01*
Y473500D01*
D02*
G37*
G36*
X993000D02*
X989746D01*
X990000Y472550D01*
X990495Y471694D01*
X991194Y470995D01*
X992050Y470500D01*
X993000Y470246D01*
Y473500D01*
D02*
G37*
G36*
X930567Y473500D02*
X927313D01*
X927567Y472550D01*
X928061Y471694D01*
X928761Y470995D01*
X929617Y470500D01*
X930567Y470246D01*
Y473500D01*
D02*
G37*
G36*
X877754Y473500D02*
X874500D01*
Y470246D01*
X875450Y470500D01*
X876306Y470995D01*
X877005Y471694D01*
X877500Y472550D01*
X877754Y473500D01*
D02*
G37*
G36*
X1053443Y473500D02*
X1050189D01*
Y470246D01*
X1051139Y470500D01*
X1051995Y470995D01*
X1052694Y471694D01*
X1053189Y472550D01*
X1053443Y473500D01*
D02*
G37*
G36*
X264555Y455512D02*
X264527D01*
Y452000D01*
X268039D01*
Y452028D01*
X267765Y453049D01*
X267237Y453963D01*
X266490Y454710D01*
X265575Y455238D01*
X264555Y455512D01*
D02*
G37*
G36*
X254555D02*
X254527D01*
Y452000D01*
X258039D01*
Y452028D01*
X257765Y453049D01*
X257237Y453963D01*
X256490Y454710D01*
X255575Y455238D01*
X254555Y455512D01*
D02*
G37*
G36*
X224555D02*
X224527D01*
Y452000D01*
X228039D01*
Y452028D01*
X227765Y453049D01*
X227237Y453963D01*
X226490Y454710D01*
X225575Y455238D01*
X224555Y455512D01*
D02*
G37*
G36*
X194555D02*
X194527D01*
Y452000D01*
X198039D01*
Y452028D01*
X197765Y453049D01*
X197237Y453963D01*
X196490Y454710D01*
X195575Y455238D01*
X194555Y455512D01*
D02*
G37*
G36*
X174555D02*
X174527D01*
Y452000D01*
X178039D01*
Y452028D01*
X177765Y453049D01*
X177237Y453963D01*
X176490Y454710D01*
X175575Y455238D01*
X174555Y455512D01*
D02*
G37*
G36*
X124555D02*
X124527D01*
Y452000D01*
X128039D01*
Y452028D01*
X127765Y453049D01*
X127237Y453963D01*
X126490Y454710D01*
X125575Y455238D01*
X124555Y455512D01*
D02*
G37*
G36*
X263527D02*
X263499D01*
X262478Y455238D01*
X261563Y454710D01*
X260817Y453963D01*
X260288Y453049D01*
X260015Y452028D01*
Y452000D01*
X263527D01*
Y455512D01*
D02*
G37*
G36*
X253527D02*
X253499D01*
X252478Y455238D01*
X251564Y454710D01*
X250816Y453963D01*
X250288Y453049D01*
X250015Y452028D01*
Y452000D01*
X253527D01*
Y455512D01*
D02*
G37*
G36*
X223527D02*
X223499D01*
X222478Y455238D01*
X221564Y454710D01*
X220816Y453963D01*
X220288Y453049D01*
X220015Y452028D01*
Y452000D01*
X223527D01*
Y455512D01*
D02*
G37*
G36*
X193527D02*
X193499D01*
X192478Y455238D01*
X191563Y454710D01*
X190816Y453963D01*
X190288Y453049D01*
X190015Y452028D01*
Y452000D01*
X193527D01*
Y455512D01*
D02*
G37*
G36*
X173527D02*
X173499D01*
X172478Y455238D01*
X171563Y454710D01*
X170817Y453963D01*
X170288Y453049D01*
X170015Y452028D01*
Y452000D01*
X173527D01*
Y455512D01*
D02*
G37*
G36*
X123527D02*
X123499D01*
X122478Y455238D01*
X121563Y454710D01*
X120817Y453963D01*
X120288Y453049D01*
X120015Y452028D01*
Y452000D01*
X123527D01*
Y455512D01*
D02*
G37*
G36*
X244502Y455112D02*
X243551D01*
X242633Y454866D01*
X241809Y454390D01*
X241137Y453718D01*
X240661Y452894D01*
X240415Y451975D01*
Y451024D01*
X240661Y450106D01*
X241137Y449282D01*
X241809Y448610D01*
X242633Y448134D01*
X243551Y447888D01*
X244502D01*
X245421Y448134D01*
X246245Y448610D01*
X246917Y449282D01*
X247392Y450106D01*
X247639Y451024D01*
Y451975D01*
X247392Y452894D01*
X246917Y453718D01*
X246245Y454390D01*
X245421Y454866D01*
X244502Y455112D01*
D02*
G37*
G36*
X234502D02*
X233551D01*
X232633Y454866D01*
X231809Y454390D01*
X231137Y453718D01*
X230661Y452894D01*
X230415Y451975D01*
Y451024D01*
X230661Y450106D01*
X231137Y449282D01*
X231809Y448610D01*
X232633Y448134D01*
X233551Y447888D01*
X234502D01*
X235421Y448134D01*
X236245Y448610D01*
X236917Y449282D01*
X237392Y450106D01*
X237639Y451024D01*
Y451975D01*
X237392Y452894D01*
X236917Y453718D01*
X236245Y454390D01*
X235421Y454866D01*
X234502Y455112D01*
D02*
G37*
G36*
X214502D02*
X213551D01*
X212633Y454866D01*
X211809Y454390D01*
X211137Y453718D01*
X210661Y452894D01*
X210415Y451975D01*
Y451024D01*
X210661Y450106D01*
X211137Y449282D01*
X211809Y448610D01*
X212633Y448134D01*
X213551Y447888D01*
X214502D01*
X215421Y448134D01*
X216245Y448610D01*
X216917Y449282D01*
X217392Y450106D01*
X217639Y451024D01*
Y451975D01*
X217392Y452894D01*
X216917Y453718D01*
X216245Y454390D01*
X215421Y454866D01*
X214502Y455112D01*
D02*
G37*
G36*
X204502D02*
X203551D01*
X202633Y454866D01*
X201809Y454390D01*
X201137Y453718D01*
X200661Y452894D01*
X200415Y451975D01*
Y451024D01*
X200661Y450106D01*
X201137Y449282D01*
X201809Y448610D01*
X202633Y448134D01*
X203551Y447888D01*
X204502D01*
X205421Y448134D01*
X206244Y448610D01*
X206917Y449282D01*
X207392Y450106D01*
X207639Y451024D01*
Y451975D01*
X207392Y452894D01*
X206917Y453718D01*
X206244Y454390D01*
X205421Y454866D01*
X204502Y455112D01*
D02*
G37*
G36*
X184502D02*
X183551D01*
X182633Y454866D01*
X181809Y454390D01*
X181137Y453718D01*
X180661Y452894D01*
X180415Y451975D01*
Y451024D01*
X180661Y450106D01*
X181137Y449282D01*
X181809Y448610D01*
X182633Y448134D01*
X183551Y447888D01*
X184502D01*
X185421Y448134D01*
X186244Y448610D01*
X186917Y449282D01*
X187392Y450106D01*
X187639Y451024D01*
Y451975D01*
X187392Y452894D01*
X186917Y453718D01*
X186244Y454390D01*
X185421Y454866D01*
X184502Y455112D01*
D02*
G37*
G36*
X164502D02*
X163551D01*
X162633Y454866D01*
X161809Y454390D01*
X161137Y453718D01*
X160661Y452894D01*
X160415Y451975D01*
Y451024D01*
X160661Y450106D01*
X161137Y449282D01*
X161809Y448610D01*
X162633Y448134D01*
X163551Y447888D01*
X164502D01*
X165421Y448134D01*
X166244Y448610D01*
X166917Y449282D01*
X167392Y450106D01*
X167639Y451024D01*
Y451975D01*
X167392Y452894D01*
X166917Y453718D01*
X166244Y454390D01*
X165421Y454866D01*
X164502Y455112D01*
D02*
G37*
G36*
X154502D02*
X153551D01*
X152633Y454866D01*
X151809Y454390D01*
X151137Y453718D01*
X150661Y452894D01*
X150415Y451975D01*
Y451024D01*
X150661Y450106D01*
X151137Y449282D01*
X151809Y448610D01*
X152633Y448134D01*
X153551Y447888D01*
X154502D01*
X155421Y448134D01*
X156245Y448610D01*
X156917Y449282D01*
X157392Y450106D01*
X157639Y451024D01*
Y451975D01*
X157392Y452894D01*
X156917Y453718D01*
X156245Y454390D01*
X155421Y454866D01*
X154502Y455112D01*
D02*
G37*
G36*
X144502D02*
X143551D01*
X142633Y454866D01*
X141809Y454390D01*
X141137Y453718D01*
X140661Y452894D01*
X140415Y451975D01*
Y451024D01*
X140661Y450106D01*
X141137Y449282D01*
X141809Y448610D01*
X142633Y448134D01*
X143551Y447888D01*
X144502D01*
X145421Y448134D01*
X146245Y448610D01*
X146917Y449282D01*
X147392Y450106D01*
X147639Y451024D01*
Y451975D01*
X147392Y452894D01*
X146917Y453718D01*
X146245Y454390D01*
X145421Y454866D01*
X144502Y455112D01*
D02*
G37*
G36*
X134502D02*
X133551D01*
X132633Y454866D01*
X131809Y454390D01*
X131137Y453718D01*
X130661Y452894D01*
X130415Y451975D01*
Y451024D01*
X130661Y450106D01*
X131137Y449282D01*
X131809Y448610D01*
X132633Y448134D01*
X133551Y447888D01*
X134502D01*
X135421Y448134D01*
X136244Y448610D01*
X136917Y449282D01*
X137392Y450106D01*
X137639Y451024D01*
Y451975D01*
X137392Y452894D01*
X136917Y453718D01*
X136244Y454390D01*
X135421Y454866D01*
X134502Y455112D01*
D02*
G37*
G36*
X268039Y451000D02*
X264527D01*
Y447488D01*
X264555D01*
X265575Y447762D01*
X266490Y448290D01*
X267237Y449037D01*
X267765Y449952D01*
X268039Y450972D01*
Y451000D01*
D02*
G37*
G36*
X263527D02*
X260015D01*
Y450972D01*
X260288Y449952D01*
X260817Y449037D01*
X261563Y448290D01*
X262478Y447762D01*
X263499Y447488D01*
X263527D01*
Y451000D01*
D02*
G37*
G36*
X258039D02*
X254527D01*
Y447488D01*
X254555D01*
X255575Y447762D01*
X256490Y448290D01*
X257237Y449037D01*
X257765Y449952D01*
X258039Y450972D01*
Y451000D01*
D02*
G37*
G36*
X253527D02*
X250015D01*
Y450972D01*
X250288Y449952D01*
X250816Y449037D01*
X251564Y448290D01*
X252478Y447762D01*
X253499Y447488D01*
X253527D01*
Y451000D01*
D02*
G37*
G36*
X228039D02*
X224527D01*
Y447488D01*
X224555D01*
X225575Y447762D01*
X226490Y448290D01*
X227237Y449037D01*
X227765Y449952D01*
X228039Y450972D01*
Y451000D01*
D02*
G37*
G36*
X223527D02*
X220015D01*
Y450972D01*
X220288Y449952D01*
X220816Y449037D01*
X221564Y448290D01*
X222478Y447762D01*
X223499Y447488D01*
X223527D01*
Y451000D01*
D02*
G37*
G36*
X198039D02*
X194527D01*
Y447488D01*
X194555D01*
X195575Y447762D01*
X196490Y448290D01*
X197237Y449037D01*
X197765Y449952D01*
X198039Y450972D01*
Y451000D01*
D02*
G37*
G36*
X193527D02*
X190015D01*
Y450972D01*
X190288Y449952D01*
X190816Y449037D01*
X191563Y448290D01*
X192478Y447762D01*
X193499Y447488D01*
X193527D01*
Y451000D01*
D02*
G37*
G36*
X178039D02*
X174527D01*
Y447488D01*
X174555D01*
X175575Y447762D01*
X176490Y448290D01*
X177237Y449037D01*
X177765Y449952D01*
X178039Y450972D01*
Y451000D01*
D02*
G37*
G36*
X173527D02*
X170015D01*
Y450972D01*
X170288Y449952D01*
X170817Y449037D01*
X171563Y448290D01*
X172478Y447762D01*
X173499Y447488D01*
X173527D01*
Y451000D01*
D02*
G37*
G36*
X128039D02*
X124527D01*
Y447488D01*
X124555D01*
X125575Y447762D01*
X126490Y448290D01*
X127237Y449037D01*
X127765Y449952D01*
X128039Y450972D01*
Y451000D01*
D02*
G37*
G36*
X123527D02*
X120015D01*
Y450972D01*
X120288Y449952D01*
X120817Y449037D01*
X121563Y448290D01*
X122478Y447762D01*
X123499Y447488D01*
X123527D01*
Y451000D01*
D02*
G37*
G36*
X1077908Y432692D02*
X1077092D01*
X1076303Y432481D01*
X1075597Y432072D01*
X1075019Y431495D01*
X1074611Y430788D01*
X1074400Y430000D01*
Y429184D01*
X1074611Y428395D01*
X1075019Y427688D01*
X1075597Y427111D01*
X1076303Y426703D01*
X1077092Y426492D01*
X1077908D01*
X1078697Y426703D01*
X1079403Y427111D01*
X1079981Y427688D01*
X1080389Y428395D01*
X1080600Y429184D01*
Y430000D01*
X1080389Y430788D01*
X1079981Y431495D01*
X1079403Y432072D01*
X1078697Y432481D01*
X1077908Y432692D01*
D02*
G37*
G36*
X925197Y426230D02*
X923188Y426072D01*
X921228Y425601D01*
X919366Y424830D01*
X917647Y423777D01*
X916115Y422468D01*
X914806Y420935D01*
X913752Y419217D01*
X912981Y417355D01*
X912511Y415395D01*
X912352Y413386D01*
X912511Y411376D01*
X912981Y409417D01*
X913752Y407555D01*
X914806Y405836D01*
X916115Y404304D01*
X917647Y402995D01*
X919366Y401941D01*
X921228Y401170D01*
X923188Y400700D01*
X925197Y400541D01*
X927206Y400700D01*
X929166Y401170D01*
X931028Y401941D01*
X932747Y402995D01*
X934279Y404304D01*
X935588Y405836D01*
X936641Y407555D01*
X937412Y409417D01*
X937883Y411376D01*
X938041Y413386D01*
X937883Y415395D01*
X937412Y417355D01*
X936641Y419217D01*
X935588Y420935D01*
X934279Y422468D01*
X932747Y423777D01*
X931028Y424830D01*
X929166Y425601D01*
X927206Y426072D01*
X925197Y426230D01*
D02*
G37*
G36*
X610236D02*
X608227Y426072D01*
X606267Y425601D01*
X604405Y424830D01*
X602687Y423777D01*
X601154Y422468D01*
X599845Y420935D01*
X598792Y419217D01*
X598021Y417355D01*
X597550Y415395D01*
X597392Y413386D01*
X597550Y411376D01*
X598021Y409417D01*
X598792Y407555D01*
X599845Y405836D01*
X601154Y404304D01*
X602687Y402995D01*
X604405Y401941D01*
X606267Y401170D01*
X608227Y400700D01*
X610236Y400541D01*
X612246Y400700D01*
X614205Y401170D01*
X616067Y401941D01*
X617786Y402995D01*
X619318Y404304D01*
X620627Y405836D01*
X621681Y407555D01*
X622452Y409417D01*
X622922Y411376D01*
X623080Y413386D01*
X622922Y415395D01*
X622452Y417355D01*
X621681Y419217D01*
X620627Y420935D01*
X619318Y422468D01*
X617786Y423777D01*
X616067Y424830D01*
X614205Y425601D01*
X612246Y426072D01*
X610236Y426230D01*
D02*
G37*
G36*
X1030500Y412882D02*
Y406000D01*
Y399118D01*
X1031289Y399222D01*
X1032490Y399719D01*
X1033521Y400510D01*
X1034313Y401542D01*
X1034810Y402743D01*
X1034950Y403803D01*
X1035454D01*
X1035580Y402847D01*
X1036037Y401743D01*
X1036764Y400796D01*
X1037712Y400068D01*
X1038816Y399611D01*
X1040000Y399455D01*
X1041184Y399611D01*
X1042288Y400068D01*
X1043236Y400796D01*
X1043963Y401743D01*
X1044420Y402847D01*
X1044576Y404032D01*
Y407969D01*
X1044420Y409153D01*
X1043963Y410257D01*
X1043236Y411204D01*
X1042288Y411932D01*
X1041184Y412389D01*
X1040000Y412545D01*
X1038816Y412389D01*
X1037712Y411932D01*
X1036764Y411204D01*
X1036037Y410257D01*
X1035580Y409153D01*
X1035454Y408197D01*
X1034950D01*
X1034810Y409257D01*
X1034313Y410458D01*
X1033521Y411490D01*
X1032490Y412281D01*
X1031289Y412778D01*
X1030500Y412882D01*
D02*
G37*
G36*
X264555Y365512D02*
X264527D01*
Y362000D01*
X268039D01*
Y362028D01*
X267765Y363049D01*
X267237Y363963D01*
X266490Y364710D01*
X265575Y365238D01*
X264555Y365512D01*
D02*
G37*
G36*
X214555D02*
X214527D01*
Y362000D01*
X218039D01*
Y362028D01*
X217765Y363049D01*
X217237Y363963D01*
X216490Y364710D01*
X215575Y365238D01*
X214555Y365512D01*
D02*
G37*
G36*
X164555D02*
X164527D01*
Y362000D01*
X168039D01*
Y362028D01*
X167765Y363049D01*
X167237Y363963D01*
X166490Y364710D01*
X165575Y365238D01*
X164555Y365512D01*
D02*
G37*
G36*
X128039D02*
X124527D01*
Y362000D01*
X128039D01*
Y365512D01*
D02*
G37*
G36*
X263527D02*
X263499D01*
X262478Y365238D01*
X261563Y364710D01*
X260817Y363963D01*
X260288Y363049D01*
X260015Y362028D01*
Y362000D01*
X263527D01*
Y365512D01*
D02*
G37*
G36*
X213527D02*
X213499D01*
X212478Y365238D01*
X211563Y364710D01*
X210817Y363963D01*
X210288Y363049D01*
X210015Y362028D01*
Y362000D01*
X213527D01*
Y365512D01*
D02*
G37*
G36*
X163527D02*
X163499D01*
X162478Y365238D01*
X161564Y364710D01*
X160817Y363963D01*
X160288Y363049D01*
X160015Y362028D01*
Y362000D01*
X163527D01*
Y365512D01*
D02*
G37*
G36*
X123527D02*
X120015D01*
Y362000D01*
X123527D01*
Y365512D01*
D02*
G37*
G36*
X254502Y365112D02*
X253551D01*
X252633Y364866D01*
X251809Y364390D01*
X251137Y363718D01*
X250661Y362894D01*
X250415Y361976D01*
Y361024D01*
X250661Y360106D01*
X251137Y359282D01*
X251809Y358610D01*
X252633Y358134D01*
X253551Y357888D01*
X254502D01*
X255421Y358134D01*
X256244Y358610D01*
X256917Y359282D01*
X257392Y360106D01*
X257639Y361024D01*
Y361976D01*
X257392Y362894D01*
X256917Y363718D01*
X256244Y364390D01*
X255421Y364866D01*
X254502Y365112D01*
D02*
G37*
G36*
X244502D02*
X243551D01*
X242633Y364866D01*
X241809Y364390D01*
X241137Y363718D01*
X240661Y362894D01*
X240415Y361976D01*
Y361024D01*
X240661Y360106D01*
X241137Y359282D01*
X241809Y358610D01*
X242633Y358134D01*
X243551Y357888D01*
X244502D01*
X245421Y358134D01*
X246245Y358610D01*
X246917Y359282D01*
X247392Y360106D01*
X247639Y361024D01*
Y361976D01*
X247392Y362894D01*
X246917Y363718D01*
X246245Y364390D01*
X245421Y364866D01*
X244502Y365112D01*
D02*
G37*
G36*
X234502D02*
X233551D01*
X232633Y364866D01*
X231809Y364390D01*
X231137Y363718D01*
X230661Y362894D01*
X230415Y361976D01*
Y361024D01*
X230661Y360106D01*
X231137Y359282D01*
X231809Y358610D01*
X232633Y358134D01*
X233551Y357888D01*
X234502D01*
X235421Y358134D01*
X236245Y358610D01*
X236917Y359282D01*
X237392Y360106D01*
X237639Y361024D01*
Y361976D01*
X237392Y362894D01*
X236917Y363718D01*
X236245Y364390D01*
X235421Y364866D01*
X234502Y365112D01*
D02*
G37*
G36*
X224502D02*
X223551D01*
X222633Y364866D01*
X221809Y364390D01*
X221137Y363718D01*
X220661Y362894D01*
X220415Y361976D01*
Y361024D01*
X220661Y360106D01*
X221137Y359282D01*
X221809Y358610D01*
X222633Y358134D01*
X223551Y357888D01*
X224502D01*
X225421Y358134D01*
X226244Y358610D01*
X226917Y359282D01*
X227392Y360106D01*
X227639Y361024D01*
Y361976D01*
X227392Y362894D01*
X226917Y363718D01*
X226244Y364390D01*
X225421Y364866D01*
X224502Y365112D01*
D02*
G37*
G36*
X184502D02*
X183551D01*
X182633Y364866D01*
X181809Y364390D01*
X181137Y363718D01*
X180661Y362894D01*
X180415Y361976D01*
Y361024D01*
X180661Y360106D01*
X181137Y359282D01*
X181809Y358610D01*
X182633Y358134D01*
X183551Y357888D01*
X184502D01*
X185421Y358134D01*
X186244Y358610D01*
X186917Y359282D01*
X187392Y360106D01*
X187639Y361024D01*
Y361976D01*
X187392Y362894D01*
X186917Y363718D01*
X186244Y364390D01*
X185421Y364866D01*
X184502Y365112D01*
D02*
G37*
G36*
X174502D02*
X173551D01*
X172633Y364866D01*
X171809Y364390D01*
X171137Y363718D01*
X170661Y362894D01*
X170415Y361976D01*
Y361024D01*
X170661Y360106D01*
X171137Y359282D01*
X171809Y358610D01*
X172633Y358134D01*
X173551Y357888D01*
X174502D01*
X175421Y358134D01*
X176244Y358610D01*
X176917Y359282D01*
X177392Y360106D01*
X177639Y361024D01*
Y361976D01*
X177392Y362894D01*
X176917Y363718D01*
X176244Y364390D01*
X175421Y364866D01*
X174502Y365112D01*
D02*
G37*
G36*
X154502D02*
X153551D01*
X152633Y364866D01*
X151809Y364390D01*
X151137Y363718D01*
X150661Y362894D01*
X150415Y361976D01*
Y361024D01*
X150661Y360106D01*
X151137Y359282D01*
X151809Y358610D01*
X152633Y358134D01*
X153551Y357888D01*
X154502D01*
X155421Y358134D01*
X156245Y358610D01*
X156917Y359282D01*
X157392Y360106D01*
X157639Y361024D01*
Y361976D01*
X157392Y362894D01*
X156917Y363718D01*
X156245Y364390D01*
X155421Y364866D01*
X154502Y365112D01*
D02*
G37*
G36*
X144502D02*
X143551D01*
X142633Y364866D01*
X141809Y364390D01*
X141137Y363718D01*
X140661Y362894D01*
X140415Y361976D01*
Y361024D01*
X140661Y360106D01*
X141137Y359282D01*
X141809Y358610D01*
X142633Y358134D01*
X143551Y357888D01*
X144502D01*
X145421Y358134D01*
X146245Y358610D01*
X146917Y359282D01*
X147392Y360106D01*
X147639Y361024D01*
Y361976D01*
X147392Y362894D01*
X146917Y363718D01*
X146245Y364390D01*
X145421Y364866D01*
X144502Y365112D01*
D02*
G37*
G36*
X134502D02*
X133551D01*
X132633Y364866D01*
X131809Y364390D01*
X131137Y363718D01*
X130661Y362894D01*
X130415Y361976D01*
Y361024D01*
X130661Y360106D01*
X131137Y359282D01*
X131809Y358610D01*
X132633Y358134D01*
X133551Y357888D01*
X134502D01*
X135421Y358134D01*
X136244Y358610D01*
X136917Y359282D01*
X137392Y360106D01*
X137639Y361024D01*
Y361976D01*
X137392Y362894D01*
X136917Y363718D01*
X136244Y364390D01*
X135421Y364866D01*
X134502Y365112D01*
D02*
G37*
G36*
X268039Y361000D02*
X264527D01*
Y357488D01*
X264555D01*
X265575Y357762D01*
X266490Y358290D01*
X267237Y359037D01*
X267765Y359951D01*
X268039Y360972D01*
Y361000D01*
D02*
G37*
G36*
X263527D02*
X260015D01*
Y360972D01*
X260288Y359951D01*
X260817Y359037D01*
X261563Y358290D01*
X262478Y357762D01*
X263499Y357488D01*
X263527D01*
Y361000D01*
D02*
G37*
G36*
X218039D02*
X214527D01*
Y357488D01*
X214555D01*
X215575Y357762D01*
X216490Y358290D01*
X217237Y359037D01*
X217765Y359951D01*
X218039Y360972D01*
Y361000D01*
D02*
G37*
G36*
X213527D02*
X210015D01*
Y360972D01*
X210288Y359951D01*
X210817Y359037D01*
X211563Y358290D01*
X212478Y357762D01*
X213499Y357488D01*
X213527D01*
Y361000D01*
D02*
G37*
G36*
X168039D02*
X164527D01*
Y357488D01*
X164555D01*
X165575Y357762D01*
X166490Y358290D01*
X167237Y359037D01*
X167765Y359951D01*
X168039Y360972D01*
Y361000D01*
D02*
G37*
G36*
X163527D02*
X160015D01*
Y360972D01*
X160288Y359951D01*
X160817Y359037D01*
X161564Y358290D01*
X162478Y357762D01*
X163499Y357488D01*
X163527D01*
Y361000D01*
D02*
G37*
G36*
X128039D02*
X124527D01*
Y357488D01*
X128039D01*
Y361000D01*
D02*
G37*
G36*
X123527D02*
X120015D01*
Y357488D01*
X123527D01*
Y361000D01*
D02*
G37*
G36*
X1134500Y357257D02*
Y354268D01*
X1137490D01*
X1137261Y355119D01*
X1136801Y355917D01*
X1136149Y356568D01*
X1135351Y357029D01*
X1134500Y357257D01*
D02*
G37*
G36*
X1133500D02*
X1132649Y357029D01*
X1131851Y356568D01*
X1131199Y355917D01*
X1130739Y355119D01*
X1130511Y354268D01*
X1133500D01*
Y357257D01*
D02*
G37*
G36*
X1194408Y356868D02*
X1193592D01*
X1192803Y356657D01*
X1192097Y356248D01*
X1191519Y355671D01*
X1191111Y354964D01*
X1190900Y354176D01*
Y353360D01*
X1191111Y352571D01*
X1191519Y351864D01*
X1192097Y351287D01*
X1192803Y350879D01*
X1193592Y350668D01*
X1194408D01*
X1195197Y350879D01*
X1195903Y351287D01*
X1196481Y351864D01*
X1196889Y352571D01*
X1197100Y353360D01*
Y354176D01*
X1196889Y354964D01*
X1196481Y355671D01*
X1195903Y356248D01*
X1195197Y356657D01*
X1194408Y356868D01*
D02*
G37*
G36*
X1137490Y353268D02*
X1134500D01*
Y350278D01*
X1135351Y350506D01*
X1136149Y350967D01*
X1136801Y351619D01*
X1137261Y352417D01*
X1137490Y353268D01*
D02*
G37*
G36*
X1133500D02*
X1130511D01*
X1130739Y352417D01*
X1131199Y351619D01*
X1131851Y350967D01*
X1132649Y350506D01*
X1133500Y350278D01*
Y353268D01*
D02*
G37*
G36*
X1134500Y313950D02*
Y310961D01*
X1137490D01*
X1137261Y311812D01*
X1136801Y312610D01*
X1136149Y313261D01*
X1135351Y313722D01*
X1134500Y313950D01*
D02*
G37*
G36*
X1133500D02*
X1132649Y313722D01*
X1131851Y313261D01*
X1131199Y312610D01*
X1130739Y311812D01*
X1130511Y310961D01*
X1133500D01*
Y313950D01*
D02*
G37*
G36*
X1194408Y313561D02*
X1193592D01*
X1192803Y313349D01*
X1192097Y312941D01*
X1191519Y312364D01*
X1191111Y311657D01*
X1190900Y310869D01*
Y310052D01*
X1191111Y309264D01*
X1191519Y308557D01*
X1192097Y307980D01*
X1192803Y307572D01*
X1193592Y307361D01*
X1194408D01*
X1195197Y307572D01*
X1195903Y307980D01*
X1196481Y308557D01*
X1196889Y309264D01*
X1197100Y310052D01*
Y310869D01*
X1196889Y311657D01*
X1196481Y312364D01*
X1195903Y312941D01*
X1195197Y313349D01*
X1194408Y313561D01*
D02*
G37*
G36*
X1137490Y309961D02*
X1134500D01*
Y306971D01*
X1135351Y307199D01*
X1136149Y307660D01*
X1136801Y308312D01*
X1137261Y309110D01*
X1137490Y309961D01*
D02*
G37*
G36*
X1133500D02*
X1130511D01*
X1130739Y309110D01*
X1131199Y308312D01*
X1131851Y307660D01*
X1132649Y307199D01*
X1133500Y306971D01*
Y309961D01*
D02*
G37*
G36*
X1134500Y270643D02*
Y267653D01*
X1137490D01*
X1137261Y268505D01*
X1136801Y269303D01*
X1136149Y269954D01*
X1135351Y270415D01*
X1134500Y270643D01*
D02*
G37*
G36*
X1133500D02*
X1132649Y270415D01*
X1131851Y269954D01*
X1131199Y269303D01*
X1130739Y268505D01*
X1130511Y267653D01*
X1133500D01*
Y270643D01*
D02*
G37*
G36*
X1194408Y270253D02*
X1193592D01*
X1192803Y270042D01*
X1192097Y269634D01*
X1191519Y269057D01*
X1191111Y268350D01*
X1190900Y267562D01*
Y266745D01*
X1191111Y265957D01*
X1191519Y265250D01*
X1192097Y264673D01*
X1192803Y264265D01*
X1193592Y264054D01*
X1194408D01*
X1195197Y264265D01*
X1195903Y264673D01*
X1196481Y265250D01*
X1196889Y265957D01*
X1197100Y266745D01*
Y267562D01*
X1196889Y268350D01*
X1196481Y269057D01*
X1195903Y269634D01*
X1195197Y270042D01*
X1194408Y270253D01*
D02*
G37*
G36*
X1137490Y266653D02*
X1134500D01*
Y263664D01*
X1135351Y263892D01*
X1136149Y264353D01*
X1136801Y265004D01*
X1137261Y265803D01*
X1137490Y266653D01*
D02*
G37*
G36*
X1133500D02*
X1130511D01*
X1130739Y265803D01*
X1131199Y265004D01*
X1131851Y264353D01*
X1132649Y263892D01*
X1133500Y263664D01*
Y266653D01*
D02*
G37*
G36*
X1414985Y235512D02*
X1411473D01*
Y232000D01*
X1414985D01*
Y235512D01*
D02*
G37*
G36*
X1371501D02*
X1371473D01*
Y232000D01*
X1374985D01*
Y232028D01*
X1374712Y233049D01*
X1374183Y233963D01*
X1373437Y234710D01*
X1372522Y235238D01*
X1371501Y235512D01*
D02*
G37*
G36*
X1321501D02*
X1321473D01*
Y232000D01*
X1324985D01*
Y232028D01*
X1324712Y233049D01*
X1324183Y233963D01*
X1323437Y234710D01*
X1322522Y235238D01*
X1321501Y235512D01*
D02*
G37*
G36*
X1271501D02*
X1271473D01*
Y232000D01*
X1274985D01*
Y232028D01*
X1274712Y233049D01*
X1274183Y233963D01*
X1273437Y234710D01*
X1272522Y235238D01*
X1271501Y235512D01*
D02*
G37*
G36*
X1410473D02*
X1406961D01*
Y232000D01*
X1410473D01*
Y235512D01*
D02*
G37*
G36*
X1370473D02*
X1370445D01*
X1369425Y235238D01*
X1368510Y234710D01*
X1367763Y233963D01*
X1367235Y233049D01*
X1366961Y232028D01*
Y232000D01*
X1370473D01*
Y235512D01*
D02*
G37*
G36*
X1320473D02*
X1320445D01*
X1319425Y235238D01*
X1318510Y234710D01*
X1317763Y233963D01*
X1317235Y233049D01*
X1316961Y232028D01*
Y232000D01*
X1320473D01*
Y235512D01*
D02*
G37*
G36*
X1270473D02*
X1270445D01*
X1269425Y235238D01*
X1268510Y234710D01*
X1267763Y233963D01*
X1267235Y233049D01*
X1266961Y232028D01*
Y232000D01*
X1270473D01*
Y235512D01*
D02*
G37*
G36*
X1401449Y235112D02*
X1400498D01*
X1399579Y234866D01*
X1398755Y234390D01*
X1398083Y233718D01*
X1397608Y232894D01*
X1397361Y231976D01*
Y231025D01*
X1397608Y230106D01*
X1398083Y229282D01*
X1398755Y228610D01*
X1399579Y228134D01*
X1400498Y227888D01*
X1401449D01*
X1402367Y228134D01*
X1403191Y228610D01*
X1403863Y229282D01*
X1404339Y230106D01*
X1404585Y231025D01*
Y231976D01*
X1404339Y232894D01*
X1403863Y233718D01*
X1403191Y234390D01*
X1402367Y234866D01*
X1401449Y235112D01*
D02*
G37*
G36*
X1391449D02*
X1390498D01*
X1389579Y234866D01*
X1388756Y234390D01*
X1388083Y233718D01*
X1387608Y232894D01*
X1387361Y231976D01*
Y231025D01*
X1387608Y230106D01*
X1388083Y229282D01*
X1388756Y228610D01*
X1389579Y228134D01*
X1390498Y227888D01*
X1391449D01*
X1392367Y228134D01*
X1393191Y228610D01*
X1393863Y229282D01*
X1394339Y230106D01*
X1394585Y231025D01*
Y231976D01*
X1394339Y232894D01*
X1393863Y233718D01*
X1393191Y234390D01*
X1392367Y234866D01*
X1391449Y235112D01*
D02*
G37*
G36*
X1381449D02*
X1380498D01*
X1379579Y234866D01*
X1378755Y234390D01*
X1378083Y233718D01*
X1377608Y232894D01*
X1377361Y231976D01*
Y231025D01*
X1377608Y230106D01*
X1378083Y229282D01*
X1378755Y228610D01*
X1379579Y228134D01*
X1380498Y227888D01*
X1381449D01*
X1382367Y228134D01*
X1383191Y228610D01*
X1383863Y229282D01*
X1384339Y230106D01*
X1384585Y231025D01*
Y231976D01*
X1384339Y232894D01*
X1383863Y233718D01*
X1383191Y234390D01*
X1382367Y234866D01*
X1381449Y235112D01*
D02*
G37*
G36*
X1361449D02*
X1360498D01*
X1359579Y234866D01*
X1358755Y234390D01*
X1358083Y233718D01*
X1357608Y232894D01*
X1357361Y231976D01*
Y231025D01*
X1357608Y230106D01*
X1358083Y229282D01*
X1358755Y228610D01*
X1359579Y228134D01*
X1360498Y227888D01*
X1361449D01*
X1362367Y228134D01*
X1363191Y228610D01*
X1363863Y229282D01*
X1364339Y230106D01*
X1364585Y231025D01*
Y231976D01*
X1364339Y232894D01*
X1363863Y233718D01*
X1363191Y234390D01*
X1362367Y234866D01*
X1361449Y235112D01*
D02*
G37*
G36*
X1351449D02*
X1350498D01*
X1349579Y234866D01*
X1348755Y234390D01*
X1348083Y233718D01*
X1347608Y232894D01*
X1347361Y231976D01*
Y231025D01*
X1347608Y230106D01*
X1348083Y229282D01*
X1348755Y228610D01*
X1349579Y228134D01*
X1350498Y227888D01*
X1351449D01*
X1352367Y228134D01*
X1353191Y228610D01*
X1353863Y229282D01*
X1354339Y230106D01*
X1354585Y231025D01*
Y231976D01*
X1354339Y232894D01*
X1353863Y233718D01*
X1353191Y234390D01*
X1352367Y234866D01*
X1351449Y235112D01*
D02*
G37*
G36*
X1311449D02*
X1310498D01*
X1309579Y234866D01*
X1308755Y234390D01*
X1308083Y233718D01*
X1307608Y232894D01*
X1307361Y231976D01*
Y231025D01*
X1307608Y230106D01*
X1308083Y229282D01*
X1308755Y228610D01*
X1309579Y228134D01*
X1310498Y227888D01*
X1311449D01*
X1312367Y228134D01*
X1313191Y228610D01*
X1313863Y229282D01*
X1314339Y230106D01*
X1314585Y231025D01*
Y231976D01*
X1314339Y232894D01*
X1313863Y233718D01*
X1313191Y234390D01*
X1312367Y234866D01*
X1311449Y235112D01*
D02*
G37*
G36*
X1301449D02*
X1300498D01*
X1299579Y234866D01*
X1298755Y234390D01*
X1298083Y233718D01*
X1297608Y232894D01*
X1297361Y231976D01*
Y231025D01*
X1297608Y230106D01*
X1298083Y229282D01*
X1298755Y228610D01*
X1299579Y228134D01*
X1300498Y227888D01*
X1301449D01*
X1302367Y228134D01*
X1303191Y228610D01*
X1303863Y229282D01*
X1304339Y230106D01*
X1304585Y231025D01*
Y231976D01*
X1304339Y232894D01*
X1303863Y233718D01*
X1303191Y234390D01*
X1302367Y234866D01*
X1301449Y235112D01*
D02*
G37*
G36*
X1414985Y231000D02*
X1411473D01*
Y227488D01*
X1414985D01*
Y231000D01*
D02*
G37*
G36*
X1410473D02*
X1406961D01*
Y227488D01*
X1410473D01*
Y231000D01*
D02*
G37*
G36*
X1374985D02*
X1371473D01*
Y227488D01*
X1371501D01*
X1372522Y227762D01*
X1373437Y228290D01*
X1374183Y229037D01*
X1374712Y229952D01*
X1374985Y230972D01*
Y231000D01*
D02*
G37*
G36*
X1370473D02*
X1366961D01*
Y230972D01*
X1367235Y229952D01*
X1367763Y229037D01*
X1368510Y228290D01*
X1369425Y227762D01*
X1370445Y227488D01*
X1370473D01*
Y231000D01*
D02*
G37*
G36*
X1324985D02*
X1321473D01*
Y227488D01*
X1321501D01*
X1322522Y227762D01*
X1323437Y228290D01*
X1324183Y229037D01*
X1324712Y229952D01*
X1324985Y230972D01*
Y231000D01*
D02*
G37*
G36*
X1320473D02*
X1316961D01*
Y230972D01*
X1317235Y229952D01*
X1317763Y229037D01*
X1318510Y228290D01*
X1319425Y227762D01*
X1320445Y227488D01*
X1320473D01*
Y231000D01*
D02*
G37*
G36*
X1274985D02*
X1271473D01*
Y227488D01*
X1271501D01*
X1272522Y227762D01*
X1273437Y228290D01*
X1274183Y229037D01*
X1274712Y229952D01*
X1274985Y230972D01*
Y231000D01*
D02*
G37*
G36*
X1270473D02*
X1266961D01*
Y230972D01*
X1267235Y229952D01*
X1267763Y229037D01*
X1268510Y228290D01*
X1269425Y227762D01*
X1270445Y227488D01*
X1270473D01*
Y231000D01*
D02*
G37*
G36*
X1291449Y235112D02*
X1290498D01*
X1289579Y234866D01*
X1288756Y234390D01*
X1288083Y233718D01*
X1287608Y232894D01*
X1287361Y231976D01*
Y231025D01*
X1287391Y230912D01*
X1283552Y227073D01*
X1283090Y227264D01*
Y228552D01*
X1283191Y228610D01*
X1283863Y229282D01*
X1284339Y230106D01*
X1284585Y231025D01*
Y231976D01*
X1284339Y232894D01*
X1283863Y233718D01*
X1283191Y234390D01*
X1282367Y234866D01*
X1281449Y235112D01*
X1280498D01*
X1279579Y234866D01*
X1278755Y234390D01*
X1278083Y233718D01*
X1277608Y232894D01*
X1277361Y231976D01*
Y231025D01*
X1277608Y230106D01*
X1278083Y229282D01*
X1278755Y228610D01*
X1278856Y228552D01*
Y222272D01*
X1278609Y221902D01*
X1278448Y221092D01*
Y210738D01*
X1278086Y210376D01*
X1277678Y209669D01*
X1277467Y208881D01*
Y208065D01*
X1277678Y207277D01*
X1278086Y206571D01*
X1278663Y205994D01*
X1279369Y205586D01*
X1280157Y205375D01*
X1280973D01*
X1281761Y205586D01*
X1282468Y205994D01*
X1283045Y206571D01*
X1283453Y207277D01*
X1283664Y208065D01*
Y208881D01*
X1283453Y209669D01*
X1283045Y210376D01*
X1282682Y210738D01*
Y220215D01*
X1290386Y227918D01*
X1290498Y227888D01*
X1291449D01*
X1292367Y228134D01*
X1293191Y228610D01*
X1293863Y229282D01*
X1294339Y230106D01*
X1294585Y231025D01*
Y231976D01*
X1294339Y232894D01*
X1293863Y233718D01*
X1293191Y234390D01*
X1292367Y234866D01*
X1291449Y235112D01*
D02*
G37*
G36*
X1134500Y227336D02*
Y224346D01*
X1137490D01*
X1137261Y225197D01*
X1136801Y225995D01*
X1136149Y226647D01*
X1135351Y227108D01*
X1134500Y227336D01*
D02*
G37*
G36*
X1133500D02*
X1132649Y227108D01*
X1131851Y226647D01*
X1131199Y225995D01*
X1130739Y225197D01*
X1130511Y224346D01*
X1133500D01*
Y227336D01*
D02*
G37*
G36*
X1194408Y226946D02*
X1193592D01*
X1192803Y226735D01*
X1192097Y226327D01*
X1191519Y225750D01*
X1191111Y225043D01*
X1190900Y224255D01*
Y223438D01*
X1191111Y222650D01*
X1191519Y221943D01*
X1192097Y221366D01*
X1192803Y220958D01*
X1193592Y220746D01*
X1194408D01*
X1195197Y220958D01*
X1195903Y221366D01*
X1196481Y221943D01*
X1196889Y222650D01*
X1197100Y223438D01*
Y224255D01*
X1196889Y225043D01*
X1196481Y225750D01*
X1195903Y226327D01*
X1195197Y226735D01*
X1194408Y226946D01*
D02*
G37*
G36*
X1137490Y223346D02*
X1134500D01*
Y220357D01*
X1135351Y220585D01*
X1136149Y221046D01*
X1136801Y221697D01*
X1137261Y222496D01*
X1137490Y223346D01*
D02*
G37*
G36*
X1133500D02*
X1130511D01*
X1130739Y222496D01*
X1131199Y221697D01*
X1131851Y221046D01*
X1132649Y220585D01*
X1133500Y220357D01*
Y223346D01*
D02*
G37*
G36*
X1134500Y184029D02*
Y181039D01*
X1137490D01*
X1137261Y181890D01*
X1136801Y182688D01*
X1136149Y183340D01*
X1135351Y183801D01*
X1134500Y184029D01*
D02*
G37*
G36*
X1133500D02*
X1132649Y183801D01*
X1131851Y183340D01*
X1131199Y182688D01*
X1130739Y181890D01*
X1130511Y181039D01*
X1133500D01*
Y184029D01*
D02*
G37*
G36*
X1194408Y183639D02*
X1193592D01*
X1192803Y183428D01*
X1192097Y183020D01*
X1191519Y182443D01*
X1191111Y181736D01*
X1190900Y180947D01*
Y180131D01*
X1191111Y179343D01*
X1191519Y178636D01*
X1192097Y178059D01*
X1192803Y177651D01*
X1193592Y177439D01*
X1194408D01*
X1195197Y177651D01*
X1195903Y178059D01*
X1196481Y178636D01*
X1196889Y179343D01*
X1197100Y180131D01*
Y180947D01*
X1196889Y181736D01*
X1196481Y182443D01*
X1195903Y183020D01*
X1195197Y183428D01*
X1194408Y183639D01*
D02*
G37*
G36*
X1137490Y180039D02*
X1134500D01*
Y177050D01*
X1135351Y177278D01*
X1136149Y177739D01*
X1136801Y178390D01*
X1137261Y179188D01*
X1137490Y180039D01*
D02*
G37*
G36*
X1133500D02*
X1130511D01*
X1130739Y179188D01*
X1131199Y178390D01*
X1131851Y177739D01*
X1132649Y177278D01*
X1133500Y177050D01*
Y180039D01*
D02*
G37*
G36*
X1411501Y145512D02*
X1411473D01*
Y142000D01*
X1414985D01*
Y142028D01*
X1414712Y143049D01*
X1414184Y143963D01*
X1413437Y144710D01*
X1412522Y145238D01*
X1411501Y145512D01*
D02*
G37*
G36*
X1361501D02*
X1361473D01*
Y142000D01*
X1364985D01*
Y142028D01*
X1364712Y143049D01*
X1364184Y143963D01*
X1363437Y144710D01*
X1362522Y145238D01*
X1361501Y145512D01*
D02*
G37*
G36*
X1341501D02*
X1341473D01*
Y142000D01*
X1344985D01*
Y142028D01*
X1344712Y143049D01*
X1344184Y143963D01*
X1343437Y144710D01*
X1342522Y145238D01*
X1341501Y145512D01*
D02*
G37*
G36*
X1311501D02*
X1311473D01*
Y142000D01*
X1314985D01*
Y142028D01*
X1314712Y143049D01*
X1314184Y143963D01*
X1313437Y144710D01*
X1312522Y145238D01*
X1311501Y145512D01*
D02*
G37*
G36*
X1281501D02*
X1281473D01*
Y142000D01*
X1284985D01*
Y142028D01*
X1284712Y143049D01*
X1284184Y143963D01*
X1283436Y144710D01*
X1282522Y145238D01*
X1281501Y145512D01*
D02*
G37*
G36*
X1271501D02*
X1271473D01*
Y142000D01*
X1274985D01*
Y142028D01*
X1274712Y143049D01*
X1274183Y143963D01*
X1273437Y144710D01*
X1272522Y145238D01*
X1271501Y145512D01*
D02*
G37*
G36*
X1410473D02*
X1410445D01*
X1409425Y145238D01*
X1408510Y144710D01*
X1407763Y143963D01*
X1407235Y143049D01*
X1406961Y142028D01*
Y142000D01*
X1410473D01*
Y145512D01*
D02*
G37*
G36*
X1360473D02*
X1360445D01*
X1359425Y145238D01*
X1358510Y144710D01*
X1357763Y143963D01*
X1357235Y143049D01*
X1356961Y142028D01*
Y142000D01*
X1360473D01*
Y145512D01*
D02*
G37*
G36*
X1340473D02*
X1340445D01*
X1339425Y145238D01*
X1338510Y144710D01*
X1337763Y143963D01*
X1337235Y143049D01*
X1336961Y142028D01*
Y142000D01*
X1340473D01*
Y145512D01*
D02*
G37*
G36*
X1310473D02*
X1310445D01*
X1309425Y145238D01*
X1308510Y144710D01*
X1307763Y143963D01*
X1307235Y143049D01*
X1306961Y142028D01*
Y142000D01*
X1310473D01*
Y145512D01*
D02*
G37*
G36*
X1280473D02*
X1280445D01*
X1279425Y145238D01*
X1278510Y144710D01*
X1277763Y143963D01*
X1277235Y143049D01*
X1276961Y142028D01*
Y142000D01*
X1280473D01*
Y145512D01*
D02*
G37*
G36*
X1270473D02*
X1270445D01*
X1269425Y145238D01*
X1268510Y144710D01*
X1267763Y143963D01*
X1267235Y143049D01*
X1266961Y142028D01*
Y142000D01*
X1270473D01*
Y145512D01*
D02*
G37*
G36*
X1401449Y145112D02*
X1400498D01*
X1399579Y144866D01*
X1398755Y144390D01*
X1398083Y143718D01*
X1397608Y142894D01*
X1397361Y141975D01*
Y141024D01*
X1397608Y140106D01*
X1398083Y139282D01*
X1398755Y138610D01*
X1399579Y138134D01*
X1400498Y137888D01*
X1401449D01*
X1402367Y138134D01*
X1403191Y138610D01*
X1403863Y139282D01*
X1404339Y140106D01*
X1404585Y141024D01*
Y141975D01*
X1404339Y142894D01*
X1403863Y143718D01*
X1403191Y144390D01*
X1402367Y144866D01*
X1401449Y145112D01*
D02*
G37*
G36*
X1391449D02*
X1390498D01*
X1389579Y144866D01*
X1388756Y144390D01*
X1388083Y143718D01*
X1387608Y142894D01*
X1387361Y141975D01*
Y141024D01*
X1387608Y140106D01*
X1388083Y139282D01*
X1388756Y138610D01*
X1389579Y138134D01*
X1390498Y137888D01*
X1391449D01*
X1392367Y138134D01*
X1393191Y138610D01*
X1393863Y139282D01*
X1394339Y140106D01*
X1394585Y141024D01*
Y141975D01*
X1394339Y142894D01*
X1393863Y143718D01*
X1393191Y144390D01*
X1392367Y144866D01*
X1391449Y145112D01*
D02*
G37*
G36*
X1381449D02*
X1380498D01*
X1379579Y144866D01*
X1378755Y144390D01*
X1378083Y143718D01*
X1377608Y142894D01*
X1377361Y141975D01*
Y141024D01*
X1377608Y140106D01*
X1378083Y139282D01*
X1378755Y138610D01*
X1379579Y138134D01*
X1380498Y137888D01*
X1381449D01*
X1382367Y138134D01*
X1383191Y138610D01*
X1383863Y139282D01*
X1384339Y140106D01*
X1384585Y141024D01*
Y141975D01*
X1384339Y142894D01*
X1383863Y143718D01*
X1383191Y144390D01*
X1382367Y144866D01*
X1381449Y145112D01*
D02*
G37*
G36*
X1371449D02*
X1370498D01*
X1369579Y144866D01*
X1368756Y144390D01*
X1368083Y143718D01*
X1367608Y142894D01*
X1367361Y141975D01*
Y141024D01*
X1367608Y140106D01*
X1368083Y139282D01*
X1368756Y138610D01*
X1369579Y138134D01*
X1370498Y137888D01*
X1371449D01*
X1372367Y138134D01*
X1373191Y138610D01*
X1373863Y139282D01*
X1374339Y140106D01*
X1374585Y141024D01*
Y141975D01*
X1374339Y142894D01*
X1373863Y143718D01*
X1373191Y144390D01*
X1372367Y144866D01*
X1371449Y145112D01*
D02*
G37*
G36*
X1351449D02*
X1350498D01*
X1349579Y144866D01*
X1348755Y144390D01*
X1348083Y143718D01*
X1347608Y142894D01*
X1347361Y141975D01*
Y141024D01*
X1347608Y140106D01*
X1348083Y139282D01*
X1348755Y138610D01*
X1349579Y138134D01*
X1350498Y137888D01*
X1351449D01*
X1352367Y138134D01*
X1353191Y138610D01*
X1353863Y139282D01*
X1354339Y140106D01*
X1354585Y141024D01*
Y141975D01*
X1354339Y142894D01*
X1353863Y143718D01*
X1353191Y144390D01*
X1352367Y144866D01*
X1351449Y145112D01*
D02*
G37*
G36*
X1331449D02*
X1330498D01*
X1329579Y144866D01*
X1328755Y144390D01*
X1328083Y143718D01*
X1327608Y142894D01*
X1327361Y141975D01*
Y141024D01*
X1327608Y140106D01*
X1328083Y139282D01*
X1328755Y138610D01*
X1329579Y138134D01*
X1330498Y137888D01*
X1331449D01*
X1332367Y138134D01*
X1333191Y138610D01*
X1333863Y139282D01*
X1334339Y140106D01*
X1334585Y141024D01*
Y141975D01*
X1334339Y142894D01*
X1333863Y143718D01*
X1333191Y144390D01*
X1332367Y144866D01*
X1331449Y145112D01*
D02*
G37*
G36*
X1321449D02*
X1320498D01*
X1319579Y144866D01*
X1318756Y144390D01*
X1318083Y143718D01*
X1317608Y142894D01*
X1317361Y141975D01*
Y141024D01*
X1317608Y140106D01*
X1318083Y139282D01*
X1318756Y138610D01*
X1319579Y138134D01*
X1320498Y137888D01*
X1321449D01*
X1322367Y138134D01*
X1323191Y138610D01*
X1323863Y139282D01*
X1324339Y140106D01*
X1324585Y141024D01*
Y141975D01*
X1324339Y142894D01*
X1323863Y143718D01*
X1323191Y144390D01*
X1322367Y144866D01*
X1321449Y145112D01*
D02*
G37*
G36*
X1301449D02*
X1300498D01*
X1299579Y144866D01*
X1298755Y144390D01*
X1298083Y143718D01*
X1297608Y142894D01*
X1297361Y141975D01*
Y141024D01*
X1297608Y140106D01*
X1298083Y139282D01*
X1298755Y138610D01*
X1299579Y138134D01*
X1300498Y137888D01*
X1301449D01*
X1302367Y138134D01*
X1303191Y138610D01*
X1303863Y139282D01*
X1304339Y140106D01*
X1304585Y141024D01*
Y141975D01*
X1304339Y142894D01*
X1303863Y143718D01*
X1303191Y144390D01*
X1302367Y144866D01*
X1301449Y145112D01*
D02*
G37*
G36*
X1291449D02*
X1290498D01*
X1289579Y144866D01*
X1288756Y144390D01*
X1288083Y143718D01*
X1287608Y142894D01*
X1287361Y141975D01*
Y141024D01*
X1287608Y140106D01*
X1288083Y139282D01*
X1288756Y138610D01*
X1289579Y138134D01*
X1290498Y137888D01*
X1291449D01*
X1292367Y138134D01*
X1293191Y138610D01*
X1293863Y139282D01*
X1294339Y140106D01*
X1294585Y141024D01*
Y141975D01*
X1294339Y142894D01*
X1293863Y143718D01*
X1293191Y144390D01*
X1292367Y144866D01*
X1291449Y145112D01*
D02*
G37*
G36*
X1134500Y140722D02*
Y137732D01*
X1137490D01*
X1137261Y138583D01*
X1136801Y139381D01*
X1136149Y140033D01*
X1135351Y140494D01*
X1134500Y140722D01*
D02*
G37*
G36*
X1133500D02*
X1132649Y140494D01*
X1131851Y140033D01*
X1131199Y139381D01*
X1130739Y138583D01*
X1130511Y137732D01*
X1133500D01*
Y140722D01*
D02*
G37*
G36*
X1414985Y141000D02*
X1411473D01*
Y137488D01*
X1411501D01*
X1412522Y137762D01*
X1413437Y138290D01*
X1414184Y139037D01*
X1414712Y139952D01*
X1414985Y140972D01*
Y141000D01*
D02*
G37*
G36*
X1410473D02*
X1406961D01*
Y140972D01*
X1407235Y139952D01*
X1407763Y139037D01*
X1408510Y138290D01*
X1409425Y137762D01*
X1410445Y137488D01*
X1410473D01*
Y141000D01*
D02*
G37*
G36*
X1364985D02*
X1361473D01*
Y137488D01*
X1361501D01*
X1362522Y137762D01*
X1363437Y138290D01*
X1364184Y139037D01*
X1364712Y139952D01*
X1364985Y140972D01*
Y141000D01*
D02*
G37*
G36*
X1360473D02*
X1356961D01*
Y140972D01*
X1357235Y139952D01*
X1357763Y139037D01*
X1358510Y138290D01*
X1359425Y137762D01*
X1360445Y137488D01*
X1360473D01*
Y141000D01*
D02*
G37*
G36*
X1344985D02*
X1341473D01*
Y137488D01*
X1341501D01*
X1342522Y137762D01*
X1343437Y138290D01*
X1344184Y139037D01*
X1344712Y139952D01*
X1344985Y140972D01*
Y141000D01*
D02*
G37*
G36*
X1340473D02*
X1336961D01*
Y140972D01*
X1337235Y139952D01*
X1337763Y139037D01*
X1338510Y138290D01*
X1339425Y137762D01*
X1340445Y137488D01*
X1340473D01*
Y141000D01*
D02*
G37*
G36*
X1314985D02*
X1311473D01*
Y137488D01*
X1311501D01*
X1312522Y137762D01*
X1313437Y138290D01*
X1314184Y139037D01*
X1314712Y139952D01*
X1314985Y140972D01*
Y141000D01*
D02*
G37*
G36*
X1310473D02*
X1306961D01*
Y140972D01*
X1307235Y139952D01*
X1307763Y139037D01*
X1308510Y138290D01*
X1309425Y137762D01*
X1310445Y137488D01*
X1310473D01*
Y141000D01*
D02*
G37*
G36*
X1284985D02*
X1281473D01*
Y137488D01*
X1281501D01*
X1282522Y137762D01*
X1283436Y138290D01*
X1284184Y139037D01*
X1284712Y139952D01*
X1284985Y140972D01*
Y141000D01*
D02*
G37*
G36*
X1280473D02*
X1276961D01*
Y140972D01*
X1277235Y139952D01*
X1277763Y139037D01*
X1278510Y138290D01*
X1279425Y137762D01*
X1280445Y137488D01*
X1280473D01*
Y141000D01*
D02*
G37*
G36*
X1274985D02*
X1271473D01*
Y137488D01*
X1271501D01*
X1272522Y137762D01*
X1273437Y138290D01*
X1274183Y139037D01*
X1274712Y139952D01*
X1274985Y140972D01*
Y141000D01*
D02*
G37*
G36*
X1270473D02*
X1266961D01*
Y140972D01*
X1267235Y139952D01*
X1267763Y139037D01*
X1268510Y138290D01*
X1269425Y137762D01*
X1270445Y137488D01*
X1270473D01*
Y141000D01*
D02*
G37*
G36*
X1194408Y140332D02*
X1193592D01*
X1192803Y140121D01*
X1192097Y139713D01*
X1191519Y139136D01*
X1191111Y138429D01*
X1190900Y137640D01*
Y136824D01*
X1191111Y136036D01*
X1191519Y135329D01*
X1192097Y134752D01*
X1192803Y134344D01*
X1193592Y134132D01*
X1194408D01*
X1195197Y134344D01*
X1195903Y134752D01*
X1196481Y135329D01*
X1196889Y136036D01*
X1197100Y136824D01*
Y137640D01*
X1196889Y138429D01*
X1196481Y139136D01*
X1195903Y139713D01*
X1195197Y140121D01*
X1194408Y140332D01*
D02*
G37*
G36*
X1137490Y136732D02*
X1134500D01*
Y133743D01*
X1135351Y133971D01*
X1136149Y134432D01*
X1136801Y135083D01*
X1137261Y135881D01*
X1137490Y136732D01*
D02*
G37*
G36*
X1133500D02*
X1130511D01*
X1130739Y135881D01*
X1131199Y135083D01*
X1131851Y134432D01*
X1132649Y133971D01*
X1133500Y133743D01*
Y136732D01*
D02*
G37*
G36*
X1336000Y109905D02*
Y105500D01*
X1339487D01*
Y105984D01*
X1339351Y107016D01*
X1338953Y107978D01*
X1338319Y108803D01*
X1337493Y109437D01*
X1336532Y109835D01*
X1336000Y109905D01*
D02*
G37*
G36*
X1335000D02*
X1334468Y109835D01*
X1333507Y109437D01*
X1332681Y108803D01*
X1332047Y107978D01*
X1331649Y107016D01*
X1331513Y105984D01*
Y105500D01*
X1335000D01*
Y109905D01*
D02*
G37*
G36*
X1349279Y109568D02*
X1348352Y109446D01*
X1347488Y109088D01*
X1346746Y108518D01*
X1346176Y107776D01*
X1345818Y106912D01*
X1345696Y105984D01*
Y104016D01*
X1345818Y103088D01*
X1346176Y102224D01*
X1346746Y101482D01*
X1347488Y100912D01*
X1348352Y100554D01*
X1349279Y100432D01*
X1350207Y100554D01*
X1351071Y100912D01*
X1351813Y101482D01*
X1352383Y102224D01*
X1352741Y103088D01*
X1352863Y104016D01*
Y105984D01*
X1352741Y106912D01*
X1352383Y107776D01*
X1351813Y108518D01*
X1351071Y109088D01*
X1350207Y109446D01*
X1349279Y109568D01*
D02*
G37*
G36*
X1339487Y104500D02*
X1336000D01*
Y100095D01*
X1336532Y100165D01*
X1337493Y100563D01*
X1338319Y101197D01*
X1338953Y102022D01*
X1339351Y102984D01*
X1339487Y104016D01*
Y104500D01*
D02*
G37*
G36*
X1335000D02*
X1331513D01*
Y104016D01*
X1331649Y102984D01*
X1332047Y102022D01*
X1332681Y101197D01*
X1333507Y100563D01*
X1334468Y100165D01*
X1335000Y100095D01*
Y104500D01*
D02*
G37*
G36*
X1134500Y97415D02*
Y94425D01*
X1137490D01*
X1137261Y95276D01*
X1136801Y96074D01*
X1136149Y96726D01*
X1135351Y97187D01*
X1134500Y97415D01*
D02*
G37*
G36*
X1133500D02*
X1132649Y97187D01*
X1131851Y96726D01*
X1131199Y96074D01*
X1130739Y95276D01*
X1130511Y94425D01*
X1133500D01*
Y97415D01*
D02*
G37*
G36*
X1194408Y97025D02*
X1193592D01*
X1192803Y96814D01*
X1192097Y96406D01*
X1191519Y95829D01*
X1191111Y95122D01*
X1190900Y94333D01*
Y93517D01*
X1191111Y92729D01*
X1191519Y92022D01*
X1192097Y91445D01*
X1192803Y91036D01*
X1193592Y90825D01*
X1194408D01*
X1195197Y91036D01*
X1195903Y91445D01*
X1196481Y92022D01*
X1196889Y92729D01*
X1197100Y93517D01*
Y94333D01*
X1196889Y95122D01*
X1196481Y95829D01*
X1195903Y96406D01*
X1195197Y96814D01*
X1194408Y97025D01*
D02*
G37*
G36*
X1137490Y93425D02*
X1134500D01*
Y90436D01*
X1135351Y90664D01*
X1136149Y91124D01*
X1136801Y91776D01*
X1137261Y92574D01*
X1137490Y93425D01*
D02*
G37*
G36*
X1133500D02*
X1130511D01*
X1130739Y92574D01*
X1131199Y91776D01*
X1131851Y91124D01*
X1132649Y90664D01*
X1133500Y90436D01*
Y93425D01*
D02*
G37*
G36*
X1417323Y111269D02*
X1415314Y111111D01*
X1413354Y110641D01*
X1411492Y109870D01*
X1409773Y108817D01*
X1408241Y107508D01*
X1406932Y105975D01*
X1405879Y104256D01*
X1405107Y102394D01*
X1404637Y100435D01*
X1404478Y98425D01*
X1404637Y96416D01*
X1405107Y94456D01*
X1405879Y92594D01*
X1406932Y90876D01*
X1408241Y89343D01*
X1409773Y88034D01*
X1411492Y86981D01*
X1413354Y86209D01*
X1415314Y85739D01*
X1417323Y85581D01*
X1419332Y85739D01*
X1421292Y86209D01*
X1423154Y86981D01*
X1424872Y88034D01*
X1426405Y89343D01*
X1427714Y90876D01*
X1428767Y92594D01*
X1429539Y94456D01*
X1430009Y96416D01*
X1430167Y98425D01*
X1430009Y100435D01*
X1429539Y102394D01*
X1428767Y104256D01*
X1427714Y105975D01*
X1426405Y107508D01*
X1424872Y108817D01*
X1423154Y109870D01*
X1421292Y110641D01*
X1419332Y111111D01*
X1417323Y111269D01*
D02*
G37*
G36*
X118110D02*
X116101Y111111D01*
X114141Y110641D01*
X112279Y109870D01*
X110561Y108817D01*
X109028Y107508D01*
X107719Y105975D01*
X106666Y104256D01*
X105895Y102394D01*
X105424Y100435D01*
X105266Y98425D01*
X105424Y96416D01*
X105895Y94456D01*
X106666Y92594D01*
X107719Y90876D01*
X109028Y89343D01*
X110561Y88034D01*
X112279Y86981D01*
X114141Y86209D01*
X116101Y85739D01*
X118110Y85581D01*
X120120Y85739D01*
X122079Y86209D01*
X123941Y86981D01*
X125660Y88034D01*
X127192Y89343D01*
X128501Y90876D01*
X129555Y92594D01*
X130326Y94456D01*
X130796Y96416D01*
X130955Y98425D01*
X130796Y100435D01*
X130326Y102394D01*
X129555Y104256D01*
X128501Y105975D01*
X127192Y107508D01*
X125660Y108817D01*
X123941Y109870D01*
X122079Y110641D01*
X120120Y111111D01*
X118110Y111269D01*
D02*
G37*
G36*
X1134500Y54989D02*
Y52000D01*
X1137490D01*
X1137261Y52851D01*
X1136801Y53649D01*
X1136149Y54301D01*
X1135351Y54761D01*
X1134500Y54989D01*
D02*
G37*
G36*
X1133500D02*
X1132649Y54761D01*
X1131851Y54301D01*
X1131199Y53649D01*
X1130739Y52851D01*
X1130511Y52000D01*
X1133500D01*
Y54989D01*
D02*
G37*
G36*
X1194408Y54600D02*
X1193592D01*
X1192803Y54389D01*
X1192097Y53981D01*
X1191519Y53403D01*
X1191111Y52697D01*
X1190900Y51908D01*
Y51092D01*
X1191111Y50303D01*
X1191519Y49597D01*
X1192097Y49019D01*
X1192803Y48611D01*
X1193592Y48400D01*
X1194408D01*
X1195197Y48611D01*
X1195903Y49019D01*
X1196481Y49597D01*
X1196889Y50303D01*
X1197100Y51092D01*
Y51908D01*
X1196889Y52697D01*
X1196481Y53403D01*
X1195903Y53981D01*
X1195197Y54389D01*
X1194408Y54600D01*
D02*
G37*
G36*
X1137490Y51000D02*
X1134500D01*
Y48011D01*
X1135351Y48239D01*
X1136149Y48699D01*
X1136801Y49351D01*
X1137261Y50149D01*
X1137490Y51000D01*
D02*
G37*
G36*
X1133500D02*
X1130511D01*
X1130739Y50149D01*
X1131199Y49351D01*
X1131851Y48699D01*
X1132649Y48239D01*
X1133500Y48011D01*
Y51000D01*
D02*
G37*
%LPD*%
G36*
X1083000Y543671D02*
Y479000D01*
X1073913D01*
Y521758D01*
X1073843Y522107D01*
X1073645Y522403D01*
X1025169Y570879D01*
X1025428Y571328D01*
X1025893Y571203D01*
X1026761D01*
X1027599Y571428D01*
X1028351Y571862D01*
X1028965Y572476D01*
X1029399Y573228D01*
X1029624Y574066D01*
Y574934D01*
X1029399Y575772D01*
X1028965Y576524D01*
X1028351Y577138D01*
X1027599Y577572D01*
X1026761Y577797D01*
X1025893D01*
X1025054Y577572D01*
X1024302Y577138D01*
X1023689Y576524D01*
X1023448Y576108D01*
X1022948Y576242D01*
Y578791D01*
X1022879Y579141D01*
X1022681Y579437D01*
X1019213Y582905D01*
X1019399Y583227D01*
X1019624Y584066D01*
Y584934D01*
X1019399Y585773D01*
X1018965Y586524D01*
X1018351Y587138D01*
X1017599Y587572D01*
X1016761Y587797D01*
X1015893D01*
X1015054Y587572D01*
X1014303Y587138D01*
X1013689Y586524D01*
X1013255Y585773D01*
X1013030Y584934D01*
Y584066D01*
X1013255Y583227D01*
X1013689Y582476D01*
X1014303Y581862D01*
X1015054Y581428D01*
X1015893Y581203D01*
X1016761D01*
X1017599Y581428D01*
X1017922Y581614D01*
X1021123Y578413D01*
Y572722D01*
X1021192Y572373D01*
X1021390Y572077D01*
X1072087Y521380D01*
Y479000D01*
X1063913D01*
Y521758D01*
X1063843Y522107D01*
X1063645Y522403D01*
X1015170Y570879D01*
X1015428Y571328D01*
X1015893Y571203D01*
X1016761D01*
X1017599Y571428D01*
X1018351Y571862D01*
X1018965Y572476D01*
X1019399Y573228D01*
X1019624Y574066D01*
Y574934D01*
X1019399Y575772D01*
X1018965Y576524D01*
X1018351Y577138D01*
X1017599Y577572D01*
X1016761Y577797D01*
X1015893D01*
X1015054Y577572D01*
X1014303Y577138D01*
X1013689Y576524D01*
X1013448Y576108D01*
X1012948Y576242D01*
Y578791D01*
X1012879Y579141D01*
X1012681Y579437D01*
X1009213Y582905D01*
X1009399Y583227D01*
X1009624Y584066D01*
Y584934D01*
X1009399Y585773D01*
X1008965Y586524D01*
X1008351Y587138D01*
X1007599Y587572D01*
X1006761Y587797D01*
X1005893D01*
X1005054Y587572D01*
X1004303Y587138D01*
X1003689Y586524D01*
X1003255Y585773D01*
X1003030Y584934D01*
Y584066D01*
X1003255Y583227D01*
X1003689Y582476D01*
X1004303Y581862D01*
X1005054Y581428D01*
X1005893Y581203D01*
X1006761D01*
X1007599Y581428D01*
X1007922Y581614D01*
X1011123Y578413D01*
Y572722D01*
X1011192Y572373D01*
X1011390Y572077D01*
X1062087Y521380D01*
Y479000D01*
X804500D01*
Y530413D01*
X900290D01*
X900481Y529951D01*
X899958Y529428D01*
X891085D01*
X891085Y529428D01*
X890734Y529358D01*
X890437Y529160D01*
X844694Y483417D01*
X817856D01*
Y484284D01*
X817627Y485138D01*
X817185Y485903D01*
X816561Y486528D01*
X815795Y486970D01*
X814942Y487198D01*
X814058D01*
X813205Y486970D01*
X812439Y486528D01*
X811815Y485903D01*
X811373Y485138D01*
X811144Y484284D01*
Y483401D01*
X811373Y482547D01*
X811815Y481782D01*
X812439Y481157D01*
X813205Y480715D01*
X814058Y480487D01*
X814942D01*
X815795Y480715D01*
X816561Y481157D01*
X816987Y481583D01*
X845074D01*
X845424Y481653D01*
X845722Y481852D01*
X870182Y506312D01*
X870644Y506121D01*
Y500172D01*
X877356D01*
Y506883D01*
X871407D01*
X871216Y507345D01*
X891465Y527595D01*
X900338D01*
X900689Y527664D01*
X900986Y527863D01*
X903536Y530413D01*
X918500D01*
X918691Y529951D01*
X875558Y486818D01*
X875295Y486970D01*
X874442Y487198D01*
X873558D01*
X872705Y486970D01*
X871939Y486528D01*
X871315Y485903D01*
X870873Y485138D01*
X870644Y484284D01*
Y483401D01*
X870873Y482547D01*
X871315Y481782D01*
X871939Y481157D01*
X872705Y480715D01*
X873558Y480487D01*
X874442D01*
X875295Y480715D01*
X876061Y481157D01*
X876685Y481782D01*
X877127Y482547D01*
X877356Y483401D01*
Y484284D01*
X877127Y485138D01*
X876883Y485561D01*
X921735Y530413D01*
X940713D01*
Y549391D01*
X951264Y559942D01*
X951461Y560238D01*
X951531Y560587D01*
Y578413D01*
X954732Y581614D01*
X955054Y581428D01*
X955893Y581203D01*
X956761D01*
X957599Y581428D01*
X958351Y581862D01*
X958965Y582476D01*
X959399Y583227D01*
X959624Y584066D01*
Y584934D01*
X959399Y585773D01*
X958965Y586524D01*
X958351Y587138D01*
X957599Y587572D01*
X956761Y587797D01*
X955893D01*
X955054Y587572D01*
X954303Y587138D01*
X953689Y586524D01*
X953255Y585773D01*
X953030Y584934D01*
Y584066D01*
X953255Y583227D01*
X953441Y582905D01*
X949973Y579437D01*
X949775Y579141D01*
X949705Y578791D01*
Y576242D01*
X949205Y576108D01*
X948965Y576524D01*
X948351Y577138D01*
X947599Y577572D01*
X946761Y577797D01*
X945893D01*
X945054Y577572D01*
X944302Y577138D01*
X943689Y576524D01*
X943255Y575772D01*
X943030Y574934D01*
Y574066D01*
X943255Y573228D01*
X943439Y572909D01*
X941175Y570644D01*
X940713Y570836D01*
Y592958D01*
X980470D01*
X980823Y592603D01*
X980743Y579889D01*
X980743Y579888D01*
X980743Y579887D01*
X980836Y579659D01*
X980930Y579429D01*
X980931Y579428D01*
X980931Y579427D01*
X981378Y578979D01*
X981378Y578978D01*
X981379Y578978D01*
X981608Y578883D01*
X981836Y578787D01*
X981837Y578788D01*
X981838Y578787D01*
X989755D01*
X990185Y578358D01*
X990709Y578008D01*
X991327Y577885D01*
X994596D01*
X994730Y577385D01*
X994302Y577138D01*
X993689Y576524D01*
X993255Y575772D01*
X993030Y574934D01*
Y574066D01*
X993255Y573228D01*
X993689Y572476D01*
X994302Y571862D01*
X995054Y571428D01*
X995893Y571203D01*
X996761D01*
X997599Y571428D01*
X998351Y571862D01*
X998965Y572476D01*
X999399Y573228D01*
X999624Y574066D01*
Y574934D01*
X999399Y575772D01*
X998965Y576524D01*
X998351Y577138D01*
X997924Y577385D01*
X998058Y577885D01*
X1000658D01*
X1003152Y575390D01*
X1003030Y574934D01*
Y574066D01*
X1003255Y573228D01*
X1003689Y572476D01*
X1004303Y571862D01*
X1005054Y571428D01*
X1005893Y571203D01*
X1006761D01*
X1007599Y571428D01*
X1008351Y571862D01*
X1008965Y572476D01*
X1009399Y573228D01*
X1009624Y574066D01*
Y574934D01*
X1009399Y575772D01*
X1008965Y576524D01*
X1008351Y577138D01*
X1007599Y577572D01*
X1006761Y577797D01*
X1005893D01*
X1005437Y577675D01*
X1002469Y580642D01*
X1001945Y580992D01*
X1001327Y581115D01*
X998058D01*
X997924Y581615D01*
X998351Y581862D01*
X998965Y582476D01*
X999399Y583227D01*
X999624Y584066D01*
Y584934D01*
X999399Y585773D01*
X998965Y586524D01*
X998351Y587138D01*
X997599Y587572D01*
X996761Y587797D01*
X995893D01*
X995054Y587572D01*
X994302Y587138D01*
X993689Y586524D01*
X993255Y585773D01*
X993030Y584934D01*
Y584066D01*
X993255Y583227D01*
X993689Y582476D01*
X994302Y581862D01*
X994730Y581615D01*
X994596Y581115D01*
X991996D01*
X991464Y581647D01*
Y592958D01*
X1027754D01*
X1083000Y543671D01*
D02*
G37*
G36*
X949705Y572758D02*
Y560965D01*
X919470Y530730D01*
X918959Y530872D01*
X918839Y530922D01*
X918748Y531013D01*
X918619D01*
X918500Y531062D01*
X904839D01*
X904648Y531524D01*
X944735Y571612D01*
X945054Y571428D01*
X945893Y571203D01*
X946761D01*
X947599Y571428D01*
X948351Y571862D01*
X948965Y572476D01*
X949205Y572892D01*
X949705Y572758D01*
D02*
G37*
G36*
X940063Y548088D02*
Y531062D01*
X923037D01*
X922846Y531524D01*
X939601Y548279D01*
X940063Y548088D01*
D02*
G37*
%LPC*%
G36*
X1030024Y588197D02*
X1026826D01*
Y585000D01*
X1030024D01*
Y588197D01*
D02*
G37*
G36*
X946826Y588193D02*
Y585000D01*
X950020D01*
X949772Y585927D01*
X949285Y586770D01*
X948597Y587458D01*
X947754Y587945D01*
X946826Y588193D01*
D02*
G37*
G36*
X945826Y588193D02*
X944900Y587945D01*
X944057Y587458D01*
X943369Y586770D01*
X942882Y585927D01*
X942634Y585000D01*
X945826D01*
Y588193D01*
D02*
G37*
G36*
X1025826Y588197D02*
X1022630D01*
Y585000D01*
X1025826D01*
Y588197D01*
D02*
G37*
G36*
X945826Y584000D02*
X942634D01*
X942882Y583073D01*
X943369Y582230D01*
X944057Y581542D01*
X944900Y581055D01*
X945826Y580807D01*
Y584000D01*
D02*
G37*
G36*
X950020D02*
X946826D01*
Y580807D01*
X947754Y581055D01*
X948597Y581542D01*
X949285Y582230D01*
X949772Y583073D01*
X950020Y584000D01*
D02*
G37*
G36*
X1030024D02*
X1026826D01*
Y580803D01*
X1030024D01*
Y584000D01*
D02*
G37*
G36*
X1025826D02*
X1022630D01*
Y580803D01*
X1025826D01*
Y584000D01*
D02*
G37*
G36*
X976761Y587797D02*
X975893D01*
X975054Y587572D01*
X974302Y587138D01*
X973689Y586524D01*
X973255Y585773D01*
X973030Y584934D01*
Y584066D01*
X973255Y583227D01*
X973689Y582476D01*
X974302Y581862D01*
X975054Y581428D01*
X975245Y581377D01*
X975320Y580853D01*
X973425Y578958D01*
X972882Y579122D01*
X972879Y579141D01*
X972681Y579437D01*
X969213Y582905D01*
X969399Y583227D01*
X969624Y584066D01*
Y584934D01*
X969399Y585773D01*
X968965Y586524D01*
X968351Y587138D01*
X967599Y587572D01*
X966761Y587797D01*
X965893D01*
X965054Y587572D01*
X964303Y587138D01*
X963689Y586524D01*
X963255Y585773D01*
X963030Y584934D01*
Y584066D01*
X963255Y583227D01*
X963689Y582476D01*
X964303Y581862D01*
X965054Y581428D01*
X965893Y581203D01*
X966761D01*
X967599Y581428D01*
X967922Y581614D01*
X971123Y578413D01*
Y578198D01*
X970299Y577375D01*
X970102Y577079D01*
X970032Y576729D01*
Y575342D01*
X969532Y575276D01*
X969399Y575772D01*
X968965Y576524D01*
X968351Y577138D01*
X967599Y577572D01*
X966761Y577797D01*
X965893D01*
X965054Y577572D01*
X964303Y577138D01*
X963689Y576524D01*
X963255Y575772D01*
X963030Y574934D01*
Y574066D01*
X963255Y573228D01*
X963689Y572476D01*
X964303Y571862D01*
X965054Y571428D01*
X965893Y571203D01*
X966761D01*
X967599Y571428D01*
X968351Y571862D01*
X968965Y572476D01*
X969399Y573228D01*
X969532Y573724D01*
X970032Y573658D01*
Y572271D01*
X970102Y571921D01*
X970299Y571625D01*
X971123Y570802D01*
Y501098D01*
X971192Y500749D01*
X971390Y500453D01*
X988736Y483107D01*
X989033Y482909D01*
X989382Y482839D01*
X990295D01*
X990373Y482547D01*
X990815Y481782D01*
X991439Y481157D01*
X992205Y480715D01*
X993058Y480487D01*
X993942D01*
X994795Y480715D01*
X995561Y481157D01*
X996185Y481782D01*
X996627Y482547D01*
X996856Y483401D01*
Y484284D01*
X996627Y485138D01*
X996185Y485903D01*
X995561Y486528D01*
X994795Y486970D01*
X993942Y487198D01*
X993058D01*
X992205Y486970D01*
X991439Y486528D01*
X990815Y485903D01*
X990373Y485138D01*
X990246Y484665D01*
X989760D01*
X972948Y501476D01*
Y557297D01*
X973410Y557488D01*
X1046392Y484506D01*
X1046333Y484284D01*
Y483401D01*
X1046562Y482547D01*
X1047004Y481782D01*
X1047628Y481157D01*
X1048394Y480715D01*
X1049247Y480487D01*
X1050131D01*
X1050984Y480715D01*
X1051750Y481157D01*
X1052374Y481782D01*
X1052816Y482547D01*
X1053045Y483401D01*
Y484284D01*
X1052816Y485138D01*
X1052374Y485903D01*
X1051750Y486528D01*
X1050984Y486970D01*
X1050131Y487198D01*
X1049247D01*
X1048394Y486970D01*
X1047628Y486528D01*
X1047290Y486190D01*
X974039Y559441D01*
Y571447D01*
X974422Y571709D01*
X974529Y571731D01*
X975054Y571428D01*
X975893Y571203D01*
X976761D01*
X977599Y571428D01*
X978351Y571862D01*
X978965Y572476D01*
X979399Y573228D01*
X979624Y574066D01*
Y574934D01*
X979399Y575772D01*
X978965Y576524D01*
X978351Y577138D01*
X977599Y577572D01*
X976761Y577797D01*
X975893D01*
X975428Y577672D01*
X975169Y578121D01*
X976972Y579923D01*
X977170Y580220D01*
X977240Y580569D01*
Y581331D01*
X977599Y581428D01*
X978351Y581862D01*
X978965Y582476D01*
X979399Y583227D01*
X979624Y584066D01*
Y584934D01*
X979399Y585773D01*
X978965Y586524D01*
X978351Y587138D01*
X977599Y587572D01*
X976761Y587797D01*
D02*
G37*
G36*
X986761Y577797D02*
X985893D01*
X985054Y577572D01*
X984303Y577138D01*
X983689Y576524D01*
X983255Y575772D01*
X983030Y574934D01*
Y574066D01*
X983255Y573228D01*
X983689Y572476D01*
X984303Y571862D01*
X985054Y571428D01*
X985893Y571203D01*
X986761D01*
X987599Y571428D01*
X988351Y571862D01*
X988965Y572476D01*
X989399Y573228D01*
X989624Y574066D01*
Y574934D01*
X989399Y575772D01*
X988965Y576524D01*
X988351Y577138D01*
X987599Y577572D01*
X986761Y577797D01*
D02*
G37*
G36*
X1053045Y506883D02*
X1046333D01*
Y500172D01*
X1053045D01*
Y506883D01*
D02*
G37*
G36*
X996856D02*
X990144D01*
Y500172D01*
X996856D01*
Y506883D01*
D02*
G37*
G36*
X934423D02*
X927711D01*
Y500172D01*
X934423D01*
Y506883D01*
D02*
G37*
G36*
X817856D02*
X811144D01*
Y500172D01*
X817856D01*
Y506883D01*
D02*
G37*
G36*
X1050189Y497439D02*
Y494185D01*
X1053443D01*
X1053189Y495135D01*
X1052694Y495991D01*
X1051995Y496691D01*
X1051139Y497185D01*
X1050189Y497439D01*
D02*
G37*
G36*
X1049189Y497439D02*
X1048239Y497185D01*
X1047383Y496691D01*
X1046684Y495991D01*
X1046189Y495135D01*
X1045935Y494185D01*
X1049189D01*
Y497439D01*
D02*
G37*
G36*
X874500Y497439D02*
Y494185D01*
X877754D01*
X877500Y495135D01*
X877005Y495991D01*
X876306Y496691D01*
X875450Y497185D01*
X874500Y497439D01*
D02*
G37*
G36*
X873500Y497439D02*
X872550Y497185D01*
X871694Y496691D01*
X870994Y495991D01*
X870500Y495135D01*
X870246Y494185D01*
X873500D01*
Y497439D01*
D02*
G37*
G36*
X994000Y497439D02*
Y494185D01*
X997254D01*
X997000Y495135D01*
X996506Y495991D01*
X995806Y496691D01*
X994950Y497185D01*
X994000Y497439D01*
D02*
G37*
G36*
X815000D02*
Y494185D01*
X818254D01*
X818000Y495135D01*
X817505Y495991D01*
X816806Y496691D01*
X815950Y497185D01*
X815000Y497439D01*
D02*
G37*
G36*
X993000Y497439D02*
X992050Y497185D01*
X991194Y496691D01*
X990495Y495991D01*
X990000Y495135D01*
X989746Y494185D01*
X993000D01*
Y497439D01*
D02*
G37*
G36*
X814000D02*
X813050Y497185D01*
X812194Y496691D01*
X811495Y495991D01*
X811000Y495135D01*
X810746Y494185D01*
X814000D01*
Y497439D01*
D02*
G37*
G36*
X931567Y497439D02*
Y494185D01*
X934821D01*
X934567Y495135D01*
X934072Y495991D01*
X933373Y496691D01*
X932517Y497185D01*
X931567Y497439D01*
D02*
G37*
G36*
X930567Y497439D02*
X929617Y497185D01*
X928761Y496691D01*
X928061Y495991D01*
X927567Y495135D01*
X927312Y494185D01*
X930567D01*
Y497439D01*
D02*
G37*
G36*
X934821Y493185D02*
X931567D01*
Y489931D01*
X932517Y490185D01*
X933373Y490680D01*
X934072Y491379D01*
X934567Y492235D01*
X934821Y493185D01*
D02*
G37*
G36*
X997254Y493185D02*
X994000D01*
Y489931D01*
X994950Y490185D01*
X995806Y490680D01*
X996506Y491379D01*
X997000Y492235D01*
X997254Y493185D01*
D02*
G37*
G36*
X818254D02*
X815000D01*
Y489931D01*
X815950Y490185D01*
X816806Y490680D01*
X817505Y491379D01*
X818000Y492235D01*
X818254Y493185D01*
D02*
G37*
G36*
X1049189Y493185D02*
X1045934D01*
X1046189Y492235D01*
X1046684Y491379D01*
X1047383Y490680D01*
X1048239Y490185D01*
X1049189Y489931D01*
Y493185D01*
D02*
G37*
G36*
X873500Y493185D02*
X870245D01*
X870500Y492235D01*
X870994Y491379D01*
X871694Y490680D01*
X872550Y490185D01*
X873500Y489931D01*
Y493185D01*
D02*
G37*
G36*
X877754D02*
X874500D01*
Y489931D01*
X875450Y490185D01*
X876306Y490680D01*
X877005Y491379D01*
X877500Y492235D01*
X877754Y493185D01*
D02*
G37*
G36*
X1053443Y493185D02*
X1050189D01*
Y489931D01*
X1051139Y490185D01*
X1051995Y490680D01*
X1052694Y491379D01*
X1053189Y492235D01*
X1053443Y493185D01*
D02*
G37*
G36*
X814000Y493185D02*
X810746D01*
X811000Y492235D01*
X811495Y491379D01*
X812194Y490680D01*
X813050Y490185D01*
X814000Y489931D01*
Y493185D01*
D02*
G37*
G36*
X993000D02*
X989746D01*
X990000Y492235D01*
X990495Y491379D01*
X991194Y490680D01*
X992050Y490185D01*
X993000Y489931D01*
Y493185D01*
D02*
G37*
G36*
X930567Y493185D02*
X927312D01*
X927567Y492235D01*
X928061Y491379D01*
X928761Y490680D01*
X929617Y490185D01*
X930567Y489931D01*
Y493185D01*
D02*
G37*
G36*
X956761Y577797D02*
X955893D01*
X955054Y577572D01*
X954303Y577138D01*
X953689Y576524D01*
X953255Y575772D01*
X953030Y574934D01*
Y574066D01*
X953255Y573228D01*
X953689Y572476D01*
X954303Y571862D01*
X955054Y571428D01*
X955410Y571333D01*
Y506168D01*
X934577Y485334D01*
X934055Y485378D01*
X933752Y485903D01*
X933127Y486528D01*
X932362Y486970D01*
X931509Y487198D01*
X930625D01*
X929772Y486970D01*
X929006Y486528D01*
X928382Y485903D01*
X927940Y485138D01*
X927711Y484284D01*
Y483401D01*
X927940Y482547D01*
X928382Y481782D01*
X929006Y481157D01*
X929772Y480715D01*
X930625Y480487D01*
X931509D01*
X932362Y480715D01*
X933127Y481157D01*
X933752Y481782D01*
X934194Y482547D01*
X934423Y483401D01*
Y483434D01*
X934889D01*
X935240Y483503D01*
X935538Y483702D01*
X956975Y505140D01*
X957174Y505437D01*
X957244Y505788D01*
Y571333D01*
X957599Y571428D01*
X958351Y571862D01*
X958965Y572476D01*
X959399Y573228D01*
X959624Y574066D01*
Y574934D01*
X959399Y575772D01*
X958965Y576524D01*
X958351Y577138D01*
X957599Y577572D01*
X956761Y577797D01*
D02*
G37*
%LPD*%
D12*
X1095634Y870634D02*
X1151461Y926461D01*
X1157245D01*
X1160767Y929983D01*
X1163483D01*
X1165000Y931500D01*
X1095634Y653807D02*
Y870634D01*
X991327Y579500D02*
X1001327D01*
X1006327Y574500D01*
X986327Y584500D02*
X991327Y579500D01*
X1317803Y926264D02*
X1322843Y931303D01*
X1251579Y926264D02*
X1317803D01*
X1246342Y931500D02*
X1251579Y926264D01*
X1241303Y926461D02*
X1246342Y931500D01*
X1205199Y926461D02*
X1241303D01*
X1200160Y931500D02*
X1205199Y926461D01*
X1165000Y931500D02*
X1200160D01*
X1026327Y584500D02*
X1095634Y653807D01*
X974500Y430000D02*
X998539Y454039D01*
Y488646D01*
X993500Y493685D02*
X998539Y488646D01*
D15*
X307087Y625000D02*
X350394D01*
X263779D02*
X307087D01*
X220472D02*
X263779D01*
X177165D02*
X220472D01*
X133858D02*
X177165D01*
X90551D02*
X133858D01*
X47244D02*
X90551D01*
X481709Y493685D02*
X814500D01*
X350394Y625000D02*
X481709Y493685D01*
D16*
X989382Y483752D02*
X993437D01*
X806051Y367500D02*
X808551Y370000D01*
X204027Y361500D02*
X210027Y367500D01*
X806051D01*
X1196097Y279173D02*
X1289814D01*
X1105270Y370000D02*
X1196097Y279173D01*
X1077908Y370000D02*
X1105270D01*
X1010000Y407969D02*
X1063000Y460968D01*
Y521758D01*
X1077500Y369592D02*
X1077908Y370000D01*
X1340561Y231912D02*
X1340973Y231500D01*
X1337076Y231912D02*
X1340561D01*
X1289814Y279173D02*
X1337076Y231912D01*
X1049500Y370000D02*
X1049704Y369796D01*
X1049908Y369592D01*
X1020291Y399209D02*
X1049500Y370000D01*
X1049908Y369592D02*
X1077500D01*
X1049296Y369796D02*
X1049500Y370000D01*
X1033500Y354000D02*
X1049296Y369796D01*
X201527Y354000D02*
X1033500D01*
X194027Y361500D02*
X201527Y354000D01*
X1020291Y399209D02*
Y405709D01*
X1020000Y406000D02*
X1020291Y405709D01*
X990678Y386178D02*
X1008178D01*
X974500Y370000D02*
X990678Y386178D01*
X1008178D02*
X1010000Y388000D01*
Y407969D01*
X808551Y370000D02*
X974500D01*
X1206276Y321492D02*
Y716099D01*
X1205185Y312583D02*
Y715648D01*
X1204095Y303673D02*
Y715196D01*
X1138854Y780436D02*
Y888811D01*
Y780436D02*
X1204095Y715196D01*
X1142276Y778557D02*
X1205185Y715648D01*
X1142276Y778557D02*
Y883618D01*
X1161705Y760670D02*
X1206276Y716099D01*
X1161705Y760670D02*
Y814732D01*
X1172039Y825067D01*
Y880461D01*
X1160500Y892000D02*
X1172039Y880461D01*
X1142276Y883618D02*
X1150657Y892000D01*
X1138854Y888811D02*
X1140815Y890771D01*
Y892000D01*
X1226461Y723556D02*
Y860202D01*
X1236500Y870241D01*
X1226461Y723556D02*
X1232295Y717722D01*
X1224000Y889342D02*
X1226657Y892000D01*
X1224000Y353768D02*
Y889342D01*
X1232295Y352063D02*
Y717722D01*
X1224000Y343768D02*
X1232295Y352063D01*
X1073000Y460968D02*
Y521758D01*
X1020291Y408260D02*
X1073000Y460968D01*
X1020291Y406000D02*
Y408260D01*
X1022035Y572722D02*
X1073000Y521758D01*
X1022035Y572722D02*
Y578791D01*
X1016327Y584500D02*
X1022035Y578791D01*
X1012035Y572722D02*
X1063000Y521758D01*
X1012035Y572722D02*
Y578791D01*
X1006327Y584500D02*
X1012035Y578791D01*
X565450Y654405D02*
X573044Y662000D01*
X476181Y654405D02*
X565450D01*
X401087Y729500D02*
X476181Y654405D01*
X573044Y662000D02*
X691458D01*
X872750Y648077D02*
X936327Y584500D01*
X705381Y648077D02*
X872750D01*
X691458Y662000D02*
X705381Y648077D01*
X1256500Y883385D02*
Y891685D01*
Y883385D02*
X1257315Y882570D01*
Y357083D02*
Y882570D01*
X1224000Y323768D02*
X1257315Y357083D01*
X1256185Y892000D02*
X1256500Y891685D01*
X1256224Y365992D02*
Y882118D01*
X1246342Y892000D02*
X1256224Y882118D01*
X1224000Y333768D02*
X1256224Y365992D01*
X1236500Y870241D02*
Y892000D01*
X1207366Y330402D02*
Y854976D01*
Y330402D02*
X1224000Y313768D01*
X1170343Y892000D02*
X1207366Y854976D01*
X1204095Y303673D02*
X1224000Y283768D01*
X1205185Y312583D02*
X1224000Y293768D01*
X1206276Y321492D02*
X1224000Y303768D01*
X973126Y559063D02*
X1049689Y482500D01*
X973126Y559063D02*
Y571632D01*
X950618Y560587D02*
Y578791D01*
X956327Y584500D01*
X872524Y482493D02*
X950618Y560587D01*
X976327Y580569D02*
Y584500D01*
X972035Y572722D02*
Y576277D01*
Y572722D02*
X973126Y571632D01*
X970945Y576729D02*
X972035Y577820D01*
Y576277D02*
X976327Y580569D01*
X970945Y572271D02*
Y576729D01*
Y572271D02*
X972035Y571180D01*
Y501098D02*
Y571180D01*
Y577820D02*
Y578791D01*
X966327Y584500D02*
X972035Y578791D01*
Y501098D02*
X989382Y483752D01*
D28*
X487500Y888000D02*
D03*
X1322843Y931303D02*
D03*
X1256185Y892000D02*
D03*
X1246342Y931500D02*
D03*
X1165000D02*
D03*
X1170343Y892000D02*
D03*
D29*
X477658Y888000D02*
D03*
X467815D02*
D03*
X457972D02*
D03*
X1303158Y931303D02*
D03*
X1313000D02*
D03*
X1226657Y892000D02*
D03*
X1236500D02*
D03*
X1246342D02*
D03*
X1226657Y931500D02*
D03*
X1236500D02*
D03*
X1155157D02*
D03*
X1145315D02*
D03*
X1140815Y892000D02*
D03*
X1150657D02*
D03*
X1160500D02*
D03*
X814500Y474000D02*
D03*
Y483843D02*
D03*
Y493685D02*
D03*
X931067Y474000D02*
D03*
Y483843D02*
D03*
Y493685D02*
D03*
X874000D02*
D03*
Y483843D02*
D03*
Y474000D02*
D03*
X993500D02*
D03*
Y483843D02*
D03*
Y493685D02*
D03*
X1049689Y474000D02*
D03*
Y483843D02*
D03*
Y493685D02*
D03*
D30*
X629724Y627500D02*
D03*
D31*
Y657028D02*
D03*
D32*
X638189Y651713D02*
D03*
Y632815D02*
D03*
X621260Y651713D02*
D03*
Y632815D02*
D03*
D35*
X75000Y818500D02*
D03*
X305462Y888456D02*
D03*
X304500Y817976D02*
D03*
X152500Y885575D02*
D03*
Y817976D02*
D03*
X231000D02*
D03*
Y886433D02*
D03*
X75000Y886000D02*
D03*
D36*
X84842Y818500D02*
D03*
X315305Y888456D02*
D03*
X314342Y817976D02*
D03*
X162343Y885575D02*
D03*
Y817976D02*
D03*
X240843D02*
D03*
Y886433D02*
D03*
X84842Y886000D02*
D03*
D39*
X513000Y732500D02*
D03*
D40*
X523000D02*
D03*
X533000D02*
D03*
D48*
X814500Y503528D02*
D03*
X931067D02*
D03*
X874000D02*
D03*
X993500D02*
D03*
X1049689D02*
D03*
D49*
X1280565Y208473D02*
Y221092D01*
X1280973Y221500D01*
Y231500D01*
Y221500D02*
X1290973Y231500D01*
D50*
X1275500Y776713D02*
D03*
Y790492D02*
D03*
X1124000Y775658D02*
D03*
Y789437D02*
D03*
X423500Y740220D02*
D03*
Y754000D02*
D03*
X361000Y740220D02*
D03*
Y754000D02*
D03*
X675000Y656343D02*
D03*
Y636657D02*
D03*
D51*
X301000Y494390D02*
D03*
Y480610D02*
D03*
D52*
X1470500Y823633D02*
D03*
X1410973Y231500D02*
D03*
X124027Y361500D02*
D03*
D53*
X1460500Y823633D02*
D03*
X1450500D02*
D03*
X1440500D02*
D03*
X1430500D02*
D03*
X1420500D02*
D03*
X1410500D02*
D03*
X1400500D02*
D03*
X1390500D02*
D03*
X1380500D02*
D03*
X1370500D02*
D03*
X1360500D02*
D03*
X1350500D02*
D03*
X1340500D02*
D03*
X1330500D02*
D03*
Y733633D02*
D03*
X1340500D02*
D03*
X1350500D02*
D03*
X1360500D02*
D03*
X1370500D02*
D03*
X1380500D02*
D03*
X1390500D02*
D03*
X1400500D02*
D03*
X1410500D02*
D03*
X1420500D02*
D03*
X1430500D02*
D03*
X1440500D02*
D03*
X1450500D02*
D03*
X1460500D02*
D03*
X1470500D02*
D03*
X1400973Y231500D02*
D03*
X1390973D02*
D03*
X1380973D02*
D03*
X1370973D02*
D03*
X1360973D02*
D03*
X1350973D02*
D03*
X1340973D02*
D03*
X1330973D02*
D03*
X1320973D02*
D03*
X1310973D02*
D03*
X1300973D02*
D03*
X1290973D02*
D03*
X1280973D02*
D03*
X1270973D02*
D03*
Y141500D02*
D03*
X1280973D02*
D03*
X1290973D02*
D03*
X1300973D02*
D03*
X1310973D02*
D03*
X1320973D02*
D03*
X1330973D02*
D03*
X1340973D02*
D03*
X1350973D02*
D03*
X1360973D02*
D03*
X1370973D02*
D03*
X1380973D02*
D03*
X1390973D02*
D03*
X1400973D02*
D03*
X1410973D02*
D03*
X124027Y451500D02*
D03*
X134027D02*
D03*
X144027D02*
D03*
X154027D02*
D03*
X164027D02*
D03*
X174027D02*
D03*
X184027D02*
D03*
X194027D02*
D03*
X204027D02*
D03*
X214027D02*
D03*
X224027D02*
D03*
X234027D02*
D03*
X244027D02*
D03*
X254027D02*
D03*
X264027D02*
D03*
Y361500D02*
D03*
X254027D02*
D03*
X244027D02*
D03*
X234027D02*
D03*
X224027D02*
D03*
X214027D02*
D03*
X204027D02*
D03*
X194027D02*
D03*
X184027D02*
D03*
X174027D02*
D03*
X164027D02*
D03*
X154027D02*
D03*
X144027D02*
D03*
X134027D02*
D03*
D54*
X1362874Y855630D02*
D03*
X1355000D02*
D03*
X1333322Y854559D02*
D03*
X1325448D02*
D03*
X1383000Y855630D02*
D03*
X1390874D02*
D03*
D55*
X1241343Y693000D02*
D03*
Y753000D02*
D03*
X1077500Y369592D02*
D03*
Y429592D02*
D03*
X974500Y370000D02*
D03*
Y430000D02*
D03*
X1194000Y137232D02*
D03*
X1134000D02*
D03*
Y93925D02*
D03*
X1194000D02*
D03*
X1134000Y267154D02*
D03*
X1194000D02*
D03*
X1134000Y180539D02*
D03*
X1194000D02*
D03*
X1134000Y310461D02*
D03*
X1194000D02*
D03*
X1134000Y223847D02*
D03*
X1194000D02*
D03*
Y353768D02*
D03*
X1134000D02*
D03*
Y51500D02*
D03*
X1194000D02*
D03*
X47244Y625000D02*
D03*
Y565000D02*
D03*
X90551Y625000D02*
D03*
Y565000D02*
D03*
X133858D02*
D03*
Y625000D02*
D03*
X177165Y565000D02*
D03*
Y625000D02*
D03*
X220472D02*
D03*
Y565000D02*
D03*
X263779Y625000D02*
D03*
Y565000D02*
D03*
X307087D02*
D03*
Y625000D02*
D03*
X350394Y565000D02*
D03*
Y625000D02*
D03*
X544555Y766500D02*
D03*
Y826500D02*
D03*
X501445Y766500D02*
D03*
Y826500D02*
D03*
X516000Y718500D02*
D03*
Y658500D02*
D03*
X401087Y729500D02*
D03*
Y669500D02*
D03*
X453978D02*
D03*
Y729500D02*
D03*
X614500Y537000D02*
D03*
Y597000D02*
D03*
X653000D02*
D03*
Y537000D02*
D03*
X1157319Y753000D02*
D03*
Y693000D02*
D03*
X1122000Y529500D02*
D03*
Y589500D02*
D03*
X1200000D02*
D03*
Y529500D02*
D03*
X1162500D02*
D03*
Y589500D02*
D03*
X640748Y643770D02*
D03*
X618701Y640295D02*
D03*
X1280565Y208473D02*
D03*
X1250000Y779000D02*
D03*
X1232295Y779181D02*
D03*
X1148500Y779713D02*
D03*
X1165500Y780098D02*
D03*
X463000Y743370D02*
D03*
X445500Y743586D02*
D03*
X401087Y742937D02*
D03*
X383680D02*
D03*
D56*
X1224000Y343768D02*
D03*
Y323768D02*
D03*
Y333768D02*
D03*
Y303768D02*
D03*
Y313768D02*
D03*
Y283768D02*
D03*
Y293768D02*
D03*
X172500Y511000D02*
D03*
X192500D02*
D03*
X182500D02*
D03*
X212500D02*
D03*
X202500D02*
D03*
X232500D02*
D03*
X222500D02*
D03*
X1413000Y893500D02*
D03*
X1423000D02*
D03*
D57*
X1224000Y353768D02*
D03*
D58*
X162500Y511000D02*
D03*
X1403000Y893500D02*
D03*
D59*
X1241343Y843339D02*
D03*
X1251185D02*
D03*
X1231500D02*
D03*
X382815Y818075D02*
D03*
X402500D02*
D03*
X392657D02*
D03*
X378658Y888555D02*
D03*
X398342D02*
D03*
X388500D02*
D03*
X1147315Y843500D02*
D03*
X1167000D02*
D03*
X1157158D02*
D03*
D60*
X817827Y717500D02*
D03*
X1046173D02*
D03*
X817827Y910500D02*
D03*
X1046173D02*
D03*
D61*
X1474000Y690000D02*
D03*
X1460221D02*
D03*
X1349279Y105000D02*
D03*
X1335500D02*
D03*
D62*
X836327Y574500D02*
D03*
Y584500D02*
D03*
X846327Y574500D02*
D03*
Y584500D02*
D03*
X856327Y574500D02*
D03*
Y584500D02*
D03*
X866327Y574500D02*
D03*
Y584500D02*
D03*
X876327Y574500D02*
D03*
Y584500D02*
D03*
X886327Y574500D02*
D03*
Y584500D02*
D03*
X896327Y574500D02*
D03*
Y584500D02*
D03*
X906327Y574500D02*
D03*
Y584500D02*
D03*
X916327Y574500D02*
D03*
Y584500D02*
D03*
X926327Y574500D02*
D03*
Y584500D02*
D03*
X936327Y574500D02*
D03*
Y584500D02*
D03*
X946327Y574500D02*
D03*
Y584500D02*
D03*
X956327Y574500D02*
D03*
Y584500D02*
D03*
X966327Y574500D02*
D03*
Y584500D02*
D03*
X976327Y574500D02*
D03*
Y584500D02*
D03*
X986327Y574500D02*
D03*
Y584500D02*
D03*
X996327Y574500D02*
D03*
Y584500D02*
D03*
X1006327Y574500D02*
D03*
Y584500D02*
D03*
X1016327Y574500D02*
D03*
Y584500D02*
D03*
X1026327Y574500D02*
D03*
D63*
Y584500D02*
D03*
D64*
X1030000Y406000D02*
D03*
X1010000D02*
D03*
X1040000D02*
D03*
X1020000D02*
D03*
D65*
X640748Y643770D02*
X640946D01*
X653000Y631716D01*
Y597000D02*
Y631716D01*
X614500Y597000D02*
Y636095D01*
X618701Y640295D01*
X900338Y528511D02*
X946327Y574500D01*
X845074Y482500D02*
X891085Y528511D01*
X900338D01*
X813468Y482500D02*
X845074D01*
X933429Y484350D02*
X934889D01*
X931579Y482500D02*
X933429Y484350D01*
X934889D02*
X956327Y505788D01*
Y574500D01*
M02*
