M48
;Layer_Color=9474304
;FILE_FORMAT=2:5
INCH,LZ
;TYPE=PLATED
T02F00S00C0.02500
T03F00S00C0.02756
T04F00S00C0.02800
T05F00S00C0.03150
T06F00S00C0.03543
T07F00S00C0.03937
T08F00S00C0.04000
T09F00S00C0.04016
T10F00S00C0.04724
T11F00S00C0.05118
T12F00S00C0.10827
;TYPE=NON_PLATED
T13F00S00C0.02047
T15F00S00C0.12992
%
T02
X1134Y00515
Y0093925
Y0137232
X1194
Y0093925
Y00515
Y0180539
Y0223847
Y0267154
X1134
Y0223847
Y0180539
Y0310461
Y0353768
X1194
Y0310461
X10775Y0369592
Y0429592
X09745Y043
Y037
X0090551Y0565
X0047244
X0133858
X0177165
X0220472
X0263779
X0307087
X0350394
X06145Y0537
X0653
Y0597
X06145
X1122Y05895
X11625
X12
Y05295
X11625
X1122
X1241343Y0693
Y0753
X1157319
Y0693
X0516Y07185
Y06585
X0453978Y06695
Y07295
X0501445Y07665
X0544555
X0401087Y07295
Y06695
X0350394Y0625
X0307087
X0263779
X0220472
X0177165
X0133858
X0090551
X0047244
X0501445Y08265
X0544555
T03
X1325448Y0854559
X1333322
X1355Y085563
X1362874
X1383
X1390874
T04
X1280565Y0208473
X0640748Y064377
X0618701Y0640295
X0463Y074337
X04455Y0743586
X0401087Y0742937
X038368
X11485Y0779713
X11655Y0780098
X1232295Y0779181
X125Y0779
T05
X13355Y0105
X1349279
X0301Y048061
Y049439
X1460221Y069
X1474
X0675Y0656343
Y0636657
X04235Y074022
Y0754
X0361
Y074022
X1124Y0775658
Y0789437
X12755Y0790492
Y0776713
T06
X08145Y0474
Y0483843
Y0493685
Y0503528
X0874
Y0493685
Y0483843
Y0474
X0931067
Y0483843
Y0493685
Y0503528
X09935
Y0493685
Y0483843
Y0474
X1049689
Y0483843
Y0493685
Y0503528
X04025Y0818075
X0392657
X0382815
X0378658Y0888555
X03885
X0398342
X0457972Y0888
X0467815
X0477658
X04875
X1140815Y0892
X1150657
X11605
X1170343
X1167Y08435
X1157158
X1147315
X12315Y0843339
X1241343
X1251185
X1246342Y0892
X12365
X1226657
X1256185
X1246342Y09315
X12365
X1226657
X1303158Y0931303
X1313
X1322843
X1165Y09315
X1155157
X1145315
T07
X0075Y08185
X0084842
Y0886
X0075
X01525Y0885575
X0162343
Y0817976
X01525
X0231
X0240843
Y0886433
X0231
X0305462Y0888456
X0315305
X0314342Y0817976
X03045
T08
X1224Y0283768
Y0293768
Y0303768
Y0313768
Y0323768
Y0333768
Y0343768
Y0353768
X02325Y0511
X02225
X02125
X02025
X01925
X01825
X01725
X01625
X1403Y08935
X1413
X1423
T09
X1390973Y01415
X1400973
X1410973
X1380973
X1370973
X1360973
X1350973
X1340973
X1330973
X1320973
X1310973
X1300973
X1290973
X1280973
X1270973
Y02315
X1280973
X1290973
X1300973
X1310973
X1320973
X1330973
X1340973
X1350973
X1360973
X1370973
X1380973
X1390973
X1400973
X1410973
X0264027Y03615
X0254027
X0244027
X0234027
X0224027
X0214027
X0204027
X0194027
X0184027
X0174027
X0164027
X0154027
X0144027
X0134027
Y04515
X0144027
X0154027
X0164027
X0174027
X0184027
X0194027
X0204027
X0214027
X0224027
X0234027
X0244027
X0254027
X0264027
X0124027
Y03615
X0836327Y05745
Y05845
X0846327
Y05745
X0856327
Y05845
X0866327
Y05745
X0876327
Y05845
X0886327
Y05745
X0896327
Y05845
X0906327
Y05745
X0916327
Y05845
X0926327
Y05745
X0936327
Y05845
X0946327
Y05745
X0956327
Y05845
X0966327
Y05745
X0976327
Y05845
X0986327
Y05745
X0996327
Y05845
X1006327
Y05745
X1016327
Y05845
X1026327
Y05745
X13905Y0733633
X14005
X14105
X14205
X14305
X14405
X14505
X14605
X14705
X13805
X13705
X13605
X13505
X13405
X13305
Y0823633
X13405
X13505
X13605
X13705
X13805
X13905
X14005
X14105
X14205
X14305
X14405
X14505
X14605
X14705
T10
X101Y0406
X102
X103
X104
T11
X0513Y07325
X0523
X0533
T12
X1046173Y07175
X0817827
Y09105
X1046173
T13
X0629724Y06275
T15
X1417323Y0098425
X011811
X0925197Y0413386
X0610236
X011811Y0511811
X1417323
X011811Y0846457
X1417323
M30
