G04*
G04 #@! TF.GenerationSoftware,Altium Limited,Altium Designer,24.1.2 (44)*
G04*
G04 Layer_Color=128*
%FSLAX25Y25*%
%MOIN*%
G70*
G04*
G04 #@! TF.SameCoordinates,7BB0C798-B388-47C6-955D-DBFAA0C4EE40*
G04*
G04*
G04 #@! TF.FilePolarity,Positive*
G04*
G01*
G75*
%ADD67C,0.00200*%
D67*
X1273925Y776713D02*
X1277075D01*
X1275500Y775138D02*
Y778287D01*
X1273925Y790492D02*
X1277075D01*
X1275500Y788917D02*
Y792067D01*
X1122425Y775658D02*
X1125575D01*
X1124000Y774083D02*
Y777232D01*
X1122425Y789437D02*
X1125575D01*
X1124000Y787862D02*
Y791012D01*
X421925Y740220D02*
X425075D01*
X423500Y738646D02*
Y741795D01*
X421925Y754000D02*
X425075D01*
X423500Y752425D02*
Y755575D01*
X359425Y740220D02*
X362575D01*
X361000Y738646D02*
Y741795D01*
X359425Y754000D02*
X362575D01*
X361000Y752425D02*
Y755575D01*
X299425Y494390D02*
X302575D01*
X301000Y492815D02*
Y495965D01*
X299425Y480610D02*
X302575D01*
X301000Y479035D02*
Y482185D01*
X918701Y413386D02*
X931693D01*
X925197Y406890D02*
Y419882D01*
X603740Y413386D02*
X616732D01*
X610236Y406890D02*
Y419882D01*
X1468492Y823633D02*
X1472508D01*
X1470500Y821625D02*
Y825640D01*
X1458492Y823633D02*
X1462508D01*
X1460500Y821625D02*
Y825640D01*
X1448492Y823633D02*
X1452508D01*
X1450500Y821625D02*
Y825640D01*
X1438492Y823633D02*
X1442508D01*
X1440500Y821625D02*
Y825640D01*
X1428492Y823633D02*
X1432508D01*
X1430500Y821625D02*
Y825640D01*
X1418492Y823633D02*
X1422508D01*
X1420500Y821625D02*
Y825640D01*
X1408492Y823633D02*
X1412508D01*
X1410500Y821625D02*
Y825640D01*
X1398492Y823633D02*
X1402508D01*
X1400500Y821625D02*
Y825640D01*
X1388492Y823633D02*
X1392508D01*
X1390500Y821625D02*
Y825640D01*
X1378492Y823633D02*
X1382508D01*
X1380500Y821625D02*
Y825640D01*
X1368492Y823633D02*
X1372508D01*
X1370500Y821625D02*
Y825640D01*
X1358492Y823633D02*
X1362508D01*
X1360500Y821625D02*
Y825640D01*
X1348492Y823633D02*
X1352508D01*
X1350500Y821625D02*
Y825640D01*
X1338492Y823633D02*
X1342508D01*
X1340500Y821625D02*
Y825640D01*
X1328492Y823633D02*
X1332508D01*
X1330500Y821625D02*
Y825640D01*
X1328492Y733633D02*
X1332508D01*
X1330500Y731625D02*
Y735640D01*
X1338492Y733633D02*
X1342508D01*
X1340500Y731625D02*
Y735640D01*
X1348492Y733633D02*
X1352508D01*
X1350500Y731625D02*
Y735640D01*
X1358492Y733633D02*
X1362508D01*
X1360500Y731625D02*
Y735640D01*
X1368492Y733633D02*
X1372508D01*
X1370500Y731625D02*
Y735640D01*
X1378492Y733633D02*
X1382508D01*
X1380500Y731625D02*
Y735640D01*
X1388492Y733633D02*
X1392508D01*
X1390500Y731625D02*
Y735640D01*
X1398492Y733633D02*
X1402508D01*
X1400500Y731625D02*
Y735640D01*
X1408492Y733633D02*
X1412508D01*
X1410500Y731625D02*
Y735640D01*
X1418492Y733633D02*
X1422508D01*
X1420500Y731625D02*
Y735640D01*
X1428492Y733633D02*
X1432508D01*
X1430500Y731625D02*
Y735640D01*
X1438492Y733633D02*
X1442508D01*
X1440500Y731625D02*
Y735640D01*
X1448492Y733633D02*
X1452508D01*
X1450500Y731625D02*
Y735640D01*
X1458492Y733633D02*
X1462508D01*
X1460500Y731625D02*
Y735640D01*
X1468492Y733633D02*
X1472508D01*
X1470500Y731625D02*
Y735640D01*
X1410827Y846457D02*
X1423819D01*
X1417323Y839961D02*
Y852953D01*
X1361496Y855630D02*
X1364252D01*
X1362874Y854252D02*
Y857008D01*
X1353622Y855630D02*
X1356378D01*
X1355000Y854252D02*
Y857008D01*
X1331944Y854559D02*
X1334700D01*
X1333322Y853181D02*
Y855937D01*
X1324070Y854559D02*
X1326826D01*
X1325448Y853181D02*
Y855937D01*
X1410827Y511811D02*
X1423819D01*
X1417323Y505315D02*
Y518307D01*
X1410827Y98425D02*
X1423819D01*
X1417323Y91929D02*
Y104921D01*
X111614Y846457D02*
X124606D01*
X118110Y839961D02*
Y852953D01*
X111614Y511811D02*
X124606D01*
X118110Y505315D02*
Y518307D01*
X111614Y98425D02*
X124606D01*
X118110Y91929D02*
Y104921D01*
X1240092Y693000D02*
X1242593D01*
X1241343Y691750D02*
Y694250D01*
X1240092Y753000D02*
X1242593D01*
X1241343Y751750D02*
Y754250D01*
X485728Y888000D02*
X489272D01*
X487500Y886228D02*
Y889772D01*
X475886Y888000D02*
X479429D01*
X477658Y886228D02*
Y889772D01*
X466043Y888000D02*
X469587D01*
X467815Y886228D02*
Y889772D01*
X456201Y888000D02*
X459744D01*
X457972Y886228D02*
Y889772D01*
X1076250Y369592D02*
X1078750D01*
X1077500Y368342D02*
Y370842D01*
X1076250Y429592D02*
X1078750D01*
X1077500Y428342D02*
Y430842D01*
X628701Y627500D02*
X630748D01*
X629724Y626476D02*
Y628524D01*
X628701Y657028D02*
X630748D01*
X629724Y656004D02*
Y658051D01*
X637008Y651713D02*
X639370D01*
X638189Y650531D02*
Y652894D01*
X637008Y632815D02*
X639370D01*
X638189Y631634D02*
Y633996D01*
X620079Y651713D02*
X622441D01*
X621260Y650531D02*
Y652894D01*
X620079Y632815D02*
X622441D01*
X621260Y631634D02*
Y633996D01*
X1222000Y343768D02*
X1226000D01*
X1224000Y341768D02*
Y345768D01*
X1222000Y353768D02*
X1226000D01*
X1224000Y351768D02*
Y355768D01*
X1222000Y323768D02*
X1226000D01*
X1224000Y321768D02*
Y325768D01*
X1222000Y333768D02*
X1226000D01*
X1224000Y331768D02*
Y335768D01*
X1222000Y303768D02*
X1226000D01*
X1224000Y301768D02*
Y305768D01*
X1222000Y313768D02*
X1226000D01*
X1224000Y311768D02*
Y315768D01*
X1222000Y283768D02*
X1226000D01*
X1224000Y281768D02*
Y285768D01*
X1222000Y293768D02*
X1226000D01*
X1224000Y291768D02*
Y295768D01*
X973250Y370000D02*
X975750D01*
X974500Y368750D02*
Y371250D01*
X973250Y430000D02*
X975750D01*
X974500Y428750D02*
Y431250D01*
X1192750Y137232D02*
X1195250D01*
X1194000Y135982D02*
Y138482D01*
X1132750Y137232D02*
X1135250D01*
X1134000Y135982D02*
Y138482D01*
X1132750Y93925D02*
X1135250D01*
X1134000Y92675D02*
Y95175D01*
X1192750Y93925D02*
X1195250D01*
X1194000Y92675D02*
Y95175D01*
X1132750Y267154D02*
X1135250D01*
X1134000Y265903D02*
Y268404D01*
X1192750Y267154D02*
X1195250D01*
X1194000Y265903D02*
Y268404D01*
X1132750Y180539D02*
X1135250D01*
X1134000Y179289D02*
Y181789D01*
X1192750Y180539D02*
X1195250D01*
X1194000Y179289D02*
Y181789D01*
X1132750Y310461D02*
X1135250D01*
X1134000Y309211D02*
Y311711D01*
X1192750Y310461D02*
X1195250D01*
X1194000Y309211D02*
Y311711D01*
X1132750Y223847D02*
X1135250D01*
X1134000Y222597D02*
Y225097D01*
X1192750Y223847D02*
X1195250D01*
X1194000Y222597D02*
Y225097D01*
X1192750Y353768D02*
X1195250D01*
X1194000Y352518D02*
Y355018D01*
X1132750Y353768D02*
X1135250D01*
X1134000Y352518D02*
Y355018D01*
X1132750Y51500D02*
X1135250D01*
X1134000Y50250D02*
Y52750D01*
X1192750Y51500D02*
X1195250D01*
X1194000Y50250D02*
Y52750D01*
X1408965Y231500D02*
X1412981D01*
X1410973Y229492D02*
Y233508D01*
X1398965Y231500D02*
X1402981D01*
X1400973Y229492D02*
Y233508D01*
X1388965Y231500D02*
X1392981D01*
X1390973Y229492D02*
Y233508D01*
X1378965Y231500D02*
X1382981D01*
X1380973Y229492D02*
Y233508D01*
X1368965Y231500D02*
X1372981D01*
X1370973Y229492D02*
Y233508D01*
X1358965Y231500D02*
X1362981D01*
X1360973Y229492D02*
Y233508D01*
X1348965Y231500D02*
X1352981D01*
X1350973Y229492D02*
Y233508D01*
X1338965Y231500D02*
X1342981D01*
X1340973Y229492D02*
Y233508D01*
X1328965Y231500D02*
X1332981D01*
X1330973Y229492D02*
Y233508D01*
X1318965Y231500D02*
X1322981D01*
X1320973Y229492D02*
Y233508D01*
X1308965Y231500D02*
X1312981D01*
X1310973Y229492D02*
Y233508D01*
X1298965Y231500D02*
X1302981D01*
X1300973Y229492D02*
Y233508D01*
X1288965Y231500D02*
X1292981D01*
X1290973Y229492D02*
Y233508D01*
X1278965Y231500D02*
X1282981D01*
X1280973Y229492D02*
Y233508D01*
X1268965Y231500D02*
X1272981D01*
X1270973Y229492D02*
Y233508D01*
X1268965Y141500D02*
X1272981D01*
X1270973Y139492D02*
Y143508D01*
X1278965Y141500D02*
X1282981D01*
X1280973Y139492D02*
Y143508D01*
X1288965Y141500D02*
X1292981D01*
X1290973Y139492D02*
Y143508D01*
X1298965Y141500D02*
X1302981D01*
X1300973Y139492D02*
Y143508D01*
X1308965Y141500D02*
X1312981D01*
X1310973Y139492D02*
Y143508D01*
X1318965Y141500D02*
X1322981D01*
X1320973Y139492D02*
Y143508D01*
X1328965Y141500D02*
X1332981D01*
X1330973Y139492D02*
Y143508D01*
X1338965Y141500D02*
X1342981D01*
X1340973Y139492D02*
Y143508D01*
X1348965Y141500D02*
X1352981D01*
X1350973Y139492D02*
Y143508D01*
X1358965Y141500D02*
X1362981D01*
X1360973Y139492D02*
Y143508D01*
X1368965Y141500D02*
X1372981D01*
X1370973Y139492D02*
Y143508D01*
X1378965Y141500D02*
X1382981D01*
X1380973Y139492D02*
Y143508D01*
X1388965Y141500D02*
X1392981D01*
X1390973Y139492D02*
Y143508D01*
X1398965Y141500D02*
X1402981D01*
X1400973Y139492D02*
Y143508D01*
X1408965Y141500D02*
X1412981D01*
X1410973Y139492D02*
Y143508D01*
X73032Y818500D02*
X76968D01*
X75000Y816531D02*
Y820469D01*
X82874Y818500D02*
X86811D01*
X84842Y816531D02*
Y820469D01*
X122019Y451500D02*
X126035D01*
X124027Y449492D02*
Y453508D01*
X132019Y451500D02*
X136035D01*
X134027Y449492D02*
Y453508D01*
X142019Y451500D02*
X146035D01*
X144027Y449492D02*
Y453508D01*
X152019Y451500D02*
X156035D01*
X154027Y449492D02*
Y453508D01*
X162019Y451500D02*
X166035D01*
X164027Y449492D02*
Y453508D01*
X172019Y451500D02*
X176035D01*
X174027Y449492D02*
Y453508D01*
X182019Y451500D02*
X186035D01*
X184027Y449492D02*
Y453508D01*
X192019Y451500D02*
X196035D01*
X194027Y449492D02*
Y453508D01*
X202019Y451500D02*
X206035D01*
X204027Y449492D02*
Y453508D01*
X212019Y451500D02*
X216035D01*
X214027Y449492D02*
Y453508D01*
X222019Y451500D02*
X226035D01*
X224027Y449492D02*
Y453508D01*
X232019Y451500D02*
X236035D01*
X234027Y449492D02*
Y453508D01*
X242019Y451500D02*
X246035D01*
X244027Y449492D02*
Y453508D01*
X252019Y451500D02*
X256035D01*
X254027Y449492D02*
Y453508D01*
X262019Y451500D02*
X266035D01*
X264027Y449492D02*
Y453508D01*
X262019Y361500D02*
X266035D01*
X264027Y359492D02*
Y363508D01*
X252019Y361500D02*
X256035D01*
X254027Y359492D02*
Y363508D01*
X242019Y361500D02*
X246035D01*
X244027Y359492D02*
Y363508D01*
X232019Y361500D02*
X236035D01*
X234027Y359492D02*
Y363508D01*
X222019Y361500D02*
X226035D01*
X224027Y359492D02*
Y363508D01*
X212019Y361500D02*
X216035D01*
X214027Y359492D02*
Y363508D01*
X202019Y361500D02*
X206035D01*
X204027Y359492D02*
Y363508D01*
X192019Y361500D02*
X196035D01*
X194027Y359492D02*
Y363508D01*
X182019Y361500D02*
X186035D01*
X184027Y359492D02*
Y363508D01*
X172019Y361500D02*
X176035D01*
X174027Y359492D02*
Y363508D01*
X162019Y361500D02*
X166035D01*
X164027Y359492D02*
Y363508D01*
X152019Y361500D02*
X156035D01*
X154027Y359492D02*
Y363508D01*
X142019Y361500D02*
X146035D01*
X144027Y359492D02*
Y363508D01*
X132019Y361500D02*
X136035D01*
X134027Y359492D02*
Y363508D01*
X122019Y361500D02*
X126035D01*
X124027Y359492D02*
Y363508D01*
X170500Y511000D02*
X174500D01*
X172500Y509000D02*
Y513000D01*
X160500Y511000D02*
X164500D01*
X162500Y509000D02*
Y513000D01*
X190500Y511000D02*
X194500D01*
X192500Y509000D02*
Y513000D01*
X180500Y511000D02*
X184500D01*
X182500Y509000D02*
Y513000D01*
X210500Y511000D02*
X214500D01*
X212500Y509000D02*
Y513000D01*
X200500Y511000D02*
X204500D01*
X202500Y509000D02*
Y513000D01*
X230500Y511000D02*
X234500D01*
X232500Y509000D02*
Y513000D01*
X220500Y511000D02*
X224500D01*
X222500Y509000D02*
Y513000D01*
X45994Y625000D02*
X48494D01*
X47244Y623750D02*
Y626250D01*
X45994Y565000D02*
X48494D01*
X47244Y563750D02*
Y566250D01*
X89301Y625000D02*
X91801D01*
X90551Y623750D02*
Y626250D01*
X89301Y565000D02*
X91801D01*
X90551Y563750D02*
Y566250D01*
X132608Y565000D02*
X135108D01*
X133858Y563750D02*
Y566250D01*
X132608Y625000D02*
X135108D01*
X133858Y623750D02*
Y626250D01*
X175915Y565000D02*
X178415D01*
X177165Y563750D02*
Y566250D01*
X175915Y625000D02*
X178415D01*
X177165Y623750D02*
Y626250D01*
X219222Y625000D02*
X221722D01*
X220472Y623750D02*
Y626250D01*
X219222Y565000D02*
X221722D01*
X220472Y563750D02*
Y566250D01*
X262529Y625000D02*
X265030D01*
X263779Y623750D02*
Y626250D01*
X262529Y565000D02*
X265030D01*
X263779Y563750D02*
Y566250D01*
X305837Y565000D02*
X308337D01*
X307087Y563750D02*
Y566250D01*
X305837Y625000D02*
X308337D01*
X307087Y623750D02*
Y626250D01*
X349144Y565000D02*
X351644D01*
X350394Y563750D02*
Y566250D01*
X349144Y625000D02*
X351644D01*
X350394Y623750D02*
Y626250D01*
X1301386Y931303D02*
X1304929D01*
X1303158Y929531D02*
Y933075D01*
X1311228Y931303D02*
X1314772D01*
X1313000Y929531D02*
Y933075D01*
X1321071Y931303D02*
X1324614D01*
X1322843Y929531D02*
Y933075D01*
X1224886Y892000D02*
X1228429D01*
X1226657Y890228D02*
Y893772D01*
X1234728Y892000D02*
X1238272D01*
X1236500Y890228D02*
Y893772D01*
X1244571Y892000D02*
X1248114D01*
X1246342Y890228D02*
Y893772D01*
X1254413Y892000D02*
X1257957D01*
X1256185Y890228D02*
Y893772D01*
X1239571Y843339D02*
X1243114D01*
X1241343Y841567D02*
Y845110D01*
X1249413Y843339D02*
X1252957D01*
X1251185Y841567D02*
Y845110D01*
X1229728Y843339D02*
X1233272D01*
X1231500Y841567D02*
Y845110D01*
X1224886Y931500D02*
X1228429D01*
X1226657Y929728D02*
Y933272D01*
X1234728Y931500D02*
X1238272D01*
X1236500Y929728D02*
Y933272D01*
X1244571Y931500D02*
X1248114D01*
X1246342Y929728D02*
Y933272D01*
X543305Y766500D02*
X545805D01*
X544555Y765250D02*
Y767750D01*
X543305Y826500D02*
X545805D01*
X544555Y825250D02*
Y827750D01*
X510441Y732500D02*
X515559D01*
X513000Y729941D02*
Y735059D01*
X520441Y732500D02*
X525559D01*
X523000Y729941D02*
Y735059D01*
X530441Y732500D02*
X535559D01*
X533000Y729941D02*
Y735059D01*
X500195Y766500D02*
X502695D01*
X501445Y765250D02*
Y767750D01*
X500195Y826500D02*
X502695D01*
X501445Y825250D02*
Y827750D01*
X514750Y718500D02*
X517250D01*
X516000Y717250D02*
Y719750D01*
X514750Y658500D02*
X517250D01*
X516000Y657250D02*
Y659750D01*
X399837Y729500D02*
X402337D01*
X401087Y728250D02*
Y730750D01*
X399837Y669500D02*
X402337D01*
X401087Y668250D02*
Y670750D01*
X452728Y669500D02*
X455228D01*
X453978Y668250D02*
Y670750D01*
X452728Y729500D02*
X455228D01*
X453978Y728250D02*
Y730750D01*
X381043Y818075D02*
X384587D01*
X382815Y816303D02*
Y819847D01*
X400728Y818075D02*
X404272D01*
X402500Y816303D02*
Y819847D01*
X390886Y818075D02*
X394429D01*
X392657Y816303D02*
Y819847D01*
X376886Y888555D02*
X380429D01*
X378658Y886783D02*
Y890326D01*
X396571Y888555D02*
X400114D01*
X398342Y886783D02*
Y890326D01*
X386728Y888555D02*
X390272D01*
X388500Y886783D02*
Y890326D01*
X303494Y888456D02*
X307431D01*
X305462Y886488D02*
Y890425D01*
X313336Y888456D02*
X317273D01*
X315305Y886488D02*
Y890425D01*
X302532Y817976D02*
X306469D01*
X304500Y816008D02*
Y819945D01*
X312374Y817976D02*
X316311D01*
X314342Y816008D02*
Y819945D01*
X613250Y537000D02*
X615750D01*
X614500Y535750D02*
Y538250D01*
X613250Y597000D02*
X615750D01*
X614500Y595750D02*
Y598250D01*
X812413Y717500D02*
X823240D01*
X817827Y712087D02*
Y722913D01*
X673425Y656343D02*
X676575D01*
X675000Y654768D02*
Y657917D01*
X673425Y636657D02*
X676575D01*
X675000Y635083D02*
Y638232D01*
X651750Y597000D02*
X654250D01*
X653000Y595750D02*
Y598250D01*
X651750Y537000D02*
X654250D01*
X653000Y535750D02*
Y538250D01*
X1040760Y717500D02*
X1051587D01*
X1046173Y712087D02*
Y722913D01*
X1163228Y931500D02*
X1166772D01*
X1165000Y929728D02*
Y933272D01*
X1153386Y931500D02*
X1156929D01*
X1155157Y929728D02*
Y933272D01*
X1143543Y931500D02*
X1147087D01*
X1145315Y929728D02*
Y933272D01*
X1139043Y892000D02*
X1142587D01*
X1140815Y890228D02*
Y893772D01*
X1148886Y892000D02*
X1152429D01*
X1150657Y890228D02*
Y893772D01*
X1158728Y892000D02*
X1162272D01*
X1160500Y890228D02*
Y893772D01*
X1168571Y892000D02*
X1172114D01*
X1170343Y890228D02*
Y893772D01*
X1145543Y843500D02*
X1149087D01*
X1147315Y841728D02*
Y845272D01*
X1165228Y843500D02*
X1168772D01*
X1167000Y841728D02*
Y845272D01*
X1155386Y843500D02*
X1158929D01*
X1157158Y841728D02*
Y845272D01*
X812413Y910500D02*
X823240D01*
X817827Y905087D02*
Y915913D01*
X1040760Y910500D02*
X1051587D01*
X1046173Y905087D02*
Y915913D01*
X1156069Y753000D02*
X1158569D01*
X1157319Y751750D02*
Y754250D01*
X1156069Y693000D02*
X1158569D01*
X1157319Y691750D02*
Y694250D01*
X1381622Y855630D02*
X1384378D01*
X1383000Y854252D02*
Y857008D01*
X1389496Y855630D02*
X1392252D01*
X1390874Y854252D02*
Y857008D01*
X1472425Y690000D02*
X1475575D01*
X1474000Y688425D02*
Y691575D01*
X1458646Y690000D02*
X1461795D01*
X1460221Y688425D02*
Y691575D01*
X1401000Y893500D02*
X1405000D01*
X1403000Y891500D02*
Y895500D01*
X1411000Y893500D02*
X1415000D01*
X1413000Y891500D02*
Y895500D01*
X1421000Y893500D02*
X1425000D01*
X1423000Y891500D02*
Y895500D01*
X150531Y885575D02*
X154469D01*
X152500Y883607D02*
Y887544D01*
X160374Y885575D02*
X164311D01*
X162343Y883607D02*
Y887544D01*
X150531Y817976D02*
X154469D01*
X152500Y816008D02*
Y819945D01*
X160374Y817976D02*
X164311D01*
X162343Y816008D02*
Y819945D01*
X229031Y817976D02*
X232968D01*
X231000Y816008D02*
Y819945D01*
X238874Y817976D02*
X242811D01*
X240843Y816008D02*
Y819945D01*
X229031Y886433D02*
X232968D01*
X231000Y884465D02*
Y888402D01*
X238874Y886433D02*
X242811D01*
X240843Y884465D02*
Y888402D01*
X73032Y886000D02*
X76968D01*
X75000Y884031D02*
Y887969D01*
X82874Y886000D02*
X86811D01*
X84842Y884031D02*
Y887969D01*
X834319Y574500D02*
X838335D01*
X836327Y572492D02*
Y576508D01*
X834319Y584500D02*
X838335D01*
X836327Y582492D02*
Y586508D01*
X844319Y574500D02*
X848335D01*
X846327Y572492D02*
Y576508D01*
X844319Y584500D02*
X848335D01*
X846327Y582492D02*
Y586508D01*
X854319Y574500D02*
X858335D01*
X856327Y572492D02*
Y576508D01*
X854319Y584500D02*
X858335D01*
X856327Y582492D02*
Y586508D01*
X864319Y574500D02*
X868335D01*
X866327Y572492D02*
Y576508D01*
X864319Y584500D02*
X868335D01*
X866327Y582492D02*
Y586508D01*
X874319Y574500D02*
X878335D01*
X876327Y572492D02*
Y576508D01*
X874319Y584500D02*
X878335D01*
X876327Y582492D02*
Y586508D01*
X884319Y574500D02*
X888335D01*
X886327Y572492D02*
Y576508D01*
X884319Y584500D02*
X888335D01*
X886327Y582492D02*
Y586508D01*
X894319Y574500D02*
X898335D01*
X896327Y572492D02*
Y576508D01*
X894319Y584500D02*
X898335D01*
X896327Y582492D02*
Y586508D01*
X904319Y574500D02*
X908335D01*
X906327Y572492D02*
Y576508D01*
X904319Y584500D02*
X908335D01*
X906327Y582492D02*
Y586508D01*
X914319Y574500D02*
X918335D01*
X916327Y572492D02*
Y576508D01*
X914319Y584500D02*
X918335D01*
X916327Y582492D02*
Y586508D01*
X924319Y574500D02*
X928335D01*
X926327Y572492D02*
Y576508D01*
X924319Y584500D02*
X928335D01*
X926327Y582492D02*
Y586508D01*
X934319Y574500D02*
X938335D01*
X936327Y572492D02*
Y576508D01*
X934319Y584500D02*
X938335D01*
X936327Y582492D02*
Y586508D01*
X944319Y574500D02*
X948335D01*
X946327Y572492D02*
Y576508D01*
X944319Y584500D02*
X948335D01*
X946327Y582492D02*
Y586508D01*
X954319Y574500D02*
X958335D01*
X956327Y572492D02*
Y576508D01*
X954319Y584500D02*
X958335D01*
X956327Y582492D02*
Y586508D01*
X964319Y574500D02*
X968335D01*
X966327Y572492D02*
Y576508D01*
X964319Y584500D02*
X968335D01*
X966327Y582492D02*
Y586508D01*
X974319Y574500D02*
X978335D01*
X976327Y572492D02*
Y576508D01*
X974319Y584500D02*
X978335D01*
X976327Y582492D02*
Y586508D01*
X984319Y574500D02*
X988335D01*
X986327Y572492D02*
Y576508D01*
X984319Y584500D02*
X988335D01*
X986327Y582492D02*
Y586508D01*
X994319Y574500D02*
X998335D01*
X996327Y572492D02*
Y576508D01*
X994319Y584500D02*
X998335D01*
X996327Y582492D02*
Y586508D01*
X1004319Y574500D02*
X1008335D01*
X1006327Y572492D02*
Y576508D01*
X1004319Y584500D02*
X1008335D01*
X1006327Y582492D02*
Y586508D01*
X1014319Y574500D02*
X1018335D01*
X1016327Y572492D02*
Y576508D01*
X1014319Y584500D02*
X1018335D01*
X1016327Y582492D02*
Y586508D01*
X1024319Y574500D02*
X1028335D01*
X1026327Y572492D02*
Y576508D01*
X1024319Y584500D02*
X1028335D01*
X1026327Y582492D02*
Y586508D01*
X1120750Y529500D02*
X1123250D01*
X1122000Y528250D02*
Y530750D01*
X1120750Y589500D02*
X1123250D01*
X1122000Y588250D02*
Y590750D01*
X1027638Y406000D02*
X1032362D01*
X1030000Y403638D02*
Y408362D01*
X1007638Y406000D02*
X1012362D01*
X1010000Y403638D02*
Y408362D01*
X1037638Y406000D02*
X1042362D01*
X1040000Y403638D02*
Y408362D01*
X1017638Y406000D02*
X1022362D01*
X1020000Y403638D02*
Y408362D01*
X812728Y474000D02*
X816272D01*
X814500Y472228D02*
Y475772D01*
X812728Y483843D02*
X816272D01*
X814500Y482071D02*
Y485614D01*
X812728Y493685D02*
X816272D01*
X814500Y491913D02*
Y495457D01*
X812728Y503528D02*
X816272D01*
X814500Y501756D02*
Y505299D01*
X929295Y474000D02*
X932839D01*
X931067Y472228D02*
Y475772D01*
X929295Y483843D02*
X932839D01*
X931067Y482071D02*
Y485614D01*
X929295Y493685D02*
X932839D01*
X931067Y491913D02*
Y495457D01*
X929295Y503528D02*
X932839D01*
X931067Y501756D02*
Y505299D01*
X872228Y503528D02*
X875772D01*
X874000Y501756D02*
Y505299D01*
X872228Y493685D02*
X875772D01*
X874000Y491913D02*
Y495457D01*
X872228Y483843D02*
X875772D01*
X874000Y482071D02*
Y485614D01*
X872228Y474000D02*
X875772D01*
X874000Y472228D02*
Y475772D01*
X991728Y474000D02*
X995272D01*
X993500Y472228D02*
Y475772D01*
X991728Y483843D02*
X995272D01*
X993500Y482071D02*
Y485614D01*
X991728Y493685D02*
X995272D01*
X993500Y491913D02*
Y495457D01*
X991728Y503528D02*
X995272D01*
X993500Y501756D02*
Y505299D01*
X1047917Y474000D02*
X1051461D01*
X1049689Y472228D02*
Y475772D01*
X1047917Y483843D02*
X1051461D01*
X1049689Y482071D02*
Y485614D01*
X1047917Y493685D02*
X1051461D01*
X1049689Y491913D02*
Y495457D01*
X1047917Y503528D02*
X1051461D01*
X1049689Y501756D02*
Y505299D01*
X1347705Y105000D02*
X1350854D01*
X1349279Y103425D02*
Y106575D01*
X1333925Y105000D02*
X1337075D01*
X1335500Y103425D02*
Y106575D01*
X1198750Y589500D02*
X1201250D01*
X1200000Y588250D02*
Y590750D01*
X1198750Y529500D02*
X1201250D01*
X1200000Y528250D02*
Y530750D01*
X1161250Y529500D02*
X1163750D01*
X1162500Y528250D02*
Y530750D01*
X1161250Y589500D02*
X1163750D01*
X1162500Y588250D02*
Y590750D01*
X639348Y643770D02*
X642148D01*
X640748Y642370D02*
Y645170D01*
X617301Y640295D02*
X620101D01*
X618701Y638895D02*
Y641695D01*
X1279165Y208473D02*
X1281965D01*
X1280565Y207073D02*
Y209873D01*
X1248600Y779000D02*
X1251400D01*
X1250000Y777600D02*
Y780400D01*
X1230895Y779181D02*
X1233695D01*
X1232295Y777781D02*
Y780581D01*
X1147100Y779713D02*
X1149900D01*
X1148500Y778313D02*
Y781113D01*
X1164100Y780098D02*
X1166900D01*
X1165500Y778698D02*
Y781498D01*
X461600Y743370D02*
X464400D01*
X463000Y741970D02*
Y744770D01*
X444100Y743586D02*
X446900D01*
X445500Y742186D02*
Y744986D01*
X399687Y742937D02*
X402487D01*
X401087Y741537D02*
Y744337D01*
X382280Y742937D02*
X385080D01*
X383680Y741537D02*
Y744337D01*
M02*
