<?xml version="1.0" encoding="UTF-8"?>
<svg id="Calque_1" data-name="Calque 1" xmlns="http://www.w3.org/2000/svg" viewBox="0 0 653.81 279.87">
  <defs>
    <style>
      .cls-1 {
        fill: #050001;
      }
    </style>
  </defs>
  <g>
    <g>
      <polygon class="cls-1" points="0 244.88 0 262.37 0 279.87 17.49 279.87 17.49 262.37 32.8 262.37 32.8 279.87 50.29 279.87 50.29 262.37 50.29 244.88 0 244.88"/>
      <rect class="cls-1" x="85.27" y="244.88" width="17.49" height="17.49"/>
      <polygon class="cls-1" points="67.78 244.88 50.29 262.37 85.27 262.37 67.78 244.88 67.78 244.88"/>
      <polygon class="cls-1" points="102.76 262.37 137.43 262.37 120.1 245.04 102.76 262.37"/>
      <path class="cls-1" d="M209.9,227.39h-34.98l-17.49,17.49h-19.99v17.49h19.99l17.49,17.49h34.98l17.49-17.49v-17.49l-17.49-17.49ZM174.92,262.37v-17.49h34.98v17.49h-34.98Z"/>
    </g>
    <g>
      <polyline class="cls-1" points="102.76 52.47 120.25 34.98 137.75 34.98 155.24 52.47 155.24 87.46 155.24 104.95 172.73 87.46 172.73 52.47 155.24 34.98 172.73 17.49 172.73 0 155.24 17.49 32.8 17.49 15.31 0 15.31 17.49 32.8 34.98 15.31 52.47 15.31 87.46 32.8 104.95 32.8 87.46 32.8 52.47 50.29 34.98 65.59 34.98 83.09 52.47 102.76 52.47"/>
      <polygon class="cls-1" points="102.76 104.95 102.76 87.46 85.27 87.46 85.27 104.95 102.76 122.44 102.76 104.95"/>
      <circle class="cls-1" cx="59.03" cy="74.34" r="15.31"/>
      <circle class="cls-1" cx="129" cy="74.34" r="15.31" transform="translate(-13.63 31.63) rotate(-13.28)"/>
      <polygon class="cls-1" points="15.31 139.93 15.31 209.9 32.8 227.39 32.8 227.39 50.29 227.39 67.78 244.88 67.78 227.39 50.29 209.9 50.29 157.42 67.78 139.93 50.29 139.93 50.29 122.44 32.8 104.95 32.8 122.44 15.31 139.93"/>
      <polygon class="cls-1" points="172.73 139.93 172.73 209.9 155.24 227.39 155.24 227.39 137.75 227.39 120.25 244.88 120.25 227.39 137.75 209.9 137.75 157.42 120.25 139.93 137.75 139.93 137.75 122.44 155.24 104.95 155.24 122.44 172.73 139.93"/>
      <polygon class="cls-1" points="67.78 174.92 85.27 157.42 67.78 157.42 67.78 174.92"/>
      <polygon class="cls-1" points="102.76 157.42 120.25 174.92 120.25 157.42 102.76 157.42"/>
    </g>
  </g>
  <g>
    <g>
      <polygon class="cls-1" points="224.94 52.49 216.92 52.69 209.94 61.13 209.94 118.27 216.92 126.3 253.38 126.3 253.38 111.07 224.94 111.07 224.94 52.49"/>
      <path class="cls-1" d="M266.72,126.3h14.99v-30.22h12.98v30.22h15.47V61.02l-8.37-8.37h-28.09l-6.98,7.88v65.77ZM281.71,81.57v-14.51h12.98v14.51h-12.98Z"/>
      <path class="cls-1" d="M404.34,209.78h14.99v-30.22h12.98v30.22h15.47v-65.28l-8.37-8.37h-28.09l-6.98,7.88v65.77ZM419.34,165.04v-14.51h12.98v14.51h-12.98Z"/>
      <polygon class="cls-1" points="354.55 126.3 381.69 126.3 390.06 118.27 390.06 111.78 363.03 111.78 363.03 67.41 376.13 67.41 376.13 77.91 391.01 77.91 391.01 61.13 384.03 52.65 354.58 52.65 347.57 60.92 347.57 118.27 354.55 126.3"/>
      <polygon class="cls-1" points="419.34 52.49 411.32 52.69 404.34 61.13 404.34 118.27 411.32 126.3 447.78 126.3 447.78 111.07 419.34 111.07 419.34 52.49"/>
      <polygon class="cls-1" points="468.55 52.64 468.09 52.66 461.11 61.13 461.11 118.27 468.09 126.3 497.58 126.3 504.55 118.27 504.55 111.07 476.11 111.07 476.11 95.77 504.55 95.77 504.55 81.25 476.11 81.25 476.11 67.05 504.55 67.05 504.55 52.52 475.21 52.61 468.55 52.64"/>
      <path class="cls-1" d="M209.94,136.47v73.66h33.67l9.77-8.44v-57.4l-9.77-7.82h-33.67ZM236.74,193.99l-.76.91h-11.04v-43.9h10.84l.96,1.44v41.55Z"/>
      <polygon class="cls-1" points="294.69 195.61 281.71 195.61 281.71 136.47 266.72 136.47 266.72 201.76 275.09 210.13 303.18 210.13 310.16 202.01 310.16 136.47 294.69 136.47 294.69 195.61"/>
      <polygon class="cls-1" points="347.57 172.62 375.54 188.79 375.54 195.25 362.56 195.25 362.56 184.75 347.57 184.75 347.57 201.69 354.55 210.14 383.8 210 390.77 201.69 390.77 176.7 363.03 160.65 363.03 151.23 376.13 151.23 376.13 161.74 391.01 161.74 391.01 144.29 384.03 136.47 354.55 136.47 347.57 144.29 347.57 172.62"/>
      <polygon class="cls-1" points="480.82 188.29 473.22 136.47 462.67 136.47 457.08 144.29 468.8 210.13 493.2 210.13 505.02 144.38 499.47 136.47 488.31 136.47 480.82 188.29"/>
      <path class="cls-1" d="M521.21,210.13h29.49l6.98-8.44v-57.4l-6.98-7.82h-29.49l-6.98,7.82v57.4l6.98,8.44ZM542.2,151v43.9h-12.98v-43.9h12.98Z"/>
      <polygon class="cls-1" points="590.95 151.11 598.98 151.11 598.98 144.29 592 136.47 574.32 136.47 567.34 144.29 567.34 151.11 575.96 151.11 575.96 195.37 568.05 195.37 568.05 201.69 575.03 210.13 592.59 210.13 599.57 201.69 599.57 195.37 590.95 195.37 590.95 151.11"/>
      <path class="cls-1" d="M651.42,210.13l2.39-8.44-11.82-21.77h8.34v-35.62l-6.98-7.82h-27.13l-6.98,7.82v65.84h15.12l-.11-28.32,15.49,28.32h11.67ZM634.86,150.88v14.51h-10.62v-14.51h10.62Z"/>
    </g>
    <polygon class="cls-1" points="504.68 47.08 468.05 47.08 468.05 40.64 468.05 36.71 504.68 36.71 504.68 47.08"/>
  </g>
</svg>