<?xml version="1.0" encoding="UTF-8"?>
<svg id="Calque_1" data-name="Calque 1" xmlns="http://www.w3.org/2000/svg" viewBox="0 0 617.13 264.17">
  <defs>
    <style>
      .cls-1 {
        fill: #cbd876;
      }

      .cls-2 {
        fill: #43472b;
      }
    </style>
  </defs>
  <g>
    <g>
      <polygon class="cls-1" points="0 231.15 0 247.66 0 264.17 16.51 264.17 16.51 247.66 30.96 247.66 30.96 264.17 47.47 264.17 47.47 247.66 47.47 231.15 0 231.15"/>
      <rect class="cls-1" x="80.49" y="231.15" width="16.51" height="16.51"/>
      <polygon class="cls-1" points="63.98 231.15 47.47 247.66 80.49 247.66 63.98 231.15 63.98 231.15"/>
      <polygon class="cls-1" points="97 247.66 129.72 247.66 113.36 231.29 97 247.66"/>
      <path class="cls-1" d="M198.13,214.64h-33.02l-16.51,16.51h-18.87v16.51h18.87l16.51,16.51h33.02l16.51-16.51v-16.51l-16.51-16.51ZM165.1,247.66v-16.51h33.02v16.51h-33.02Z"/>
    </g>
    <g>
      <polyline class="cls-2" points="97 49.53 113.51 33.02 130.02 33.02 146.53 49.53 146.53 82.55 146.53 99.06 163.04 82.55 163.04 49.53 146.53 33.02 163.04 16.51 163.04 0 146.53 16.51 30.96 16.51 14.45 0 14.45 16.51 30.96 33.02 14.45 49.53 14.45 82.55 30.96 99.06 30.96 82.55 30.96 49.53 47.47 33.02 61.91 33.02 78.42 49.53 97 49.53"/>
      <polygon class="cls-2" points="97 99.06 97 82.55 80.49 82.55 80.49 99.06 97 115.57 97 99.06"/>
      <circle class="cls-2" cx="55.72" cy="70.17" r="14.45"/>
      <circle class="cls-2" cx="121.76" cy="70.17" r="14.45" transform="translate(-12.86 29.85) rotate(-13.28)"/>
      <polygon class="cls-2" points="14.45 132.08 14.45 198.13 30.96 214.64 30.96 214.64 47.47 214.64 63.98 231.15 63.98 214.64 47.47 198.13 47.47 148.59 63.98 132.08 47.47 132.08 47.47 115.57 30.96 99.06 30.96 115.57 14.45 132.08"/>
      <polygon class="cls-2" points="163.04 132.08 163.04 198.13 146.53 214.64 146.53 214.64 130.02 214.64 113.51 231.15 113.51 214.64 130.02 198.13 130.02 148.59 113.51 132.08 130.02 132.08 130.02 115.57 146.53 99.06 146.53 115.57 163.04 132.08"/>
      <polygon class="cls-2" points="63.98 165.1 80.49 148.59 63.98 148.59 63.98 165.1"/>
      <polygon class="cls-2" points="97 148.59 113.51 165.1 113.51 148.59 97 148.59"/>
    </g>
  </g>
  <g>
    <g>
      <polygon class="cls-2" points="212.32 49.55 204.75 49.73 198.17 57.7 198.17 111.64 204.75 119.22 239.17 119.22 239.17 104.84 212.32 104.84 212.32 49.55"/>
      <path class="cls-2" d="M251.76,119.22h14.15v-28.52h12.25v28.52h14.6v-61.62l-7.9-7.9h-26.52l-6.59,7.44v62.08ZM265.91,76.99v-13.7h12.25v13.7h-12.25Z"/>
      <path class="cls-2" d="M381.66,198.01h14.15v-28.52h12.25v28.52h14.6v-61.62l-7.9-7.9h-26.52l-6.59,7.44v62.08ZM395.81,155.78v-13.7h12.25v13.7h-12.25Z"/>
      <polygon class="cls-2" points="334.66 119.22 360.28 119.22 368.18 111.64 368.18 105.51 342.67 105.51 342.67 63.63 355.03 63.63 355.03 73.54 369.07 73.54 369.07 57.7 362.49 49.7 334.69 49.7 328.07 57.5 328.07 111.64 334.66 119.22"/>
      <polygon class="cls-2" points="395.81 49.55 388.25 49.73 381.66 57.7 381.66 111.64 388.25 119.22 422.66 119.22 422.66 104.84 395.81 104.84 395.81 49.55"/>
      <polygon class="cls-2" points="442.27 49.69 441.83 49.7 435.25 57.7 435.25 111.64 441.83 119.22 469.67 119.22 476.25 111.64 476.25 104.84 449.4 104.84 449.4 90.4 476.25 90.4 476.25 76.69 449.4 76.69 449.4 63.29 476.25 63.29 476.25 49.57 448.55 49.66 442.27 49.69"/>
      <path class="cls-2" d="M198.17,128.82v69.52h31.78l9.22-7.97v-54.18l-9.22-7.38h-31.78ZM223.46,183.11l-.72.86h-10.42v-41.44h10.23l.91,1.36v39.22Z"/>
      <polygon class="cls-2" points="278.16 184.64 265.91 184.64 265.91 128.82 251.76 128.82 251.76 190.44 259.66 198.35 286.17 198.35 292.76 190.68 292.76 128.82 278.16 128.82 278.16 184.64"/>
      <polygon class="cls-2" points="328.07 162.94 354.48 178.2 354.48 184.3 342.22 184.3 342.22 174.39 328.07 174.39 328.07 190.37 334.66 198.35 362.27 198.22 368.85 190.37 368.85 166.79 342.67 151.64 342.67 142.75 355.03 142.75 355.03 152.66 369.07 152.66 369.07 136.2 362.49 128.82 334.66 128.82 328.07 136.2 328.07 162.94"/>
      <polygon class="cls-2" points="453.85 177.73 446.68 128.82 436.72 128.82 431.44 136.2 442.51 198.34 465.54 198.34 476.69 136.28 471.45 128.82 460.92 128.82 453.85 177.73"/>
      <path class="cls-2" d="M491.97,198.34h27.83l6.59-7.97v-54.18l-6.59-7.38h-27.83l-6.59,7.38v54.18l6.59,7.97ZM511.79,142.53v41.44h-12.25v-41.44h12.25Z"/>
      <polygon class="cls-2" points="557.8 142.64 565.38 142.64 565.38 136.2 558.79 128.82 542.1 128.82 535.52 136.2 535.52 142.64 543.65 142.64 543.65 184.41 536.19 184.41 536.19 190.37 542.77 198.34 559.35 198.34 565.94 190.37 565.94 184.41 557.8 184.41 557.8 142.64"/>
      <path class="cls-2" d="M614.88,198.34l2.26-7.97-11.16-20.55h7.87v-33.62l-6.59-7.38h-25.6l-6.59,7.38v62.15h14.28l-.11-26.73,14.62,26.73h11.02ZM599.25,142.41v13.7h-10.02v-13.7h10.02Z"/>
    </g>
    <polygon class="cls-2" points="476.37 44.44 441.8 44.44 441.8 38.36 441.8 34.65 476.37 34.65 476.37 44.44"/>
  </g>
</svg>