<?xml version="1.0" encoding="UTF-8"?>
<svg id="Calque_1" data-name="Calque 1" xmlns="http://www.w3.org/2000/svg" viewBox="0 0 718.24 306.54">
  <defs>
    <style>
      .cls-1 {
        fill: #fff;
      }
    </style>
  </defs>
  <g>
    <g>
      <polygon class="cls-1" points="36.07 306.54 36.07 287.3 18.51 287.3 18.51 306.54 0 306.54 0 268.79 54.58 268.79 54.58 306.54 36.07 306.54"/>
      <rect class="cls-1" x="93.77" y="268.79" width="18.51" height="18.52"/>
      <polygon class="cls-1" points="55.81 287.3 74.18 268.94 92.54 287.3 55.81 287.3"/>
      <polygon class="cls-1" points="113.52 287.3 131.71 269.11 149.91 287.3 113.52 287.3"/>
      <path class="cls-1" d="M192.14,306.54l-19.24-19.24h-21.77v-18.52h21.77l19.24-19.24h38.17l19.02,19.02v18.94l-19.02,19.02h-38.17ZM191.63,288.02h39.19v-19.96h-39.19v19.96Z"/>
    </g>
    <g>
      <path class="cls-1" d="M131.73,37.24h19.53l.11.11,19.24,19.24.11.11v56.99l18.51-18.52v-38.17l-19.13-19.13-.25-.25.25-.25,19.13-19.13V0l-18.62,18.62-.11.11H35.56l-.11-.11L16.83,0v18.22l19.13,19.13.25.25-.25.25-19.13,19.13v38.17l18.51,18.52v-56.99l.11-.11,19.24-19.24.11-.11h17.13l.11.11,19.13,19.13h21.34l19.13-19.13.11-.11Z"/>
      <polygon class="cls-1" points="93.77 114.39 93.77 95.67 112.29 95.67 112.29 132.91 93.77 114.39"/>
      <path class="cls-1" d="M64.56,97.35c-9.08,0-16.47-7.39-16.47-16.47s7.39-16.47,16.47-16.47,16.47,7.39,16.47,16.47-7.39,16.47-16.47,16.47Z"/>
      <path class="cls-1" d="M141.5,97.35c-9.08,0-16.47-7.39-16.47-16.47s7.39-16.47,16.47-16.47,16.47,7.39,16.47,16.47-7.39,16.47-16.47,16.47Z"/>
      <polygon class="cls-1" points="55.09 248.83 35.86 248.83 16.83 229.81 16.83 153.16 36.07 133.93 36.07 115.41 54.58 133.93 54.58 153.37 73.31 153.37 54.58 172.1 54.58 230.1 73.82 249.34 73.82 267.56 55.09 248.83"/>
      <polygon class="cls-1" points="132.24 249.34 151.48 230.1 151.48 172.1 132.75 153.37 151.48 153.37 151.48 133.93 169.99 115.41 169.99 133.93 189.23 153.16 189.23 229.81 170.2 248.83 150.97 248.83 132.24 267.56 132.24 249.34"/>
      <polygon class="cls-1" points="74.54 172.61 92.54 172.61 74.54 190.62 74.54 172.61"/>
      <polygon class="cls-1" points="113.52 172.61 131.52 172.61 131.52 190.62 113.52 172.61"/>
    </g>
  </g>
  <g>
    <g>
      <polygon class="cls-1" points="238.35 137.67 230.87 129.06 230.87 66.49 238.36 57.43 246.64 57.22 246.64 121.64 277.92 121.64 277.92 137.67 238.35 137.67"/>
      <path class="cls-1" d="M324.07,137.67v-33.23h-14.99v33.23h-15.77v-71.83l7.47-8.45h30.58l9,9v71.28h-16.29ZM309.07,89.19h14.99v-16.68h-14.99v16.68Z"/>
      <path class="cls-1" d="M444.29,229.82h16.49v-33.23h14.27v33.23h17.01v-71.79l-9.21-9.21h-30.89l-7.67,8.67v72.33ZM460.78,180.62v-15.96h14.27v15.96h-14.27Z"/>
      <polygon class="cls-1" points="389.69 137.67 382.22 129.06 382.22 66.25 389.74 57.39 421.79 57.39 429.27 66.49 429.27 84.45 413.63 84.45 413.63 72.9 398.5 72.9 398.5 122.42 428.23 122.42 428.23 129.04 419.24 137.67 389.69 137.67"/>
      <polygon class="cls-1" points="452.13 137.67 444.65 129.06 444.65 66.49 452.13 57.43 460.42 57.22 460.42 121.64 491.7 121.64 491.7 137.67 452.13 137.67"/>
      <polygon class="cls-1" points="514.56 137.67 507.08 129.06 507.08 66.49 514.57 57.39 514.92 57.38 522.22 57.35 554.13 57.25 554.13 72.51 522.85 72.51 522.85 88.84 554.13 88.84 554.13 104.09 522.85 104.09 522.85 121.64 554.13 121.64 554.13 129.06 546.66 137.67 514.56 137.67"/>
      <path class="cls-1" d="M230.87,229.85v-80.28h36.54l10.51,8.41v62.78l-10.51,9.09h-36.53ZM246.64,213.82h12.67l1.03-1.23v-45.93l-1.22-1.83h-12.47v49Z"/>
      <polygon class="cls-1" points="302.3 229.85 293.31 220.85 293.31 149.57 309.07 149.57 309.07 214.6 324.07 214.6 324.07 149.57 340.36 149.57 340.36 221.14 332.88 229.85 302.3 229.85"/>
      <polygon class="cls-1" points="382.22 220.79 382.22 202.66 397.99 202.66 397.99 214.21 412.98 214.21 412.98 206.53 382.22 188.75 382.22 157.94 389.69 149.57 421.79 149.57 429.27 157.94 429.27 176.63 413.63 176.63 413.63 165.08 398.5 165.08 398.5 176 429.01 193.65 429.01 220.79 421.53 229.71 389.7 229.86 382.22 220.79"/>
      <polygon class="cls-1" points="528.39 206.19 520.04 149.21 508.43 149.21 502.29 157.81 515.18 230.21 542.01 230.21 555.01 157.9 548.9 149.21 536.63 149.21 528.39 206.19"/>
      <path class="cls-1" d="M572.97,229.85l-7.48-9.05v-62.85l7.47-8.37h32.1l7.47,8.37v62.85l-7.48,9.05h-32.09ZM581.26,213.82h14.99v-49h-14.99v49Z"/>
      <polygon class="cls-1" points="632.16 229.85 624.68 220.79 624.68 214.34 633.38 214.34 633.38 164.95 623.9 164.95 623.9 157.94 631.37 149.57 650.5 149.57 657.97 157.94 657.97 164.95 649.14 164.95 649.14 214.34 658.62 214.34 658.62 220.79 651.14 229.85 632.16 229.85"/>
      <path class="cls-1" d="M703.37,229.85l-16.93-30.95-.68.17.12,30.78h-15.91v-71.9l7.47-8.37h29.51l7.47,8.37v38.68h-9.41l13.22,24.35-2.52,8.88h-12.35ZM685.75,181.37h12.4v-16.68h-12.4v16.68Z"/>
    </g>
    <rect class="cls-1" x="514.71" y="39.86" width="39.56" height="10.69"/>
  </g>
</svg>